<?xml version="1.0" encoding="UTF-8"?>
<svg id="b" data-name="Layer 2" xmlns="http://www.w3.org/2000/svg" viewBox="0 0 42.6 8.35">
  <g id="c" data-name="Layer 1">
    <g>
      <path d="m15.83,1.68c-.17,0-.32-.04-.45-.11s-.24-.18-.31-.3-.12-.27-.12-.43.04-.3.11-.42c.08-.13.18-.22.31-.3.13-.07.28-.11.45-.11s.31.04.45.11c.13.07.24.17.31.3.08.13.12.27.12.42s-.04.3-.12.43c-.08.13-.18.23-.31.3-.13.07-.28.11-.45.11Zm0-.46c.07,0,.13-.02.19-.05.05-.03.1-.08.13-.13.03-.06.04-.12.04-.2s-.02-.14-.05-.19c-.03-.06-.07-.1-.13-.13-.05-.03-.12-.05-.19-.05s-.13.02-.19.05c-.05.03-.1.08-.13.13-.03.06-.05.12-.05.19,0,.07.02.14.05.2.03.06.07.1.13.13.05.03.12.05.19.05Z" fill="#ffad00" stroke-width="0"/>
      <g>
        <path d="m2.18,8.35c-.45,0-.86-.08-1.24-.23-.37-.15-.69-.38-.94-.67l.94-.93c.12.17.29.31.51.41.23.1.46.16.71.16.22,0,.41-.04.58-.12.17-.08.3-.19.39-.33.1-.14.15-.32.15-.52s-.05-.38-.15-.52c-.1-.14-.24-.25-.42-.33s-.39-.11-.64-.11c-.12,0-.24,0-.37.02s-.24.04-.32.07l.64-.81c.18-.05.34-.09.49-.12s.3-.05.43-.05c.33,0,.63.08.89.23.27.16.48.38.63.66.15.28.23.62.23,1,0,.43-.1.81-.31,1.14-.21.33-.5.58-.88.77s-.82.28-1.33.28ZM.4,3v-1.23h4.18v.81l-1.14.42H.4Zm.98,2.24v-.82l1.58-1.83h1.62s-1.63,1.84-1.63,1.84l-1.57.81Z" fill="#2c2c2c" stroke-width="0"/>
        <path d="m7.61,8.35c-.46,0-.87-.1-1.23-.3-.36-.2-.65-.47-.86-.82-.21-.34-.32-.72-.32-1.14,0-.55.19-1.1.58-1.66l1.82-2.65h1.63l-2.03,2.82-.54.05c.09-.15.18-.28.27-.39.09-.11.22-.19.36-.25.15-.06.34-.09.57-.09.4,0,.76.09,1.08.28.32.19.58.44.77.76.19.32.29.69.29,1.1s-.11.8-.32,1.15-.5.62-.86.82c-.36.21-.77.31-1.22.31Zm0-1.26c.2,0,.37-.04.52-.13.15-.09.27-.21.35-.37.09-.16.13-.34.13-.53s-.04-.38-.13-.54c-.09-.16-.2-.28-.35-.36-.15-.09-.32-.13-.52-.13-.18,0-.35.04-.5.13-.15.09-.27.21-.36.36s-.13.33-.13.53.04.37.13.53c.09.16.2.28.36.37.15.09.32.13.5.13Z" fill="#2c2c2c" stroke-width="0"/>
        <path d="m13.3,8.35c-.53,0-1-.14-1.42-.42-.42-.28-.75-.67-.99-1.18-.24-.5-.37-1.09-.37-1.75s.12-1.25.36-1.75.57-.89.98-1.16c.42-.28.89-.41,1.41-.41s1,.14,1.42.41c.42.27.74.66.98,1.16.24.5.36,1.09.36,1.76s-.12,1.25-.36,1.75c-.24.5-.57.89-.98,1.17-.41.28-.88.42-1.41.42Zm0-1.27c.27,0,.5-.08.69-.24s.34-.39.45-.7.17-.68.17-1.14-.06-.82-.17-1.13c-.11-.3-.26-.54-.46-.69-.2-.16-.43-.23-.7-.23s-.49.08-.69.23c-.2.16-.35.39-.45.69-.1.31-.16.68-.16,1.13s.05.83.16,1.14c.1.31.25.54.45.7.2.16.43.24.7.24Z" fill="#2c2c2c" stroke-width="0"/>
        <path d="m18.85,8.34c-.49,0-.92-.09-1.27-.28-.35-.18-.67-.45-.94-.8l.59-.59c.2.28.43.49.7.64s.59.21.97.21.68-.08.91-.25.34-.39.34-.68c0-.24-.06-.43-.17-.58-.11-.15-.26-.27-.44-.36-.18-.09-.39-.18-.6-.25s-.44-.15-.66-.24-.42-.2-.61-.33c-.19-.13-.33-.31-.44-.52-.11-.21-.17-.48-.17-.81,0-.36.09-.67.26-.92.17-.25.41-.45.71-.59.3-.14.64-.21,1.02-.21.42,0,.79.08,1.12.24.33.16.6.37.81.64l-.59.59c-.19-.22-.39-.38-.61-.5s-.47-.17-.75-.17c-.34,0-.61.08-.82.22s-.3.36-.3.63c0,.21.06.39.17.52.11.13.26.24.44.33.18.09.39.18.61.25.22.08.44.16.66.25.22.09.42.21.6.35.18.14.33.32.44.54.11.22.17.5.17.84,0,.56-.19,1-.58,1.32-.39.32-.92.48-1.58.48Z" fill="#ffad00" stroke-width="0"/>
        <path d="m23.91,8.34c-.43,0-.81-.1-1.16-.3-.35-.2-.62-.47-.82-.82-.2-.34-.3-.73-.3-1.15s.1-.81.3-1.15c.2-.34.47-.61.82-.81.35-.2.73-.3,1.16-.3.34,0,.65.06.93.19.29.12.53.31.74.54l-.55.55c-.13-.16-.3-.28-.49-.36-.2-.08-.41-.12-.63-.12-.27,0-.52.06-.73.19-.21.12-.38.3-.5.52-.12.22-.18.47-.18.76s.06.54.18.76c.12.22.29.39.5.52.21.13.46.19.73.19.23,0,.44-.04.64-.12.19-.08.36-.2.5-.36l.54.55c-.2.23-.45.41-.74.54-.29.13-.6.19-.94.19Z" fill="#ffad00" stroke-width="0"/>
        <path d="m26.4,8.25V1.7h.82v6.54h-.82Zm3.07,0v-2.54c0-.33-.1-.6-.31-.82-.21-.21-.47-.32-.8-.32-.22,0-.42.05-.59.15-.17.1-.31.23-.4.4-.1.17-.15.37-.15.59l-.34-.19c0-.33.07-.62.22-.88.15-.26.35-.46.61-.61s.56-.22.89-.22.62.07.88.22c.25.15.45.35.6.61.15.26.22.57.22.91v2.7h-.83Z" fill="#ffad00" stroke-width="0"/>
        <path d="m33.4,8.34c-.42,0-.8-.1-1.15-.3-.34-.2-.61-.47-.82-.82-.2-.34-.3-.73-.3-1.16s.1-.8.3-1.14.47-.61.82-.81c.34-.2.72-.3,1.15-.3s.81.1,1.16.3c.35.2.62.47.82.81.2.34.3.72.3,1.14s-.1.81-.3,1.16c-.2.35-.48.62-.82.82-.35.2-.73.3-1.16.3Zm0-.8c.28,0,.53-.06.74-.19.21-.13.38-.3.5-.53s.18-.48.18-.77-.06-.53-.19-.75c-.13-.22-.29-.39-.5-.52-.21-.12-.46-.19-.74-.19s-.51.06-.72.19c-.21.12-.38.3-.5.52-.12.22-.18.47-.18.75s.06.54.18.77c.12.22.29.4.5.53.21.13.45.19.72.19Z" fill="#ffad00" stroke-width="0"/>
        <path d="m38.58,8.34c-.42,0-.8-.1-1.15-.3-.34-.2-.61-.47-.82-.82-.2-.34-.3-.73-.3-1.16s.1-.8.3-1.14.47-.61.82-.81c.34-.2.72-.3,1.15-.3s.81.1,1.16.3c.35.2.62.47.82.81.2.34.3.72.3,1.14s-.1.81-.3,1.16c-.2.35-.48.62-.82.82-.35.2-.73.3-1.16.3Zm0-.8c.28,0,.53-.06.74-.19.21-.13.38-.3.5-.53s.18-.48.18-.77-.06-.53-.19-.75c-.13-.22-.29-.39-.5-.52-.21-.12-.46-.19-.74-.19s-.51.06-.72.19c-.21.12-.38.3-.5.52-.12.22-.18.47-.18.75s.06.54.18.77c.12.22.29.4.5.53.21.13.45.19.72.19Z" fill="#ffad00" stroke-width="0"/>
        <path d="m41.77,8.25V1.7h.82v6.54h-.82Z" fill="#ffad00" stroke-width="0"/>
      </g>
    </g>
  </g>
</svg>