<?xml version="1.0" encoding="UTF-8"?>
<svg id="b" data-name="Layer 2" xmlns="http://www.w3.org/2000/svg" viewBox="0 0 629.24 98.72">
  <g id="c" data-name="Layer 1">
    <g>
      <g>
        <path d="m224.77,27.73c.74,1.1,1.52,2.18,2.22,3.3,5.3,8.46,7.21,17.65,5.58,27.49-1.81,10.91-7.34,19.58-16.36,25.96-4.6,3.26-9.72,5.39-15.28,6.37-.68.12-.85.4-.89,1.03-.15,2.23-.35,4.45-.55,6.84-7.94-5.63-15.78-11.18-23.73-16.82,8.73-4.27,17.36-8.5,26.07-12.76-.21,2.51-.42,4.92-.64,7.54,9.25-3.41,15.28-9.53,17.4-19,2.11-9.44-.75-17.57-7.48-24.53,4.26-2.28,8.41-4.5,12.55-6.72.37.43.73.86,1.1,1.29Z" fill="#778789" stroke-width="0"/>
        <path d="m169.47,20.96c1.06-.71,2.11-1.44,3.19-2.13,4.3-2.76,8.97-4.6,13.99-5.56.22-.04.44-.1.71-.16.2-2.55.4-5.08.61-7.79,7.97,5.62,15.82,11.16,23.81,16.79-8.77,4.27-17.41,8.48-26.15,12.73.22-2.43.44-4.75.66-7.12-7.12,1.95-15.09,8.4-17.34,18.6-2.07,9.39.56,17.49,7.2,24.51-1.13.63-2.16,1.2-3.2,1.78-2.9,1.6-5.8,3.19-8.69,4.79-.34.19-.55.24-.83-.12-3.83-4.77-6.65-10.06-7.97-16.05-2.81-12.79-.11-24.32,8.17-34.5,1.05-1.29,2.25-2.45,3.38-3.67.82-.7,1.64-1.4,2.46-2.1Z" fill="#e15227" stroke-width="0"/>
      </g>
      <g>
        <path d="m292.68,72.01c0,4.17-1.05,7.87-3.16,11.11s-5.15,5.75-9.12,7.54c-3.97,1.79-8.63,2.69-13.97,2.69-4.46,0-8.2-.32-11.22-.94-3.02-.63-6.17-1.72-9.44-3.29v-16.19c3.45,1.78,7.04,3.16,10.77,4.16,3.73.99,7.15,1.49,10.26,1.49,2.69,0,4.66-.47,5.91-1.4,1.25-.94,1.88-2.14,1.88-3.61,0-.92-.25-1.73-.76-2.42-.5-.69-1.31-1.39-2.43-2.09-1.12-.7-4.09-2.14-8.91-4.32-4.37-1.99-7.64-3.93-9.83-5.79-2.18-1.87-3.8-4.02-4.86-6.44-1.05-2.42-1.58-5.29-1.58-8.6,0-6.19,2.25-11.02,6.74-14.48,4.49-3.47,10.66-5.2,18.51-5.2,6.93,0,14,1.61,21.21,4.83l-5.54,14.03c-6.26-2.88-11.67-4.32-16.22-4.32-2.35,0-4.06.41-5.13,1.24-1.07.83-1.6,1.86-1.6,3.08,0,1.32.68,2.5,2.04,3.54s5.05,2.94,11.06,5.7c5.77,2.6,9.78,5.4,12.03,8.39,2.25,2.99,3.37,6.75,3.37,11.29Z" fill="#778789" stroke-width="0"/>
        <path d="m332.86,39.13c-4.31,0-7.67,1.77-10.08,5.31s-3.62,8.42-3.62,14.65c0,12.94,4.9,19.41,14.71,19.41,2.96,0,5.83-.41,8.61-1.24,2.78-.83,5.57-1.82,8.38-2.99v15.36c-5.59,2.49-11.91,3.73-18.97,3.73-10.11,0-17.86-2.94-23.25-8.83-5.39-5.89-8.09-14.4-8.09-25.52,0-6.96,1.31-13.08,3.92-18.35,2.61-5.28,6.37-9.33,11.27-12.16,4.9-2.84,10.67-4.25,17.3-4.25,7.24,0,14.16,1.58,20.75,4.74l-5.54,14.3c-2.47-1.16-4.95-2.14-7.42-2.94-2.48-.8-5.13-1.19-7.97-1.19Z" fill="#778789" stroke-width="0"/>
        <path d="m421.33,92.43h-18.19v-27.41h-21.03v27.41h-18.19V25.2h18.19v24.93h21.03v-24.93h18.19v67.24Z" fill="#778789" stroke-width="0"/>
        <path d="m498.48,58.72c0,11.31-2.76,19.91-8.29,25.8-5.53,5.89-13.62,8.83-24.28,8.83s-18.56-2.96-24.17-8.88c-5.6-5.92-8.41-14.53-8.41-25.84s2.79-19.73,8.36-25.64c5.57-5.9,13.68-8.85,24.3-8.85s18.74,2.93,24.24,8.79c5.5,5.85,8.25,14.45,8.25,25.8Zm-46.09,0c0,13,4.51,19.5,13.52,19.5,4.58,0,7.98-1.58,10.19-4.73,2.21-3.16,3.32-8.08,3.32-14.76s-1.12-11.67-3.37-14.87c-2.24-3.2-5.6-4.81-10.06-4.81-9.07,0-13.61,6.56-13.61,19.68Z" fill="#778789" stroke-width="0"/>
        <path d="m573.25,58.72c0,11.31-2.76,19.91-8.29,25.8-5.53,5.89-13.62,8.83-24.28,8.83s-18.56-2.96-24.17-8.88c-5.6-5.92-8.41-14.53-8.41-25.84s2.79-19.73,8.36-25.64c5.57-5.9,13.68-8.85,24.3-8.85s18.74,2.93,24.24,8.79c5.5,5.85,8.25,14.45,8.25,25.8Zm-46.09,0c0,13,4.51,19.5,13.52,19.5,4.58,0,7.98-1.58,10.19-4.73,2.21-3.16,3.32-8.08,3.32-14.76s-1.12-11.67-3.37-14.87c-2.24-3.2-5.6-4.81-10.06-4.81-9.07,0-13.61,6.56-13.61,19.68Z" fill="#778789" stroke-width="0"/>
        <path d="m585.35,92.43V25.2h18.1v52.57h25.79v14.67h-43.89Z" fill="#778789" stroke-width="0"/>
      </g>
      <path d="m31.75,92.79c-3.63,0-7.11-.48-10.43-1.42-3.33-.95-6.37-2.4-9.14-4.35-2.77-1.94-5.21-4.38-7.32-7.32-2.12-2.93-3.74-6.35-4.86-10.24l15.94-6.35c1.12,4.32,3.02,7.58,5.7,9.78,2.68,2.21,6.05,3.3,10.11,3.3,1.81,0,3.54-.28,5.18-.84s3.07-1.36,4.28-2.4c1.21-1.04,2.18-2.27,2.91-3.7.73-1.42,1.1-3.05,1.1-4.86,0-3.8-1.41-6.78-4.21-8.94-2.81-2.16-6.67-3.24-11.6-3.24h-7.64v-15.42h7c1.73,0,3.41-.21,5.05-.64,1.64-.43,3.09-1.1,4.34-2.01s2.25-2.07,2.98-3.5c.73-1.42,1.1-3.09,1.1-4.99,0-2.93-1.04-5.33-3.11-7.19-2.07-1.86-4.88-2.79-8.42-2.79-3.8,0-6.72,1.02-8.75,3.05-2.03,2.03-3.44,4.3-4.21,6.8l-15.55-6.35c.78-2.16,1.94-4.39,3.5-6.68,1.55-2.28,3.52-4.36,5.89-6.22s5.16-3.37,8.36-4.54c3.19-1.17,6.87-1.75,11.02-1.75s8.1.6,11.6,1.81c3.5,1.22,6.5,2.87,9.01,4.99s4.45,4.63,5.83,7.52c1.38,2.9,2.07,6.03,2.07,9.4,0,2.59-.32,4.92-.97,7-.65,2.07-1.49,3.93-2.53,5.57-1.04,1.64-2.23,3.05-3.56,4.21-1.34,1.16-2.7,2.09-4.08,2.78v1.04c4.15,1.64,7.58,4.27,10.3,7.9,2.72,3.63,4.08,8.21,4.08,13.74,0,3.89-.74,7.45-2.2,10.69-1.47,3.24-3.56,6.07-6.29,8.49-2.72,2.42-5.98,4.3-9.78,5.64-3.8,1.34-8.04,2-12.7,2Z" fill="#e15227" stroke-width="0"/>
      <path d="m113.41,33.95c3.37,0,6.65.71,9.85,2.13,3.19,1.42,6.05,3.37,8.55,5.87,2.5,2.49,4.51,5.51,6.03,9.03,1.51,3.53,2.27,7.4,2.27,11.62s-.87,8.43-2.59,12.13c-1.73,3.7-4.04,6.88-6.93,9.55-2.9,2.67-6.22,4.75-9.98,6.26-3.76,1.51-7.71,2.26-11.86,2.26-4.84,0-9.2-.83-13.09-2.51-3.89-1.67-7.24-3.91-10.04-6.7s-4.97-6.05-6.48-9.79c-1.51-3.74-2.27-7.67-2.27-11.79,0-5.93,1.19-11.36,3.56-16.3,2.37-4.94,5.38-9.99,9.01-15.14L110.95,0l13.09,9.01-18.14,25.47.65.78c1.99-.86,4.28-1.3,6.87-1.3Zm-4.93,43.16c1.9,0,3.76-.34,5.57-1.02s3.41-1.67,4.8-2.96c1.38-1.28,2.48-2.8,3.3-4.56.82-1.75,1.23-3.7,1.23-5.84s-.41-4.11-1.23-5.91c-.82-1.8-1.92-3.34-3.3-4.62-1.38-1.28-2.98-2.27-4.8-2.96-1.81-.68-3.67-1.02-5.57-1.02s-3.87.34-5.64,1.02c-1.77.69-3.37,1.67-4.8,2.96s-2.55,2.82-3.37,4.62c-.82,1.8-1.23,3.77-1.23,5.91s.41,4.09,1.23,5.84c.82,1.76,1.94,3.28,3.37,4.56,1.43,1.29,3.02,2.27,4.8,2.96,1.77.68,3.65,1.02,5.64,1.02Z" fill="#e15227" stroke-width="0"/>
    </g>
  </g>
</svg>