<?xml version="1.0" encoding="UTF-8"?>
<svg id="b" data-name="Layer 2" xmlns="http://www.w3.org/2000/svg" viewBox="0 0 25.97 19.65">
  <g id="c" data-name="Layer 1">
    <g>
      <path d="m21.62,2.29c-.23,0-.43-.05-.61-.15s-.32-.24-.43-.41-.16-.37-.16-.59.05-.41.16-.58c.1-.17.25-.31.43-.41.18-.1.39-.15.62-.15s.43.05.61.15c.18.1.33.24.43.41.11.17.16.37.16.58s-.05.42-.16.59c-.11.17-.25.31-.43.41-.18.1-.38.15-.61.15Zm0-.63c.1,0,.18-.02.26-.06.08-.04.13-.1.17-.18.04-.08.06-.17.06-.27s-.02-.19-.06-.26c-.04-.08-.1-.14-.17-.18-.07-.04-.16-.07-.25-.07s-.18.02-.26.07c-.08.04-.13.1-.18.18-.04.08-.06.17-.06.26,0,.1.02.19.06.27.04.08.1.14.18.18.08.04.16.06.26.06Z" fill="#2c2d2d" stroke-width="0"/>
      <path d="m2.98,11.4c-.62,0-1.18-.1-1.69-.31-.51-.21-.94-.51-1.29-.91l1.28-1.28c.16.23.39.42.7.56.31.14.63.21.96.21.3,0,.56-.05.79-.16.23-.11.4-.26.54-.46.13-.2.2-.43.2-.71s-.07-.52-.2-.71c-.13-.19-.32-.34-.57-.44s-.54-.16-.87-.16c-.16,0-.33,0-.5.03s-.32.05-.44.09l.88-1.1c.24-.07.47-.12.68-.17s.4-.07.59-.07c.45,0,.86.11,1.22.32.36.21.65.51.86.9.21.39.31.85.31,1.37,0,.59-.14,1.11-.43,1.56-.28.45-.68.8-1.2,1.05s-1.12.38-1.82.38ZM.55,4.1v-1.68h5.71v1.1l-1.55.58H.55Zm1.34,3.05v-1.11l2.15-2.5h2.22s-2.23,2.52-2.23,2.52l-2.14,1.1Z" fill="#ffad00" stroke-width="0"/>
      <path d="m10.4,11.4c-.63,0-1.19-.14-1.68-.41-.5-.28-.89-.65-1.18-1.12-.29-.47-.43-.99-.43-1.56,0-.75.26-1.51.79-2.27l2.49-3.62h2.23l-2.77,3.86-.74.07c.12-.21.24-.39.37-.53.13-.15.29-.26.49-.34.2-.08.46-.12.78-.12.54,0,1.03.13,1.48.38.44.25.79.6,1.06,1.04.26.44.39.94.39,1.51s-.15,1.1-.44,1.56-.68.84-1.18,1.12c-.49.28-1.05.42-1.66.42Zm-.01-1.73c.27,0,.5-.06.71-.18.2-.12.37-.29.48-.51.12-.22.18-.46.18-.73s-.06-.52-.18-.73c-.12-.21-.28-.38-.48-.49-.2-.12-.44-.18-.71-.18-.25,0-.48.06-.69.18-.21.12-.37.29-.49.49s-.18.45-.18.73.06.51.18.73c.12.22.28.39.49.51.21.12.44.18.69.18Z" fill="#ffad00" stroke-width="0"/>
      <path d="m18.16,11.4c-.72,0-1.36-.19-1.93-.57-.57-.38-1.02-.92-1.36-1.61-.33-.69-.5-1.48-.5-2.39s.16-1.71.49-2.39.78-1.21,1.35-1.59c.57-.38,1.21-.56,1.93-.56s1.37.19,1.94.56c.57.37,1.02.9,1.35,1.59.33.68.49,1.49.49,2.4s-.16,1.71-.49,2.39c-.33.68-.78,1.22-1.34,1.6-.56.38-1.2.57-1.92.57Zm-.01-1.74c.37,0,.68-.11.95-.33s.47-.53.62-.95.23-.94.23-1.55-.08-1.12-.23-1.54c-.15-.42-.36-.73-.63-.94-.27-.21-.58-.32-.95-.32s-.67.11-.94.32c-.27.21-.48.53-.62.94-.14.42-.21.93-.21,1.54s.07,1.14.21,1.55c.14.42.35.73.62.95.27.22.59.33.96.33Z" fill="#ffad00" stroke-width="0"/>
      <path d="m2.22,19.65c-.49,0-.92-.09-1.27-.28-.35-.18-.67-.45-.94-.8l.59-.59c.2.28.43.49.7.64s.59.21.97.21.68-.08.91-.25.34-.39.34-.68c0-.24-.06-.43-.17-.58-.11-.15-.26-.27-.44-.36-.18-.09-.39-.18-.6-.25s-.44-.15-.66-.24-.42-.2-.61-.33c-.19-.13-.33-.31-.44-.52-.11-.21-.17-.48-.17-.81,0-.36.09-.67.26-.92.17-.25.41-.45.71-.59.3-.14.64-.21,1.02-.21.42,0,.79.08,1.12.24.33.16.6.37.81.64l-.59.59c-.19-.22-.39-.38-.61-.5s-.47-.17-.75-.17c-.34,0-.61.08-.82.22s-.3.36-.3.63c0,.21.06.39.17.52.11.13.26.24.44.33.18.09.39.18.61.25.22.08.44.16.66.25.22.09.42.21.6.35.18.14.33.32.44.54.11.22.17.5.17.84,0,.56-.19,1-.58,1.32-.39.32-.92.48-1.58.48Z" fill="#2c2d2d" stroke-width="0"/>
      <path d="m7.28,19.65c-.43,0-.81-.1-1.16-.3-.35-.2-.62-.47-.82-.82-.2-.34-.3-.73-.3-1.15s.1-.81.3-1.15c.2-.34.47-.61.82-.81.35-.2.73-.3,1.16-.3.34,0,.65.06.93.19.29.12.53.31.74.54l-.55.55c-.13-.16-.3-.28-.49-.36-.2-.08-.41-.12-.63-.12-.27,0-.52.06-.73.19-.21.12-.38.3-.5.52-.12.22-.18.47-.18.76s.06.54.18.76c.12.22.29.39.5.52.21.13.46.19.73.19.23,0,.44-.04.64-.12.19-.08.36-.2.5-.36l.54.55c-.2.23-.45.41-.74.54-.29.13-.6.19-.94.19Z" fill="#2c2d2d" stroke-width="0"/>
      <path d="m9.77,19.56v-6.54h.82v6.54h-.82Zm3.07,0v-2.54c0-.33-.1-.6-.31-.82-.21-.21-.47-.32-.8-.32-.22,0-.42.05-.59.15-.17.1-.31.23-.4.4-.1.17-.15.37-.15.59l-.34-.19c0-.33.07-.62.22-.88.15-.26.35-.46.61-.61s.56-.22.89-.22.62.07.88.22c.25.15.45.35.6.61.15.26.22.57.22.91v2.7h-.83Z" fill="#2c2d2d" stroke-width="0"/>
      <path d="m16.77,19.65c-.42,0-.8-.1-1.15-.3-.34-.2-.61-.47-.82-.82-.2-.34-.3-.73-.3-1.16s.1-.8.3-1.14.47-.61.82-.81c.34-.2.72-.3,1.15-.3s.81.1,1.16.3c.35.2.62.47.82.81.2.34.3.72.3,1.14s-.1.81-.3,1.16c-.2.35-.48.62-.82.82-.35.2-.73.3-1.16.3Zm0-.8c.28,0,.53-.06.74-.19.21-.13.38-.3.5-.53s.18-.48.18-.77-.06-.53-.19-.75c-.13-.22-.29-.39-.5-.52-.21-.12-.46-.19-.74-.19s-.51.06-.72.19c-.21.12-.38.3-.5.52-.12.22-.18.47-.18.75s.06.54.18.77c.12.22.29.4.5.53.21.13.45.19.72.19Z" fill="#2c2d2d" stroke-width="0"/>
      <path d="m21.95,19.65c-.42,0-.8-.1-1.15-.3-.34-.2-.61-.47-.82-.82-.2-.34-.3-.73-.3-1.16s.1-.8.3-1.14.47-.61.82-.81c.34-.2.72-.3,1.15-.3s.81.1,1.16.3c.35.2.62.47.82.81.2.34.3.72.3,1.14s-.1.81-.3,1.16c-.2.35-.48.62-.82.82-.35.2-.73.3-1.16.3Zm0-.8c.28,0,.53-.06.74-.19.21-.13.38-.3.5-.53s.18-.48.18-.77-.06-.53-.19-.75c-.13-.22-.29-.39-.5-.52-.21-.12-.46-.19-.74-.19s-.51.06-.72.19c-.21.12-.38.3-.5.52-.12.22-.18.47-.18.75s.06.54.18.77c.12.22.29.4.5.53.21.13.45.19.72.19Z" fill="#2c2d2d" stroke-width="0"/>
      <path d="m25.14,19.56v-6.54h.82v6.54h-.82Z" fill="#2c2d2d" stroke-width="0"/>
    </g>
  </g>
</svg>