<?xml version="1.0" encoding="UTF-8"?>
<svg id="Layer_2" data-name="Layer 2" xmlns="http://www.w3.org/2000/svg" viewBox="0 0 150 151.92">
  <defs>
    <style>
      .cls-1 {
        fill: #fc7176;
      }

      .cls-2 {
        fill: #d91428;
      }

      .cls-3 {
        fill: #a02025;
      }

      .cls-4 {
        fill: #fae7e4;
      }

      .cls-5 {
        fill: #e2f4c9;
      }

      .cls-6 {
        fill: #d9132b;
      }

      .cls-7 {
        fill: #a7c296;
      }

      .cls-8 {
        fill: #de0013;
      }

      .cls-9 {
        fill: #92141f;
      }

      .cls-10 {
        fill: #e2e3cb;
      }

      .cls-11 {
        fill: #e50c20;
      }

      .cls-12 {
        fill: #fdb4b1;
      }

      .cls-13 {
        fill: #faaeab;
      }

      .cls-14 {
        fill: #fac6b4;
      }

      .cls-15 {
        fill: #f6a8a0;
      }

      .cls-16 {
        fill: #f28c89;
      }

      .cls-17 {
        fill: #dce3c8;
      }

      .cls-18 {
        fill: #f7cfd1;
      }

      .cls-19 {
        fill: #d91d30;
      }

      .cls-20 {
        fill: #8ac457;
      }

      .cls-21 {
        fill: #dbe3c9;
      }

      .cls-22 {
        fill: #dee5cc;
      }

      .cls-23 {
        fill: #fa021f;
      }

      .cls-24 {
        fill: #d5f5ba;
      }

      .cls-25 {
        fill: #fdc0bb;
      }

      .cls-26 {
        fill: #a6c189;
      }

      .cls-27 {
        fill: #27742c;
      }

      .cls-28 {
        fill: #f7bfc0;
      }

      .cls-29 {
        fill: #c6efd9;
      }

      .cls-30 {
        fill: #f80319;
      }

      .cls-31 {
        fill: #fbfcfa;
      }

      .cls-32 {
        fill: #f9d9d4;
      }

      .cls-33 {
        fill: #f4b8b6;
      }

      .cls-34 {
        fill: #89c557;
      }

      .cls-35 {
        fill: #f4cecb;
      }

      .cls-36 {
        fill: #fbfcf8;
      }

      .cls-37 {
        fill: #e9f8d7;
      }

      .cls-38 {
        fill: #f87074;
      }

      .cls-39 {
        fill: #d01e2c;
      }

      .cls-40 {
        fill: #dd0113;
      }

      .cls-41 {
        fill: #bf2c34;
      }

      .cls-42 {
        fill: #921620;
      }

      .cls-43 {
        fill: #f1fbec;
      }

      .cls-44 {
        fill: #f31122;
      }

      .cls-45 {
        fill: #ade281;
      }

      .cls-46 {
        fill: #f6d4ce;
      }

      .cls-47 {
        fill: #018834;
      }

      .cls-48 {
        fill: #fbafae;
      }

      .cls-49 {
        fill: #fceae9;
      }

      .cls-50 {
        fill: #de1f37;
      }

      .cls-51 {
        fill: #f3f2eb;
      }

      .cls-52 {
        fill: #a6bf80;
      }

      .cls-53 {
        fill: #be3444;
      }

      .cls-54 {
        fill: #a2bf7e;
      }

      .cls-55 {
        fill: #be3640;
      }

      .cls-56 {
        fill: #fda499;
      }

      .cls-57 {
        fill: #f5a09f;
      }

      .cls-58 {
        fill: #fa9b91;
      }

      .cls-59 {
        fill: #f6b3b5;
      }

      .cls-60 {
        fill: #f6fce1;
      }

      .cls-61 {
        fill: #f87977;
      }

      .cls-62 {
        fill: #fa9b99;
      }

      .cls-63 {
        fill: #5e5829;
      }

      .cls-64 {
        fill: #dde4c8;
      }

      .cls-65 {
        fill: #dbe3c6;
      }

      .cls-66 {
        fill: #dd2028;
      }

      .cls-67 {
        fill: #f8b0a9;
      }

      .cls-68 {
        fill: #f78785;
      }

      .cls-69 {
        fill: #e77e7d;
      }

      .cls-70 {
        fill: #8bc458;
      }

      .cls-71 {
        fill: #e8f9d7;
      }

      .cls-72 {
        fill: #e22e41;
      }

      .cls-73 {
        fill: #f9ddd6;
      }

      .cls-74 {
        fill: #9cbb79;
      }

      .cls-75 {
        fill: #f5b0a7;
      }

      .cls-76 {
        fill: #028834;
      }

      .cls-77 {
        fill: #faa59f;
      }

      .cls-78 {
        fill: #e8fac7;
      }

      .cls-79 {
        fill: #f6a39b;
      }

      .cls-80 {
        fill: #f77679;
      }

      .cls-81 {
        fill: #f6a9a7;
      }

      .cls-82 {
        fill: #f8eee5;
      }

      .cls-83 {
        fill: #f4a9a6;
      }

      .cls-84 {
        fill: #f2aca5;
      }

      .cls-85 {
        fill: #f0fce8;
      }

      .cls-86 {
        fill: #f4a4a8;
      }

      .cls-87 {
        fill: #f7d4cb;
      }

      .cls-88 {
        fill: #effae2;
      }

      .cls-89 {
        fill: #555f2a;
      }

      .cls-90 {
        fill: #f5dad3;
      }

      .cls-91 {
        fill: #5d5c29;
      }

      .cls-92 {
        fill: #c12533;
      }

      .cls-93 {
        fill: #fbbfb4;
      }

      .cls-94 {
        fill: #fcbdb1;
      }

      .cls-95 {
        fill: #b6f3d3;
      }

      .cls-96 {
        fill: #a22522;
      }

      .cls-97 {
        fill: #c12631;
      }

      .cls-98 {
        fill: #f29190;
      }

      .cls-99 {
        fill: #526736;
      }

      .cls-100 {
        fill: #f9a7a8;
      }

      .cls-101 {
        fill: #b72e19;
      }

      .cls-102 {
        fill: #a82b1e;
      }

      .cls-103 {
        fill: #764724;
      }

      .cls-104 {
        fill: #c54149;
      }

      .cls-105 {
        fill: #fce2dc;
      }

      .cls-106 {
        fill: #f9e2de;
      }

      .cls-107 {
        fill: #e5f8d0;
      }

      .cls-108 {
        fill: #3f875b;
      }

      .cls-109 {
        fill: #fdfdfd;
      }
    </style>
  </defs>
  <g id="Layer_1-2" data-name="Layer 1">
    <g>
      <path class="cls-47" d="M78.28,3.85c.88.41,1.31.98,1.29,1.72,14.91,15.02,30.47,9.15,46.39.43.76-.52,1.62-.38,2.58.43,19.23,15.25,24.84,45.88,19.62,68.8-3.97,17.41-13.16,34.05-26.06,46.31-.3,1.22-3.07.51-3.87,0-1.1-.03-.81-.78-.55-.41.4.57-3.01.8-2.89-.45-.82-.46-1.9-.61-3.24-.43l-.2-.43c-.7.56-.93.33-.43-.43-.31-.17-.17-.46.43-.86l.76-1.84c20.11-18.56,32.69-48.26,25.41-75.48-2.38-8.88-6.56-15.74-11.62-22.95-10.91,6.29-24.26,9.16-36.59,5.32-4.52-1.41-10.59-3.83-13.17-7.7-1.08-.72-2.22-.72-3.44,0l-.86,1.61c-13.61,10.27-28.82,9.05-43.92,3.12l-1.17-1.29c-1.26-1.15-2.54-1.44-3.87-.86l-.08,1.31C-.26,49.42,10.79,92.44,37.03,116.97l.87,1.99-.58.94-10.17,2.33-.85-.69c-1.54-1.64-2.9-3.39-4.29-5.15-1.47-.67-2.76-2.75-3.44-4.29-7.38-9.62-12.17-19.16-15.46-30.92-.58-1.37-1.01-2.8-1.29-4.29C-2.17,52.97-.51,30.17,16.01,10.95c.9-1.04,5.39-5.86,6.47-5.62,12.57,8.66,27.59,13.37,41.59,4.71,4.44-2.75,7.23-6.14,10.56-10.04,1.47,1.03,2.09,2.99,3.65,3.85Z"/>
      <path class="cls-30" d="M101.9,118.1c1.52-.46,2.46-.42,2.82.11,1.37-.32,2.29-.07,2.77.75l.55-.76c.6.89,1.56,1.29,2.88,1.19,0,.26.41.37.43.43.53.45,1.56.59,3.09.44l.34.42c.68.03,3.28-.12,3.44,0,.07.05-.03.66,0,.86.6.46,1.51.6,2.74.4,1.04.91,2.24,1.27,3.6,1.08l.22,18.65c1.25,3.52-4.38,7.06-5.48,3.05-3.33-.28-6.74-.68-10.04-1.36-1.23-.25-2.64-.59-3.48-1.59-2.54,1.18-5.66-.64-7.31-2.19-.82.62-2.67.7-3.44,0-2.63-.73-.74-3.08-.22-2.31.11.17.17.37.22.59l-.57-.13c.46-2.08.37-3.84-.29-5.28l.86-.6c-.51,1.65-3.96-.38-1.72-1.29.04-.97,1.77-2.39,2.58-1.29,6.16-7.38-6.96-13.92-9.45-5.15,1.1.56,2.03,4.03,1.72,5.15.88.83,1.88,1.41,3.01,1.72.04-.39.19-.37.43,0,.99-.05,1.66.84,1.72,1.72.81.31.96,1.55,0,1.72-2.18,2.01-2.79-1.53-2.48-1.44.46.12.1.31-.53-.27-.23,1.59-1.49,1.09-2.15,0l-.27.4c-1.49-1.02-2.36-1-4.03-.4.65.45.02,2.23-.86,2.15l.54,1.61c4.39,2.35-4.25,2.29-4.79,1.82-.67-.59-.27-1.76.81-1.28-.26-.59.77-1.03,1.29-.86-.12-.81-.26-1.52-.43-2.15-.95-.87-.19-1.25.86-.86-1.16-2.02-4.47-.69-2.58,1.29.41-.77,1.07-.43.86.43,2.05,1.91-.65,2.14-1.72.43l-.33.88c.93.81,1.04,1.37.33,1.69-.06.22-.13.38-.2.39-2.14.07-4.65-.14-6.67-.39-.98-.44-.9-.9.23-1.37.73-1.08,1.23-2.34,1.49-3.78.73-2-.48-1.2-2.05,0l-.98-1.23c-1.54.21-2.57.15-1.26-1.34,1.71-.14,3.14-.71,4.29-1.72-.11-1.4-.25-2.83-.43-4.29-.06.3-.67.43-1.8.38.36,4.18-.9,5.49-3.78,3.91-4.07.8-4.08-8.14,0-7.73,1.18-.21,1.89-.49,2.15-.86-4.21.22-7.32,3.96-4.36,7.79l-.37.8c.92.93,2.06,1.51,3.44,1.72,1.57,1.05.05,3.37-1.29,1.72-.03,1.36-2.78,1.22-3.01,0l-.46.95c-.83,2.27-1.53,2.81-2.11,1.63-1.01.08-2.19-1.51-1.72-2.58-.78-.73-.61-2.01.49-3.85.08-.67-.63-7.68-.82-8.16-.33-.84-1.93-.38-2.25.41.26.52.9,4.07.54,4.52-.15.18-4.38.32-4.4-.22-1.48-.08-1.96-3.4-.43-3.87-3.03-1.49-2.42,2.57-1.72,3.44.37-.02.66.11.86.4-.09.92.37,6.03.45,3.57l.84-.53c-.53-2.11.92-3.12,4.35-3.02.03,1.33.16,2.62.37,3.88.87.1.83.53,0,.86.39.04.37.19,0,.43.42.1,1.1.44.94.61-.46.47.11-.49.29.01.16.44.21.92.12,1.38-.05.24-2.06,4.19-2.28,4.3-.43.2-.91.09-1.14-.32.03-4.86-.72-4.55-3.75-1.38l-.61-.73c-.56.69-1.19-.15-1.29-.86-.48.83-.4,1.71.23,2.63l-.66.8c-.54,2.02-1.6.38-2.15-.86-.65-.8-.8-.02-.45,2.32l-.41.26c1.16.12,1.12.53,0,.86,1.82,1.99-1.72,2.41-3.33,1.68-.19,1.88-1.64,2.46-2.64.83-1.59-.23-1.88-.03-2.97.94-3.38.19-6.07.73-9.01,2.55l-.99-.12c-.56-1.25-.94-.76-1.15,1.46-.78.62-3.19-.78-3.97-1.33-.66-6.85.5-14.66-.02-21.62.06-.26,3.7-1.44,4.31-1.57,2.79-.61,9.53-2.4,11.6-2.58.03-1.24,1.8-1.09,2.15,0,1.1-.07,1.73-.46,1.88-1.18,1.08.33,2.17.44,3.27.32-.1-.57.38-.68,1.44-.33l7.36-.53c2.28-.34,4.42-.34,6.44,0,2.19-.58,4.55-.87,7.09-.86,10.99-.43,22.23.33,33.23,1.22.39.03.76.24,1.13.5Z"/>
      <path class="cls-76" d="M65.39,138.71c3.05.42,6.13,1.29,9.23,2.62,2.64-.96,5.29-1.69,7.95-2.19.21-.85,2.54-1.85,3.01-.43,1.29.5,2.96.64,5.01.43l1,.43c1.16.55,2.51.69,4.05.43l.24.43c1.23.62.27,2.51-.86,2.58-.05.65-.62,1.22-1.72,1.72.21,1.24-.78,1.61-1.72.86-1.17.37-2.31.95-3.44,1.72-.24.82-.62.82-.86,0-.84.9-1.78,1.53-3.01,1.72-7.94,4.71-11.63,2.92-19.33,0-1.1-.44-2.24-1.01-3.44-1.72-1.8.94-6.32-1.58-6.87-3.44-.89-.96-1.76-1.18-3.01-1.29-.96.78-1.61.39-1.29-.86-.78.04-1.85-2.28-1.12-2.55,3,.25,5.38.09,7.13-.46l.66-.87c2.6-.15,5.2-.17,7.8-.06l.56.93Z"/>
      <path class="cls-8" d="M48.64,140.43c.59-.1,1.34.81,1.72,1.29.14.2.97.58,1.29.86,1.08-.11,2.43.39,3.01,1.29,2.52,1.31,4.13,2.47,6.87,3.44.55.5,1.12.93,1.72,1.29-1.13.79-3.24.42-4.72.43-7.59.2-15.18.2-22.76,0-4.86-.24-9.15-1.08-13.48-3.4-.45-.19-.24-.57-.27-.89.75.1,1.85-.25,2.49.11.2.11-.16,1.16.94.74-.01-.78-.2-2.21.65-2.57,1.12-.48,1.04.79,1.34.86,1.05.25,2.24-1.09,3.53-1.57,2.34-.89,4.28-.59,6.22-1.01.34-.08.1-.77.91-.88.57-.08,2.01-.09,2.55.02.45.1-.02,1.27,1.13.87v-1.72c1.82-.45,3.86,1.57,4.3-.86,1.4-1.31,2.48.3,2.58,1.72Z"/>
      <path class="cls-40" d="M122.09,121.53c.16.07.24,1.08.49,1.21.6.33,2.33-.11,2.52.07.15.15-.01,3.59,0,4.3v17.61c-3.21,3.42-9.23,4.08-13.74,4.29-7.59.18-15.17.18-22.76,0h-.43c-.98-.34-.88-1.3,0-1.72.71-.81,1.67-1.24,2.91-1.31-.44-.01-.26-.15.53-.41.38-.27,1.26-.7,1.72-.86.81-.65,1.67-1.22,2.58-1.72.17-1.15.51-1.09.86,0,1.77-.83,2.35-1.68,1.72-2.58-1.16-.15-1.09-.5,0-.86,1.91.11,3.29,1.53,5.38,1.74,1.98.2,1.35-.71,1.53-.84.88-.63.84.66,1.25,1.01,1.59,1.34,8.81,1.84,11.43,2.34.58.11,2.24-.04,2.32.04.15.15-.15,1.57,0,1.73.43.45,3.7.06,3.9-1.49.79-6.34-.65-14.33-.03-20.85-.98-.12-2.23.21-3.14,0-.32-.08-.26-.76-.59-.84-1.6-.38-2.04.83-2.28-.87.9.19,3.28-.27,3.87,0Z"/>
      <path class="cls-42" d="M111.35,149.02h-22.76c7.45,0,15.38.36,22.76,0Z"/>
      <path class="cls-9" d="M58.52,149.02h-22.76c7.36.36,15.34.03,22.76,0Z"/>
      <path class="cls-30" d="M125.09,144.73v-17.61c.1,5.86-.07,11.75,0,17.61Z"/>
      <path class="cls-99" d="M87.3,147.3c.81.69.19,1.58-.86,1.72h-2.15c1.59-.94.32-1.41,3.01-1.72Z"/>
      <path class="cls-89" d="M61.53,147.3c1.19.42.98.3,2.06.83.53.26,1.67-.44,1.37.89-.68-.26-1.25-.27-1.72-.43-.84-.29-1.98-.1-1.72-1.29Z"/>
      <path class="cls-96" d="M88.16,147.3c-.08.53.06,1.17,0,1.72h-1.72l.86-1.72c.28-.03.58.02.86,0Z"/>
      <path class="cls-108" d="M128.53,6.43l-2.58-.43c.15-.08.23-.89,1-.81.84.07,1.15.9,1.58,1.24Z"/>
      <path class="cls-31" d="M76.13,15.88c12.44,8.98,25.43,10.93,40.05,5.9,3.41-1.17,6.54-2.99,9.93-4.22,1.76,2.81,4.07,5.2,5.77,8.06,18.44,31.02,4.99,70.46-20.53,92.9-1.04,1.58-4.56.5-3.01-1.29-.19-.72.14-1.03.86-.86.97-.34,1.69-1.05,2.15-2.15-.52-.4-.18-.9.43-.86,5.36-6.05,11-12.5,15.03-20.25,11.84-22.82,11.31-51.87-8.78-69.87-7.44,5.23-16.95,8.2-26.05,6.78-7.43-1.16-11.98-4.8-17.46-9.37-3.41,3.09-6.83,5.79-11.43,7.6-10.37,4.09-22.31,1.8-30.77-4.66-5.7,1.7-10.74,11.37-12.9,16.69-5.63,13.93-5.25,28.24-1.28,42.58,4.58,14,13.91,24.93,24.18,35.37l-2.28.71c-1.13.16-1.79-.03-2.15,0C19.44,102.09,7.61,77.16,9.54,51.72c.75-9.93,6.09-26.23,13.33-33.27,1.29-.59,2.58-.3,3.87.86,18.93,6.3,28.42,8.51,45.96-3.44,1.2-.61,2.34-1.04,3.44,0Z"/>
      <path class="cls-60" d="M108.34,117.24c.16,2.13,1.19,2.12,3.01,1.29-.09.08-.12.7-.43.86-.95.63-2.56-.33-3.44-.43-2.11-.43-.39-2.02.86-1.72Z"/>
      <path class="cls-101" d="M111.35,119.82c1.28.23,3.82-.71,3.44.86-.94-.04-2.41.2-3.16.02-.52-.12-.19-.63-.27-.88Z"/>
      <path class="cls-95" d="M76.13,15.88h-3.44c.61-.41,1.07-1.21,1.94-1.29,1,0,1.12,1.03,1.49,1.29Z"/>
      <path class="cls-29" d="M26.74,19.31c-1.27-.42-2.48-1.07-3.87-.86,1.48-1.44,2.48-.61,3.87.86Z"/>
      <path class="cls-22" d="M125.09,34.78v.43l-1.17.03c-1.99-2.68-3.98-5.27-5.98-7.79-13.37,8.4-31.29,8.94-43.28-2.32-12.5,10.8-29.07,10.79-42.91,2.53-9.11,8.34-12.97,21.94-13.18,34.16l-.86,1.74c.46.57.76,1.22.85,1.95.87,7.8,1.75,13.91,4.82,21.28,4.98,11.97,13.51,22.11,23.16,29.95,6.07-.3,12.19-.7,18.37-1.21l1.34.85c.44-.22,1-.42,1.29,0-1.83.07-5.28.86-7.09.86h-6.44c-1.88,0-6.63.6-8.8.86h-.43C18.65,98.47,6.02,59.27,25.65,31.08c.97-1.39,4.52-6.48,6.19-6.32,13.34,9.25,30.87,8.94,42.78-2.76,12.84,12.74,29.2,11.39,43.85,2.77,2.92,2.72,5.27,5.76,7.07,9.1l-.44.9Z"/>
      <path class="cls-11" d="M56.37,120.25c0-.33-.06-1.23,0-1.29.5-.42,3.05.28,3.43.87.58.91-.78.8-.85,1.13-.57,2.49.79,2.74.85,3.02.23,1-.24,2.38,0,3.29.09.33,1.44.22.86,1.13-.06.09-1.02.02-1.47,1.32-.27.8-.14,1.87-.24,2.12.56,1.2.27,1.77-.86,1.72.21.94.64,1.51,1.29,1.72.51.18.94-.11,1.29-.86,2.04,0-.63-2.23,2.58-2.58.94.22,1.21,1.23.82,3.05,1.15.3,2.17.72,3.05,1.24-.39-.99-.53-1.85-.43-2.58-1.3.04-1.39-.88-.43-1.72,1.18-.18,1.37-.48,1.29-1.72.2-.38.51-.27.86,0-.29,1.45.89.55,1.6.99.16.1.13.72.36.75.95.12,1.96-1.31,3.19-.88.34,2.3-.4,1.43-.86,1.72q-.49-.48,0,0c.06.73.13,2.04-.02,2.69-.07.32-1.93,1.71-1.7,2.46h6.87c-.02-1.09-1.08-.86-.86-2.58.28,0,.58-.03.86,0,.76.58,1.34,1.15,1.72,1.72.02.06-.55.78-.43.86.84-.16,4.41.24,4.72,0,.85-.64-.81-.9-.86-1.15-.1-.43-.06-1.38,0-1.86.66-.24,1.23.34,1.72,1.72,1.19-.18,2.34-.33,3.44-.43.65-.67.65-1.53,0-2.58-.73-.05-.83-.78,0-.86.97.23,1.2.19,2.15,0,.5.19.73.74.7,1.66.91.28,1.68.59,2.31.92,1.16-.01.48-1.97,0-2.58-.76-.46-1.97-.9-1.72-1.72.08-.76,1.29-1.07,1.72-.43-.24,1.67.23,1.32,1.72,1.29v6.01s-.78-.21-.87.22c-.22,1.05,1.14.29.87,1.5-.97.74-2.45.71-3.44,0-2-.03-4.02.03-6.01,0-.02-.28,0-.57,0-.86q2.4-1.18,0,0c-1.29.07-1.7.02-3.01.43l-3.03.55c-4.7-.39-9.41-.71-14.15-.98-2.44-.34-6.39-.03-9.02,0-1.98.48-4.15.62-6.5.41-.51.32-.92.76-1.23,1.31-.67-.63-1.64-1.57-2.58-1.72.04-.24,0-.59,0-.86.41-.48.51-1.25.3-2.31l.56-.26h.57c.42.77.6,1.07,1.58.86.37-.14.76-.11.75.1-.07,1.99-.99-1.45.97-.96.39.27.82.7,1.29,1.29-.02-.51.12-.66.43-.43.51-1.3.94-1.01,1.29.86,1.12-1.82.22-5.14-1.54-1.43l-.6-.29c-.59.11-1.56-1.23-.86-1.72,1.34.67,2.88-2.87,3.64-2.57.38.32.84.64,1,1.16.34,1.14-.6,3.45.95,3.14-.49-1.49.56-1.54.82-2.08.13-.27-.07-.8.16-1.25.04-.09,1.36-.16.72-.96-.23-.29-.65.71-.85-1.3,2.84.85,1.03-9.43.5-9.54-.54.13-.99.16-1.36.09Z"/>
      <path class="cls-17" d="M18.58,82.88c.53.27.99.64,1.23,1.19,5.86,13.35,13.19,25.53,24.97,34.03h.43c-1.53.19-3.44.62-5.15.86l1.72-.64c-2.61-3.12-5.46-5.98-8.14-9.03-7.72-8.78-11.93-14.92-15.48-26.4.12-.38.27-.37.43,0Z"/>
      <path class="cls-10" d="M114.78,106.93l.22.75c-1.13,1.85-2.54,3.52-4.22,5.02l.56.25c.6-.57.82-.33.43.43-.16.22-.31.59-.43.86-.46,1.22-1.18,1.94-2.15,2.15-.3.3-.57.53-.86.86-.47.52-1.73.68-.86,1.72-1.88-.21-3.78-.65-5.58-.86.38-.39.95-.68,1.72-.86,2.62-4.01,6.87-8.25,11.17-10.31Z"/>
      <path class="cls-35" d="M82.14,120.68c-.1.55-.3.96-.86.86l-.19.54c-2.41-.47-2.82.53-1.53,2.46,1.21.06,1.35.99.43,1.72-2.88-4-1.82,2.69-2.15,3.01-.06.06-1.72.08-1.72,0v-8.38c0-1.76,4.69-1.39,6.01-.21Z"/>
      <path class="cls-87" d="M95.89,129.27c-.65.2-1.42.92-2.58,1.29-.66.21-.94.36-1.72.43-.14.01-.29,0-.43,0-1.31-.27-2.03-.84-2.15-1.72-.75-.08-.81-.75,0-.86l.95-.27c3.34,2.95,5.5-3.12,3.64-5.6l.13-1c-.57-.57-.34-.58.43-.43.97-.66,2.45.76,2.88,1.72.13.29.68,3.94.65,4.15-.05.32-1.15,2.55-1.82,2.29Z"/>
      <path class="cls-60" d="M99.75,117.24c1.27-.84,2.59-.84,3.87,0-.46.39-.54,1.14-1.72.86-10.83-1.24-23.5-2.11-34.36-1.72h-1.29c-.25-.28-.47-.73-.26-.94,1.03-1.01,6.56-.05,7.89.32,1.73-.46,3.55-.49,5.28-.39,5.61.3,11.21.61,16.78,1.43,1.29-.81,2.53-.28,3.82.44Z"/>
      <path class="cls-90" d="M113.93,125.83c-.12,2.38-.03,1.39,1.72,1.94.75.23,1.02.07.85,1.07l-2.99-.42-.45,3.86c.42.96-.95.76-1.72.43-.42-.4-.45-.29-.41-.99.05-.85,1.43-7.67,1.7-8.03,2.43-.46,2.94.33,1.29,2.15Z"/>
      <path class="cls-106" d="M68.83,119.82c-.06.41-.77.7-2.15.86-2.44,1.22-2.78,4.83-1.31,7.01.35.53.93.46,1.31.72,2.38.43,1.54,1.35-.43.86-.53.6-1.25.31-2.15-.86-1.45-2.32-2.59-3.56-.95-6.32,1.2-2.01,3.43-2.51,5.67-2.27Z"/>
      <path class="cls-32" d="M31.46,124.97c.15-.45-.03-3.47,1.29-2.37.38.32,5.36,7.73,5.53,8.22.26.72-1.06,1.04-1.4,1.03-.3,0-1.33-1.82-1.56-2.16-1.05-.65-1.48-1.22-1.29-1.72l-.91-.05c-.3-.85-.71-1.55-1.24-2.1-.79,1.38-.77.36-.43-.86Z"/>
      <path class="cls-105" d="M41.34,122.82c.05,2.4,2.32,1.81,4.17,2.91,2.52,1.49,1.78,2.42.55,4.39-.73.51-1.14.49-.86-.43.99-3.88-4.04-1.91-4.9-4.74-.53-1.73-.5-1.81.61-2.99,1.27-.86,1.56-.2.43.86Z"/>
      <path class="cls-44" d="M86.44,124.11c-.03-.69-.12-1.63.02-2.26.03-.14,1.87-1.99,2.01-2.02.99-.2,4.86-.18,5.94-.05.85.11.58.81,1.16,1.03.49.18,1.15-.2,1.18-.14.12.25-.15.98.02,1.4.15.4.76.32.84.62.27,1.09-.27,2.72,0,3.72.13.49,1.09-.07.87.92-.09.39-.73.03-.87.53-.12.42.12,1.26,0,1.41-.12.15-1.32-.12-1.72,0,1.78-3.39,2.14-6.31-1.72-8.16-.14.09-.27.15-.39.13-2.74-.48-3.07-.46-5.62.73.54,1.02-.57,2.75-1.72,2.15Z"/>
      <path class="cls-46" d="M102.76,124.11c.36,1.05.54,2.3.86,3.44,1.09.57,1.77,1.81.86,3.01-.34.38-.89,1.78-1.51.86-.31-.46-1.69-4.71-1.93-5.59-.52-.29-1.5-4.37-1.35-4.56,1.04-1.24,3.49,1.35,3.06,2.84Z"/>
      <path class="cls-73" d="M82.14,120.68c.23.2.62.17.77.71.98,3.38-1.75,2.98-1.58,4.15.1.67,3.16,3.59,2.52,4.16-1.31,1.15-3.48-2.39-3.86-3.43-.12-.33-.49-1.55-.43-1.72-.62-.61.81-2.96,1.72-3.01.12-.77-.36-1,.86-.86Z"/>
      <path class="cls-18" d="M52.08,120.68c-.39,1.34.35,2.81.43,3.87,1.12.16,1.14.66.06,1.48,1.23.18.93,1.11-.06,1.52.09,1.32-.1,4.17-1.5,2.15-.6-.86-.64-4.37-.64-5.58-.9-2.86-1.12-4.75,1.72-3.44Z"/>
      <path class="cls-62" d="M56.37,120.25c.56-.39,1.48-.73,1.95-.02.31.46.7,7.72.63,8.84-.08,1.22-1.06.45-1.72.63-.01-.14,0-.29,0-.43.94-.73,1.09-2.72,0-.86-.9-.45-.2-2.78-.43-3.01-.3-.3-5.55-.49-4.3,2.15-.08-1.22.06-2.22,0-3.01l4.3-.43c-.22-1.35-.47-2.45-.43-3.86Z"/>
      <path class="cls-15" d="M42.99,133.62c1.04.66-.26,2.18-.26,2.31,0,.49,1.49,1,1.18,1.92l-2.57-1.29c.02,1.49.39,1.97-1.29,1.72l-.43-4.73c.82.16,2.85-.28,3.37.06Z"/>
      <path class="cls-83" d="M66.25,131.84c.19.54.22,1.2.43,1.72-.06.74.08,1.6.43,2.58-1.02,1.1-1.6-.58-2.78-.45-.14.02-.37,1.71-1.08.88-.21-.24.14-3.91,0-4.72.95-.1,2.09.14,3.01,0Z"/>
      <path class="cls-82" d="M88.16,121.96c1.5-.9,1.79-.68.86.86.66,1.11,1,4.61,0,5.58.04.27-.03.58,0,.86-.02.84-.35.52-.86,0-1.25-2.1-1.62-2.57-1.72-5.15.6-.82.99-1.39,1.72-2.15Z"/>
      <path class="cls-72" d="M101.04,133.56c.84,3-1.03,5.97-3.44,3.01-1.53-.52.72-3.69,1.29-3.43.08.03-1.19,1.08-1.29.43.17-.28-.48-.75.62-.89,1.34-.17,2.05-.15,2.81.89Z"/>
      <path class="cls-56" d="M104.57,138.62c-1.78-1.01-.9-4.97,2.23-4.62,2.54.28,3.24,3.51,1.55,4.51-.54.32-3.29.39-3.78.11Z"/>
      <path class="cls-67" d="M31.89,125.83c.75.1.93.61.53,1.54.79-.23,1.18-.22,1.61.6.33.5.85,1.08,1.29,1.72-.57-1.04-3.63-.74-4.22-.36-.5.33-.73,4.69-2.22,3.36-.34-.3,2.26-6.78,2.58-7.73v.64c.07.28.43.2.43.22Z"/>
      <path class="cls-100" d="M103.62,127.55c.93-.02,1.26.39,1.85-.56.55-.9,1.76-3.01,2.32-3.64.39-.43.92-.97,1.42-.52.34.3-4.12,7.05-4.72,7.73.47-1.17-.72-1.23-.85-1.61-.16-.46.08-1.07-.01-1.4Z"/>
      <path class="cls-25" d="M35.82,137.06c-.4.59.59,1.97-.92,1.65-.87-2.03-.2-7.1,2.37-4.31,2.02,2.18-1.12,2.17-1.45,2.66Z"/>
      <path class="cls-49" d="M57.23,128.41c-.11-1.79.02-3.56,0-5.34,0-.95-1.11-2.66.43-2.61.36.26.84,5.36.88,6.43.05,1.22.53,2.82-1.31,2.38-.01-.29.02-.57,0-.86Z"/>
      <path class="cls-16" d="M112.64,123.68c.95-1.29,4.86,1.02,6.45.43.57,3.09-3.93-.82-5.16,1.72.07-1.37.99-2.21-1.29-2.15Z"/>
      <path class="cls-77" d="M101.04,133.56c2.36,3.19-1.39,6.7-3.87,3.44-.37-.57-.17-.78.43-.43l2.52.8.92-3.8Z"/>
      <path class="cls-19" d="M101.04,125.83c-1.53.27-.65-1.4-.87-2.28-.04-.16-1.64-1.13-.85-2.87,2.59.12,4.01.63,3.43,3.44-.23-.65-1.58-3.53-2.57-2.57-.16.15.72,3.8.86,4.29Z"/>
      <path class="cls-57" d="M112.63,134.85c.4,1.14-.69,3.17-.4,4.02.33.98,1.71.26,1.69,1.12-.82-.03-2.65.35-2.97-.7-.13-.41.24-4.93,1.68-4.45Z"/>
      <path class="cls-12" d="M90.3,132.7c.2-.04.43-.31.64-.41,1.23,1.3-.24,2.59,2.36,2.13.79.23.78.59,0,.86-.54.13-2.06-.34-2.16.29-.19,1.18.61,1.66-1.28,1.42l.43-4.29Z"/>
      <path class="cls-81" d="M45.64,121.53c1.68.29.91,3.31-.43,1.72-1.05-1.82-2.41-1.65-3.87-.43,0-.31-.01-.89-.43-.86,1.88-2.01,2.67-1.19,4.72-.43Z"/>
      <path class="cls-84" d="M45.21,129.7c.08,0,.55.48.86.43-.16.26-.63.51-.86.86-.53.87-2.12.45-3.01,0-.51-.3-1.48-.5-1.67-1.12-.18-.57.24-1.46.6-1.45.25,0,1.12,1.46,1.82,1.65.89.24,1.6-.38,2.27-.37Z"/>
      <path class="cls-97" d="M66.25,129.27c1.4-.32,2.69-.32,3.87,0,.12-.8.74-1.1,1.29-.43.29-.88.58-1.02.86-.43.12-.38.27-.37.43,0-.26,2.19-2.58,1.7-4.29,1.72-.28,0-.58.02-.86,0-.73-.04-1.56.14-2.25-.02-.59-.13-.97-1.35-1.18-1.7.77.18,1.38.63,2.15.86Z"/>
      <path class="cls-102" d="M95.03,139.57c1.14.03,2.3-.07,3.44,0,.05.24-.08.79,0,.86.16.14,1.48-.35.72,1.61-.38.97-1.74.88-2.44.97-1.05-.91-.48-1.77,1.72-2.58-.46.81-2.31,1.4-2.58,0-1.41-.04-4.72.59-4.29-.86,1.14.02,2.29-.03,3.44,0Z"/>
      <path class="cls-48" d="M60.67,134.42c1.02,2.46.03,3.06-1.29.86-.72.02-1.15-.56-1.29-1.72.36-.97.69-1.32.86-1.72.35.81,1.43,1.89,1.72,2.58Z"/>
      <path class="cls-98" d="M72.26,124.11c.32,1.34.46,3.08,0,4.29-.24.25-.56.31-.86.43-.4-.38-.82-.24-1.29.43-1.99.46-1.76.62-3.87,0,.66-.05,1.44.28,1.28-.42-.36.03-.59-.25-.86-.44h3.44c-.24-1.66.89-3.64-1.29-3.65.54-.77,2.71-.88,3.43-.65Z"/>
      <path class="cls-58" d="M46.92,135.28c.04,1.17.43,2.97-.86,2.58-.04-1.46-.74-3.07-.37-4.45.61-2.29,1.2,1.01,1.23,1.88Z"/>
      <path class="cls-79" d="M113.07,132.27c.53-.01,2.83.47,3.45.65.76.22,1.01.09.84,1.07-1.39-.44-5.08-.39-6.01-1.29.61.34,1.56-.43,1.72-.43Z"/>
      <path class="cls-66" d="M52.08,120.68h-1.72c0,1.14,0,2.29,0,3.44-1.3.24-.82-.66-.86-1.48-.12-2.71-.25-3.99,2.58-1.95Z"/>
      <path class="cls-86" d="M68.83,119.82c1.01.11,4.03,1.43,3,2.57-.24.26-3.65-2.88-5.15-1.72.75-.37,1.45-.47,2.15-.86Z"/>
      <path class="cls-80" d="M49.5,132.7c.76.88,1.19,1.74,1.29,2.58l-1.08,2.15c-.1.04-.57-1.06-.64-1.29-.36-1.12-.64-2.55.43-3.44Z"/>
      <path class="cls-93" d="M83.86,132.7c1.54-.8,1.75-.68.86.86.32.71.46,1.57.43,2.58.54.54.3.53-.43.43-1.31-.51-.76-.57-1.72-1.72.08-.59.48-1.73.86-2.15Z"/>
      <path class="cls-14" d="M93.31,132.7c.41.25,1.25-.1,1.27,1.03,0,.48-.78,4.38-1.26,3.7-.03-.71.02-1.43,0-2.15-.01-.29,0-.57,0-.86v-1.72Z"/>
      <path class="cls-28" d="M50.79,133.56c.16.21.66,1.31.86,1.72.89-.4.8.57.43,1.29-.02.02.04.46-.21.42-.81-.3-.84-1.4-1.08-1.71-.77-1-1.72-.85-1.29-2.58.38-.03,1.04.54,1.29.86Z"/>
      <path class="cls-94" d="M97.6,133.56l1.29-.43c-1.16,1.23-1.05,1.99-1.29,3.43-.03.2-.23.38-.43.43-1.41-1.86-.56-1.79.43-3.44Z"/>
      <path class="cls-61" d="M88.16,132.7v.86c-.05.61-.69.6-.86,0-.82-.04-1.68-.04-2.58,0,.1-.91.05-.96-.86-.86,1.7-1.89,2.85-.35,4.29,0Z"/>
      <path class="cls-68" d="M81.28,133.13c-.67.1-1.39.1-2.15,0-.01.5-.16.93-.43,1.29-2.94-2.23,2.09-4.11,2.58-1.29Z"/>
      <path class="cls-33" d="M79.14,133.13c.54-.49,1.52.08,1.29.86.79.8,1.09,1.29.43,2.15-.36-.1-.79-.53-1.29-1.29-.35-.31-.83-.39-.86-.43-.1-.13-.52-1.57-.43-1.72.26-.02.82.46.86.43Z"/>
      <path class="cls-1" d="M79.57,134.85c.13.11,1.09.04,1.29,1.29-.34.44-.76.69-1.29.86-.04-.12-2.03-.61-1.72-1.72,1.14.13,2.96,2.14,1.72-.43Z"/>
      <path class="cls-50" d="M45.64,121.53c.29.11,1.15-.14,1.28,0,.18.21-.09,2.01,0,2.57-2.29.3-1.4-.31-1.72-.86,1.32.27.97-.75.43-1.72Z"/>
      <path class="cls-44" d="M89.01,129.27c.1.06.18.49.75.76.72.34,1.7-.39,1.4.96-2.39.05-1.96.03-3.01-1.72.25.06.72-.08.86,0Z"/>
      <path class="cls-39" d="M45.21,130.98c-.17.26.5.76-.62.89-1.87.21-1.64-.46-2.38-.89h3.01Z"/>
      <path class="cls-55" d="M81.28,133.13l-.86.86c-.22-.23-1.07-.34-1.29-.86.32-.25-.67-1.61,2.15,0Z"/>
      <path class="cls-3" d="M72.69,128.41h-.43v-4.29c.67.22.52,3.48.43,4.29Z"/>
      <path class="cls-51" d="M82.57,139.14c-2.33.73-5.5,3.05-7.95,3.05-2.83,0-6.66-3.12-9.23-3.48,2.68-.99,5.98-.15,8.82-.45l8.36.88Z"/>
      <path class="cls-91" d="M56.37,138.71c.24,1.3-.66.83-1.48.86-1.79.07-3.6-.05-5.39,0-.32,1.16.54.64.86,1.16.16.26-.09.85,0,.98-1.64.19-1.59-1.16-1.72-1.29.18-.66-.59-1.64.63-1.72,2.28-.15,4.78.03,7.1,0Z"/>
      <path class="cls-27" d="M98.46,140.43c.8.68-2.1,1.58-1.72,2.58-.28.04-.59-.04-.86,0-.25.71-.74.82-.86,0l.86-2.58c.54.02,2.47-.09,2.58,0Z"/>
      <path class="cls-103" d="M91.59,145.59s.15.62-.07.78c-.31.21-2.8.89-3.36.94.27-1.73,1.82-1.95,3.44-1.72Z"/>
      <path class="cls-63" d="M51.65,142.58c1.51-.94,2.01-.34,2.98.73l.03.55c-.67-.35-1.63-.08-3.01-1.29Z"/>
      <path class="cls-103" d="M95.03,143.01c.27-.04.59.04.86,0-.15,1.87-1.79,1.44-2.58,1.72-.11-.76.97-1.6,1.72-1.72Z"/>
      <path class="cls-22" d="M32.32,23.61c2.12.66,4.85,2.87,7.18,3.77,11.11,4.29,23.06,3.23,32.12-4.63.53-.46,2.78-3.43,3-3.43,11.08,14,29.71,13.08,43.46,3.48,24.9,22.02,20.26,59.54.55,83.47-1.82,2.21-5.53,5.24-6.86,7.1l-.43-.43.32-1.14c16.36-16.26,26.69-41.89,19.91-64.66-2.21-7.41-6.95-16.55-12.61-21.85-.71-.67-.98-.72-1.26-.48-3,2.62-11.29,5.39-15.26,6.13-11.22,2.08-19.78-1.76-27.94-9-7.84,7.71-18.32,11.01-29.17,8.62-4.55-1-10.6-2.97-13.45-6.53-.42-.51-.2-.51.43-.43Z"/>
      <path class="cls-65" d="M32.32,23.61c-.07.19-.24.38-.43.43.13.36.1.72-.22.86-5.51,2.27-11.42,15.31-13.08,20.83-3.83,12.75-2.61,22.64.23,35.29.14.64.04,1.27-.25,1.87h-.43c-5.28-17.11-4.85-33.77,4.38-49.52,1.25-2.14,6.17-9.69,8.4-10.1.69-.13.92.21,1.4.36Z"/>
      <path class="cls-60" d="M111.35,114.23c-.55,1.28.38,2.6-2.15,2.15.67-.67,1.13-1.73,2.15-2.15Z"/>
      <path class="cls-109" d="M125.09,35.21c9.99,15.66,9.67,35.59,1.72,51.97-2.29,7.37-6.94,13.96-12.03,19.76-3.67,3.34-7.28,7.01-11.17,10.31-1.29,0-2.58,0-3.87,0l-.85-.56c.84-2.59-1.4-3.25-1.16-.13-.74.72-15.02-1.11-16.74-2.35l-1.21.19c-1.11,1.45-1.87,1.57-3.57.77-1.53,1.03-4.06.76-5.4-.5-1.83,1.48-2.84.22-3.21-1.75-3.03,1.71-4.78.94-3.55-2.68,2.63-3.35,4.63-6.99,6-10.94,1.42.06,2.7-.25,3.85-.94l4.51,1.62c3.48,2.25,7.53,2.94,12.15,2.06.84.94,1.73,1.6,2.68.44.7-2.1,1.82-4.5,4.43-3.62.11-2.38,2.3-5.6,4.52-6.55.61-.68,3.72-12.66.88-13.47-4.05-.86-5.34-2.88-1.36-5.36,3.06-2.21,4.55-4.8,4.47-7.76-.77-.17-.9-.83-.4-1.98.89-1,1.05-5.17.72-5.29-5.59-2.08-10.17-2.14-16.03-1.21-3.52-.67-2.09-2.36-.38-4.36l.61-3.05-.85-.97c.79-5.64-4.78-14.22-9.64-16.64-1.18-.59-6.9,6.75-7.79,8.1l-1.05.06c-.94,1.01-1.93,2-2.95,2.97-.08,3.3.17,6.58.76,9.84,3.55,2.58.52,5.7-1.74,1.39-2.56-.08-3.5-1.67-1.82-3.81.12-.9-.22-5.83-.56-4.55,1,3.38-.31,8.47-4.41,5.55-.84-2.04-2.71-2.12-5.61-.22l-.45.83c-4.34-.54-4.32.18-4.08,4.25s.74,8.04,2.74,11.52l-.36,1c1.9,3.08-1.03,2.86-3.01,1.72-2.2-.47-5.4-.82-7.69-.78-2.05.04-7.25,1.65-4.69,3.76l.79,1.74c.32.85,1.1,7.57.57,8.1-.14.14-.35.22-.57.28l.39.46c-.99.72-.41,1.23,1.73,1.5,2.09,11,15.01,12.47,23.73,9.17,1.91.84,1.51,3.3-.52,3.53-1.49-.69-3.95.39-1.62,1.33,1.04,1.75-3.47,7.01-4.84,8.54-1.46,2.01.41,4.38,2.87,4.22,1.53-.21,3.57.96,2.85,2.59-.27.62-6.44,1.66-5.92-.64l-4.99,1.77c-1.51.31-3.04.27-3.46-1.41-3.99,1.27-5.98-.82-7.59-4.11-4.76-3.28-7.74-6.38-8.82-12.27-4.35-3.24-8.51-8.67-7.74-14.35l-1.19-3.52c-2.58-.86-3.51-2.91-2.78-6.17-1.35-2.51-1.78-4.67-1.64-7.64-.16-1.5-.36-3.41-1.08-3.42-.17-12.54,3.22-24.61,11.18-34.46,3.55-4.39,3.86-1.56,7.85.18,10.24,4.46,21.43,5.07,31.36-.58,1.23-.7,6.11-4.73,6.88-4.58,12.15,11.81,29.01,10.59,42.95,2.58,3.13,2.19,4.44,5.94,7.15,8.52Z"/>
      <path class="cls-36" d="M71.41,40.36l.42,1.04c-4.42,8.37-.68,13.5,5.93,18.42,1.41,2.58-2.42,15.35-3.39,18.58-3.4,11.33-7.38,23.28-16.15,31.52.03.24,1.74,1.23,2.2,1.3,2.05.29,7.66-10.93,8.68-13.12l1.02-.19c.86-1.25,1.43-2.68,1.72-4.29-.37-.14-.37-.29,0-.43.56-1.06,1.13-1.63,1.72-1.72.12-.38.27-.37.43,0,.36.03.77.13.88.43.1.29-1.48,4.13-1.72,4.12-.83-.03,2.16,1.7,2.8,2.03,4.56,2.33,11.45,5.18,16.08,2.01l.38-1.08c5.03-2.47,9.5-10.03,10.55-15.39.53-2.71-.3-3.13-2.93-3.7-8.55-1.87-16.81-1.5-22.52,6.03l-1.38.4c-.15.8-.43,1.08-.86.86-1.19,1.33-1.47.61-.86-2.15-.39-3.77.52-7.98,2.58-11.17.86-1.3,2.32-.18,3.26.64,1.93,1.08,3.96,2.09,6.19,2.37l1.16-.62c7.12,1.6,13.13-2.57,15.72-9.12l1.15-.57c.66-1.22,1.23-1.51,1.72-.86.02.07.73.22.87,1.07.19,1.22-.57,3.13-1.42,3.96-1.32,1.29-1.86,1.62-3.32,3.34-.47.55-3.21,1.8-1.88,2.83,1.54,1.2,4.42.25,4.48,4.03.03,1.89-1.05,10.75-2.13,11.96-.39.44-1.1.27-1.51.73-.16.18-2.42,3.35-2.51,3.55-.41,1.01.43,2.73-.53,2.89-.52.08-1.26-1.42-2.91-.03-1.1.93-.58,4.05-3.55,3.87-.92-.06-1.41-1.28-2.28-1.47-1.74-.4-5.93.66-8.34.12-1.49-.34-1.98-1.82-2.9-2.25-.63-.3-4.28-1.23-4.84-1.09-.32.08-.26.78-.58.85-.66.16-2.56-.15-2.71,0-.13.14-.28,2.55-.78,3.73-.99,2.35-4.37,5.11-4.78,7.68-.6,3.74,3.14-.5,3.84.19-.2.67.49,3,1.07,3,.12,0,.69-1.05,1.63-.81.7.18,1.35,1.61,2.71,1.68s1.67-1.33,2.53-1.31c.63.01,1.21.99,1.71.88.44-.1.47-1.91,3.01-1.75,1.34.08,2.02.95,3.12,1.21,2.18.5,4.31.26,6.31.56,1.21.18,5.74,2.22,6.68.82.26-.38-1.36-2.59,1.48-2.14,2.08.33.99,1.99,1.09,3.44-10.19,0-20.59-1.41-31.14-1.3-.73,0-1.91-.27-2.36.44-4.96,0-8.75.49-13.53.86-1.17.09-5.6.51-6.34.36-1.21-.24-9.44-8.68-10.85-10.23-11.01-12.22-17.59-27.18-17.82-43.81,1.18-.79.66-.37,1.05.44,1.61,3.37.54,4.65,1.11,7.5.17.85.93,1.18,1.25,2.18.53,1.64-.2,3.56.09,4.61.34,1.2,2.21,1.28,2.72,2.04.11.17,1.28,3.59,1.32,3.85.16.94-.31,1.83-.27,2.8.03.67,2.93,6.51,3.47,7.31.88,1.3,3.89,2.7,4.5,4.09,1.03,2.33,1.09,5.3,3.2,7.86.3.37,4.42,2.91,5.64,4.34.85.99.95,2.26,1.48,2.82,2.35,2.48,5.68.12,8.37.43l-2.14.86c-.11.86-.09.72.55.98,1.98.81,5.71-2.38,8.04-1.83-1.21,2.94,2.57,1.13,4.29,1.28-.5-3.02-5.09-.44-5.92-3.31-1.02-3.52.56-3.87,1.98-6,.49-.73,3.16-4.69,3.08-5.07-.21-1.05-3.19-.54-4.09-.65-.64-.08-1.32-.34-.63-.86,2.63,1.11,4.02-1.39,5.03-1.67,1.19-.32,2.88,1.4,2.7-1.34-1.99-1.21-2.4.57-3.3.79-.27.07-5.02.53-5.5.53-.99,0-6.07-.88-7.05-1.14-4.13-1.12-7.1-4.32-8.51-8.25-.2-.55-.04-1.73-.11-1.81-.14-.14-2.78.38-3-.65-.16-.75,1.29-1.46,1.29-1.71v-8.38c0-.11-1.96.13-2.15,0-.98-.73,1.3-.89.85-1.28-2.98-.83.41-3.97,2.05-4.61,2.52-.99,4.03-.04,6.38.26,1.44.18,3.69-.56,4.46.91-.92.19-1.92.19-3.01,0l-.46.83c-2.19-.17-4.36-.06-6.5.31-1.55,16.03,8.38,28.05,25,21.19-.73-1.67-.83-3.03-.32-4.06,3.94,1.94.03-7.28-1.39-9.38l.42-.3c.29-.23.14-.51-.43-.86-.8-.49-1.66-1.06-2.58-1.72-1.06.62-1.32.25-.86-.86-1.23-1.06-1.35-1.81-.36-2.25,3.14.01,6.12.19,8.95.53-.41,1.62,1.6,2.13.77.82l.52-.82c-.58-.43-.15-.64.43-.86-.91-1.08-.19-1.79.86-.86.97.37.35-1.92-.43-2.15-1.17-.1-1.08-.45,0-.86-.53-1.5.87-2.06,1.72-.86.03-1.12-.28-2.19-.93-3.22l.5-1.08-1.16-.79c-2.04-6.79-7.47-10.87-14.52-11.17l-1.07-.93c.9-2.16,4.11-3.09,5.83-1.31.89.92.18,2.6,2.33,1.53,2.45-1.22.58-6.39.86-6.66.59.09,1.68-.2,2.11.04.25.14.33,5.31.28,5.78-.09.89-1.47,1.58-.7,2.52.43.53,1.47.05,2.17.46.3.17,1.5,2.69,2.15,1.93.05-.06.07-1.49-.07-1.66-.18-.2-1.31.07-1.6-.75-.27-.78.1-2.03-.06-2.94-.47-2.56-.7-.94-.56-4.38s-1.34-2.71,2.03-4.84c.63-.4-.3-2.22,1.55-.9Z"/>
      <path class="cls-60" d="M31.89,24.04c13.75,9.09,27.76,9.27,40.78-1.1.77-.61,1.05-1.93,1.95-1.94,2.6,1.81,4.63,4.34,7.38,5.96,9.63,5.68,20.93,4.59,30.72-.05,1.79-.85,3.59-2.19,5.28-3.24,15.66,14.5,19.29,35.56,13.74,55.76-3.64,13.23-10.81,23.96-20.4,33.5-1.81,1.8-4.36,5.17-6.87,4.94,3.39-3.67,7.83-6.65,10.31-10.95,5.37-5.64,9-12.51,12.46-19.33,7.03-17.51,8.03-36.24-2.15-52.83-.57-.93-.98-2.6-1.72-3.65-1.35-1.91-3.53-3.85-4.99-5.76-7.33,3.97-15.82,7.58-24.37,6.78-7.47-.69-13.86-4.65-19.39-9.42-3.73,3.32-7.65,6.18-12.48,7.73-9.46,3.04-18.99,1.04-27.69-3.17-.76-.37-2.46-1.83-2.85-1.89-1.6-.25-8.03,10.12-8.95,11.96-11.89,23.8-4.73,51.13,12.03,70.45,3.16,3.64,6.88,6.73,10.1,10.3-1,.09-1.59-.32-2.36-.86-3.39-2.36-9.59-9.73-12.23-13.11-4.78-6.12-9.27-13.78-11.61-21.25-5.49-17.56-3.83-38.83,7.54-53.66,1.27-1.66,3.96-4.76,5.77-5.18Z"/>
      <path class="cls-64" d="M127.24,87.6c-.58.57-.55.35-.43-.43,7.13-17.34,7.86-35.4-1.72-51.97v-.43c10.89,17.95,10.08,33.92,2.15,52.83Z"/>
      <path class="cls-30" d="M85.58,138.71c0-.5-.17-.52.3-.86,2.29-1.63,2.74.02,4.65.05,1.49.03.94-.77,1.09-.87.57-.41,2.34,1.58,1.48,1.69-2.49.1-5.03-.15-7.51,0Z"/>
      <path class="cls-75" d="M51.65,135.28c1.22-.22,1.13-3.27,2.36-3,1.07.23.54,3.6.66,4.48.05.39-.67.32-.86.24-.25-.72-.49-1.23-1.29-.86-.11.22-.28.29-.43.43-.03-.48-.22-.87-.43-1.29Z"/>
      <path class="cls-13" d="M72.69,132.7c-2.01,1.28-.42,3.58-2.57,3.86.66-2.2-1.17-2.83-1.29-4.72,1.16-.43,1.24,1.7,1.93,1.71.19,0,1.33-1.45,1.72-1.71.39-.02.19.56.21.86Z"/>
      <path class="cls-69" d="M59.38,135.28l-2.57,1.72c-.32-1.36.96-2.57,1.28-3.44,1.71.2.98,1.21,1.29,1.72Z"/>
      <path class="cls-38" d="M88.16,135.71c.38.12.37.27,0,.43-1.65.97-1.51,1.18-3.44.43.17-.08.34-.41.43-.43-.02-.72,3.04-1.64,3.01-.43Z"/>
      <path class="cls-41" d="M66.68,133.56c.44,1.09,1.54,1.38.43,2.58-.61-1.04-2.22-1.77-.43-2.58Z"/>
      <path class="cls-104" d="M52.51,136.14c.29-.56.52-2.62,1.29-1.72.16.18-.1,2.03,0,2.57-.29-.11-.52-1.15-1.29-.86Z"/>
      <path class="cls-8" d="M55.92,137s.15.95.45,1.28l-2.57-.43c-.09-.58,2.04-.93,2.12-.85Z"/>
      <path class="cls-30" d="M87.3,133.56c.24-.02.69-.05.86,0,1.08.36,1.68,1.66.75,2.49-.22.2-.65.02-.75.08v-.43l-.86-.31c-3.6.94-2.91-2.72,0-1.84Z"/>
      <path class="cls-92" d="M81.28,121.53c-.44,2.74-1.55,2.53-1.72,3.01-2.41.43-1.12-2.68-1.29-3.87l3,.86Z"/>
      <path class="cls-44" d="M93.74,121.53c3.46,2.21.17,11.92-4.72,6.87-.24-1.62-.83-4,0-5.58-.11-2.16,3.53-2.78,4.72-1.29Z"/>
      <path class="cls-59" d="M94.17,121.11l-.43.43c-1.47-.94-4-.1-4.72,1.29.1-.91.05-.96-.86-.86,1.95-2.01,3.41-2.11,6.01-.86Z"/>
      <path class="cls-53" d="M34.04,127.98l-2.57.43c-.25-.86.44-1.89.43-2.57,1.24-1.12,1.68,1.44,2.15,2.15Z"/>
      <path class="cls-6" d="M106.03,134.46c2.49.02,2.53,3.64.37,3.84-2.48.23-1.42-3.61-.37-3.84Z"/>
      <path class="cls-4" d="M70.12,129.27c-.57-.31.36-1.09.45-1.91.11-.89-.11-1.9-.02-2.82h1.28s-.43,4.3-.43,4.3c-.45.18-.81.32-1.29.43Z"/>
      <path class="cls-2" d="M87.3,133.56c-.92.06-1.12,1.05-2.15,1.07.99,1.44,1.78-.54,3-.21v1.29c-.73-.3-1.92.22-3,.43-.81-.82-.89-1.57-.43-2.58.6-1.31,2.03-1.21,2.58,0Z"/>
      <path class="cls-70" d="M71.41,40.36c1-1.78,5.88-7.65,7.49-8.61.61-.36.89-.57,1.65-.35.68.2,4.53,3.85,5.26,4.65,3.89,4.31,5.06,7.95,4.93,13.76-.14,2.07-.59,3.53-2.09,5-.44,1.94-2.71,4.92-4.78,4.88-1.46.91-1.74-.23-.86-3.44l-.86-.85.12-5.4c-.88,7.73-2.24,15.56-4.48,22.95l-.79.91c-.84,3.72-1.63,7.48-2.58,11.17.17,2.14-.41,4.01-1.72,5.58.75.74-.25,1.93-.86,2.58-.03.14.02.29,0,.43-.28,1.63-.85,3.06-1.72,4.29-1.03,2.47-6.92,13.95-9.25,14.19-1.31.13-3.22-1.38-4.05-2.37,4.88-3.96,7.79-8.44,10.37-14.1,3.92-8.59,7.92-21.48,9.6-30.77.2-1.11.81-3.43.42-4.29-.41-.91-5.06-4.2-6.24-5.82-3.05-4.17-1.97-10.12.43-14.39Z"/>
      <path class="cls-20" d="M55.08,51.53c9.11.43,14.15,4.33,16.75,12.88.23,1.47-.41,2.45-1.72,1.29-2.35-.63-4.93-3.27-6.44-5.15-.69-.27-.83.01-.43.86,1.87.3,4.61,2.89,5.98,4.55,1.55,1.37,1.99,2.57,1.32,3.61.08.21-.06.61,0,.86.99.05,1.17,1.72.43,2.15-.45-.03-.66.54-.86.86-2.55.81-6.67.7-9.56.42-3.09-.3-7.23-1.13-7.62-4.71-2.72-3.69-3.78-12.11-3.01-16.54.28-1.63,3.67-1.14,5.16-1.07Z"/>
      <path class="cls-85" d="M83,56.25c-.8,2.52-.51,3.66.86,3.44,3-2.91,5.53-5.82,6.87-9.88-.02,1.04.21,2.72,0,3.57-.09.38-2.99,1.43-1.29,2.65,1.42,1.02,9.28-.15,11.83.2.64.09,5.55,1.56,5.7,1.81s.19,3.86.11,4.47-1.54.97-.89,3.19l-1.72.86-.67-.69c.28-.73,1.9-6.15,1.61-6.41-2.16-1.98-13.76-1.98-16.55.25-1.67,1.28-3.34,2.13-5.01,2.56-.31,1.02-1.02,1.88-2.15,2.58.6.61.43.98-.43.86-.16.78.41,1.35,1.72,1.72,1.42-1.26,2.34-.02.86,1.29l.03,1.02c-3.24,2.1-3.79,3.54-1.66,4.32l4.04,1.86.16.96c-3.51.39-6.21-2.31-9.45-3.01,2.11-9.34,4.41-19.22,4.73-28.77.65.14,1.19,1.87,1.26,2.39.33,2.58,0,6.06.03,8.78Z"/>
      <path class="cls-37" d="M70.12,73.43c-.12.2-.03.69-.43.86-.03,1.2-.99,1.14-1.29,0-1.58-.1-7.15-.29-8.31.07-.92.28-.79,1.03-.28,1.65l-1,.28c-3.34-2.4-7.37-3.8-11.4-4.51l-.49-.93c1,.03,2.01-.04,3.01,0,1.98.08,3.28,1.07,3.01-1.72,3.82,5.19,11.46,4.88,17.18,4.29Z"/>
      <path class="cls-21" d="M127.24,87.6c-3.22,7.67-6.13,13.58-12.46,19.33,4.65-6.5,8.92-12.21,12.03-19.76l.43.43Z"/>
      <path class="cls-34" d="M46.92,70.85c3.72.38,10.1,2.63,12.88,5.15.22.2.65.64.86.86,2.69.77,6.52,10.86,5.74,12.57-.63,1.39-3.73-2.5-4.17-3.14l-5.44-4.14v-.56c-.78-.11-1.07.04-.86.43,4.33,1.89,8.47,6.22,9.02,11.17-.08,1.25-1.19,1.33-2.41,1.67-10.9,3.05-19.61-.59-22.46-11.81-.8-3.15-1.66-8.37-.91-11.47.24-1,6.54-.85,7.74-.73Z"/>
      <path class="cls-34" d="M92.02,100.06c-2.38,4.26-19.02-2.03-19.08-4.31,0-.18,1.53-3,1.69-3.22.92-1.27,5.59-4.74,7.09-4.07.35-1.05-.4-1.22-1.29-.86-.18,1.42-2.79,2.06-3.87,1.29-1.83.96-1.17-1.47-.43-2.58,5.56-7.7,12.79-9.34,22.07-7.68,7.37,1.31,6.57,2.91,4.14,9.19-1.81,4.67-5.36,10.47-10.32,12.23Z"/>
      <path class="cls-34" d="M83.86,62.26c6.13-6.05,14.48-6.3,22.29-3.4.61.71-1.24,6.55-1.68,7.69-3.03,7.97-9.28,12.5-18.04,10.31-.9-.23-6.19-2.63-6.4-3.29-.59-1.79,2.54-4.02,3.82-4.87.11-1.23.51-1.45,1.59-1.92-.99.63-1.67.55-2.02-.23-1.15.88-3.4,1.31-2.15-.86.15-.28.26-.6.43-.86,1.07-.69,1.79-1.55,2.15-2.58Z"/>
      <path class="cls-88" d="M63.24,78.58c.82-.13.96.15.43.86-.24,1.19.99,1.54,1.16,1.85.98,1.71.63,3.09.99,4.73.07.34.77.11.88.91.6,4.36-1.59,2.67-1.75,2.82-.4.38.04,2.77,0,3.44-1.74-4.56-5.39-8.04-9.02-11.17-.48-.85.11-.67.86-.43,1.81,1.23,4.58,2.74,6.02,4.07,1.23,1.14,1.88,2.82,3.42,3.66-.66-4.53-2.45-9.08-5.58-12.46,1.82.3,1.86.31,2.58,1.72Z"/>
      <path class="cls-109" d="M63.24,78.58h5.15c.42.38-1.87,2.04-.02,2.77.63.25,1.98-.81,2.42,1.08.15.67-1.67,2.35-2.54,2.12-1.17-.3-2.58-4.47-3.41-5.02-.39-.26-.9,0-1.18-.09-.61-.17-.31-.63-.43-.86Z"/>
      <path class="cls-43" d="M80.42,87.6c1.57-.68,2.99-.52,1.29.86-1.81.95-7.62,4.96-8.11,6.74-.12.43-.09.62.15,1,.83,1.3,9.11,4.38,10.85,4.62,2.18.29,5.34-.02,7.42-.76-.32.25-1.46,1.68-1.59,1.71-.97.21-4.81.16-5.95.04-1.31-.13-9.67-3.67-10.89-4.57-2.49-1.84-.56-1.85-.26-2.33.9-1.43.7-2.22.65-3.43-.22-.89,1.35-3.5,2.58-2.58.95-.54,2.78-.89,3.87-1.29Z"/>
      <path class="cls-71" d="M70.12,65.7c1.57-.44,2.52,1.55,2.15,3.01-.44.25-1.38.1-1.72.86-1.12-3.02-4.97-6.04-7.3-8.16-.84-.8-.7-1.05.43-.86,2.38,1.43,4.6,3.11,6.44,5.15Z"/>
      <path class="cls-109" d="M69.69,74.29c.07.05.79,1.48.81,1.57.25,1.52-1.66.6-2.31.58-.98-.03-6.2.36-6.22-.65-.02-.82,1.31-.46,1.71-.44,1.58.08,3.6.7,4.72-1.06.34.02,1.18-.08,1.29,0Z"/>
      <path class="cls-109" d="M71.83,58.83c2.44.33,1.61.82,2.39,2.54.5,1.09,1.98,1.06-.03,2.6-.95-.71-.53-1.99-.93-2.9-.26-.59-.79-.73-1.44-2.24-.55-.07-1.16.06-1.72,0v-1.71c1.29-.12,1.37.9,1.72,1.72Z"/>
      <path class="cls-52" d="M76.56,88.89c-.18.1-2.58,2.39-2.58,2.58h-.43c-.8.06-.69-.58,0-.86-.39-.95.52-3.52,1.72-3.44.32-.52.72-.66.86-.86.06.81-.33,2.09.43,2.58Z"/>
      <path class="cls-78" d="M74.41,85.03c.11,1.14-.53,2.46.86,2.15-.56.91-1.21,2.41-1.72,3.44-.09.95-.64.94-.86,0,.46-1.9,1.24-3.72,1.72-5.58Z"/>
      <path class="cls-74" d="M72.26,68.71c-.48-1.13-1.34-2.11-2.15-3.01.95.21.95-.91,1.72-1.29.29.97,1.84,3.5.43,4.29Z"/>
      <path class="cls-43" d="M71.83,93.62c-.33,1.98.57,2.87-1.72,4.29.49-1.18.66-3.17,1.72-4.29Z"/>
      <path class="cls-71" d="M70.55,70.42c1.99-.4,1.17.97,1.28,2.58-.39.14-.74-.42-.86-.43-.02-.74-.25-1.44-.43-2.15Z"/>
      <path class="cls-43" d="M73.55,90.61c-.09.19.09.67,0,.86-.15.3-1.34,2.13-1.72,1.72.18-.98.66-1.75.86-2.58h.86Z"/>
      <path class="cls-23" d="M80.42,121.54c.9.9-.82,2.61-1.71,1.71s.82-2.61,1.71-1.71Z"/>
      <path class="cls-26" d="M83.86,59.69c-.6.58-1.05,1.44-2.15,1.29l1.29-4.72c.01,1.46-.91,3.51.86,3.44Z"/>
      <path class="cls-45" d="M63.67,60.55l-.43.86c-.56-.51-1.52-.75-1.29-1.72,1.18-.41,1.4.67,1.72.86Z"/>
      <path class="cls-107" d="M83.43,66.56c2.4-.45,5.4-2.98,8.16-2.57-2.02,2.09-5.2,3.03-7.73,4.72.02-1.02.29-1.49-.86-1.29-.62-.28-.48-.56.43-.86Z"/>
      <path class="cls-54" d="M81.28,65.7c-.43,1.13,1.17,1.04,2.15.86-.16.19-.32.81-.43.86-.18.08-.75-.17-1.17.1-.21.14-1.28,2.53-2.27,1.61-.44-.4,1.43-2.93,1.72-3.43Z"/>
      <path class="cls-7" d="M83.86,62.26c.48,2.19-.81,1.53-2.15,2.58.94-1.43.92-1.36,2.15-2.58Z"/>
      <path class="cls-24" d="M56.8,81.59l-.86.43c-.64-.55-2.33-.76-2.14-2.15,1.1.43,2.03,1.06,3,1.72Z"/>
      <path class="cls-5" d="M80.42,87.6c.54-.2,1.09-.79,2.14-1.08,1.49-.41,3.17-.69,4.73-.63l-5.58,2.57c.2-1.15-.27-.88-1.29-.86Z"/>
    </g>
  </g>
</svg>