<?xml version="1.0" encoding="UTF-8"?>
<svg id="Layer_2" data-name="Layer 2" xmlns="http://www.w3.org/2000/svg" viewBox="0 0 150 150.69">
  <defs>
    <style>
      .cls-1 {
        fill: #536796;
      }

      .cls-2 {
        fill: #d66262;
      }

      .cls-3 {
        fill: #f6f6f6;
      }

      .cls-4 {
        fill: #756340;
      }

      .cls-5 {
        fill: #ab1717;
      }

      .cls-6 {
        fill: #8c96b6;
      }

      .cls-7 {
        fill: #881413;
      }

      .cls-8 {
        fill: #eeeded;
      }

      .cls-9 {
        fill: #fefefe;
      }

      .cls-10 {
        fill: #d4d3d2;
      }

      .cls-11 {
        fill: #c61a1b;
      }

      .cls-12 {
        fill: #fcfcfc;
      }

      .cls-13 {
        fill: #474645;
      }

      .cls-14 {
        fill: #e8a6a6;
      }

      .cls-15 {
        fill: #13120d;
      }

      .cls-16 {
        fill: #2b4178;
      }
    </style>
  </defs>
  <g id="Layer_1-2" data-name="Layer 1">
    <g>
      <path class="cls-14" d="M90.99,1.68c-.98,0-2.9-.19-3.69,0-.21.05-.17.5-.38.54-1.62.36-3.22.73-4.86,1.14-.25.06-.39.53-.5.53-.06,0-.78-.21-1.11-.28-1.69-.33-.66-.12-1.12.26-.59.5-.52-.49-.55-.52-.53-.47-.52.49-.73.54-.23.06-1.56.06-1.76,0-.06-.02-.45-.86-1.11-.55l-.28,4.16c0-1.11,0-2.22,0-3.33-2.58.11-5.25.21-7.77.56.03-.93.18-.79-.69-.84-.5-.03-3.19.2-3.57.32-.66.2-.51,1.82-.45,2.46-.54.08-1.27-.13-1.76,0-.29.07-.06.51-.32.56-.63.13-.33-.38-.47-.5-.31-.26-1.25.43-1.34.77-1-2.7-3.53-1.41-5.54-.82.19.67.13,1.61.27,2.2l-1.99.58c-.46.79-.76.44-1.48.53-.52.06-1.13-.33-.97.55-.42-.45-.84-1.3-1.47-1.32-1.33-.04-1.01.63-1.03,1.59-.85.14-1.97.63-2.74,1.01-1.57.78-3.53,1.73-4.75,2.88-.91-1.43-1.93-1.2-1.39.28-1.53-.12-2.6,1.52-3.61,2.5-2.22-.66-3.68,1.65-3.88,3.61-1.06.49-2.62,1.37-3.05,2.5-.29-1.02-1.61-.63-1.11,1.11l-2.22,2.22c-.64-.2-1.34-.39-1.66.42-.15.39,1.12.88,1.38.97-.85.21-.89,1.21-1.2,1.57-.26.3-.79.49-1.17.92-.5.57-1.56,1.47-1.52,2.23-.37-.25-1.89-1.17-2.22-.83-.04.04-.05.88.05,1.06.07.12.59.18.78.32-1.69.76-2.15,2.32-3.04,3.68-.16.24-.6.31-.71.49-.22.35.17.79.15.83-.06.1-1.46.13-.55,1.39-1.87-.21-1.29.87-1.74,1.59-.1.16-2.36,2.66-2.51,2.78-.44.36-2.03,1.53-2.42,1.93-.34.35-.47,1.3-.6,1.41-.24.2-.92-.05-1.35.45-.31.36-.62,1.87-.84,2.43-.1.25-.47.23-.51.43-.09.36.07,1.06,0,1.19-.04.06-.49-.06-.55,0,.7-2.58,1.7-5.05,2.77-7.49C19.73,13.59,51.98-3.52,85.55.61c1.77.22,3.76.5,5.45,1.07Z"/>
      <path class="cls-2" d="M90.99,1.68c.18,0,.37,0,.55,0-.23.94.9.45,1.66.55,7.94,1.73,16,5.18,22.9,9.7,1.55,1.02,3.35,2.25,4.57,3.61-1.23-.8-2.64-1.35-3.83-2.12-.37-.24-.25-.6-.47-.65-.82-.2.14,1.41-1.25,1.25-.13,1.47,1.32,1.56.84,3.19-2.45.45-1.4-.87-1.66-1.11-.07-.07-.86.08-1.2,0-.2-.05-.28-.87-1.03-.55,1.03-.79,2.56.26,2.78,1.39,2.09-.98-1.05-2.84-2.36-2.79-.71.03-1.92.77-2.09,1.41-.98-2.12-3.79-2.3-5.83-2.77.21-.56,1.15-2.85.41-3.05-1.25-.35-1.22,2.48-1.98,3.07-.87.18-2.64-1.16-3.59-1.4-.25-.35.84-2.25,1.04-2.89.31-.97-.94-.93-1.19-.57-.39.55-.88,2.65-1.22,3.46-.11.26-.38.45-.42.54l-.14-1.39c-.67-.16-.32.47-.42.54-.56.42-.5-.48-.73-.54-.18-.05-1.94-.34-2.02-.27-.03.03-.18.56-.29.83.32-1.08-1.64-1.47-2.39-1.64-.71-.16-.29.73-.38,1.08-.47-.17-.14-.85-.32-1.07-.24-.31-1.26,0-1.45-.05-.3-.08-.06-1.36-1.28.29.19-1.92,1.68-3.51,3.71-3.32.94.09,1.7.86,2.67.82.3-1.3-.53-1.3-1.6-1.58-3.73-.97-6.37,1.36-5.89,5.19-.51-1.54.01-1.69-1.94-1.11.21-1.75.46-3.51.55-5.27-.29.05-.97-.09-1.09.02-.3.27-.22,3.11-.31,3.72-.03.24-.26.39-.27.42.18-1.16-2.4-.94-2.49-.83-.05.05-.26,1.25-.28,1.39l.28-5.27c.11,0,.24-.47.5-.53,1.64-.41,3.24-.78,4.86-1.14.21-.05.17-.49.38-.54.79-.19,2.71,0,3.69,0Z"/>
      <path class="cls-14" d="M92.1,1.68c.28.17.84.5,1.11.55-.77-.1-1.89.39-1.66-.55.18,0,.37,0,.55,0Z"/>
      <path class="cls-11" d="M81.28,9.17c.02-.14.23-1.33.28-1.39.1-.11,2.68-.33,2.49.83-.03.21-.38.61-.28.95v3.35c.2.17,1.05.19,1.11.13.12-.12.2-2.7.28-3.33,1.96-.58,1.43-.43,1.94,1.11.56,1.7,1.1,2.7,3.04,3.21,3.88,1.01,2.76-.3,3.9-2.93.11-.26.26-.8.29-.83.08-.07,1.83.22,2.02.27.23.06.17.96.73.54.1-.08-.25-.7.42-.54l.14,1.39c-.19.49-1.37,3.45-1.27,3.61s.8.58,1,.42c.43-.35,1.01-2.81,1.41-3.46.26-.19,3.9,1.01,3.83,1.74-.04.44-2.75,3.98-.42,3.81.38-.03,1.6-3.87,1.86-4.56.12-.33.48-.58.53-.73,2.04.47,4.85.66,5.83,2.77-.52,1.96,2.12,3.84,1.13,5.36-.71,1.09-2.29-.02-2.95-.64-.31-.28-.37-.81-.4-.84-.28-.21-.84.24-.84.69,0,1.28,3,2.95,4.59,1.8,3.07-2.21-1.72-4.95.14-6.38.75-.32.83.51,1.03.55.34.08,1.13-.06,1.2,0,.26.25-.79,1.57,1.66,1.11.48-1.63-.97-1.72-.84-3.19,1.39.16.43-1.45,1.25-1.25.22.05.1.42.47.65,1.19.77,2.6,1.32,3.83,2.12,1.44.94,2.85,2.01,4.17,3.19,6.28,5.62,12.07,12.7,16.09,20.12-.02-.03-.35.08-.48-.09-.28-.36.28-.88-1.18-.9-.99-.02-1.29.79-.41.98,1.09.23-.54,2.15,1.52,1.68.28.98-.93.37-1.11.55-.26.25.74,1.53-1.38,1.11-.22.91.79.43,1.45.63.85.25,1.24.68,1.04,1.59-.72.32-.45-.54-.72-.58-.4-.06-.58.28-.67.3-.08.01-.2,0-.28,0-.07-.1-.16-.23-.28-.28-1.88-.79-4.57.32-5.67,1.96-2.31,3.46,1.44,7.01,5.11,5.81.77-.29.77.45,1.04.55s1.44-.14.9.56c-.04.05-1.13-.13-.27.84v.28c-1.55.41-3.17.69-4.72,1.11.16.63.93,4.56,1.12,4.71.03.03.8.03.83,0,.41-.4-.82-3.56-.55-3.88,1.81-.28,3.53-.85,5.26-1.4.22-.07.63.07.83,0,.91.59-.74.47-.27,1.11.02.02.39-.05.55.2,1.04,1.59.06,1.6-.03,2.99-.12,1.76.54,4.5.6,6.38.3,9.74-.45,19.23-2.78,28.55-.06.22-.96.14-.54.72.05.07.87-.1.54,1.12h-1.94c-1.14-.57-5.66-1.87-6.94-1.94,1.74-5.81,2.62-11.28,2.78-17.34.46-17.56-4.86-31.29-17.2-43.7-.19-.19-.36-.37-.55-.55-6.7-6.53-13.74-11.28-22.75-14.15-.15-.05-.4.05-.55,0-9.15-2.8-16.03-3.32-25.53-2.22-.18.02-.38-.02-.55,0-13.89,1.81-22.99,6.87-32.74,16.37-.06.06-.54.1-.84.4-16.41,16.43-21.32,38.97-14.42,61.19-.12,0-2.12.24-2.31.28-.2.04-.17.5-.38.55-.41.09-.94-.1-1.32.02-1.45.46-4.82,2.17-5.62,3.4-.13.21-.05.61-.18.93-.04.1-.41.1-.45.29-.1.42-.09,2.24-.03,2.74s.51.35.57.59c.35,1.38.57,3.72,1.12,4.8-.06.34.09,1.58,0,1.66-.08.07-.64-.08-.91,0-.33.09-.08.48-.34.56-.53.17-.48-.36-.43-.71.06-.38,1.06-.93.57-2.06-1-.24-.37.91-.55,1.11-.4.44-.79-1.1-1.38-.55-.43.39.79,1.77.82,1.87.1.31-.05.75.01.9-2.8-4.73-5.19-10.63-6.1-16.09-.13-.8.33-1.03-.55-1.66-.01-.18.02-.37,0-.55l-.85-8.98c1.39-.82,2.4.41,3.58-1.18,1.48-1.98,1.81-9,2.33-11.82.64-3.48,1.54-7.08,2.15-10.62.09-.52.19-.85.56-1.24.6.23,4.26,1.43,4.58,1.4.82-.07,1.59-2.96,1.52-3.73-.1-1.21-1.12-2.14-2.36-2.14-.9,0-1.25.62-2.08.59-.06-.24.07-.68,0-.83l1.51-2.79.43-1.37c1.25,1.23,2.58,2.43,3.88,3.61,1.17-1.49-1.67-2.53-1.55-3.34.03-.17,1.14-2.29,1.26-2.35.17-.1,1.85.34,2.61.1.49-.15.61-.92.46-1.06-.14-.13-3.29-.21-3.88-.28-2.08-1.31.48-2.36.28-3.88l1.38.55c.94.62,1.8,1.45,2.92,1.88.39-.03,2.7-3.62,2.63-3.95-.03-.14-.45-.51-.69-.42-.56.42-1.49,2.61-1.98,2.76s-2.28-1.27-2.87-1.65c.75-1.14,1.42-2.37,2.22-3.47.53-.72,1.12-.38,1.11-1.53l3.33,2.5c-.12-.84,2.94-3.86,2.77-4.15-.02-.04-.75-.13-.69-.56l-2.5,3.05c-.57-.51-1.22-1.21-1.8-1.66.12-1.57,1.21-2.19,1.95-3.19s1.26-2.16,2.49-2.64c.25.1.53-.03.98.26.37.24,2.43,2.66,2.63,2.51,1.15-1.51-.87-2.02-1.67-3.19-.19-.28-.17-.51-.27-.69-.07-.15-.25-.48-.28-.55-.05-.13.05-.4,0-.55,1.6.31,1.94-1.68,3.33-1.94,1.87,1.94,4.95,1.51,6.67-.41.18-.2,1.27-1.36.4-1.53-.46-.09-1.75,1.73-2.78,1.93-1.6.3-2.19-.02-3.18-1.1.06-.49.14-.76.49-1.12.79-.82,4.51-3.48,5.59-4.06.44-.24.62-.53,1.14-.09.57.99,1.37,1.92,1.68,3.04.3.21,4.4-2.09,4.41-2.34,0-.07-.21-.77-.63-.66-.64.17-2.88,1.89-3.23,1.63-.17-.6-.53-1.41-.84-1.94.54-1.54,2.43-1.78,3.52-2.31.44-.22,1.06-1.5,2.31-1.02.01.28,0,.56,0,.83.01.49-.11,2.95,0,3.05.19.18,1.24.02,1.39-.56.47-1.89-1.59-2.96,1.95-3.77,1.8-.41,1.52,2.69,3.6,1.54-.8-1.21-1.83-2.23-2.77-3.33.9-1.38,1.77-1.17,3.33-1.11.14.5.73,3.19.86,3.3.09.08,1.04.07,1.08.03.2-.19-.67-3.33-.83-3.88,1.22-.07,1.83-.65,2.73.46s.75,2.82,2.54,2.31l-1.66-3.05c-.08-1.02,2-.69,2.58-.84.2-.06.42-1.12,1.58-.27.1.7-.05,2.75.54,3.21.19.15,4.04-.55,4.73-.44-.04-.27.07-1.03,0-1.11-.14-.14-3.34.42-3.88.55-.05-.54.06-1.13,0-1.66-.09-1.09-.05-.68.67-.84,3.09-.68,6.43-.62,9.6-.54-.01.76.65,1.97,0,3.05h1.39s0-3.88,0-3.88c1.08.12,3.08-.33,3.9.42.48.43-.87,3.92.72,3.98,1.06.04.56-2.53.64-3.29ZM124.01,23.32c.71-.7-1.6-2.38-2.21-2.65-4.79-2.06-8.8,4.17-4.73,7.51.34.28,1.44,1.03,1.79.96.23-.05.59-.6.43-.82-.06-.09-1.33-.57-1.81-1.1-2.57-2.81.87-7.08,4.11-5.5.53.26,1.9,2.12,2.42,1.6ZM129.87,29.74c-.06.03-.17.56-.44.79-.52.45-1.24.75-1.68,1.38-.19,0-2.42-2.59-2.51-2.76-.48-.9,3.81-2.55,1.67-3.35-1.57,1.46-4.14,2.96-5.56,4.44-.69.71-.95,1-.27,1.95.83-.36,2.69-2.87,3.47-2.37.15.09,2.17,2.62,2.15,2.8-.06.68-2.82,2.03-2.69,2.73.03.15.56.68.67.69.43.01,5.71-4.95,6.52-5.64-.29-.38-.88-.94-1.35-.66ZM131.15,34.49c-5.93.98-4.88,9.34.92,8.13s4.89-9.09-.92-8.13Z"/>
      <path class="cls-2" d="M13.86,39.97c.58.07,2.9,1.75,3.61,2.22l-1.38-.55c.2,1.52-2.36,2.57-.28,3.88-.88-.11-6.54-1.45-5.43.83.09.18,2.26,2.13,2.65,2.5l-.43,1.37-1.51,2.79c-.3-.64-1.54-1.13-2.22-.99-1.54.31-3.46,4.11-1.72,4.85.71.3,1.58.59,2.28.86-.37.39-.47.72-.56,1.24-.61,3.53-1.51,7.14-2.15,10.62-.52,2.82-.85,9.84-2.33,11.82-1.19,1.59-2.19.36-3.58,1.18l.85,8.98c-.05-.44-.34-1.23-.55-1.66-1.33-12.2-2.13-24.41,1.66-36.34.51-.15.6-.62.55-1.11.05-.06-.05-.23,0-.28.06-.06.52.06.55,0,.08-.13-.08-.83,0-1.19.05-.19.42-.18.51-.43.22-.56.53-2.07.84-2.43.43-.51,1.11-.26,1.35-.45.14-.11.27-1.06.6-1.41.39-.4,1.98-1.56,2.42-1.93.15-.12,2.41-2.62,2.51-2.78.45-.72-.13-1.8,1.74-1.59Z"/>
      <path class="cls-5" d="M138.99,44.13c.09-.02.27-.36.67-.3.26.04,0,.9.72.58.2-.91-.19-1.34-1.04-1.59-.66-.2-1.67.29-1.45-.63,2.13.41,1.13-.86,1.38-1.11.18-.18,1.39.43,1.11-.55-2.05.47-.43-1.44-1.52-1.68-.88-.19-.58-1,.41-.98,1.46.03.9.55,1.18.9.13.16.46.06.48.09,2.34,3.06,4.92,10.25,6.1,14.15l.28.28c.09.3.17.73.28,1.11.26.95.34,2.33.55,3.33-.08.93.13,2-.01,2.9-.08.49-.62.83-.56,1.38.02.15.52.12.57.34.3,1.21-.78,2.42-.81,3.59-.17,7.36-.5,16.3-2.59,23.48-.22.75-.98,1.52-1.25,2.64-.18.77-.2,3.82-.34,3.95-.08.08-.85-.06-1.11,0-.36,1.16.56.82.56,1.66-.28-.05-.98.09-1.11,0-.04-.03.12-.77-.55-.55-.45-.39-1.35-.49-1.58-.64-.16-.1-.68-.91-.92-1.03h1.94c.33-1.22-.49-1.06-.54-1.12-.42-.58.49-.5.54-.72,2.33-9.31,3.08-18.81,2.78-28.55-.06-1.88-.71-4.62-.6-6.38.09-1.38,1.07-1.39.03-2.99-.16-.25-.53-.17-.55-.2-.46-.63,1.18-.52.27-1.11,1.02-.37,1.28-.64.83-1.67-.18-.14-1.32.45-1.66.56s-.75.18-1.11.28h-.83c-.85-.96.23-.78.27-.84.54-.7-.61-.46-.9-.56s-.27-.84-1.04-.55c.65-.21,1.12-1.02,1.45-1.29.09-.07.4.08.49,0,.98-.83,1.17-1.91,1.11-3.15-.03-.66-.08-.6-.28-1.11-.17-.43-.54-1.03-.83-1.39-.08-.1-.18-.19-.28-.28-.14-.11-.39-.17-.55-.28Z"/>
      <path class="cls-10" d="M1.66,91.57c.02.18-.01.37,0,.55-.1-.07-.49.18-.57-.16-.12-.53.08-1.43.01-2.06.21.43.5,1.22.55,1.66Z"/>
      <path class="cls-14" d="M2.77,53.56c.14-.43.27-.75.55-1.11.04.49-.04.96-.55,1.11Z"/>
      <path class="cls-10" d="M147.32,53.28l-.28-.28s.21.06.28.28Z"/>
      <path class="cls-2" d="M67.13,4.73c2.52-.35,5.19-.44,7.77-.56,0,1.11,0,2.22,0,3.33,0,.66-.28,1.23-.28,1.39-3.16-.07-6.5-.13-9.6.54-.72.16-.76-.25-.67.84-.02-.2-.59-.95-.25-1.37.25-.31,2.35-.2,2.85-.34s.61-.92.46-1.07c-.29-.28-2.95.53-3.61.28.09-.47-.13-2.33.02-2.48.12-.12,2.85-.5,3.31-.57Z"/>
      <path class="cls-2" d="M37.45,15c.3.84,1.43,2.73,1.94,3.61-.53-.44-.7-.14-1.14.09-1.08.58-4.8,3.24-5.59,4.06-.35.36-.43.63-.49,1.12-1.66-1.8-1.59-3.53.26-5.15.62-.53.85-.7,1.4-1.24,1-.97,2.08-2.62,3.61-2.5Z"/>
      <path class="cls-2" d="M46.32,10.84c-.03,1.35.21,2.76.28,4.16-1.25-.48-1.86.8-2.31,1.02-1.09.54-2.98.77-3.52,2.31-.64-1.12-1.31-2.62-1.94-3.61,1.22-1.15,3.18-2.1,4.75-2.88.77-.38,1.89-.87,2.74-1.01Z"/>
      <path class="cls-2" d="M20.8,35.81c.01,1.15-.58.8-1.11,1.53-.8,1.1-1.47,2.33-2.22,3.47-1.02-.65-2.15-1.42-3.05-2.22.02-.04-.37-.48-.15-.83.11-.18.55-.25.71-.49.89-1.36,1.35-2.92,3.04-3.68.93.72,1.97,1.34,2.77,2.22Z"/>
      <path class="cls-3" d="M76.29,3.9c-.49,4.21.71,3.31,4.16,3.33v-3.61c.33.07,1.05.28,1.11.28l-.28,5.27c-.08.76.41,3.33-.64,3.29-1.6-.06-.25-3.55-.72-3.98-.83-.75-2.83-.3-3.9-.42v3.88h-1.39c.65-1.08-.01-2.29,0-3.05,0-.15.28-.72.28-1.39l.28-4.16c.65-.3,1.04.53,1.11.55Z"/>
      <path class="cls-8" d="M58.53,7.51c-.09.37.07.96-.06,1.46-.33,1.31-1.56.92.34,1.87l1.66,3.05c-1.79.51-1.66-1.25-2.54-2.31s-1.51-.53-2.73-.46c.16.55,1.03,3.69.83,3.88-.04.04-.99.05-1.08-.03-.13-.11-.73-2.79-.86-3.3-.23-.87-.67-2.06-.83-2.77-.13-.6-.08-1.53-.27-2.2,2.01-.59,4.54-1.88,5.54.82ZM57.42,8.9c.75-1.96-1.66-2.36-3.03-1.64-.22.51.18.98.25,1.36.1.55.21,1.11.28,1.67.98-.13,2.29-.26,2.5-1.39Z"/>
      <path class="cls-8" d="M62.42,6.68c-.06-.64-.2-2.25.45-2.46.38-.12,3.07-.35,3.57-.32.87.05.72-.09.69.84-.47.07-3.2.45-3.31.57-.15.15.07,2.02-.02,2.48.66.25,3.31-.56,3.61-.28.15.14.03.92-.46,1.07s-2.59.03-2.85.34c-.34.41.23,1.16.25,1.37.06.54-.05,1.12,0,1.66.54-.14,3.74-.69,3.88-.55.07.07-.04.84,0,1.11-.69-.11-4.54.59-4.73.44-.59-.46-.44-2.51-.54-3.21-.13-.96-.48-2.23-.55-3.05Z"/>
      <path class="cls-8" d="M48.82,10.56c.65.71,1.31,1.48,1.94,2.22.94,1.1,1.98,2.11,2.77,3.33-2.08,1.14-1.8-1.96-3.6-1.54-3.53.81-1.48,1.88-1.95,3.77l-1.11.28c-.22-.24.36-2.41-.28-2.77,0-.28.01-.56,0-.83-.06-1.4-.31-2.81-.28-4.16.02-.96-.3-1.63,1.03-1.59.62.02,1.05.86,1.47,1.32ZM47.44,14.44c.19.2,2.49-.62,2.49-.97l-2.35-2.63-.14,3.6Z"/>
      <path class="cls-2" d="M26.35,29.15c-1.23.48-1.79,1.68-2.49,2.64s-1.83,1.62-1.95,3.19c-.76-.58-1.8-1.47-2.5-1.94-.04-.76,1.02-1.66,1.52-2.23.38-.43.91-.62,1.17-.92.31-.36.35-1.36,1.2-1.57,1,.33,1.93.38,3.05.83Z"/>
      <path class="cls-8" d="M33.84,17.5c-.55.54-.79.7-1.4,1.24-1.86,1.61-1.92,3.34-.26,5.15.99,1.07,1.58,1.4,3.18,1.1,1.04-.2,2.32-2.02,2.78-1.93.87.17-.22,1.33-.4,1.53-1.72,1.92-4.8,2.35-6.67.41-.65-.67-1.02-2.12-1.11-3.05,0-.09,0-.19,0-.28,0-.18-.02-.38,0-.55.2-1.96,1.67-4.26,3.88-3.61Z"/>
      <path class="cls-8" d="M25.79,24.71c-.5-1.74.82-2.13,1.11-1.11.32,1.14.42,2.07.83,3.33.05.15-.05.42,0,.55l.28.55c.09.19.08.42.27.69.8,1.17,2.82,1.68,1.67,3.19-.2.15-2.26-2.28-2.63-2.51-.44-.29-.73-.16-.98-.26-1.13-.45-2.05-.5-3.05-.83-.26-.09-1.54-.57-1.38-.97.32-.81,1.03-.62,1.66-.42.46.14,2.86,1.33,3.05,1.11.28-1.29-.51-2.21-.83-3.33Z"/>
      <path class="cls-2" d="M29.96,21.1c-.02.18,0,.37,0,.55l-.27.14.27.14c.08.93.46,2.38,1.11,3.05-1.39.26-1.73,2.26-3.33,1.94-.42-1.26-.51-2.19-.83-3.33.43-1.13,1.99-2.01,3.05-2.5Z"/>
      <path class="cls-2" d="M76.29,3.9c.2.06,1.53.06,1.76,0,.2-.05.2-1.02.73-.54.04.03-.04,1.02.55.52.46-.38-.57-.59,1.12-.26v3.61c-3.45-.02-4.66.88-4.16-3.33Z"/>
      <path class="cls-8" d="M38.83,14.72c.63.99,1.3,2.49,1.94,3.61.31.53.66,1.34.84,1.94.35.27,2.6-1.45,3.23-1.63.42-.11.63.59.63.66,0,.25-4.11,2.56-4.41,2.34-.31-1.12-1.11-2.06-1.68-3.04-.51-.88-1.64-2.77-1.94-3.61-.54-1.48.48-1.71,1.39-.28Z"/>
      <path class="cls-2" d="M58.53,7.51c.08-.34,1.03-1.03,1.34-.77.13.11-.16.62.47.5.26-.05.03-.49.32-.56.49-.13,1.22.08,1.76,0,.07.82.42,2.09.55,3.05-1.16-.86-1.38.21-1.58.27-.57.16-2.65-.17-2.58.84-1.89-.95-.67-.56-.34-1.87.13-.5-.03-1.09.06-1.46Z"/>
      <path class="cls-8" d="M14.42,38.58c.9.8,2.03,1.57,3.05,2.22.59.38,2.36,1.8,2.87,1.65s1.42-2.34,1.98-2.76c.24-.09.66.28.69.42.07.33-2.25,3.93-2.63,3.95-1.12-.43-1.97-1.26-2.92-1.88-.71-.47-3.03-2.15-3.61-2.22-.9-1.26.5-1.29.55-1.39Z"/>
      <path class="cls-8" d="M19.41,33.03c.7.47,1.74,1.36,2.5,1.94.59.45,1.23,1.15,1.8,1.66l2.5-3.05c-.06.43.67.52.69.56.17.29-2.89,3.31-2.77,4.15l-3.33-2.5c-.8-.87-1.84-1.5-2.77-2.22-.19-.14-.71-.2-.78-.32-.1-.19-.09-1.03-.05-1.06.33-.34,1.85.58,2.22.83Z"/>
      <path class="cls-2" d="M53.26,8.9c.16.71.6,1.91.83,2.77-1.56-.06-2.43-.27-3.33,1.11-.63-.74-1.29-1.51-1.94-2.22-.16-.88.45-.49.97-.55.72-.09,1.02.26,1.48-.53l1.99-.58Z"/>
      <path class="cls-2" d="M25.79,24.71c.32,1.12,1.11,2.04.83,3.33-.19.22-2.59-.97-3.05-1.11l2.22-2.22Z"/>
      <path class="cls-8" d="M97.65,11.95c.04-.1.31-.28.42-.54.34-.81.83-2.9,1.22-3.46.25-.36,1.49-.4,1.19.57-.2.64-1.29,2.54-1.04,2.89.95.24,2.72,1.58,3.59,1.4.76-.59.73-3.42,1.98-3.07.73.2-.2,2.49-.41,3.05-.05.14-.41.4-.53.73-.26.69-1.48,4.53-1.86,4.56-2.33.17.38-3.37.42-3.81.07-.72-3.56-1.93-3.83-1.74-.39.65-.97,3.11-1.41,3.46-.2.16-.9-.27-1-.42-.1-.16,1.08-3.12,1.27-3.61Z"/>
      <path class="cls-8" d="M87.11,10.84c-.48-3.83,2.16-6.16,5.89-5.19,1.08.28,1.9.28,1.6,1.58-.97.04-1.73-.73-2.67-.82-2.03-.2-3.53,1.4-3.71,3.32-.17,1.77.91,3.3,2.71,3.55,1.24.17,1.62-.22,1.72-1.5.12-1.66-.65-.95-1.37-1.21.1-.35-.33-1.24.38-1.08.75.16,2.71.56,2.39,1.64-1.14,2.63-.02,3.94-3.9,2.93-1.94-.51-2.47-1.5-3.04-3.21Z"/>
      <path class="cls-8" d="M110.41,15.55c.17-.64,1.38-1.38,2.09-1.41,1.31-.05,4.44,1.81,2.36,2.79-.22-1.13-1.75-2.18-2.78-1.39-1.86,1.43,2.94,4.17-.14,6.38-1.59,1.14-4.59-.52-4.59-1.8,0-.45.57-.9.84-.69.04.03.1.55.4.84.66.62,2.24,1.73,2.95.64.99-1.52-1.65-3.4-1.13-5.36Z"/>
      <path class="cls-11" d="M88.22,9.73c1.23-1.65.99-.37,1.28-.29.19.05,1.21-.26,1.45.05.17.22-.16.9.32,1.07.73.26,1.5-.45,1.37,1.21-.1,1.29-.48,1.67-1.72,1.5-1.79-.25-2.88-1.77-2.71-3.55Z"/>
      <path class="cls-8" d="M84.06,8.62s.23-.18.27-.42c.08-.61,0-3.45.31-3.72.12-.11.8.03,1.09-.02-.09,1.76-.34,3.52-.55,5.27-.08.63-.16,3.21-.28,3.33-.06.06-.91.04-1.12-.13v-3.35c-.08-.35.27-.75.29-.95Z"/>
      <path class="cls-12" d="M67.13,15.55c-.52.92.16,1.37.28,2.22-.91-.22-2.09.24-2.88.19-.66-.04-1.26-.5-2.26-.49-.48,0-2.62.24-3,.35-.92.26-.78,1.44-1.1,1.82-.58.71-3.19.67-2.15,2.29l-9.15.28c.49,1.18.18,2.05.07,3.19-.02.22.39,1.24-.2,1.24h-4.02c.26.74-1.33,3.58-1.11,3.87.09.12,1.84.36,1.66,1.4-2.96.01-5.92,0-8.88,0,.04.34-.19.59.19.83.49.32,1.37.54,2,1,2.83,2.05,4.91,4.74,6.11,8.04l.16,51.72c4.2,3.13,8.51,6.12,12.81,9.11,6.66,4.63,13.45,9.2,20.2,13.63,10.82-7.44,21.67-14.88,32.18-22.74l.15-52c.97-2.01,1.66-4.01,3.3-5.57,1.55-1.48,3.68-2.49,5.57-3.46,12.35,12.41,17.66,26.14,17.2,43.7-.16,6.06-1.03,11.53-2.78,17.34-3.39-.19-8.6,1.46-9.96,4.88-1.54,3.89,4.04,5.12,2.46,8.99-4.5-2.02-9.37-3.35-14.29-3.88-8.58-.93-17.88,1.11-23,8.62-1.92,2.81-1.51,3.7-4.9,5.64-4.45,2.54-9.02,1.93-13.11-1-2.02-1.44-1.92-2.39-3.18-4.31-5.29-8.09-18.06-9.11-26.83-8.4-3.65.3-6.97,2.02-10.41,3.05-.49-1.21-.12-2.53.34-3.68.15-.38.61-.68.79-1.15.96-2.51-.56-5.43-2.71-6.77-1.72-1.07-5.58-2-7.58-1.99-6.9-22.22-1.99-44.76,14.42-61.19.3-.3.78-.34.84-.4,9.75-9.5,18.85-14.55,32.74-16.37Z"/>
      <path class="cls-9" d="M67.69,15.55c.83.24.66,1.27,1.3,1.61.96.51,2,.06,3,.03.47-.02,1.12.33,1.37.28.59-.12.11-1.41,1.25-1.79.39-.13,2.82-.46,3.15-.36.71.21.84,2.1,1.58,1.35.25-.26-.67-1.5,1.11-1.11-1.14,3.24,2.36,1.88,4.01,1.93.53.01,1.06.29,1.67.3,1.15.02,4.15-.25,4.97.03s0,2.62,1.84,1.76c.32-.43-.87-2,.28-1.8.15.05.41-.05.55,0-.17.53-.15,1.89-.4,2.23-.19.27-2.86.62-1.42,1.67.28.2,3.3.54,3.9.56,1.35.04,3-.7,4.29.14,1.84,1.2.48,2.75.3,4.28.59-.2,2.13-.15,2.51-.4.43-.29.1-1.42,1.23-1.27.09.01.6.96.93,1.09.84.32,3.57.44,3.95.71.52.35.3,4.3-.02,5.15-21.91,0-43.84-.09-65.75,0,.17-1.04-1.57-1.28-1.66-1.4-.23-.3,1.36-3.13,1.11-3.87h4.02c.59,0,.18-1.02.2-1.24.11-1.14.43-2.01-.07-3.19l9.15-.28c-1.04-1.62,1.57-1.58,2.15-2.29.31-.38.18-1.55,1.1-1.82.38-.11,2.52-.35,3-.35,1-.01,1.59.45,2.26.49.79.05,1.96-.41,2.88-.19-.11-.85-.8-1.29-.28-2.22.18-.02.37.02.55,0Z"/>
      <path class="cls-13" d="M43.27,31.92c21.91-.09,43.84,0,65.75,0h7.49c.19.19.37.37.55.55-1.89.97-4.01,1.98-5.57,3.46-1.64,1.56-2.33,3.56-3.3,5.57l-.15,52c-10.51,7.86-21.36,15.3-32.18,22.74-6.75-4.43-13.54-9.01-20.2-13.63-4.3-2.99-8.61-5.98-12.81-9.11l-.16-51.72c-1.2-3.29-3.28-5.99-6.11-8.04-.63-.46-1.51-.68-2-1-.38-.24-.15-.5-.19-.83,2.96,0,5.92.01,8.88,0ZM81.56,36.64h27.88s4.86-3.88,4.86-3.88H36.89c3.2,2.43,5.74,5.68,6.91,9.6.4,14.12-.45,28.32.02,42.44.02.53-.28,1.11.55.96-.32.16-.53.3-.57.69-.09.69-.12,4.44.01,4.96.08.31.56.06.56.32-1.65.32.55,2.69,1.19,3.1.26.17,1.77.56,2.05.73.82.52.85,1.82,2.31,1.58,0,.59.71.92,1.14,1.22,1.99,1.4,4.08,2.67,6.08,4.05,3.16,2.18,6.26,4.5,9.43,6.66s6.11,4.22,9.29,6.09c.63,0,9.07-6.26,10.4-7.2,2.61-1.83,5.17-3.71,7.77-5.55s5.5-3.99,8.05-5.83c.99-.71,2.86-1.62,3.8-2.31.07-.06,1.18-1.14,1.2-1.22.2-1.13-.27-3.47,0-4.61.05-.21.37-.17.38-.19.6-1.06-1.35-1.07-2.04-1.1-.85-.58-2.26-.18-3.33-.28-.89-.08-1.62-.49-1.94-.55,2.03-.57,4.44-1.01,6.19-2.27,1.13-.81.93-.9,1.02-2.17.14-2.1-.28-4.23-.28-6.1,0-.82-.01-1.68,0-2.5,0-.05.28-.45.3-.94.04-1.15.16-2.73-.3-3.78,1.19-.6.31-1.76.28-2.5-.08-1.96-.14-3.9-.28-5.83-.02-.34.64-1.12-.07-1.87-.24-.25-2.2-.96-2.75-1.21-10.93-4.97-23.7,4.31-21.19,16.97.91,4.58,4.36,9.11,8.75,10.81l-.83.55c-1.03.13-3.11.79-4.16,1.11-.67-.64-1.21-.95-1.94-1.39-.85-1.63-2.32-2.45-3.38-4.25-3.7-6.23-3.36-13.46-.22-19.61.42-.83.84-1.75,1.39-2.5.03-.04.21-.14.55-.55.22-.27.4-.39.55-.55.78-.41,1.3-1.11,1.94-1.66.89-.77,1.48-1.26,2.5-1.94l3.06-1.24c1.21-.27,2.38-.76,3.6-.98,2.29-.4,4.36-.41,6.66,0,2.12.38,3.85,1.4,5.82,1.94.01-.18,0-.37,0-.55,0-.09,0-.19,0-.28,0-.37,0-.74,0-1.11-.7.09-1.74-.28-2.22.28-.05-.07-.44-.03-.28-.55h2.5c-.56-1.54,0-2.96,0-4.3s-.32-3.41-.22-4.65c.14-1.81,1.72-3.99,2.16-5.75-8.93-.05-17.87.05-26.8.02-.34,0-.71,0-.94-.3Z"/>
      <path class="cls-13" d="M19.14,93.51c2,0,5.86.92,7.58,1.99,2.15,1.34,3.66,4.26,2.71,6.77-.18.47-.64.77-.79,1.15-.46,1.16-.83,2.48-.34,3.68,3.44-1.03,6.76-2.75,10.41-3.05,8.77-.72,21.54.31,26.83,8.4,1.26,1.92,1.16,2.87,3.18,4.31,4.09,2.92,8.66,3.54,13.11,1,3.39-1.94,2.98-2.83,4.9-5.64,5.12-7.51,14.42-9.55,23-8.62,4.92.53,9.79,1.86,14.29,3.88,1.58-3.86-4-5.1-2.46-8.99,1.36-3.42,6.57-5.07,9.96-4.88,1.28.07,5.79,1.37,6.94,1.94.24.12.76.92.92,1.03.23.14,1.13.24,1.58.64.04.03.52.52.55.55.14.17,1.56,2.28,1.6,2.42.12.43.16,1.41.05,1.83-.05.21-.5.18-.54.38-1.13,5.03-2.56,7.67-5.54,11.68-1.27,1.71-2.68,3.47-4.68,4.19-.95.35-2.1.67-3.11.59,0,.18-.02.37,0,.55-1.84-.06-3.71.08-5.55,0-2.6-.12-5.21-1.5-7.77-2.22-15.26-4.31-21.38,3.19-28.3,14.98-.01.02-.38-.09-.49.06-.15.2,0,.65-.16.96-.58,1.11-2.1.43-3.05.65-.22.05-.07.5-.59.57-5.67.74-10.8.24-16.38-.59-.43-.06-2.01.1-2.09.01-.1-.11.14-.94-.02-1.09-.04-.04-.78-.2-1.09-.3.84.12.58-.3.42-.84-1.37-4.61-5.68-10.23-9.85-12.62-6.39-3.66-12.54-2.95-19.43-1.52-1.76.37-4.56,1.32-6.66,1.39-1.84.06-3.71-.06-5.55,0-.37.01-.74-.03-1.11,0l-3.24-1.2c-.29-.97-1.37-.89-1.66-1.11-1.16-.86-5.4-6.87-5.63-7.87-.09-.42.09-.9,0-1.29-.07-.29-.55-.16-.56-.18-.55-1.07-.77-3.41-1.12-4.8-.06-.24-.5-.08-.57-.59s-.07-2.31.03-2.74c.05-.19.41-.19.45-.29.13-.33.05-.73.18-.93.79-1.23,4.17-2.94,5.62-3.4.37-.12.91.07,1.32-.02.21-.05.17-.5.38-.55.19-.04,2.19-.28,2.31-.28ZM138.44,96.84c-3.68-2.23-7.11-3.11-11.38-1.8-3.56,1.09-6.82,4.18-3.48,7.64,1.53,1.59,4.66,2.3,6.81,2.21.25-.22-2.86-4.22.18-6.06,2.21-1.34,4.62-.45,5.92,1.62.91,1.44-.11,3.19-1.39,4.16-2.88,2.18-7.12,1.1-10.26.14.74.55-.1,2.79,0,2.91.16.21,4.47.85,5.13.85,1.54,0,2.88-.39,4.3-.85.48-.16.92-.34,1.39-.55,2.05-.94,3.54-2.01,4.99-3.75,2.31-2.77,1.98-3.44-.82-5.68-.6-.48-.87-.52-1.39-.83ZM22.47,104.89c2.74-.4,6.7-1.33,6.31-4.78-.69-6.28-11.18-6.38-15.56-4.05-4.02,2.14-4.41,3.93-1.8,7.53,3.32,4.58,9.84,6.26,15.15,4.16,1.59-.63.25-1.61.61-3.13-3.11.88-5.1,1.97-8.32.69-5.6-2.22-.97-8.5,3.32-5.54,2.54,1.76.08,4.92.29,5.12ZM131.55,104.83c1,.59,3.9-1.31,4.27-2.43,1.17-3.63-6.66-5.12-5.64-.21.06.31,1.25,2.57,1.38,2.64ZM21.3,104.83c.1-.06,1.05-1.83,1.11-2.09.84-4.23-6.75-3.48-5.07.48.41.96,3.08,2.12,3.96,1.61ZM139.27,105.72c-1.21,1.08-3.47,2.56-4.99,3.05-.19.06-.86.22-1.11.28-5.99,1.3-10.58-1.81-16.03-3.25-7.65-2.02-16.64-2.8-23.73,1.36-9.41,5.52-10.07,14.99-6.85,24.64l3.26-5.47c6.27-9.27,14.31-13.23,25.54-10.43,4.48,1.12,6.28,2.77,11.42,2.59.28,0,.56.02.83,0,2.25-.2,3.66-.85,5.55-1.94,4.29-2.49,6.7-8.07,8.33-12.62-.9-.27-1.68,1.32-2.22,1.8ZM10.67,104.05v.28c.18-.09.18-.18,0-.28ZM11.37,106.27c.33.92,1.06,3.36,1.64,3.98.28.3.42.12.57.18,1.08,3.45,3.85,5.85,7.21,6.94,7.7,2.49,12.29-1.46,19.55-1.95,13.31-.9,19.31,4.28,24.55,15.7.13.28.17.65.56.68,1.44-4.69,2.25-9.27,1.26-14.16-2.41-11.83-17.57-13.5-27.49-12.76-9.17.68-17.87,9.2-27.04,1.12-.4-.35-.75-1.19-1.38-1.39-.18.69.38,1.19.55,1.66ZM84.33,117.37c-1.46.52-2.62,1.63-4.08,2.16-2.35.85-5.18.88-7.57.2-1.93-.55-3.41-1.96-5.27-2.36,1.49,5.18.07,10.52-1.39,15.53,6.59,1.21,13.38,1.11,19.98,0-1.77-5.07-2.49-10.18-1.67-15.53Z"/>
      <path class="cls-5" d="M8.31,109.88c-.06-.16.09-.6-.01-.9-.03-.1-1.25-1.48-.82-1.87.6-.54.98,1,1.38.55.18-.2-.45-1.35.55-1.11.49,1.13-.51,1.68-.57,2.06-.05.35-.1.89.43.71.26-.08.01-.47.34-.56.27-.07.83.08.91,0,.09-.08-.06-1.32,0-1.66.01.03.49-.11.56.18.09.39-.09.87,0,1.29.23,1,4.47,7.01,5.63,7.87.3.22,1.38.14,1.66,1.11l3.24,1.2c-.56.04-.98-.26-.83.55,1.69-.34,2.09,1.23,3.18,2.23,3.27,3.01,12.04,10.2,15.97,11.77.55.22,1.53.07,1.64.17.12.11-.06.71.01.81.43.54.61-.9,1.11-.56-.26.81-.37,1.35-.28,2.22.21,1.88,1.63,2.93,3.34,3.46,2.23.69,1.86.57,2.77-1.24.08-.16.23-.44.28-.55v1.66c.78.27.48-.48.56-.54.59-.41.5.49.73.55.79.2,1.35-.28,2.32.27.24.55-.64,2.39-.56,2.49.04.05,1.06.33,1.11.28.07-.07.46-1.65.56-1.94s.25-1.31.31-1.36c.24-.21,1.42-.03,1.8.23,1,.7.54,2.37.67,3.35.09.62.71,1.23,1.11.83.11-.11-.08-2.54,0-3.05.7,1.05,1.45,2.16,1.39,0,1.13-.37,1.01.84,2.04.56.2-.05.08-.83,1.11-.55.22.06.17.75.74.55-.19.35-.28.91-.55,1.39-.36.63-.74,1.33-1.11,1.94-.47.78-1.48.7-2.38.58-.48-.06-.26-.44-.81-.59-1.45-.42-2.4.51-4.13-.58-.32-.2-.39-.74-.64-.8-1.36-.33-4.09,1.68-4.25-1.37-.84-.11-.33.88-1.48.55-.24-.07.06-.53-.86-.58-1.38-.07-.89.5-.99.57-.74.54-.42-1.35-1.18-1.57-.81-.24-1.48.29-1.73-.65-.5.54-2.58.98-2.85,1.2-.15.12-.03.45-.06.48-.01.01-.2,0-.28,0l.44-1.1c.69-.08,2.08-1,1.5-1.68-.19-.22-1.46,1.18-2.66.29-.45-.33-.21-1.21-1.5-.85-.23.84,1,.98,1.11,1.11.63.76-1.68.23-.55,1.38-10.05-5.43-25.12-20.19-29.41-30.79Z"/>
      <path class="cls-12" d="M116.52,31.92h-7.49c.32-.85.54-4.8.02-5.15-.38-.26-3.11-.39-3.95-.71-.33-.13-.84-1.08-.93-1.09-1.13-.16-.8.98-1.23,1.27-.37.25-1.92.2-2.51.4.18-1.53,1.54-3.08-.3-4.28-1.28-.84-2.93-.1-4.29-.14-.6-.02-3.62-.35-3.9-.56-1.44-1.05,1.22-1.41,1.42-1.67.25-.35.23-1.7.4-2.23,9.01,2.87,16.05,7.62,22.75,14.15Z"/>
      <path class="cls-12" d="M93.21,17.77c-1.14-.2.04,1.37-.28,1.8-1.85.85-1.03-1.49-1.84-1.76s-3.82,0-4.97-.03c-.6-.01-1.14-.28-1.67-.3-1.65-.05-5.15,1.31-4.01-1.93-1.78-.39-.86.85-1.11,1.11-.74.75-.87-1.14-1.58-1.35-.32-.1-2.76.23-3.15.36-1.14.38-.66,1.67-1.25,1.79-.25.05-.9-.29-1.37-.28-1,.03-2.03.48-3-.03-.64-.34-.47-1.37-1.3-1.61,9.49-1.1,16.37-.58,25.53,2.22Z"/>
      <path class="cls-8" d="M131.15,34.49c5.81-.96,6.64,6.95.92,8.13s-6.85-7.16-.92-8.13ZM134.19,36.17c-2.36-2.16-7.92,1.78-5.31,4.61s8.16-2,5.31-4.61Z"/>
      <path class="cls-8" d="M9.42,57.72c-.7-.27-1.57-.56-2.28-.86-1.74-.74.18-4.54,1.72-4.85.69-.14,1.92.35,2.22.99.07.15-.06.6,0,.83.83.03,1.18-.59,2.08-.59,1.23,0,2.25.94,2.36,2.14.07.77-.7,3.66-1.52,3.73-.32.03-3.98-1.17-4.58-1.4ZM7.48,55.5c1.3.3,2.76,1.74,3.04-.44.37-2.84-2.94-2.02-3.04.44ZM14.07,54.74c-1.32-1.32-3.17.71-3.26,2.15l3.06,1c.53-.7.83-2.52.2-3.15Z"/>
      <path class="cls-8" d="M129.87,29.74c.47-.28,1.06.28,1.35.66-.81.69-6.09,5.65-6.52,5.64-.11,0-.64-.53-.67-.69-.13-.7,2.63-2.05,2.69-2.73.01-.18-2-2.7-2.15-2.8-.78-.5-2.64,2.01-3.47,2.37-.68-.95-.41-1.24.27-1.95,1.42-1.48,3.98-2.98,5.56-4.44,2.13.8-2.15,2.44-1.67,3.35.09.17,2.32,2.76,2.51,2.76.44-.63,1.16-.93,1.68-1.38.27-.23.38-.76.44-.79Z"/>
      <path class="cls-8" d="M138.44,43.85c-.03.21.09.26.28.28.08,0,.2.01.28,0,.16.11.42.16.55.28l.28.28c.3.36.67.96.83,1.39-.16.69-.65,1.27.28,1.11.06,1.24-.13,2.32-1.11,3.15-.09.07-.4-.08-.49,0-.34.27-.8,1.08-1.45,1.29-3.68,1.21-7.43-2.35-5.11-5.81,1.1-1.64,3.79-2.75,5.67-1.96ZM136.22,44.96c-2.33.33-4.36,3.23-2.08,5,1.87,1.45,4.94.1,5.69-1.95.18-.51.67-1.17,0-1.66-.01-.1.02-.2,0-.28-.05-.14-.2-.19-.28-.28-.11-.13-.99-.81-1.11-.83-.44-.47-1.79-.46-2.22,0Z"/>
      <path class="cls-8" d="M15.81,45.52c.59.07,3.74.15,3.88.28.15.14.03.91-.46,1.06-.76.24-2.44-.2-2.61-.1-.11.07-1.23,2.19-1.26,2.35-.13.81,2.71,1.85,1.55,3.34-1.3-1.18-2.63-2.38-3.88-3.61-.39-.38-2.57-2.33-2.65-2.5-1.11-2.27,4.55-.93,5.43-.83ZM15.53,46.35l-3.88-.28,2.91,2.77c.21-.41,1.24-2.23.97-2.49Z"/>
      <path class="cls-8" d="M124.01,23.32c-.52.52-1.89-1.34-2.42-1.6-3.24-1.58-6.68,2.69-4.11,5.5.48.53,1.75,1.02,1.81,1.1.15.22-.2.77-.43.82-.35.07-1.46-.68-1.79-.96-4.06-3.34-.06-9.57,4.73-7.51.61.26,2.91,1.94,2.21,2.65Z"/>
      <path class="cls-8" d="M141.49,53.28v1.11c-1.73.54-3.46,1.12-5.26,1.4-.28.32.96,3.48.55,3.88-.03.03-.79.02-.83,0-.19-.15-.96-4.08-1.12-4.71,1.55-.42,3.17-.7,4.72-1.11.35-.09.63-.22.83-.28.36-.1.76-.18,1.11-.28Z"/>
      <path class="cls-10" d="M141.49,53.28c.35-.1,1.48-.7,1.66-.56.45,1.03.19,1.3-.83,1.67-.2.07-.62-.07-.83,0v-1.11Z"/>
      <path class="cls-2" d="M46.6,15.83c.64.36.06,2.54.28,2.77l1.11-.28c-.14.58-1.2.74-1.39.56-.11-.11.01-2.56,0-3.05Z"/>
      <path class="cls-10" d="M140.38,53.56c-.2.05-.48.19-.83.28v-.28h.83Z"/>
      <path class="cls-2" d="M28.01,28.04l-.28-.55c.03.07.2.4.28.55Z"/>
      <path class="cls-5" d="M138.71,44.13c-.18-.02-.3-.07-.28-.28.11.05.2.18.28.28Z"/>
      <path class="cls-7" d="M39.67,141.51s-.08-.36.06-.48c.26-.22,2.34-.66,2.85-1.2.26.94.92.41,1.73.65.76.22.44,2.11,1.18,1.57.1-.07-.4-.65.99-.57.92.05.62.51.86.58,1.15.33.64-.67,1.48-.55.16,3.06,2.88,1.04,4.25,1.37.25.06.32.6.64.8,1.73,1.09,2.68.16,4.13.58.55.16.34.53.81.59.9.12,1.91.2,2.38-.58.25.18.56.18.83.28-.39,1.15,1.16.98,1.75.83.21-.05.18-.53.37-.56.66-.12,1.93.55,2.87.01.03.13-.06.51,0,.55.18.13,1.2-.11,1.39,0,.02.02-.11.48.18.56.89.24,1.66-.27,2.04-.28.41,0,.96.01,1.39,0,.92-.02,2.05.81,2.22-.55.32.72.72.56,1.39.55,1.92,0,.77-.65,1.25-.83s.81.96,1.03,1.07c.3.16.42-.22.49-.23.36-.06,1.05-.28,1.11-.28.61,0,1.63.6,2.06.57.08,0,.03-.68,1.27-.57.17.02.5-.04.55,0,.08.06-.25.81.55.55l-.14-1.11c.76,1.11,1.84.28,1.8-.83.56.81.59.43,1.39.28.29-.06,1.34-.33,1.39-.28.08.08-.06.47,0,.63.4,1.04,1.36-1.4,1.39-1.74.02.09-.02.19,0,.28.1.37-.15.86.45,1.08,1.15.41.89-.48.94-.52.04-.03.3.04.45-.11.22-.21-.1-.55.52-.45.27.04-.05.87.69.56-.34-1.27.52-1.05.56-1.11-.24.93.39,1.22,1.11.55.44-.41.23-.65.28-1.11.02-.18,0-.37,0-.55.51,1.15,1.63.29,2.39.3.6.01,1.12.25,1.77.25,2.59-.02.76-.91.28-1.66-.3-.47-.36-1.03-.55-1.39l.83.83c1.38.37,1.23-1.12,2.5-1.39.05.1.22.18.28.28.35.62.14,1.63,1.39,1.39-.05-.33.08-.83,0-1.11,1.01-.48,2.49.29,2.77-1.11.57.48.96.41,1.38-.14-.55-.2-.67-1.07-.83-1.25l1.85-.65c4-1.41,8.1-4.68,11.58-7.41,1.69-1.32,3.86-3.57,5.5-4.8.37-.27,1.22-.45,1.28-.52.15-.19-.05-.71.1-.99.11-.2,1.9-1.41,2.31-2.32.19-.41-.14-.45-.15-.53-.02-.18,0-.37,0-.55,1,.08,2.15-.24,3.11-.59,2-.73,3.4-2.48,4.68-4.19,2.98-4.01,4.41-6.65,5.54-11.68.05-.2.49-.17.54-.38.1-.42.07-1.4-.05-1.83-.04-.14-1.46-2.25-1.6-2.42-.03-.04-.52-.52-.55-.55.67-.22.51.53.55.55.13.08.83-.06,1.11,0,0-.84-.91-.5-.56-1.66.26-.06,1.03.08,1.11,0,.14-.14.16-3.19.34-3.95.27-1.12,1.03-1.89,1.25-2.64,2.09-7.19,2.42-16.12,2.59-23.48.03-1.17,1.1-2.37.81-3.59-.05-.22-.55-.19-.57-.34-.06-.55.48-.89.56-1.38.14-.9-.07-1.97.01-2.9,12.71,59.07-42.13,108.97-99.39,88.15-3.07-1.11-6.46-2.48-9.09-4.37ZM57.14,144.84c-.3-.3-.85.25-.55.55s.85-.25.55-.55Z"/>
      <path class="cls-7" d="M37.72,140.68c-1.13-1.15,1.19-.62.55-1.38-.11-.13-1.34-.27-1.11-1.11,1.29-.36,1.05.52,1.5.85,1.2.89,2.47-.52,2.66-.29.58.67-.81,1.6-1.5,1.68l-.44,1.1c-.28-.03-1.3-.63-1.66-.83Z"/>
      <path class="cls-10" d="M140.93,47.18c-.93.16-.44-.42-.28-1.11.2.51.25.45.28,1.11Z"/>
      <path class="cls-10" d="M139.82,44.68l-.28-.28c.1.08.19.18.28.28Z"/>
      <path class="cls-14" d="M57.42,8.9c.02-.09-.25-.52,0-.83-1.49-.08-1.17,1.28-2.77.55-.07-.38-.47-.85-.25-1.36,1.37-.72,3.78-.32,3.03,1.64Z"/>
      <path class="cls-2" d="M54.65,8.62c1.61.73,1.28-.63,2.77-.55-.25.31.02.74,0,.83-.21,1.13-1.51,1.25-2.5,1.39-.06-.56-.18-1.11-.28-1.67Z"/>
      <path class="cls-2" d="M47.44,14.44l.14-3.6,2.35,2.63c0,.35-2.3,1.17-2.49.97Z"/>
      <path class="cls-14" d="M29.96,21.94l-.27-.14.27-.14c0,.09,0,.19,0,.28Z"/>
      <path class="cls-12" d="M44.38,85.74c-.84.15-.54-.42-.55-.96-.47-14.11.37-28.31-.02-42.44-1.17-3.92-3.72-7.16-6.91-9.6h77.41l-4.86,3.88h-27.88s-7.48,12.09-7.48,12.09l-.02,3.18h3.05s-.28,34.68-.28,34.68c-7.12-2.14-6.9-1.77-13.87,0l1.06-5.71c1.12-.93,1.34-2.6,1.99-3.72.31-.53,1.45-1.39,1.66-2.08-1.58-.25-2.68,1.66-3.6,2.64-.45.47-1.03.79-1.5,1.41-1.46,1.94-2.72,4.54-3.22,6.91-.48.07-.26-.63-.27-.97-.03-.88.02-1.76,0-2.64.95-8.59,4.27-16.32,9.71-23.03.08-.1.54.31.77-1.03.07-.41.26-.75-.36-.64-.66.12-1.94,1.06-2.08,1.67-.02.09.02.2,0,.28-.62.02-.91.56-1.39.83-.59.34-1.02.17-1.67.97-.78.95-.26,1.18-.28,1.25-.02.08.02.19,0,.28,0,.04-.2.16-.28.28-.11.17-.18.38-.28.55-.17.05-.39.19-.55.28l-.55-.55c-.03.27.03.56,0,.83-.02.18.03.39,0,.55-1.32-.65-.97.59-1.39,1.19-.16.24-.58.37-.83.75l.64-4.5c1.32-6.33,3.35-13.47,6.58-19.09.21-.36,1.94-2.51,1.66-2.77-1.11-.06-1.62,1.15-2.22,1.66-5.56,4.71-7.82,10.97-9.16,18.03-.91-.15-1.25.33-.28.28-.34.87.55,1.97.83,2.77.54,1.54.91,3.16,1.39,4.72-.17.21-.25.47-.55.55-.4-1.75-1.42-4.65-2.03-6.43-.3-.88-1.45-2.83-1.57-3.56-.09-.55-.17-.27-.28-.55-.05-.14.05-.42,0-.55-.1-.27-.19-.37-.28-.55-.09-.18-.19-.38-.28-.55-.24-.45-.46-.66-.55-.83-.41-.73-.71-1.51-1.11-2.22.81-1.57.31-.82.09-1.2-.17-.29-.06-.7-.09-.74-.44-.54-.6.89-1.11.55-.05-.21,0-.58,0-.83,0-.16.53-.1,0-.83-.8-1.11-1.54-1.47-2.5-2.22-.76-.6-1.48-1.58-2.5-1.66-.35.33,1.49,2.21,1.66,2.5,4.74,7.79,7.41,17.55,7.77,26.63-.04.03.04,1.12-.55.56-.1-.09-.62-2.05-.87-2.6-1.66-3.53-3.25-6.42-6.62-8.5-.59-.36-1.18-1.31-2.22-1.11-.23.18,1.29,1.78,1.39,1.94,3.42,5.55,5.45,12.1,6.61,18.5.08.46.43,1.42.05,1.76-2.94-.85-6.48-1.78-9.43-.28ZM53.81,53.01h-.55v.83h.55v-.83ZM54.23,54.67v.28c.18-.09.18-.18,0-.28ZM55.2,56.06c.08-.08-.2-.99-.41-1.11-.74.32,0,1.52.41,1.11ZM55.48,56.34c-.39-.2-.74.18-.55.27.39.2.74-.18.55-.27ZM55.76,56.89c-.39-.2-.74.18-.55.27.39.2.74-.18.55-.27ZM56.59,58.56c-.3-.3-.85.25-.55.55s.85-.25.55-.55Z"/>
      <path class="cls-16" d="M53.82,86.02c.12.03.32.2.55.28.41.12.75.18,1.11.28.12.03.29.22.55.28,1.1.24,1.6.28,2.77.28s1.72-.1,2.77-.28c.54-.09.84-.14,1.39-.28,6.97-1.77,6.76-2.14,13.87,0,.56.17,1.35.66,2.22.83,2.52.49,4.22.4,6.66-.28.35-.1.57-.2.83-.28.09-.03.19-.25.28-.28,1.05-.32,3.13-.98,4.16-1.11,2.98-.37,6.24.28,9.16.83.33.06,1.05.47,1.94.55.84.55,2.26.23,3.33.28.69.03,2.64.04,2.04,1.1-.01.02-.33-.02-.38.19-.27,1.14.2,3.48,0,4.61-.01.08-1.12,1.17-1.2,1.22-.94.69-2.81,1.6-3.8,2.31-3.75-.84-6.76,1.48-10.39,1.67-4.15.23-7.27-1.66-11.1-1.96-5.77-.45-10.06,2.44-16.07,1.64-2.28-.3-5.11-1.55-7.28-1.6-2.61-.06-4.87.39-7.32.8-1.45.25-1.49-1.06-2.31-1.58-.27-.17-1.78-.56-2.05-.73-.64-.41-2.84-2.78-1.19-3.1,0-.26-.48,0-.56-.32-.13-.52-.1-4.28-.01-4.96.05-.39.26-.53.57-.69,2.95-1.5,6.49-.57,9.43.28ZM64.36,90.46h-4.99v.28h4.99v-.28ZM51.6,92.13h-4.44v.28h4.44v-.28Z"/>
      <path class="cls-4" d="M81.56,36.64c.23.3.6.29.94.3,8.93.04,17.87-.07,26.8-.02-.44,1.76-2.01,3.94-2.16,5.75-.1,1.24.23,3.37.22,4.65,0,1.34-.56,2.76,0,4.3h-2.5c-.16.53.22.48.28.56.07.1.2.17.28.28-1.17-.33-2.94-1.21-3.88-.55-2.3-.41-4.37-.4-6.66,0-1.67-.61-4.7.8-6.17,1.67-.24.14-.35.46-.49.55-1.02.68-1.61,1.17-2.5,1.94-.93.13-1.38,1.04-1.94,1.66-.15.17-.33.28-.55.55l-.55.55c-.54.75-.97,1.67-1.39,2.5-.67-.15-.57.34-.78.73-2.93,5.49-2.92,12.94.12,18.38.59,1.06,1.95,2.08,2.05,3.36-.87-.82-1.15-1.65-1.93-2.43l-1.68-3.11v9.15c-.87-.17-1.67-.66-2.22-.83l.28-34.68h-3.05s.02-3.17.02-3.17l7.48-12.08ZM100.98,39.41c.05-.05.16-1.13.28-1.39-.23-.53-1.39,2.41-.28,1.39ZM82.39,38.31c-.57-.15-1.6,1.72-1.39,1.94h1.94s-1.11-.56-1.11-.56l.55-1.38ZM104.59,39.41c.33.33,1.1-.55.83-1.11-.37.06-1.06.87-.83,1.11ZM91.27,39.69l.14-1.11c-.29.08-.63,1.11-.69,1.11h-5.13s-.44.37-.42.55h7.49c-.18,1.18-1.85,2.03-1.53,3.33.46-.51,1.81-3.08,2.14-3.27.51-.3,2.27.09,2.99-.06.02-.18-.37-.55-.42-.55h-4.58ZM98.76,40.52h7.21c.13-.82-.19-.46-.68-.57-.69-.16-5.21-.18-5.87-.03-.51.11-.78-.16-.66.6ZM104.73,43.85c-1.19.33-3.76-.24-5.13,0l2.5.28c.27.87-.78,1.05-.83,1.11-.31.38.28.81.55.55.07-.07.49-1.54,1.04-1.65s2.7.12,2.84-.02c.05-.05.07-.9.23-1.3.3-.72.52-.66.72-.91.3-.38.28-.73-.24-.56-.17.06-.91,2.29-1.67,2.5ZM79.9,44.41c.66-.27,2.98.2,3.88,0,.09.48-1.87,1.89-.7,1.94.29-.38.85-1.58,1.26-1.78.77-.38,1.85.27,1.66-.71h-4.16c-.28-.49,1.7-1.91.7-1.94-1.21,2-1.59,2.2-4.02,1.94l.83.55-.55,1.38c.59.26.96-1.33,1.11-1.39ZM96.82,43.02s.3-.9.28-1.11c-.98.22-.99,1.68-.28,1.11ZM95.71,43.85c-.52.31-5.58-.23-6.66,0-.04.65-.1.49.41.56.82.1,1.8-.08,2.64,0l.14.83c.62-1.55,2.89-.58,4.3-.84-.51-2.22-.75-.6-.83-.55ZM91.82,45.52c-.34-.35-1.26.89-1.11,1.39.39-.13,1.37-1.11,1.11-1.39ZM78.78,46.07c-.47-.48-.97.96-.83,1.11.47.48.97-.96.83-1.11ZM101.26,46.07c-.38-.38-.8.4-.69.83.26-.27,1.16-.36.69-.83ZM90.99,51.9h-11.93v11.65l2.66-4.41c1.71-2.29,3.83-4.17,6.24-5.69l3.03-1.55Z"/>
      <path class="cls-4" d="M90.99,85.47l.83-.55c-4.39-1.7-7.84-6.23-8.75-10.81-2.52-12.66,10.25-21.94,21.19-16.97.55.25,2.51.96,2.75,1.21.72.75.05,1.53.07,1.87-.57-.27-2.21-2.05-2.77-1.66-.11.08-.71,2.09-.91,2.57-.63,1.47-1.19,3.02-1.82,4.56-.45,1.1-1.38,1.89-1.15,3.14l6.93-2.77c.03.74.91,1.9-.28,2.5-.72.36-5.63,1.98-5.83,2.22.61.8,1.94.97,2.85,1.39.14.06.14.39.43.52.69.31,1.77.65,2.55.59-.01.81,0,1.67,0,2.5-2.12-.39-4.29-1.91-6.25-2.49-.4-.12-.48.03-.41.41l4.16,9.44,2.78-1.26c-.09,1.27.11,1.36-1.02,2.17-1.75,1.26-4.16,1.7-6.19,2.27-2.92-.55-6.18-1.2-9.16-.83ZM102.09,57.45c-2.87-.53-5.51-.68-8.32.28l4.17,10.26c.53-.26.79-1.1,1.01-1.62.43-1.01,3.48-8.58,3.15-8.92ZM91.81,58.85c-.95-.66-6.1,4.59-6.09,6.09l10.27,3.88c-.8-1.13-3.73-9.66-4.18-9.97ZM94.88,70.77l-9.85-3.88c-.98.08-.94,8.83,0,8.59,2.64-1.78,6.94-2.47,9.5-4.09.22-.14.77-.21.35-.62ZM98.97,71.8c1.32-1.32-1.57-3.3-1.88-1.16-.18,1.24,1.04,2,1.88,1.16ZM95.99,73.26c-1.21.49-9.85,3.79-9.97,4.33.11,1.33,5.09,6.32,6.06,5.64.44-.31,3.27-8.77,3.91-9.96ZM102.65,84.35c-.5-.63-4.24-10.36-4.71-9.98l-3.89,9.98c2.95.78,5.65.6,8.6,0Z"/>
      <path class="cls-1" d="M102.09,96.56c-2.55,1.83-5.36,3.92-8.05,5.83-3.67-1.04-7-1.85-10.83-.98-2.45.56-4.49,2.21-7.05,2.38-3.14.21-4.69-1.21-7.43-2.02-3.83-1.14-7.94-1.11-11.59.63-2-1.38-4.09-2.65-6.08-4.05-.42-.3-1.14-.63-1.14-1.22,2.45-.41,4.71-.86,7.32-.8,2.17.05,5,1.3,7.28,1.6,6.01.8,10.3-2.09,16.07-1.64,3.83.3,6.94,2.19,11.1,1.96,3.63-.2,6.64-2.52,10.39-1.67Z"/>
      <path class="cls-6" d="M94.05,102.39c-2.59,1.84-5.16,3.72-7.77,5.55-2.57-1.11-6.45-1.16-9.1-.36-3.5,1.06-3.57,2-7.97,1.76-.88-.05-1.83-.54-2.63-.29-3.17-2.16-6.27-4.48-9.43-6.66,3.64-1.74,7.75-1.76,11.59-.63,2.74.81,4.29,2.23,7.43,2.02,2.56-.17,4.61-1.82,7.05-2.38,3.83-.87,7.16-.06,10.83.98Z"/>
      <path class="cls-10" d="M86.28,107.94c-1.33.93-9.77,7.2-10.4,7.2-3.19-1.87-6.25-4.01-9.29-6.09.8-.26,1.75.24,2.63.29,4.4.24,4.48-.7,7.97-1.76,2.65-.8,6.53-.75,9.1.36Z"/>
      <path class="cls-15" d="M107.09,60.22c.13,1.92.2,3.86.28,5.83l-6.93,2.77c-.23-1.26.7-2.05,1.15-3.14.64-1.54,1.19-3.08,1.82-4.56.2-.47.8-2.49.91-2.57.56-.39,2.2,1.39,2.77,1.66Z"/>
      <path class="cls-15" d="M107.09,75.76c0,1.88.42,4,.28,6.1l-2.78,1.26-4.16-9.44c-.07-.38.01-.53.41-.41,1.96.58,4.14,2.11,6.25,2.49Z"/>
      <path class="cls-15" d="M107.09,68.54c.46,1.05.34,2.63.3,3.78-.02.49-.3.89-.3.94-.78.07-1.85-.28-2.55-.59-.29-.13-.29-.45-.43-.52-.91-.42-2.25-.59-2.85-1.39.19-.25,5.11-1.86,5.83-2.22Z"/>
      <path class="cls-15" d="M81.28,61.33c-3.13,6.16-3.47,13.38.22,19.61,1.06,1.79,2.53,2.61,3.38,4.25.73.44,1.27.75,1.94,1.39-.08.03-.18.25-.28.28-.37.09-1.47-.67-1.58-.91-.14-.33-.05-.68-.09-.75-.4-.24-1.31-.58-1.66-.83-.32-.22-.37-.38-.55-.55-.1-1.28-1.46-2.3-2.05-3.36-3.04-5.44-3.05-12.89-.12-18.38.21-.39.11-.88.78-.73Z"/>
      <path class="cls-15" d="M94.88,51.9c-1.22.21-2.39.71-3.6.98l-3.06,1.24c.14-.09.25-.4.49-.55,1.47-.87,4.5-2.29,6.17-1.67Z"/>
      <path class="cls-15" d="M105.42,52.45c.44.12.57.19,1.11.28-.13.74.18.57.83.55-.01.18.01.37,0,.55-1.98-.54-3.7-1.56-5.82-1.94.94-.65,2.72.23,3.88.55Z"/>
      <path class="cls-8" d="M105.14,52.18c.48-.55,1.52-.19,2.22-.28,0,.37,0,.74,0,1.11-.26-.16-.54-.23-.83-.28-.54-.09-.67-.15-1.11-.28-.08-.1-.2-.18-.28-.28Z"/>
      <path class="cls-4" d="M105.42,87.13c-1.07-.05-2.48.27-3.33-.28,1.07.1,2.48-.3,3.33.28Z"/>
      <path class="cls-4" d="M107.36,53.01c0,.09,0,.19,0,.28-.66.01-.96.19-.83-.55.3.05.58.12.83.28Z"/>
      <path class="cls-15" d="M85.72,56.06c-.64.55-1.16,1.25-1.94,1.66.56-.62,1.02-1.53,1.94-1.66Z"/>
      <path class="cls-15" d="M83.23,58.28c-.34.42-.52.51-.55.55l.55-.55Z"/>
      <path class="cls-11" d="M34.95,117.37c5.69,5.51,12.55,9.9,20.04,12.56,2.96,1.05,5.94,1.51,8.81,2.42.31.1,1.05.26,1.09.3.15.15-.08.99.02,1.09.08.09,1.66-.07,2.09-.01,5.58.83,10.71,1.33,16.38.59.51-.07.36-.52.59-.57.94-.22,2.46.46,3.05-.65.16-.3,0-.76.16-.96.11-.15.48-.04.49-.06,10.68-1.98,20.58-7.41,28.3-14.98,2.56.72,5.17,2.1,7.77,2.22.14.73.04.73-.35,1.2-4.35,5.36-10.3,8.29-15.34,12.39-.53.43-.12,1.08-1.31.78-.48-.12-.78-.58-1.31-.5.2.73-.18,1.36-.28,1.94-.05-.05-.22.04-.28,0-.28-.22-.54-.25-.55-.28-.09-.11.75-.88.54-2.06-.57-3.13-4.01-1.53-5.77-.39-.27.45,1.55,3.71,1.91,4.4v.28c-.55-.23-.52.53-.72.55-.22.02-.54-.23-.96-.16-.55.1-.52,1.04-1.36.72h-.28c-.08-.33-2.19-3.84-2.41-3.89-1.83-.44-1.43,1.07-1.47,2.23-.23.13-.21.36-.28.55-.43,1.17-.27,2.08-.28,3.33-.77.27-.48-.49-.56-.54-.58-.38-.52.39-.62.46-.37.25-1.1-.07-1.59.91.2-.62-.15-.97-.28-1.39-.28-.89-.73-3.49-.97-3.9-.17-.29-1.38-.02-1.48.07-.24.2-1.03,5.24-1.16,6.05-.08.06-.16,1.48-1.11-.28-.27-.5-.25-1.11-.5-1.58-.28-.54-1.6-3.27-1.76-3.37-.32-.2-1.18.03-1.62-.05-.01.65.02,1.3,0,1.94-.03,1.11.02,2.22,0,3.33h-2.22s0-4.17,0-4.17c-.13.03-.23.28-.27.28-.12.01-.24,0-.28-.14v-1.25c-.51.01-1.12-.14-1.54.27-.6.6-1.62,4.76-1.8,5.83-.23.08-.58.35-.83.28-.09-.45-.23-.66-.28-.83-.23-.88-.4-1.91-.68-2.79-.5-1.6-.66-3.29-2.65-2.76,0,1.2,0,2.41,0,3.61l-.55,1.66c-.62.26-.45-.51-.7-.56-.68-.14-.25.5-.55.56-.64.12-.26-.46-.62-.56-.27-.08-.8.08-.91,0-.07-.05-.1-1.08-.28-1.66-.34-1.15-.48-4.04-2.04-3.58-.26.08-2.32,4.03-2.68,4.69-.56.2-.52-.5-.74-.55-1.03-.27-.91.5-1.11.55-1.03.28-.91-.93-2.04-.56.06,2.16-.69,1.05-1.39,0-.07-.11-.18-.19-.28-.28,0-.32-.39-.76-.16-1.11.3-.46,1.36-.36,1.7-1.37.97-2.89-2.28-3.6-4.42-3.92l-1.56,5.84c-.05-.04-.21.04-.28,0-.97-.56-1.52-.07-2.32-.27-.22-.06-.13-.95-.73-.55-.09.06.21.81-.56.54v-1.66c.15-.41.68-1.27.44-1.67-.23-.36-2.68-1.73-2.67-.41,0,.73,1.09.56,1.12,1.52-.56.35-1.98-.87-2.15-1.18-.21-.37.16-1.5-.62-1.04-.06.04.18,1.08-1.11.27.53-2.29,1.33-3.88,4.18-3.21,1.27.3,1.94,1.87,2.75.57-2.37-2.72-6.84-2.43-8.04,1.25-.5-.34-.67,1.1-1.11.56-.07-.09.1-.7-.01-.81-.11-.1-1.09.05-1.64-.17-3.93-1.57-12.7-8.76-15.97-11.77-1.09-1-1.49-2.58-3.18-2.23-.14-.81.28-.51.83-.55.36-.03.74.01,1.11,0-.15.84.42.53.96.55,1.19.05,2.44.04,3.63,0,.53-.02,1.11.28.96-.55,2.1-.06,4.9-1.02,6.66-1.39Z"/>
      <path class="cls-12" d="M12.2,106c9.17,8.08,17.87-.44,27.04-1.12,9.91-.73,25.08.93,27.49,12.76.99,4.88.18,9.47-1.26,14.16-.39-.03-.44-.41-.56-.68-5.24-11.42-11.25-16.59-24.55-15.7-7.26.49-11.85,4.44-19.55,1.95.11-1.7-1.15-.93-1.93-1.52-.21-.16-3.5-3.66-3.64-3.89-.73-1.18.72-.68-1.64-1.53-.15-.06-.3.12-.57-.18-.58-.62-1.31-3.06-1.64-3.98l.83-.28ZM45.49,107.94c-.76-.78-3.2.23-2.36,1.94.34.7,2.13.76,1.8,1.8-.59.81-1.46.26-2.22.14-.42,1.42,2.38,1.36,2.91.28,1.07-2.19-2.53-1.76-1.65-3.61.25-.03,2.22.18,1.51-.55ZM37.73,108.22c-.04,1.35-.21,4.38,1.53,4.71,1.4.26,2.28-.4,2.37-1.8.03-.46-.39-4.01-1.13-3.18-.2,1.13.87,3.39-.11,4.19-1.86,1.51-1.81-2.3-2.07-3.27-.13-.48.2-.77-.59-.64ZM51.04,108.77c-.12-.13-3.11-.44-3.61-.56-.2,1.06,1.26.72,1.39.83.17.15-1.02,3.72-.83,4.44,2.01-.57.24-5.19,3.05-3.88-.03-.22.06-.77,0-.83ZM33.57,114.03c5.41.31,4.5-6.66-.82-4.68l.82,4.68ZM54.15,112.71c.17-.3,1.45-.42,1.29-1.52-.11-.76-1.61-1.76-2.28-1.57-.36.1-2.29,3.98-2.12,4.14.84.77,1.05-1.55,1.79-1.38,1.09.25-.01,3.81.98,2.77.22-.23.16-2.11.34-2.44ZM32.45,114.87c.22-.26-.71-4.22-1.1-4.58-1.17-1.07.15,2.47,0,2.64l-3.33-2.22c0,.57.66,4.55.83,4.72.03.03.8.02.83,0,.13-.12-.77-2.25-.55-2.77l3.33,2.22ZM26.62,111.27s-.89-.28-.82.4c.09.87.56,3.07.83,3.89.15.45.21.81.82.71-.06-.66-.65-4.81-.83-4.99ZM58.53,112.38c-.33-.3-.66.06-.91.34-.35.38-2.4,3.53-2.13,3.82s.78-.38.95-.58c.29-.33,2.33-3.37,2.1-3.58ZM58.81,116.82c-.14.51.41.67.51,1.04.18.65-.73,1.8.18,1.73.4-.71,3.06-5.71.78-4.77-1.04.42-2.91,1.75-3.69,2.55.45,0,1.9-.36,2.22-.55Z"/>
      <path class="cls-3" d="M133.17,109.05c.22,1.15-.75,1.35-1.11,1.87-.51.73-1,1.81-1.54,2.55-1.23,1.69-2.77,3.13-3.73,5.01-5.14.18-6.95-1.47-11.42-2.59-11.23-2.8-19.26,1.16-25.54,10.43l-3.26,5.47c-3.23-9.65-2.56-19.11,6.85-24.64,7.08-4.16,16.08-3.39,23.73-1.36,5.45,1.44,10.05,4.55,16.03,3.25ZM107.64,107.66h-.55v4.99h.55v-4.99ZM112.08,107.94c-.44-.46-3.12-.22-3.88-.28-.3,1.03,1.18.35,1.39.55.34.33-.47,3.7-.28,4.44h.83c.07-.55.13-4.01.28-4.16.07-.07,2.44.25,1.67-.55ZM102.65,108.22c-.24.07-.76-.18-.85.15l.6,4.53c2.18.81,3.99-2.36,1.91-3.02,1.4-1.54.04-2.15-1.66-1.66ZM115.4,108.49c-.17-.11-.81-.01-.97.28-.13.6-2.29,3.96-2.08,4.16.94.86.56-1.63,2.3-1.05,1.07.35.37,1.87,1.58,1.88-.16-.72-.61-5.12-.83-5.27ZM97.57,109.11c-2.5.76-1.29,5.78,1.76,4.82,2.47-.78,1.54-5.82-1.76-4.82ZM120.96,109.88c-.14-.13-3.48-.97-3.61-.83-.53.6.44,1.09,1.11.83.28.74-1.06,4.22-.83,4.44.03.03.8.03.83,0,.14-.14.63-3.66.86-3.86.12-.1,2.45.18,1.64-.58ZM124.57,110.71c-.51.26-2.39-.35-2.5-.28-.21.15-.84,4.32-.84,5l2.78.28c.12-.73-.11-.5-.6-.63-1-.28-1.61.13-1.34-1.17.25-1.19,1.06-.31,1.94-.42.25-1.18-1.75-.36-1.65-1.24.25-2.3,2.48.51,2.21-1.54ZM94.04,114.04c-.09-.09.87-1.77-.75-2.18-.53-.13-2.14.74-2.27,1.26-.08.3,2.12,3.64,2.33,3.7,1.82.54-.97-1.84.3-2.21,1.06-.31,1.28,1,2.33.82.24-1.01-1.86-1.3-1.94-1.39ZM88.22,115.71c-.08.1-.45.14-.53.46-.18.74,3.07,3.88,3.58,3.42.16-.72-1-1.1-1.08-1.56-.07-.38.66-.88.76-1.41.35-1.74-1.5-2.42-2.73-.91Z"/>
      <path class="cls-12" d="M84.33,117.37c-.82,5.35-.1,10.46,1.67,15.53-6.6,1.11-13.39,1.21-19.98,0,1.46-5.01,2.88-10.35,1.39-15.53,1.86.4,3.34,1.81,5.27,2.36,2.39.68,5.22.64,7.57-.2,1.47-.53,2.62-1.64,4.08-2.16ZM71.57,123.48v4.99c2.46.33,4.76-.65.55-.55v-1.67c2.68.27,2.77-.81,0-.55v-1.67c.24-.24,2.26.54,1.94-.55h-2.5ZM77.12,124.03c.16.16-.12,3.79,0,4.44h.55v-4.44c.57-.09,1.6.39,1.39-.55h-3.19s0,.55,0,.55c.3.04,1.18-.07,1.25,0Z"/>
      <path class="cls-12" d="M34.95,117.37c6.88-1.43,13.04-2.14,19.43,1.52,4.17,2.39,8.48,8.01,9.85,12.62.16.54.41.96-.42.84-2.88-.91-5.86-1.37-8.81-2.42-7.49-2.66-14.35-7.05-20.04-12.56Z"/>
      <path class="cls-12" d="M115.96,117.09c-7.72,7.57-17.62,13-28.3,14.98,6.92-11.79,13.04-19.29,28.3-14.98Z"/>
      <path class="cls-12" d="M22.47,104.89c-.21-.19,2.25-3.36-.29-5.12-4.28-2.97-8.91,3.31-3.32,5.54,3.22,1.28,5.21.19,8.32-.69-.36,1.52.98,2.5-.61,3.13-5.31,2.1-11.83.42-15.15-4.16-2.61-3.6-2.22-5.39,1.8-7.53,4.38-2.33,14.87-2.23,15.56,4.05.38,3.45-3.58,4.37-6.31,4.78Z"/>
      <path class="cls-5" d="M129.28,119.31c0,.08.34.12.15.53-.42.9-2.2,2.11-2.31,2.32-.16.29.05.8-.1.99-.05.07-.91.24-1.28.52-1.64,1.22-3.81,3.47-5.5,4.8-3.48,2.72-7.58,6-11.58,7.41l-1.85.65c-.1-.11-.44-.16-.55-.28-.35-.35-.75-.8-1.11-1.11.1-.58.48-1.21.28-1.94.53-.08.83.38,1.31.5,1.19.3.78-.35,1.31-.78,5.04-4.11,10.99-7.03,15.34-12.39.38-.47.48-.47.35-1.2,1.84.08,3.71-.06,5.55,0Z"/>
      <path class="cls-12" d="M138.44,96.84c-.51,1.03-.68,3.33-1.94,3.61-1.3-2.07-3.71-2.96-5.92-1.62-3.04,1.84.07,5.84-.18,6.06-2.14.1-5.28-.62-6.81-2.21-3.34-3.46-.08-6.55,3.48-7.64,4.27-1.31,7.7-.42,11.38,1.8Z"/>
      <path class="cls-10" d="M139.27,105.72c.64.71,0,.76-.04.86-1.03,2.58-2.93,5.26-4.79,7.48l-1.27,2.47c-1.89,1.1-3.3,1.74-5.55,1.94,2.41-2.28,4.27-5.14,6.05-7.97.19-.31,1.13-1.44.61-1.74,1.53-.49,3.78-1.97,4.99-3.05Z"/>
      <path class="cls-10" d="M139.82,97.67c2.8,2.24,3.13,2.91.82,5.68-1.45,1.74-2.94,2.81-4.99,3.75-.86-.77.4-1.32.55-1.59.27-.5,1.26-2.4,1.35-2.79.26-1.21-.34-.32.42-1.51.85-1.35.55-2.74,1.85-3.54Z"/>
      <path class="cls-3" d="M135.11,104.61c.88,1.06-1.25,1.81-.83,3.05-1.42.46-2.76.85-4.3.85-.66,0-4.98-.64-5.13-.85-.09-.12.75-2.37,0-2.91,3.14.97,7.38,2.04,10.26-.14Z"/>
      <path class="cls-3" d="M131.55,104.83c-.13-.08-1.31-2.33-1.38-2.64-1.02-4.9,6.81-3.41,5.64.21-.36,1.12-3.27,3.01-4.27,2.43Z"/>
      <path class="cls-3" d="M21.3,104.83c-.88.51-3.55-.65-3.96-1.61-1.68-3.96,5.91-4.71,5.07-.48-.05.26-1,2.03-1.11,2.09Z"/>
      <path class="cls-6" d="M139.27,105.72c.54-.48,1.32-2.07,2.22-1.8-1.63,4.55-4.04,10.13-8.33,12.62l1.27-2.47c1.86-2.22,3.76-4.9,4.79-7.48.04-.1.68-.15.04-.86Z"/>
      <path class="cls-8" d="M134.28,108.77c.52.3-.42,1.44-.61,1.74-1.78,2.82-3.64,5.69-6.05,7.97-.27.02-.56,0-.83,0,.96-1.88,2.5-3.32,3.73-5.01.54-.74,1.03-1.81,1.54-2.55.37-.52,1.33-.72,1.11-1.87.25-.05.92-.21,1.11-.28Z"/>
      <path class="cls-8" d="M139.82,97.67c-1.3.8-1,2.19-1.85,3.54-.76,1.2-.15.3-.42,1.51-.08.38-1.07,2.29-1.35,2.79-.15.27-1.41.82-.55,1.59-.46.21-.9.4-1.39.55-.42-1.24,1.71-2,.83-3.05,1.28-.97,2.29-2.72,1.39-4.16,1.27-.28,1.44-2.58,1.94-3.61.52.31.79.36,1.39.83Z"/>
      <path class="cls-3" d="M13.59,110.44c2.36.85.91.35,1.64,1.53.14.23,3.43,3.72,3.64,3.89.78.59,2.05-.18,1.93,1.52-3.37-1.09-6.13-3.48-7.21-6.94Z"/>
      <path class="cls-5" d="M28.29,118.76c.15.84-.42.54-.96.55-1.19.04-2.45.05-3.63,0-.53-.02-1.11.29-.96-.55,1.84-.06,3.71.06,5.55,0Z"/>
      <path class="cls-3" d="M12.2,106l-.83.28c-.17-.48-.73-.97-.55-1.66.63.2.98,1.03,1.38,1.39Z"/>
      <path class="cls-3" d="M10.67,104.05c.18.09.18.18,0,.28v-.28Z"/>
      <path class="cls-8" d="M57.15,140.12c.03,1.26.25,1.73-.83,2.5-.13-.98.33-2.65-.67-3.35-.37-.26-1.56-.44-1.8-.23-.06.05-.21,1.06-.31,1.36-.78.17-.73-.75-.83-.83l1.56-5.84c2.14.32,5.39,1.03,4.42,3.92-.34,1.01-1.4.91-1.7,1.37-.23.36.15.79.16,1.11ZM54.93,134.85c.21.87-.93,2.4-.44,3.07,3.86,1.33,4.56-2.91.44-3.07Z"/>
      <path class="cls-8" d="M67.41,139.84v2.77c-.21-.16-.56-.23-.83-.28-.38-.06-2.99-.33-3.14-.3-.25.06-.34.62-.46.85-.4,0-.71-.16-.83-.55.28-.48.37-1.04.55-1.39.36-.66,2.42-4.62,2.68-4.69,1.56-.45,1.7,2.43,2.04,3.58ZM66.3,141.51c.11-.11-.26-2.7-.35-3.12-.06-.27-.1-.83-.48-.76.02.71-1.77,3.17-1.39,3.6l2.22.28Z"/>
      <path class="cls-8" d="M43.83,135.13c-.06.25-.48.63-.28,1.11-.07,0-.7.82-1.11-.28-.1-.86.01-1.41.28-2.22,1.2-3.68,5.67-3.97,8.04-1.25-.81,1.3-1.48-.28-2.75-.57-2.85-.67-3.65.92-4.18,3.21Z"/>
      <path class="cls-10" d="M42.44,135.96c.41,1.09,1.04.28,1.11.28.15,0,.72,1.19,1.12,1.52.42.35,1.97,1.07,2.49.98l.28-.28c.04-.07-.03-.19,0-.28h1.11c-.91,1.81-.54,1.93-2.77,1.24-1.71-.53-3.13-1.58-3.34-3.46Z"/>
      <path class="cls-8" d="M48.82,137.62c-.04.12-.2.39-.28.55h-1.11c.09-.25.28-.89.28-1.11-.03-.96-1.11-.79-1.12-1.52-.01-1.32,2.44.04,2.67.41.25.4-.28,1.25-.44,1.67Z"/>
      <path class="cls-10" d="M62.97,142.9c-.16.32-.54,1.09-.55,1.39l-.28.28c-.09-.02-.2.03-.28,0-.27-.09-.58-.1-.83-.28.37-.62.75-1.31,1.11-1.94.12.4.43.55.83.55Z"/>
      <path class="cls-10" d="M53.54,140.4c-.09.29-.48,1.87-.56,1.94-.05.05-1.07-.24-1.11-.28-.08-.1.8-1.94.56-2.49.07.04.23-.04.28,0,.1.09.05,1,.83.83Z"/>
      <path class="cls-14" d="M57.42,140.4c-.08.51.11,2.94,0,3.05-.4.4-1.02-.21-1.11-.83,1.08-.76.87-1.23.83-2.5.09.09.21.17.28.28Z"/>
      <path class="cls-11" d="M134.19,36.17c2.85,2.61-2.77,7.37-5.31,4.61s2.94-6.77,5.31-4.61Z"/>
      <path class="cls-11" d="M14.07,54.74c.63.63.33,2.45-.2,3.15l-3.06-1c.09-1.44,1.94-3.47,3.26-2.15Z"/>
      <path class="cls-2" d="M7.48,55.5c.1-2.46,3.41-3.28,3.04-.44-.28,2.17-1.75.74-3.04.44Z"/>
      <path class="cls-11" d="M136.22,44.96c.43-.06,1.85-.08,2.22,0,.12.03,1,.7,1.11.83l.28.28c.02.07-.01.18,0,.28.06.53-.04,1.12,0,1.66-.75,2.05-3.82,3.4-5.69,1.95-2.28-1.77-.24-4.66,2.08-5Z"/>
      <path class="cls-10" d="M138.44,44.96c-.37-.08-1.79-.06-2.22,0,.43-.46,1.78-.47,2.22,0Z"/>
      <path class="cls-10" d="M139.82,48.01c-.04-.54.06-1.14,0-1.66.67.49.18,1.16,0,1.66Z"/>
      <path class="cls-10" d="M139.82,46.07l-.28-.28c.07.08.23.14.28.28Z"/>
      <path class="cls-2" d="M15.53,46.35c.27.26-.75,2.08-.97,2.49l-2.91-2.77,3.88.28Z"/>
      <path class="cls-5" d="M79.06,138.18s.14-.25.27-.28v4.17s2.23,0,2.23,0c.02-1.11-.03-2.22,0-3.33.39,1.17.43,2.82.55,4.16.08.83-.27,1.91.55,2.5-1.24-.12-1.19.56-1.27.57-.43.03-1.45-.57-2.06-.57-.12-.87.31-2.12-.28-2.77.03-1.48-.02-2.96,0-4.44Z"/>
      <path class="cls-5" d="M67.41,139.84c.17.59.21,1.61.28,1.66.1.08.63-.08.91,0,.36.1-.03.68.62.56.31-.06-.12-.7.55-.56.24.05.08.81.7.56v3.61c-.38,0-1.15.52-2.04.28-.29-.08-.16-.54-.18-.56-.22-.79-.22-1.43-.55-2.22-.08-.2-.01-.35-.28-.55v-2.77Z"/>
      <path class="cls-5" d="M66.58,142.34c0,.18,0,.37,0,.55.03.61.12,1.36.28,1.94-.94.54-2.21-.13-2.87-.01-.19.03-.16.51-.37.56-.6.15-2.15.32-1.75-.83.08.03.19-.02.28,0,.04.01.08.43.55.28.11-.29-.28-.52-.28-.55.01-.3.39-1.06.55-1.39.12-.23.21-.8.46-.85.15-.03,2.76.23,3.14.3Z"/>
      <path class="cls-5" d="M77.95,142.62c.04,1.05.12,2.02.28,3.05-.07.01-.19.39-.49.23-.22-.11-.55-1.25-1.03-1.07s.66.83-1.25.83c.18-1.02.51-2.07.83-3.05.45-1.4.96-2.81,1.53-4.16.25,0,.12,3.65.14,4.16Z"/>
      <path class="cls-5" d="M93.49,139.29c0,.68.09,1.59,0,2.22-.01.09-.25,1.06-.28,1.11-.04.07-.9-.16-.56,1.11-.75.31-.42-.52-.69-.56-.62-.1-.3.25-.52.45-.15.14-.41.07-.45.11-.22-.33-.46-1.01-.55-1.39-.07-.28-.25-.65-.28-.83-.08-.51.05-1.13,0-1.66.13.42.48.76.28,1.39.49-.98,1.22-.66,1.59-.91.1-.07.04-.84.62-.46.08.05-.21.81.56.54.01-1.24-.15-2.16.28-3.33v2.22Z"/>
      <path class="cls-5" d="M89.33,141.51c.1.44.18.93.28,1.39-.03.34-.99,2.78-1.39,1.74-.06-.16.08-.55,0-.63-.05-.05-1.09.22-1.39.28.57-.91.67-2.01.83-3.05l.83-3.33c.17,1.23.56,2.41.84,3.6Z"/>
      <path class="cls-5" d="M82.95,142.34c.02-.32-.03-.65-.01-.98.39-2.09,1.16-.24,1.68.7.25.46.52,1.49.83,1.94.04,1.11-1.04,1.95-1.8.83l.14,1.11c-.8.26-.48-.49-.55-.55-.13-.96.32-2.3-.28-3.05Z"/>
      <path class="cls-5" d="M94.6,140.4c.16-.08,2.43-.57,2.64-.57.45,0,.47.31.69.57.3.38.68,1.18.83,1.66-.65,0-1.18-.24-1.77-.25-.76-.01-1.88.85-2.39-.3,0-.37,0-.74,0-1.11Z"/>
      <path class="cls-10" d="M98.48,139.01c.19.36.25.91.55,1.39-.15.48-.79.22-1.11,0-.21-.27-.24-.57-.69-.57-.21,0-2.48.5-2.64.57-.49.23-.2,2.6-1.11,1.11.09-.63,0-1.54,0-2.22h.28c.01.28-.02.56,0,.83l1.94-.28c-.03-.14-.28-.23-.28-.27-.01-.13.02-.22.14-.27.33.03,1.03-.36,1.24-.28.12.04.28.78.83.55-.06-.42.09-1.02,0-1.39h.28c-.12.52.48.7.55.83Z"/>
      <path class="cls-5" d="M100.98,137.07h.28c.04.07-.04.21,0,.28.19.36.36.75.55,1.11-1.27.27-1.12,1.76-2.5,1.39l-.83-.83c-.07-.14-.68-.32-.55-.83.84.32.82-.62,1.36-.72.42-.08.74.18.96.16.2-.02.18-.77.72-.55Z"/>
      <path class="cls-5" d="M105.42,136.79c.14.25.65.95.83,1.11-.28,1.4-1.76.63-2.77,1.11-.04-.13-.48-.38-.55-.55-.06-.13.06-.45,0-.55.23-1.39,1.36-.26,1.66-1.66.22.14.67.54.83.55Z"/>
      <path class="cls-10" d="M86.83,144.28c-.79.16-.83.53-1.39-.28-.31-.45-.58-1.48-.83-1.94l.83-.28c.95,1.76,1.03.34,1.11.28.18-.12.9.27,1.11-.83-.17,1.04-.26,2.14-.83,3.05Z"/>
      <path class="cls-5" d="M74.07,144.84c0,.09.01.19,0,.28-.17,1.37-1.3.53-2.22.55v-.28c.74-.33,0-1.05,0-1.11-.01-.18,0-.37,0-.55.17-.15.25-.33.28-.55.78.41,1.27-.55,1.39-.55.13.49.54,1.91.55,2.22Z"/>
      <path class="cls-14" d="M71.02,140.4c0,1.11,0,2.22,0,3.33l.83-1.11c.01.37-.01.74,0,1.11,0,.18-.01.37,0,.55-.38.34-.4.79,0,1.11v.28c-.42.01-.97,0-1.39,0v-3.61l.55-1.66Z"/>
      <path class="cls-10" d="M77.95,142.62l.97,1.67c.26,0,.13-1.31.14-1.67.59.66.16,1.9.28,2.77-.06,0-.75.22-1.11.28-.16-1.03-.24-2-.28-3.05Z"/>
      <path class="cls-14" d="M75.46,145.67c-.66,0-1.07.16-1.39-.55.01-.09,0-.19,0-.28,1.36.19.72-.45.55-1.39-.02-.09.02-.19,0-.28.26.08.6-.2.83-.28.28-.09.58-.11.83-.28-.32.98-.65,2.03-.83,3.05Z"/>
      <path class="cls-14" d="M66.58,142.9l.28.83.83-.55c.34.79.34,1.43.55,2.22-.19-.12-1.21.12-1.39,0-.06-.04.03-.43,0-.55-.15-.59-.25-1.33-.28-1.94Z"/>
      <path class="cls-14" d="M83.23,145.39c-.05-.04-.39.02-.55,0-.83-.58-.48-1.66-.55-2.5h.38c.3.24.01.66.45.55.02-.37-.02-.74,0-1.11.6.75.15,2.09.28,3.05Z"/>
      <path class="cls-14" d="M94.6,141.51c0,.18.02.37,0,.55l-.28,1.11c-.72.67-1.35.37-1.11-.55.03-.05.26-1.02.28-1.11.91,1.49.62-.88,1.11-1.11,0,.37,0,.74,0,1.11Z"/>
      <path class="cls-14" d="M106.81,136.51c.15.17.28,1.05.83,1.25-.42.55-.81.62-1.38.14-.19-.16-.7-.86-.83-1.11.42.05.71-.17.83-.55.11.12.45.16.55.28Z"/>
      <path class="cls-10" d="M102.09,136.79c.25.11.2.41.28.55.18.31.51.48.55.55.06.11-.06.42,0,.55l-.83.28c-.06-.1-.22-.18-.28-.28-.2-.36-.36-.75-.55-1.11.1-.48.74-.48.83-.55Z"/>
      <path class="cls-14" d="M99.04,140.4c.49.75,2.31,1.65-.28,1.66-.15-.49-.53-1.29-.83-1.66.32.22.96.48,1.11,0Z"/>
      <path class="cls-14" d="M103.48,139.01c.08.27-.05.78,0,1.11-1.25.24-1.03-.77-1.39-1.39l.83-.28c.08.18.51.42.55.55Z"/>
      <path class="cls-14" d="M90.99,143.73c-.05.05.21.93-.94.52-.6-.22-.35-.71-.45-1.08.55.02.85-.27.83-.83.1.38.34,1.06.55,1.39Z"/>
      <path class="cls-10" d="M90.16,141.51c.03.19.21.56.28.83.02.56-.28.86-.83.83-.02-.09.02-.19,0-.28-.1-.46-.18-.94-.28-1.39h.83Z"/>
      <path class="cls-5" d="M57.14,144.84c.3.3-.25.85-.55.55s.25-.85.55-.55Z"/>
      <path class="cls-5" d="M94.32,143.17l.28-1.11c-.04.46.16.7-.28,1.11Z"/>
      <path class="cls-13" d="M68.8,59.39c-5.44,6.7-8.76,14.43-9.71,23.03,0,.05-.25.3-.29.67-.13,1.34.22,2.73.01,4.05-1.18,0-1.67-.04-2.77-.28.43-.12,1.06.38,1.11-.41.58-8.32,1.73-15.63,6.66-22.62,1-1.43,2.88-2.66,3.33-4.16.02-.08-.02-.19,0-.28.78.09,1.28-.56,1.94-.83l-.27.83Z"/>
      <path class="cls-13" d="M67.13,42.74c.02.18-.01.37,0,.55-3.23,5.62-5.26,12.75-6.58,19.09l-.64,4.5c-.16.24-.14.58-.55,1.11-.48-1.56-.85-3.18-1.39-4.72.63-1.53.74-3.19,1.19-4.78,1.61-5.6,4-10.21,7.13-15.07.23-.36.23-.81.83-.68Z"/>
      <path class="cls-13" d="M49.1,48.85c1.75,4.46,4.65,8.35,6.3,13.26,1.02,3.03,1.43,6.24,2.58,9.21-.52,1.37-.93,2.77-1.39,4.16-.16.03-.5-.05-.55,0-.36-9.09-3.03-18.84-7.77-26.63.26.04.61-.06.83,0Z"/>
      <path class="cls-13" d="M47.43,64.94c3.84,4.29,6.12,9.51,7.77,14.98-.42,2.09-.61,4.26-.83,6.38-.24-.07-.44-.24-.55-.28.38-.34.03-1.29-.05-1.76-1.16-6.4-3.19-12.95-6.61-18.5-.02-.42-.12-.65.28-.83Z"/>
      <path class="cls-1" d="M66.58,42.19c.74-.08.51.01.55.55-.6-.13-.6.32-.83.68-3.13,4.86-5.53,9.47-7.13,15.07-.45,1.58-.56,3.25-1.19,4.78-.28-.81-1.17-1.91-.83-2.77.13-.04.25-.15.28-.28,1.33-7.07,3.6-13.32,9.16-18.03Z"/>
      <path class="cls-1" d="M63.8,63.83c-4.92,6.99-6.08,14.3-6.66,22.62-.05.79-.69.29-1.11.41-.26-.06-.43-.24-.55-.28.12-5,1.08-10.26,3-14.89.67-1.62,3.45-5.74,3.66-6.75.03-.16-.02-.37,0-.55.26.02.39-.19.55-.28s.39-.23.55-.28c.15-.04.38.03.55,0Z"/>
      <path class="cls-1" d="M49.1,48.85c1.26.34,1.13,1.85,2.5,2.22,0,.26-.05.63,0,.83.14.56.94,1.09,1.11,1.39.4.71.7,1.49,1.11,2.22l.55.83c.09.17.19.38.28.55l.28.55c.05.14-.05.41,0,.55l.28.55c.12.73,1.27,2.68,1.57,3.56.62,1.78,1.63,4.68,2.03,6.43.37,1.62-.42,1.71-.83,2.77-1.15-2.98-1.56-6.19-2.58-9.21-1.65-4.91-4.55-8.8-6.3-13.26Z"/>
      <path class="cls-1" d="M47.99,64.94c3.37,2.08,4.95,4.97,6.62,8.5.26.54.78,2.5.87,2.6.59.57.52-.52.55-.56.06-.05.4.03.55,0-.47,1.42-1.06,2.78-1.39,4.44-1.65-5.48-3.93-10.69-7.77-14.98.11-.05.39.04.55,0Z"/>
      <path class="cls-8" d="M62.14,64.94c-.2,1.01-2.99,5.13-3.66,6.75-1.92,4.63-2.88,9.89-3,14.89-.36-.1-.7-.15-1.11-.28.22-2.12.42-4.29.83-6.38.33-1.66.92-3.02,1.39-4.44s.86-2.79,1.39-4.16c.41-1.07,1.2-1.16.83-2.77.3-.09.39-.34.55-.55.41-.53.39-.87.55-1.11.26-.38.67-.52.83-.75.42-.6.07-1.84,1.39-1.19Z"/>
      <path class="cls-4" d="M64.64,77.7c-1.44,2.02-2.74,5.42-3.42,7.82-.12.43-.61,1.53.37,1.34-1.05.17-1.61.27-2.77.28.21-1.32-.14-2.71-.01-4.05.04-.37.28-.62.29-.67.02.88-.03,1.76,0,2.64.01.34-.21,1.03.27.97.5-2.37,1.76-4.97,3.22-6.91.47-.62,1.05-.94,1.5-1.41h.55Z"/>
      <path class="cls-13" d="M64.64,77.7c.45-.63,1.46-1.85,1.39-.55-.66,1.12-.88,2.79-1.99,3.72l-1.06,5.71c-.54.14-.84.19-1.39.28-.98.2-.49-.91-.37-1.34.67-2.39,1.98-5.8,3.42-7.82Z"/>
      <path class="cls-4" d="M67.13,59.67c-.45,1.5-2.32,2.73-3.33,4.16-.18.03-.4-.04-.55,0,.1-.18.17-.38.28-.55l.28-.28c.02-.09-.02-.19,0-.28.73-.58,1.76-1.28,1.94-2.22.48-.27.77-.81,1.39-.83Z"/>
      <path class="cls-1" d="M64.08,77.7c.92-.98,2.03-2.89,3.6-2.64-.22.69-1.35,1.56-1.66,2.08.07-1.3-.93-.08-1.39.55h-.55Z"/>
      <path class="cls-4" d="M49.1,48.01v.28c-.32.19-.08.34,0,.55-.22-.06-.58.04-.83,0-.17-.28-2.01-2.17-1.66-2.5,1.02.08,1.73,1.06,2.5,1.66Z"/>
      <path class="cls-4" d="M66.58,42.19c.6-.51,1.11-1.73,2.22-1.66.27.26-1.45,2.41-1.66,2.77-.01-.18.02-.37,0-.55-.05-.54.19-.63-.55-.55Z"/>
      <path class="cls-1" d="M67.13,59.39c.14-.6,1.42-1.55,2.08-1.67.61-.11.43.23.36.64-.23,1.34-.69.93-.77,1.03l.27-.83c-.66.27-1.16.92-1.94.83Z"/>
      <path class="cls-8" d="M65.75,60.5c-.19.94-1.21,1.64-1.94,2.22.02-.07-.5-.3.28-1.25.65-.79,1.07-.63,1.67-.97Z"/>
      <path class="cls-4" d="M47.99,64.94c-.17.04-.44-.05-.55,0-.4.18-.29.41-.28.83-.1-.15-1.62-1.76-1.39-1.94,1.04-.2,1.63.74,2.22,1.11Z"/>
      <path class="cls-3" d="M51.6,51.9c.5.34.67-1.1,1.11-.55.03.04-.08.45.09.74.22.38.72-.37-.09,1.2-.17-.3-.97-.83-1.11-1.39Z"/>
      <path class="cls-3" d="M51.6,50.23c.53.73,0,.68,0,.83-1.37-.37-1.24-1.88-2.5-2.22-.08-.21-.32-.36,0-.55l2.36,2.21.14-.27Z"/>
      <path class="cls-6" d="M51.6,50.23l-.14.27-2.36-2.21v-.28c.95.75,1.69,1.11,2.5,2.22Z"/>
      <path class="cls-3" d="M55.2,56.06c-.42.41-1.15-.79-.41-1.11.21.11.49,1.03.41,1.11Z"/>
      <rect class="cls-3" x="53.26" y="53.01" width=".55" height=".83"/>
      <path class="cls-8" d="M62.69,64.1c-.16.09-.3.3-.55.28.03-.27-.02-.56,0-.83l.55.55Z"/>
      <path class="cls-3" d="M56.59,58.56c.3.3-.25.85-.55.55s.25-.85.55-.55Z"/>
      <path class="cls-3" d="M54.37,56.34l-.55-.83c.1.17.32.39.55.83Z"/>
      <path class="cls-3" d="M55.2,58.56l-.28-.55c.1.29.18,0,.28.55Z"/>
      <path class="cls-3" d="M57.42,60.22c-.02.13-.15.24-.28.28-.98.06-.63-.43.28-.28Z"/>
      <path class="cls-3" d="M54.93,57.45l-.28-.55c.09.19.17.29.28.55Z"/>
      <path class="cls-3" d="M55.48,56.34c.19.1-.16.47-.55.27-.19-.1.16-.47.55-.27Z"/>
      <path class="cls-3" d="M55.76,56.89c.19.1-.16.47-.55.27-.19-.1.16-.47.55-.27Z"/>
      <path class="cls-8" d="M63.53,63.27c.07-.12.27-.24.28-.28l-.28.28Z"/>
      <path class="cls-3" d="M54.23,54.67c.18.09.18.18,0,.28v-.28Z"/>
      <path class="cls-3" d="M79.06,87.41v-9.15s1.68,3.11,1.68,3.11c.78.79,1.05,1.61,1.93,2.43.19.18.23.33.55.55.38,1.33,1.88,1.58,2.5,2.77-2.44.68-4.13.77-6.66.28Z"/>
      <rect class="cls-1" x="59.36" y="90.46" width="4.99" height=".28"/>
      <rect class="cls-1" x="47.16" y="92.13" width="4.44" height=".28"/>
      <path class="cls-4" d="M84.89,85.19c.04.07-.06.42.09.75.1.24,1.2,1.01,1.58.91-.26.08-.48.18-.83.28-.62-1.2-2.12-1.44-2.5-2.77.36.25,1.26.59,1.66.83Z"/>
      <path class="cls-12" d="M90.99,51.9l-3.03,1.55c-2.42,1.52-4.53,3.4-6.24,5.69l-2.66,4.41v-11.65h11.93Z"/>
      <path class="cls-13" d="M91.27,39.69h4.58s.44.37.42.55c-.72.15-2.48-.23-2.99.06-.33.19-1.68,2.76-2.14,3.27-.32-1.3,1.34-2.15,1.53-3.33h-7.49c-.02-.18.37-.55.42-.55h5.13c.07,0,.41-1.04.69-1.11l-.14,1.11Z"/>
      <path class="cls-13" d="M79.9,44.41c-.15.06-.52,1.65-1.11,1.39l.55-1.38-.83-.55c2.43.25,2.81.06,4.02-1.94,1.01.03-.97,1.45-.7,1.94h4.16c.19.98-.89.33-1.66.71-.41.2-.97,1.4-1.26,1.78-1.17-.05.79-1.46.7-1.94-.9.2-3.22-.27-3.88,0Z"/>
      <path class="cls-13" d="M95.71,43.85c.08-.05.32-1.66.83.55-1.41.26-3.68-.71-4.3.84l-.14-.83c-.85-.08-1.82.1-2.64,0-.51-.06-.45.09-.41-.56,1.07-.23,6.14.31,6.66,0Z"/>
      <path class="cls-13" d="M98.76,40.52c-.12-.76.15-.49.66-.6.66-.15,5.18-.13,5.87.03.49.11.81-.25.68.57h-7.21Z"/>
      <path class="cls-13" d="M104.73,43.85c.76-.21,1.49-2.44,1.67-2.5.52-.17.54.18.24.56-.2.25-.42.18-.72.91-.17.4-.19,1.25-.23,1.3-.14.14-2.27-.09-2.84.02s-.97,1.58-1.04,1.65c-.26.26-.85-.17-.55-.55.05-.06,1.09-.25.83-1.11l-2.5-.28c1.37-.24,3.94.33,5.13,0Z"/>
      <path class="cls-13" d="M82.39,38.31l-.55,1.38,1.11.55h-1.94c-.21-.22.81-2.09,1.39-1.94Z"/>
      <path class="cls-13" d="M91.82,45.52c.27.28-.71,1.26-1.11,1.39-.15-.5.76-1.74,1.11-1.39Z"/>
      <path class="cls-13" d="M78.78,46.07c.14.15-.36,1.59-.83,1.11-.14-.15.36-1.59.83-1.11Z"/>
      <path class="cls-13" d="M104.59,39.41c-.23-.23.46-1.05.83-1.11.27.56-.5,1.44-.83,1.11Z"/>
      <path class="cls-13" d="M96.82,43.02c-.71.57-.7-.89.28-1.11.02.21-.23,1.07-.28,1.11Z"/>
      <path class="cls-13" d="M100.98,39.41c-1.11,1.03.05-1.92.28-1.39-.12.25-.23,1.34-.28,1.39Z"/>
      <path class="cls-13" d="M101.26,46.07c.47.47-.43.56-.69.83-.11-.43.32-1.2.69-.83Z"/>
      <path class="cls-15" d="M102.09,57.45c.33.34-2.72,7.91-3.15,8.92-.22.52-.48,1.36-1.01,1.62l-4.17-10.26c2.82-.96,5.45-.81,8.32-.28Z"/>
      <path class="cls-15" d="M91.81,58.85c.44.31,3.38,8.84,4.18,9.97l-10.27-3.88c0-1.5,5.14-6.75,6.09-6.09Z"/>
      <path class="cls-15" d="M94.88,70.77c.41.41-.13.48-.35.62-2.56,1.61-6.85,2.31-9.5,4.09-.94.24-.98-8.5,0-8.59l9.85,3.88Z"/>
      <path class="cls-15" d="M95.99,73.26c-.64,1.19-3.47,9.66-3.91,9.96-.98.69-5.95-4.31-6.06-5.64.12-.53,8.76-3.84,9.97-4.33Z"/>
      <path class="cls-15" d="M102.65,84.35c-2.95.6-5.65.78-8.6,0l3.89-9.98c.47-.37,4.22,9.35,4.71,9.98Z"/>
      <path class="cls-15" d="M98.97,71.8c-.84.84-2.06.08-1.88-1.16.31-2.15,3.2-.16,1.88,1.16Z"/>
      <path class="cls-8" d="M100.98,136.79c-.35-.69-2.17-3.94-1.91-4.4,1.76-1.14,5.21-2.74,5.77.39.21,1.19-.62,1.95-.54,2.06l-.28.27h.83c.06.05.23-.04.28,0-.23,1.42.04.48.27,1.03.09.22-.05.55,0,.64-.16-.02-.61-.42-.83-.55-.12-.07-.12-.52-.7-.57-.73-.06-.83.32-1.25.57-.76.45-.47.48-.55.55-.09.08-.73.08-.83.55-.04-.07.04-.21,0-.28-.08-.15-.25-.23-.28-.28ZM102.37,135.4c3.03-1.36.94-4.93-1.96-2.61-.05.32.89,2.34,1.13,2.61.52.58.45.17.83,0Z"/>
      <path class="cls-8" d="M81.56,138.73c.02-.65-.02-1.3,0-1.94.44.07,1.3-.15,1.62.05.16.1,1.48,2.83,1.76,3.37.25.47.23,1.08.5,1.58l-.83.28c-.52-.94-1.29-2.79-1.68-.7-.02.32.03.65.01.98-.02.37.02.74,0,1.11-.43.11-.14-.31-.45-.56h-.38c-.13-1.33-.17-2.98-.55-4.15Z"/>
      <path class="cls-8" d="M75.46,142.9c.18-1.08,1.2-5.23,1.8-5.83.41-.42,1.03-.26,1.53-.27v1.25c.04.14.15.15.28.14-.02,1.48.03,2.96,0,4.44,0,.35.12,1.66-.14,1.67l-.97-1.67c-.02-.52.11-4.16-.14-4.16-.57,1.35-1.07,2.77-1.53,4.16-.25.17-.56.19-.83.28Z"/>
      <path class="cls-8" d="M71.02,140.4c0-1.2,0-2.41,0-3.61,2-.53,2.16,1.16,2.65,2.76.27.88.45,1.91.68,2.79,0,.3-.13.71.28.83.02.09-.02.19,0,.28-.66.27-.66-.86-1.11-.83-.26-1.02-.77-2.28-1.11-3.33-.06-.19.14-.56-.14-.56-.25,0-.12.37-.14.56,0,.09,0,.19,0,.28-.48.71-.31,2.12-.28,3.05l-.83,1.11c0-1.11,0-2.22,0-3.33Z"/>
      <path class="cls-8" d="M90.16,139.84c.05.53-.08,1.16,0,1.66h-.83c-.27-1.2-.67-2.38-.84-3.6l-.83,3.33c-.21,1.11-.93.71-1.11.83.13-.81.92-5.85,1.16-6.05.1-.08,1.31-.36,1.48-.07.24.41.68,3.01.97,3.9Z"/>
      <path class="cls-8" d="M93.77,136.51c.04-1.16-.35-2.67,1.47-2.23.22.05,2.33,3.56,2.41,3.89.09.37-.06.97,0,1.39-.55.23-.71-.51-.83-.55l-.55-1.25-1.67-2.35c-.02.87.03,1.76,0,2.63-.04,1.06-1,1.75.83,1.53,0,.04.25.14.28.27l-1.94.28c-.02-.28.01-.56,0-.83-.04-.89-.03-1.88,0-2.77Z"/>
      <path class="cls-5" d="M43.83,135.13c1.3.81,1.05-.24,1.11-.27.78-.46.41.67.62,1.04.17.3,1.59,1.52,2.15,1.18,0,.22-.19.86-.28,1.11-.03.09.04.21,0,.28-.02.04-.26.27-.28.28-.52.09-2.07-.63-2.49-.98-.4-.33-.97-1.52-1.12-1.52-.21-.48.22-.86.28-1.11Z"/>
      <path class="cls-14" d="M93.77,139.29h-.28v-2.22c.07-.19.05-.42.28-.55-.03.9-.04,1.88,0,2.77Z"/>
      <path class="cls-10" d="M104.87,135.13h-.83s.28-.28.28-.28c.02.02.27.06.55.28Z"/>
      <path class="cls-10" d="M74.62,143.17c-.4-.12-.28-.53-.28-.83.05.17.19.39.28.83Z"/>
      <path class="cls-10" d="M101.26,137.07h-.28v-.28s.2.13.28.28Z"/>
      <path class="cls-15" d="M32.45,114.87l-3.33-2.22c-.21.52.69,2.66.55,2.77-.03.03-.8.03-.83,0-.18-.16-.83-4.14-.83-4.72l3.33,2.22c.16-.17-1.16-3.71,0-2.64.39.36,1.33,4.32,1.1,4.58ZM28.98,112.1v.28c.18-.09.18-.18,0-.28ZM31.48,113.21v.28c.18-.09.18-.18,0-.28Z"/>
      <path class="cls-13" d="M33.57,114.03l-.82-4.68c5.32-1.98,6.23,4.99.82,4.68ZM34.02,109.64c-.92.31.05,3.84.73,3.8,2.65-.14,1.92-4.7-.73-3.8Z"/>
      <path class="cls-15" d="M54.15,112.71c-.19.33-.12,2.21-.34,2.44-.99,1.04.11-2.52-.98-2.77-.74-.17-.96,2.16-1.79,1.38-.17-.16,1.77-4.03,2.12-4.14.67-.19,2.17.81,2.28,1.57.16,1.1-1.12,1.22-1.29,1.52ZM53.27,110.16l-.56,1.52c1.95,1.51,3-1.21.56-1.52Z"/>
      <path class="cls-13" d="M37.73,108.22c.79-.13.46.16.59.64.26.97.21,4.77,2.07,3.27.99-.8-.09-3.06.11-4.19.74-.83,1.16,2.72,1.13,3.18-.09,1.4-.97,2.07-2.37,1.8-1.74-.33-1.57-3.36-1.53-4.71Z"/>
      <path class="cls-13" d="M45.49,107.94c.71.73-1.26.51-1.51.55-.88,1.85,2.72,1.42,1.65,3.61-.53,1.08-3.34,1.14-2.91-.28.75.12,1.62.67,2.22-.14.32-1.04-1.46-1.1-1.8-1.8-.84-1.71,1.6-2.72,2.36-1.94Z"/>
      <path class="cls-13" d="M58.81,116.82c-.32.2-1.77.56-2.22.55.78-.8,2.65-2.13,3.69-2.55,2.28-.93-.37,4.07-.78,4.77-.91.07,0-1.08-.18-1.73-.1-.37-.65-.53-.51-1.04l1.11.55.56-1.94c-.49.26-1.01.52-1.47.83-.25.17-.17.54-.2.56Z"/>
      <path class="cls-13" d="M51.04,108.77c.05.06-.03.61,0,.83-2.81-1.3-1.04,3.31-3.05,3.88-.19-.71,1-4.29.83-4.44-.13-.11-1.58.23-1.39-.83.5.12,3.48.42,3.61.56Z"/>
      <path class="cls-13" d="M26.62,111.27c.18.18.77,4.33.83,4.99-.61.1-.67-.25-.82-.71-.27-.82-.74-3.02-.83-3.89-.07-.67.78-.43.82-.4Z"/>
      <path class="cls-13" d="M58.53,112.38c.23.21-1.81,3.25-2.1,3.58-.17.2-.68.86-.95.58s1.79-3.44,2.13-3.82c.25-.28.59-.63.91-.34Z"/>
      <path class="cls-15" d="M97.57,109.11c3.3-1,4.23,4.04,1.76,4.82-3.05.96-4.25-4.06-1.76-4.82ZM97.85,109.65c-1.99.6-.47,4.2,1.2,3.73,2.01-.56.9-4.37-1.2-3.73Z"/>
      <path class="cls-13" d="M94.04,114.04c.09.09,2.18.38,1.94,1.39-1.05.18-1.27-1.13-2.33-.82-1.27.37,1.52,2.75-.3,2.21-.21-.06-2.41-3.4-2.33-3.7.13-.52,1.74-1.4,2.27-1.26,1.62.41.66,2.08.75,2.18ZM93.45,112.69c-1.02-.65-2.33.71-1.08,1.5,1.01.64,1.75-1.07,1.08-1.5Z"/>
      <path class="cls-13" d="M115.4,108.49c.22.15.68,4.55.83,5.27-1.21-.01-.51-1.53-1.58-1.88-1.74-.57-1.36,1.92-2.3,1.05-.21-.2,1.95-3.56,2.08-4.16.15-.29.79-.39.97-.28ZM115.13,111.27l-.14-1.94-.97,1.94h1.11Z"/>
      <path class="cls-13" d="M124.57,110.71c.26,2.04-1.96-.77-2.21,1.54-.1.87,1.91.06,1.65,1.24-.88.11-1.69-.77-1.94.42-.27,1.29.34.89,1.34,1.17.49.14.73-.09.6.63l-2.78-.28c0-.67.63-4.84.84-5,.1-.07,1.98.54,2.5.28Z"/>
      <path class="cls-15" d="M102.65,108.22v.28c-.44.41.11,1.08,0,1.66.38-.17.67-.27,1.11-.28.17,0,.44-.04.55,0,2.09.65.28,3.82-1.91,3.02l-.6-4.53c.09-.33.61-.08.85-.15ZM102.93,112.38c.89.79,3.25-2.21-.28-1.94-.07.07.2,1.88.28,1.94Z"/>
      <path class="cls-13" d="M88.22,115.71c1.23-1.52,3.08-.83,2.73.91-.11.53-.83,1.03-.76,1.41.08.46,1.24.84,1.08,1.56-.5.45-3.76-2.69-3.58-3.42.08-.32.44-.35.53-.46-.08.43.04.64.26.99,1.47,2.25,3.57-2.07-.26-.99Z"/>
      <path class="cls-13" d="M112.08,107.94c.77.8-1.59.48-1.67.55-.14.15-.21,3.61-.28,4.16h-.83c-.2-.75.61-4.11.28-4.44-.21-.2-1.69.48-1.39-.55.76.06,3.44-.18,3.88.28Z"/>
      <path class="cls-13" d="M120.96,109.88c.81.76-1.52.48-1.64.58-.23.2-.72,3.72-.86,3.86-.03.03-.8.03-.83,0-.23-.21,1.11-3.7.83-4.44-.67.26-1.64-.23-1.11-.83.12-.14,3.47.71,3.61.83Z"/>
      <rect class="cls-15" x="107.09" y="107.66" width=".55" height="4.99"/>
      <path class="cls-13" d="M104.31,109.88c-.12-.04-.39,0-.55,0,.68-1.08,0-1.53-1.11-1.39v-.28c1.71-.49,3.06.13,1.66,1.66Z"/>
      <path class="cls-15" d="M71.57,123.48h2.5c.32,1.09-1.7.31-1.94.55v1.67c2.77-.26,2.68.82,0,.55v1.67c4.21-.1,1.9.89-.55.55v-4.99Z"/>
      <path class="cls-15" d="M77.12,124.03c-.06-.06-.94.04-1.25,0v-.56s3.19,0,3.19,0c.22.94-.82.46-1.39.55v4.44h-.55c-.12-.65.16-4.28,0-4.44Z"/>
      <path class="cls-10" d="M106.25,136.24c-.12.39-.42.6-.83.55-.05-.09.09-.42,0-.64-.23-.54-.51.39-.27-1.03.36.31.76.75,1.11,1.11Z"/>
      <path class="cls-11" d="M54.93,134.85c4.12.16,3.42,4.4-.44,3.07-.49-.67.65-2.2.44-3.07Z"/>
      <path class="cls-11" d="M66.3,141.51l-2.22-.28c-.38-.43,1.41-2.89,1.39-3.6.38-.07.42.5.48.76.09.42.46,3.01.35,3.12Z"/>
      <path class="cls-10" d="M67.41,142.62c.27.2.19.36.28.55l-.83.55-.28-.83c0-.18,0-.37,0-.55.27.04.62.12.83.28Z"/>
      <path class="cls-8" d="M47.16,138.73s.26-.24.28-.28l-.28.28Z"/>
      <path class="cls-7" d="M62.42,144.28s.39.26.28.55c-.47.15-.51-.26-.55-.28l.28-.28Z"/>
      <path class="cls-5" d="M96.82,139.01c-.22-.07-.91.31-1.24.28-.13.06-.16.14-.14.27-1.84.22-.87-.46-.83-1.53.03-.88-.02-1.76,0-2.63l1.67,2.35.55,1.25Z"/>
      <path class="cls-11" d="M104.59,136.24c-.31,1.4-1.44.28-1.66,1.66-.04-.07-.38-.25-.55-.55l.28-1.11c.42-.25.51-.63,1.25-.57.57.05.58.49.7.57Z"/>
      <path class="cls-11" d="M73.51,142.62c-.11,0-.61.97-1.39.55.12-1.13-.04-2.44,0-3.61,0-.09,0-.19,0-.28h.28c.34,1.05.85,2.31,1.11,3.33Z"/>
      <path class="cls-10" d="M73.51,142.62c.44-.02.45,1.1,1.11.83.16.94.81,1.58-.55,1.39-.02-.31-.43-1.73-.55-2.22Z"/>
      <path class="cls-4" d="M72.13,143.17c-.02.22-.11.4-.28.55-.01-.37.01-.74,0-1.11-.03-.93-.21-2.34.28-3.05-.04,1.17.12,2.48,0,3.61Z"/>
      <path class="cls-4" d="M71.85,145.39c-.4-.32-.38-.77,0-1.11,0,.06.74.78,0,1.11Z"/>
      <path class="cls-5" d="M102.65,136.24l-.28,1.11c-.08-.14-.03-.44-.28-.55.09-.07-.2-.1.55-.55Z"/>
      <path class="cls-11" d="M101.54,135.4c-.24-.27-1.19-2.28-1.13-2.61,2.9-2.33,4.99,1.24,1.96,2.61h-.83Z"/>
      <path class="cls-10" d="M102.37,135.4c-.39.17-.31.58-.83,0h.83Z"/>
      <path class="cls-4" d="M72.4,139.29h-.28c.02-.19-.11-.56.14-.56.28,0,.08.36.14.56Z"/>
      <path class="cls-12" d="M31.48,113.21c.18.09.18.18,0,.28v-.28Z"/>
      <path class="cls-12" d="M28.98,112.1c.18.09.18.18,0,.28v-.28Z"/>
      <path class="cls-3" d="M34.02,109.64c2.66-.9,3.38,3.66.73,3.8-.68.04-1.66-3.49-.73-3.8Z"/>
      <path class="cls-8" d="M53.27,110.16c2.44.31,1.39,3.03-.56,1.52l.56-1.52Z"/>
      <path class="cls-8" d="M58.81,116.82s-.05-.39.2-.56c.46-.31.98-.57,1.47-.83l-.56,1.94-1.11-.55Z"/>
      <path class="cls-8" d="M97.85,109.65c2.1-.64,3.21,3.17,1.2,3.73-1.67.47-3.19-3.13-1.2-3.73Z"/>
      <path class="cls-8" d="M93.45,112.69c.67.43-.07,2.14-1.08,1.5-1.26-.8.06-2.15,1.08-1.5Z"/>
      <polygon class="cls-10" points="115.13 111.27 114.02 111.27 114.99 109.33 115.13 111.27"/>
      <path class="cls-8" d="M102.93,112.38c-.07-.07-.35-1.87-.28-1.94,3.53-.27,1.16,2.73.28,1.94Z"/>
      <path class="cls-8" d="M103.76,109.88c-.44,0-.72.1-1.11.28.1-.58-.44-1.26,0-1.66,1.11-.15,1.79.3,1.11,1.39Z"/>
      <path class="cls-8" d="M88.22,115.71c3.83-1.08,1.73,3.23.26.99-.22-.34-.34-.55-.26-.99Z"/>
    </g>
  </g>
</svg>