<?xml version="1.0" encoding="UTF-8"?>
<svg id="Layer_2" data-name="Layer 2" xmlns="http://www.w3.org/2000/svg" viewBox="0 0 121.13 150">
  <defs>
    <style>
      .cls-1 {
        fill: #fefdfd;
      }

      .cls-2 {
        fill: #bdbdbd;
      }

      .cls-3 {
        fill: #552133;
      }
    </style>
  </defs>
  <g id="Layer_1-2" data-name="Layer 1">
    <g>
      <path class="cls-2" d="M59.47.02c17.34-.43,32.94,8.53,43.67,21.62,25.12,30.64,23.97,82.18-3.65,110.91-20.94,21.78-52.29,23.66-74.79,2.95C-.44,112.35-6.22,71.9,6.59,40.93,15.62,19.07,34.66.64,59.47.02ZM4.28,88.59c.7,4.49,1.78,8.9,3.19,13.21,1.24,3.81,2.68,7.17,4.48,10.74,2.62,5.17,5.35,9.37,9.08,13.8,12.78,15.17,31.59,23.31,51.46,18.14,11.13-2.9,20.28-9.49,27.58-18.14,3.87-4.58,6.5-8.67,9.2-14.04,1.86-3.7,3.34-7.24,4.6-11.21,1.35-4.25,2.26-8.21,2.95-12.62,3.52-22.66-1.8-47.39-16.81-65.01C80.05.01,48.51-2.93,25.75,18.56,7.31,35.98.42,63.92,4.28,88.59Z"/>
      <path class="cls-3" d="M116.82,88.47c-5.11.05-9.72,2.44-14.51,3.72-6.53,1.74-10.61-1.37-16.7-2.88-9.8-2.43-13.9.83-22.67,3.03-6.36,1.59-11.97-2.34-18.17-3.47-8.65-1.58-13,1.6-20.73,3.49-3.17.78-4.78.48-7.84-.4-3.96-1.14-7.76-2.89-11.91-3.36C.42,63.92,7.31,35.98,25.75,18.56,48.51-2.93,80.05.01,100.01,23.46c15.01,17.62,20.33,42.35,16.81,65.01ZM48.87,33.19v19.23c0,.13-.29.17-.41.18-1.52.18-3.2-.08-4.72-.13-.85-.03-2.2.14-2.95,0-.1-.02-.29-.09-.29-.18v-5.43s.16-.18.18-.18h2.36s.29-.27.29-.29v-8.85s-.16-.18-.18-.18h-4.72s-.18.16-.18.18v6.02c0,1.14-2.48.98-2.48.12v-6.14s-.16-.18-.18-.18h-6.02c-.15,0-.28.37-.3.53-.24,1.77.19,4.07,0,5.9-.14.76-2.17.72-2.31.19-.5-1.88.17-4.08-.05-5.97-.02-.16-.15-.65-.3-.65h-6.61s-.18.16-.18.18v9.08c0,.09.29.27.42.29.67.13,2.85-.17,3.24.06.05.03.24.32.24.35v33.33c3.49.43,6.31-1.41,9.44-2.42,3.9-1.25,7.23-1.99,11.33-1.18,5.8,1.15,11.23,3.94,17.29,3.61,4.94-.27,10.01-2.66,14.89-3.63,3.51-.7,5.63-.28,9.01.59,4.34,1.11,8.35,3.39,12.95,3.03-.13-10.04.17-20.11,0-30.15,0-.34-.12-.62-.13-.93,0-.42-.12-2.9.3-2.9h2.24c.54,0,.18-2.41.17-2.77-.02-1.22-.02-2.45,0-3.67,0-.4.39-2.89-.17-2.89h-4.36c-.15,0-.28.37-.3.53-.16,1.16.29,5.28-.18,5.96-.26.37-2,.34-2.29.06-.06-.06-.24-.42-.24-.47v-5.9s-.16-.18-.18-.18h-7.31c-.15,0-.28.37-.3.53-.15,1.08.25,5.45-.1,6-.18.29-2.37.5-2.37-.45v-5.9s-.16-.18-.18-.18h-5.01l-.09,8.65c.06.19.2.28.39.32.59.11,2.83-.24,3.06.24l-.06,6.02h-8.26l-.12-.64.02-18.52c.04-.32.1-.45.42-.51.67-.13,3.23.14,3.52-.14.08-.08.11-.22.15-.32l-.04-12.06c-.14-.2-.32-.37-.58-.36-2.05.16-4.37-.2-6.38,0-.44.04-.58.05-.65.53v7.67c-.02.15-.1.29-.23.36-.19.09-2.8.12-3.12.06-.19-.04-.33-.12-.39-.32-.11-2.59.1-5.22-.11-7.79l-.23-.24-9.83.04c-.21.19-.22.44-.24.7-.2,2.29.17,4.88,0,7.2-.02.15-.1.29-.23.36-.27.13-2.98.1-3.23-.05-.18-.11-.18-.45-.2-.65-.16-1.88,0-4.21,0-6.15,0-.41.26-1.04-.16-1.36-.46-.36-5.97.04-6.95-.09-.25.08-.3.62-.32.86l.06,11.4c.03.08.06.18.12.23.29.29,3.11.02,3.78.11.18.02.47.12.52.3Z"/>
      <path class="cls-1" d="M116.82,88.47c-.68,4.41-1.6,8.37-2.95,12.62-5.63,1.79-10.98,4.03-17.04,3.66-4.9-.3-9.25-2.48-13.86-3.72-6.37-1.71-10.02,1.05-15.9,2.62-6.29,1.68-10.48,1.32-16.63-.52-4.64-1.39-8.1-3.5-13.15-2.36-5.1,1.16-9.55,3.67-15.01,3.98s-9.94-1.39-14.81-2.95c-1.4-4.31-2.48-8.73-3.19-13.21,4.15.47,7.96,2.22,11.91,3.36,3.06.88,4.67,1.18,7.84.4,7.73-1.89,12.08-5.07,20.73-3.49,6.2,1.13,11.81,5.06,18.17,3.47,8.77-2.2,12.88-5.45,22.67-3.03,6.09,1.51,10.17,4.62,16.7,2.88,4.79-1.27,9.4-3.67,14.51-3.72Z"/>
      <path class="cls-3" d="M100.07,126.34c-7.3,8.64-16.45,15.24-27.58,18.14-19.87,5.17-38.68-2.96-51.46-18.14,5.59.36,10.67-2.13,15.9-3.51,7.04-1.85,11.92,1.94,18.64,3.11,9.01,1.58,13.13-1.77,21.14-3.44,4.8-1,8.44,1.06,12.89,2.33,3.43.99,6.87,1.73,10.47,1.5Z"/>
      <path class="cls-1" d="M109.27,112.3c-2.7,5.37-5.33,9.46-9.2,14.04-3.61.23-7.04-.52-10.47-1.5-4.44-1.28-8.09-3.34-12.89-2.33-8.01,1.67-12.13,5.02-21.14,3.44-6.72-1.18-11.6-4.97-18.64-3.11-5.23,1.38-10.31,3.87-15.9,3.51-3.73-4.43-6.47-8.64-9.08-13.8,2.46.63,4.81,1.71,7.31,2.19,5.24,1.01,10.95-2.25,16.14-3.33,8.87-1.84,13.08,1,21.09,3.02,5.55,1.4,8.54-.54,13.64-2.03,6.91-2.01,11.17-2.11,18.11-.12,3.17.91,7.47,2.86,10.71,2.75,3.43-.11,6.98-2.07,10.32-2.72Z"/>
      <path class="cls-3" d="M113.87,101.09c-1.26,3.97-2.74,7.51-4.6,11.21-3.34.64-6.89,2.6-10.32,2.72-3.24.11-7.54-1.84-10.71-2.75-6.94-1.99-11.2-1.9-18.11.12-5.1,1.49-8.1,3.43-13.64,2.03-8.01-2.02-12.22-4.86-21.09-3.02-5.19,1.08-10.91,4.34-16.14,3.33-2.5-.48-4.85-1.55-7.31-2.19-1.81-3.56-3.24-6.92-4.48-10.74,4.87,1.56,9.58,3.26,14.81,2.95s9.91-2.82,15.01-3.98c5.04-1.15,8.5.96,13.15,2.36,6.15,1.85,10.35,2.2,16.63.52,5.88-1.57,9.53-4.33,15.9-2.62,4.61,1.23,8.96,3.42,13.86,3.72,6.06.37,11.42-1.86,17.04-3.66Z"/>
      <path class="cls-1" d="M48.87,33.19c-.05-.18-.35-.28-.52-.3-.67-.09-3.49.18-3.78-.11-.06-.06-.09-.16-.12-.23l-.06-11.4c.02-.24.07-.78.32-.86.99.13,6.49-.27,6.95.09.42.32.16.95.16,1.36,0,1.93-.16,4.27,0,6.15.02.2.02.54.2.65.25.15,2.96.18,3.23.05.13-.07.21-.21.23-.36.16-2.32-.21-4.91,0-7.2.02-.26.03-.51.24-.7l9.83-.04.23.24c.22,2.57,0,5.2.11,7.79.06.19.2.28.39.32.32.06,2.93.04,3.12-.06.13-.07.21-.21.23-.36v-7.67c.06-.48.21-.49.65-.53,2.01-.2,4.34.16,6.38,0,.26,0,.44.16.58.36l.04,12.06c-.03.11-.07.25-.15.32-.28.28-2.85.01-3.52.14-.32.06-.38.19-.42.51l-.02,18.52.12.64h8.26l.06-6.02c-.23-.47-2.47-.13-3.06-.24-.19-.04-.33-.12-.39-.32l.09-8.65h5.01s.18.16.18.18v5.9c0,.95,2.19.74,2.37.45.35-.56-.04-4.92.1-6,.02-.16.15-.53.3-.53h7.31s.18.16.18.18v5.9c0,.05.18.41.24.47.29.28,2.03.31,2.29-.06.47-.67.02-4.8.18-5.96.02-.16.15-.53.3-.53h4.36c.56,0,.18,2.49.17,2.89-.02,1.22-.02,2.45,0,3.67,0,.36.36,2.77-.17,2.77h-2.24c-.42,0-.31,2.47-.3,2.9,0,.31.12.6.13.93.16,10.04-.13,20.11,0,30.15-4.6.35-8.61-1.92-12.95-3.03-3.38-.87-5.5-1.28-9.01-.59-4.88.97-9.95,3.35-14.89,3.63-6.06.33-11.49-2.46-17.29-3.61-4.09-.81-7.42-.07-11.33,1.18-3.13,1-5.94,2.85-9.44,2.42v-33.33s-.18-.32-.24-.35c-.39-.24-2.57.07-3.24-.06-.13-.02-.42-.2-.42-.29v-9.08s.16-.18.18-.18h6.61c.14,0,.28.49.3.65.22,1.89-.45,4.09.05,5.97.14.53,2.17.57,2.31-.19.19-1.83-.24-4.13,0-5.9.02-.16.15-.53.3-.53h6.02s.18.16.18.18v6.14c0,.86,2.48,1.02,2.48-.12v-6.02s.16-.18.18-.18h4.72s.18.16.18.18v8.85s-.27.29-.29.29h-2.36s-.18.16-.18.18v5.43c0,.08.2.16.29.18.75.14,2.1-.03,2.95,0,1.51.05,3.2.31,4.72.13.12-.01.41-.05.41-.18v-19.23ZM63.03,40.98v-8.26s-.16-.18-.18-.18h-3.54s-.21.18-.23.24c.05,2.47-.27,5.28-.07,7.73.11,1.27,1.16.63,2.07.63.4,0,1.78.37,1.94-.17ZM61.36,49.21c-1.65.05-3.29.83-3.51,2.64v19.8c.03.24.12.51.4.54h6.72c.28-.04.42-.25.42-.53l-.02-19.69c-.17-2.07-2.17-2.81-4.02-2.76ZM34.84,50.01h-3.6s-.29.27-.29.29v8.14s.16.18.18.18h3.66s.18-.16.18-.18v-8.14s-.16-.18-.12-.29ZM92.05,58.62c.05-.22.11-.42.12-.64.19-2.46-.11-5.25-.07-7.73-.03-.06-.21-.24-.23-.24h-3.54c-.44,0-.17,1.15-.17,1.35.04,2.42-.04,4.84,0,7.26h3.89Z"/>
      <path class="cls-3" d="M61.36,49.21c1.84-.05,3.85.68,4.02,2.76l.02,19.69c0,.28-.14.48-.42.52h-6.72c-.28-.02-.37-.3-.4-.54v-19.8c.22-1.8,1.86-2.59,3.51-2.64Z"/>
      <path class="cls-3" d="M63.03,40.98c-.16.54-1.55.17-1.94.17-.91,0-1.96.63-2.07-.63-.21-2.45.11-5.26.07-7.73.03-.06.21-.24.23-.24h3.54s.18.16.18.18v8.26Z"/>
      <path class="cls-3" d="M92.05,58.62h-3.89c-.03-2.42.04-4.84,0-7.26,0-.2-.27-1.35.17-1.35h3.54s.21.18.23.24c-.04,2.48.26,5.27.07,7.73-.02.23-.07.43-.12.64Z"/>
      <path class="cls-3" d="M34.84,50.01c-.04.12.12.26.12.29v8.14s-.16.18-.18.18h-3.66s-.18-.16-.18-.18v-8.14s.27-.29.29-.29h3.6Z"/>
    </g>
  </g>
</svg>