<?xml version="1.0" encoding="UTF-8"?>
<svg id="Layer_2" data-name="Layer 2" xmlns="http://www.w3.org/2000/svg" viewBox="0 0 150 150.08">
  <defs>
    <style>
      .cls-1 {
        fill: #3696d2;
      }

      .cls-2 {
        fill: #6ca237;
      }

      .cls-3 {
        fill: #a67c53;
      }

      .cls-4 {
        fill: #3db34a;
      }

      .cls-5 {
        fill: #a77f55;
      }

      .cls-6 {
        fill: #41b14b;
      }

      .cls-7 {
        fill: #a67c52;
      }

      .cls-8 {
        fill: #6ea137;
      }

      .cls-9 {
        fill: #41b04b;
      }

      .cls-10 {
        fill: #a88057;
      }

      .cls-11 {
        fill: #a88159;
      }

      .cls-12 {
        fill: #3cb44a;
      }

      .cls-13 {
        fill: #a9835b;
      }

      .cls-14 {
        fill: #a87f56;
      }

      .cls-15 {
        fill: #3cb34a;
      }

      .cls-16 {
        fill: #3ab54a;
      }

      .cls-17 {
        fill: #8c8b8c;
      }

      .cls-18 {
        fill: #a77e54;
      }

      .cls-19 {
        fill: #49ad4b;
      }

      .cls-20 {
        fill: #a98158;
      }

      .cls-21 {
        fill: #3bb44a;
      }

      .cls-22 {
        fill: #fff;
      }

      .cls-23 {
        fill: #39b54a;
      }

      .cls-24 {
        fill: #6ba337;
      }

      .cls-25 {
        fill: #6ba336;
      }

      .cls-26 {
        fill: #6ca336;
      }

      .cls-27 {
        fill: #8a8a8a;
      }

      .cls-28 {
        fill: #181718;
      }

      .cls-29 {
        fill: #44af4b;
      }

      .cls-30 {
        fill: #fbfbfb;
      }

      .cls-31 {
        fill: #fcfcfc;
      }

      .cls-32 {
        fill: #3ab44a;
      }

      .cls-33 {
        fill: #6ca337;
      }

      .cls-34 {
        fill: #a8a8a8;
      }

      .cls-35 {
        fill: #3596d2;
      }

      .cls-36 {
        fill: #a77d53;
      }
    </style>
  </defs>
  <g id="Layer_1-2" data-name="Layer 1">
    <g>
      <path class="cls-28" d="M75.65,0c.77.06,1.53.1,2.27.14,38.59.33,71.16,34.2,71.94,72.37.13,1.69.13,3.41,0,5.1-.71,34.86-26.93,64.91-61.01,71.19C43.18,157.21,1.28,123.21.03,76.97-1.09,35.71,30.94,1.98,71.97.14c.76-.04,1.51-.09,2.27-.14h1.42Z"/>
      <path class="cls-34" d="M150,77.61h-.14c.03-1.69.03-3.41,0-5.1h.14v5.1Z"/>
      <path class="cls-27" d="M77.91,0v.14c-.72,0-1.63.12-2.27-.14h2.27Z"/>
      <path class="cls-17" d="M74.23,0l-.34.15c-.64.02-1.29-.03-1.92,0v-.14h2.27Z"/>
      <path class="cls-30" d="M71.09,1.88c59.05-2.74,97.62,61.71,65.94,112.11-27.57,43.87-90.99,46.04-121.4,4.02C-18.31,71.13,13.5,4.55,71.09,1.88Z"/>
      <path class="cls-7" d="M46.76,43.05c.34.08.29-.17.4-.37.69-1.31.94-2.52,2.01-3.67.38-.41,1.16-1.35,1.29-.29.18,1.57-.31,3.3-.15,4.89.35.4.95-1.84,1.34-1.7l6.02.57-1.55-.64c-1.71.07-2.8-.91-3.75-2.2-.62-.85-1.71-2.64-1.43-3.67.11-.41.66-1.12,1.14-1.12.62,0,2.66,2.32,2.62,3.11.44-.35.35-1.04.63-1.57.4-.76.77-.64,1.49-.35,1.75.72,2.3,3.14,2.55,4.82.14,1-.18,3.04.99,3.47-.59-1.6-.81-2.58-.53-4.28s.83-2.92.67-4.85c-.04-.5-.4-1.22-.29-1.68.04-.15.43-.19.57-.31.9-.73-.17-2.99,1.18-4.13,1.97-1.65,3.49,2.62,3.49,4.06.29-.23.43-.62.7-.92,1.79-1.97,3.25-1.59,2.98,1.28-.09.93-.59,1.74-.85,2.62,2.17-.23,1.65-2.75,2.02-4.28.58-2.43,2.75-.39,2.65,1.17-2.06-2.32-2.49,1.87-1.5,2.98.76.84,2.69.22,2.78-.93.13-1.75-1.08.43-1.42.07.07-.73.49-1.3.56-2.05.16-1.58-.2-3.17-.14-4.74.37-.04,1.59.12,1.78.42.33.54-.36.8-.56,1.15-.71,1.26.21,4.9,2.17,4.51.02-2.4-.47-4.67-.09-7.1.25-1.61.62-2.77,2.51-2.66-.5,2.1.97,4.09.28,6.23.95-.24,1.81-.73,2.83-.57l-.92,4.11c-.34,1.41-1.63,2.52-3.04,2.77-.58.1-.79-.12-1.28-.37.38,1.39.14,4.02-1.77,3.98-.73-.02-1.66-.27-2.4-.3-1.9-.08-4.23-.32-5.46,1.42.74.02,1.77.29,2.48.28,2-.03,3.59-1.04,5.91-.39,1.65.46,1.12,1.66,2.52,2.09-.78-1.37-.67-5.4,1.24-5.78,1.09-.21,1.61.65,1.72,1.61.25,2.19-1.12,4.43-1.96,6.36,2.77,1.21,1.48-1.31,1.76-2.91.26-1.46,1.56-2.41,1.76-4.04s.44-3.17.45-4.81c0-.92-.13-1.8.03-2.79.13-.79.37-1.93,1.39-1.6.54.17,1.32,1.68,1.76,2.21,1.04,1.24,3.07,2.58,3.41,4.24.07.34.05,1.59.21,1.71.37.27.83-1.29.96-1.52.94-1.61,2.06-2.1,3.47-3.04.67-.45,2.47-2.31,3.14-2.25.86.08.59,2.91.26,3.51-.13.24-.46.35-.61.61-.23-.14-.27-.4-.14-.8-.04-1.32-.15-1.8-1.18-.52-.39.49-1.9,3.23-1.3,3.61.11.07,1.82-1.59,2.02-1.79l.32.06c4.29-2.16,7.46.47,2.13,3.04,0,.36,2.49.81.57,2.69-.39.38-1.95,1.22-2.06,1.48-.15.36,1.19.69,1.44.7,1.11.06,1.51-1.38,2.32-1.9,2-1.29,2.44,1.83,2.47,3.18,1.16-1.62,3.42-3.06,5.45-2.69.05.31-.25.46-.47.59-1.15.71-2.82.79-3.7,2.1-1.55,2.31,1.29,1.52,2.33,2.61,1.32,1.4-1.28,2.22-2.4,2.19-.31-.27,1.46-1.17,1.56-1.35-1.82-.38-3.4.85-5.1,1.27-1.24.31-2.57.27-3.76.78-.64.27-.91.89-1.48.57-.39,1.87,4.62,4.4.49,4.81-1.76.18-3.75-.33-5.39-.15-1.75.2,1.47,1.38,1.92,1.5.74.18,2.26.09,2.52.88.32.96-.53.34-.82,1.03.63.07.99-.04,1.42-.49.94-.98.74-3.56,2.12-.78.14.5.05.74-.5.64-1.24,2.37.65,4.18.54.32l.24-.25c.48-1.56.2-3.32,1.11-4.77.47-.75,1.68-1.9,2.58-2.03-.04-.25-.74-.16-.93-.15-.58.04-1.63.18-2.15.4s-.95.86-1.6.68c-.19-.05-.55-.27-.36-.51.1-.13,2.32-1.33,2.59-1.38.63-.11,3.66-.1,3.98.41.13.22-.1.75.09.97.94-1.4,2.97-2.44,4.67-2.12.9.17,1.05,1.82,1.28,2.55,1.16-.93,3.37-3.01,4.94-2.83.88.1,1.16.75.2,1.04-.41.12-.79.06-1.21.2-1.15.38-2.71,2.33-2.15,3.57,1.96-.32,4.17-.91,6.15-.99.7-.03,1.64-.16,1.78.71-1.19.19-2.38.25-3.57.47-1.42.26-3.28,1.03-4.71.8-1.29-.2-2.48-4.22-4.39-4.1-1.01.06-2.23,1.02-2.34,2.06-.16,1.5.34,1.31.61,2.22.45,1.46.22,3.7.09,5.22l1.73-.89c1.99-.68,5.86-.7,7.76.25.91.45.62.76-.25.89-1.07.16-2-.1-3.11.29-1.45.5-2.33,1.8-3.51,2.58-.58.39-1.45.53-1.91,1.2,1.36.07,3.06.21,2.48,2.05-.1-1.52-3.63-1.75-2.13.28,1.08,1.46,4.42,2.01,4.68,2.4.36.55-.85.42-1.1.39-3.01-.33-5.62-2.74-5.78-5.83-.03-.49.35-2.23-.08-2.33-.31-.08-1.6.56-2.01.66-.74.17-3.95.31-4.21.74-.51.84,1.18,1.89,1.85,1.99.41.06.13-.84.24-1.18.34-1.07.75,1.18.86,1.29.22.22.9.14,1.25.24.99.29,2.54,1.84,3.09,2.72,1.18,1.9,1.87,5.84-1.53,3.51.81-.2,1.5.27,1.57-.84.09-1.55-1.5-3.6-2.85-4.25-.13-.06-.44-.21-.42.06.51.1.42,1.07.6,1.6.28.82.92,1.68,1.24,2.51-1.03.28-4.45-1.12-4.65-2.09s.65-1.44.79-2.12c.09-.43.01-.88.03-1.31-1.12.42-2.56,1-2.97-.57l-.33-.16c-.04-1.61-.34-3.15-.9-4.62l-.98,1.67c-.16.21-.38.25-.62.12-.1-.05-.82-1.73-.58-1.99.06-.43-1.59-1.99-1.71-1.93-.1.05.8,1.93.9,2.11.78,1.5,1.1,2.08,2.84,2.59,1.08.46.64,1.89-.33,1.49-.42.03-1.5-.78-1.56-.71-.25,1.09,1.07,3.53.64,4.39-.05.1-1.52,1.01-1.84,1.28-2.63,2.21-5.05,5.8-9.17,4.49-2.28-.73-2.67-3.12-2.81-5.27-.28-4.42.11-6.69,2.58-10.32,1.91-2.81,5.03-1.68,7.2-4.13-.92-.08-1.94.09-2.86.25-.78.14-3.18.93-3.69.78-1.07-.31.86-1.91,1.17-2.31.71-.93.63-1.28.99-2.27.47-1.28,1.23-1.14,1.92-2.05.65-.85.24-1.02-.7-1.28-2-.56-2.69,1.17-4.61.29l1.46-.59c.86-.57,3.33-2.16,2.82-3.34-.22-.51-1.41-1.23-1.92-1.48-.17-.08-.67-.37-.81-.12l-.3.08c-1.42-.7-1.64.08-1.69,1.3-.08,1.84.5,2.6,1.39.39-.04-.64-.14-2.12.75-1.33.33.97.36,1.85.08,2.84-.4,1.38-1.4,1.31-2.27,2.12-.75.69-.39,1.48-.68,2.44-.14.47-1.24,3.18-1.46,3.5-2.03,2.98-5.49,2.98-8.12.78l-1.14-1.19c1.7.28,2.67,1.73,4.45,1.54.83-.09,2.8-1,3.34-1.61.32-.36.36-.87.59-1.25.47-.77,1.12-1.41,1.53-2.22-.33-.26-3.22,2.39-4.68,1.07-1.01-.92.25-2.24-.05-2.63-.65-.34-1.39-.22-2.07-.27l-.36.25c-1.45-.17-3.03-.32-3.83,1.14-.56,1.01,2.56-.54,2.65-.78.44-.21.81-.22,1.12-.04l.57.28c-1.32.35-1.95,1.81-3.25,2.34,1.02.89,2.69,1.65,3.61,2.62.18.19.38.43.35.71-.3.28-3.69-1.96-4.15-2.29-1.03-.75-2.97-2.3-3.52-3.42-.68-1.38-1.17-5.2-1.26-6.82-.06-1.09.22-3.29-.06-4.19-.3-.96-1.75-1.33-2.45-1.8-.41-.27-1.19-1.26-1.54-1.29-.15-.01-.3.09-.32.2-.05.24.52,1.95.67,2.29.2.43,1.38,2.4,2,1.88.08-.07.18-1.48.29-1.55.51-.34.83,1.07.84,1.36.04,1.43-2.22,1.73-2.11,2.81.04.4,1.33,2.08,1.63,2.63.71,1.29,1.29,2.48.74,4-.64,1.76-1.92.23-2.87.23-.22,0-.77.14-.77.37,0,.13,1.92,1.18,2.25,1.43,1.45,1.06,2.65,2.77,4.4,3.32-1.04,1.16-2.11-.47-3.26-.43-.08.76.31,2.7,1.33,2.55.35-.05.87-.59,1.32-.68,1.27-.26,2.46.52,3.15,1.53l-.18.28c-1.09-.29-2.11-.32-3.06-.1-2.23,2.95.42,2.94.64.13.57-.16,1.21-.14,1.92.06.4-.04.72.02.96.2.18.6.33,1.68.29,2.34-.08,1.44-1.2,3.64-2.94,2.93-.74-.3-.74-1.33-1.11-1.58-.29-.2-.86-.14-1.23-.32-.27-.13-.42-.42-.71-.56-.99-.5-1.76-.52-2.39-1.57-.34-.57-1.36-3.91-.61-4.07.51-.11.48,1.54.56,1.85.16.68,1.29,2.7,1.98,1.68.63-.92-.54-2.99-1.2-3.74-.41-.47-4.83-3.63-5.09-3.33.24,1.39.46,2.57,0,3.96.22.24,1.8-2.07,2.55-.92.43.64.2,1.56.28,2.27s.3,3.37.69,3.8c.14.16,1.16.25,1.51.37,1.48.5,2.07,1.63,3.19,2.47.72.55,1.61.69,2.26,1.28,2.08,1.9,1.92,6.44,1.98,9.04-1.3,1.16-2.41,1.44-4.01.64-2.46-1.22-7.86-5.19-9.13-7.58-.17-.32-.69-1.11.04-1.04,1.33.13,6.2,5.28,7.73,6.43.91.69,3.77,2.88,4.31.8.36-1.4-.23-5.89-1.15-7.08-1.03-1.34-2.2.45-3.45.78-.92.24-2.4.26-3.13-.43-1.17-1.1.85-2.14.85-2.41,0-.31-1.57-.24-1.88-.18-1,.2-2.53,2.76-3.29.25-.22-.72-.68-3.23-.7-3.95-.01-.39.23-.92.35-1.29.36-.53.64-.59.82-.19-.38,2.01.42.94.97-.09.4-.75.75-1.61.64-2.47-.7.63-1.34,1.31-1.94,2.02l-.34.03-.78.28c-.91.7-.35,2.01-.38,2.9-.01.41-.23,3.17-.61,3.18-.85-1.31.38-5.07-1.45-5.63-1.43-.43-2.68.32-3.5-1.45-.98-2.1-.31-4.64-.92-6.8,1.66.12,3.4-.89,4.11-2.41-.58-.46-5.72,3.57-5.25.06.2-1.47,1.17.08,1.47.06.86-.07,2.47-2.94,2.19-3.84-.39-1.29-2.09,1.11-2.45,1.46-.46.46-1.6,1.14-1.74,1.8-.62,2.74,2.7,5.9.68,8.47-.42.54-.96.71-1.63.78-1.24.12-7.02-.48-7.54.04-.14.14-.1.41-.41.65-.44.35-1.41.53-1.16-.31.12-.4.88-.42.83-.95-1.44.13-2.56.21-2.68,1.93-.04.53.27,1.87.91,1.89.39,0,1.99-1.24,2.48-1.55.14-.08.23-.08.28,0,.48.33,1.13,1.1.93,1.71-.18.56-.98.71-.65.21.11-.16.36-.22.28-.5-2.19-.32-1.83,2.8-.14,3.2.67.16.74-1.71.95-2.32.63-1.84.7-1.33,2.23-1.3,2.05.05,6.51-.55,7.7,1.36.92,1.48-.4,1.72-1.39,2.31l-.03.31c-1,.47-.47,1.85.15,2.48l-.08-1.93.25-.29c.69.28.98,3.13.69,3.38-.72.22-1.2-.34-1.79-.51-.98-.28-2.52.01-3.28-.4-.57-.31-.83-1.58-1-2.18-.31.17-.27.68-.5.99-.67.9-1.71-.04-2.5-.33-.91-.33-1.3-.18-2.23-.89-.87-.67-.93-.96-1.29-1.9l-1.16-.19c-1.92-1.49-4.14-2.64-6.54-3.05,2.03.96,4.04,1.95,6.05,2.95l.09.43c-.52,0-.64.05-1.28-.07-1.41-.26-5.85-1.58-6.41-2.94-.97-2.38,2.11-1.7,2.38-2.08.13-.53,0-3.09.34-3.35.86-.33,3.8,2.51,3.4,2.91-.6.24-2.32-1.7-2.48-1.7-.67,0,.06,4.21,1.87,3.43,1.14-.49,1.26-2.77.6-3.72,1.29.37,2.58.63,3.91.83,1.8.26,3.76.46,5.57.66.15.02.45.2.42-.07-.56-.21-1.08-.53-1.67-.67-2.32-.56-4.96-1.01-7.32-1.32-.27-.04-1.74-.22-1.63-.63.02-.09.56-.36.64-.36h2.97s.37-.17.35-.21c-.38-.41-.59-1.08-.91-1.49-.54-.68-2.83-1.79-2.91-2.34-.2-1.4,3.09-1.45,3.97-1.62-.12-.24-.42-.31-.64-.56-1.29-1.5-1.78-3.87,1.1-2.94,2.01.65-.16,1.01-1.16.67.35.91.17,1.71,1.03,2.29s2.22,1.1,3.21.82l.08-.33c1.53-.69.9-3.02.03-3.93-.13,1.08-.07,2.19.18,3.34,0,.42-.14.63-.44.63-.55-.37-1.21-1.4-1.28-2.05-.05-.51.56-3.53.87-3.74.34-.24,1.91,1.1,2.18,1.4.25,0,1.4-2.55,1.98-2.55s.23.95.07,1.28l.09.27c-.81,1.26-1.44,3.23-.71,4.46l.88-2.53.31-.07Z"/>
      <path class="cls-35" d="M121.53,119.1c-.13.68.22,1.28.28,1.91.19,2.04-.66,3.25-1.7,4.88.38.3,3.34-2.8,4.05-1.85.42.56-1.07,1.68-1.45,1.97l-7.77,5.26c-.47.13-.04-.65.05-.8.84-1.53,2.46-2.63,3.11-4.54.73-2.19.35-6.61-2.47-7.08-5.89-.98-5.1,5.98-4.16,9.69.22.89,1.32,3.36,1.3,3.95-.02.71-1.82,1.67-2.42,1.13-.48-.43-1.86-2.82-2.28-3.52s-.7-1.59-1.13-2.27c-1.54-2.41-4.71-2.62-5.68.36-.64,1.98.09,4.32.82,6.2.26.66,2.04,3.93,2.02,4.16-.06.65-1.87,1.97-2.6,1.52-.48-.3-1.75-3.08-2.16-3.79-.8-1.36-1.64-2.66-2.64-3.87-.38-.46-1.81-1.54-1.7-2.13.11-.62.95-1.21,1.56-1.27.83-.07,1.71.74,2.34.36.31-.19.67-2.22.92-2.76.64-1.39,2.7-2.88,4.24-2.98,1.41-.09,3.44,1.15,4.21-.46.54-1.13.32-2.32,1.21-3.6,1.99-2.88,4.82-3.95,8.25-3.23.79.16,1.47.58,2.26.64-.9-2.39-1.35-4.06-.57-6.59.94-3.05,3.78-7.53,7.29-7.72,6.14-.33,9.34,6.09,6.62,11.29-1.19,2.27-3.95,6.1-6.64,6.53-2.1.33-3.3-.82-5.13-1.38Z"/>
      <path class="cls-35" d="M97.18,20.96c1.08.35,4.45.18,5.11,1.05.5.66-.58.8-1.07.8-2.45,0-7.31-.98-9.87-1.47-.19-.04-1.27-.14-1.11-.45,1.66-.75,3.61-.5,5.38-1.14,3.02-1.09,6.01-5.27,3.05-8-3.76-3.48-8.06,3.15-9.52,6.06-.25.5-1.02,2.64-1.21,2.82-.32.3-1.95-.03-2.28-.23-.2-.13-.25-.57-.25-.79.04-2.55,1.91-6.11,1.54-8.32-.2-1.16-1.23-2.31-2.45-2.38-3.22-.17-5.14,4.06-6.02,6.59-.2.57-.75,3.03-.99,3.26-.42.41-2.42.15-2.79-.25-.21-.22-.17-.56-.15-.84.2-2.33,1.17-6.24,1.74-8.61.12-.49.47-2.27.71-2.55.31-.38,2.11-.15,2.31.53.12.41-.15,1.09.53,1.18.54.07,1.59-.7,2.22-.89,1.83-.57,4.52-.5,5.99.89,1.05,1,1.01,2.64,2.94,2.23,1.44-.3,2.31-1.57,4.42-1.67,5.17-.26,7.56,3.71,6.81,8.51-.42,2.67-2.57,2.59-4.58,3.35-.18.07-.42.09-.46.32Z"/>
      <path class="cls-35" d="M63.04,142.19c.08.27.44.33.67.39.64.14,3.81.21,3.99.47.48.71-1.25,1.32-1.77,1.25l-10.82-1.83c-.29-.4,1.1-.54,1.35-.56,3.9-.32,5.86-.39,8.5-3.68,1.37-1.72,1.37-4.75-.88-5.63-4.7-1.83-8.48,2-9.74,6.2-.16.53-.4,2.37-.64,2.62-.38.39-1.39.15-1.87.03-2.42-.62-1.28-1.45-.71-3.04.53-1.48.99-3.13,1.27-4.68.31-1.74-.24-4.31,2.23-4.14,1.24.09,1.97,1.11,3.56,1.26,3.69.35,8.38-.8,10.96,2.78.88,1.22.73,3.76.12,5.08-1.26,2.76-3.34,3.37-6.21,3.49Z"/>
      <path class="cls-35" d="M88.25,142.9c1.01.28,3.87-1.07,4.58-.83s-.02,1.12-.43,1.38c-1.14.74-8.88,1.72-10.77,1.98-.15.02-.84.25-.89-.05s.6-.51.8-.61c.99-.5,2.12-.72,3.12-1.27,2.81-1.54,6.36-6.89,3.15-9.57-1.82-1.52-5.52-.05-6.86,1.62-1.18,1.47-2.01,4.28-2.06,6.15-.02.81.49,2.95.16,3.42-.41.58-3.49.8-3.54-.14-.02-.38.25-1.13.27-1.57.08-1.63-.08-3.59-.3-5.22s-1.57-4.32.83-4.73c1.15-.2,1.87.34,2.93.23,4.05-.41,7.86-3.95,12.17-.95,1.94,1.35,1.98,5.49.78,7.39-.94,1.48-2.65,1.83-3.94,2.78Z"/>
      <path class="cls-35" d="M69.01,85.8c.61.39,1.7-.83,2.14-1,.79-.32,5.88-.12,6.91.1,4.47.96,4.21,6.74,2.18,9.84-1.16,1.76-3.26,2.28-5.25,2.54-1.04.14-5.84.12-6.25.48-.61.54-.03,3.6-.59,4.41-.18.27-2.97.57-3.12-.27s-.03-2.74-.01-3.68c.05-2.43.24-4.93.3-7.35.05-2.15-.14-4.32.14-6.45.8-.05,2.71.18,3.26.77.16.17.26.59.3.62Z"/>
      <path class="cls-35" d="M67.72,17.42l4.11-.42c.14.99-.77,1.15-1.53,1.37-2.01.6-6.38,1.28-8.46,1.32-.35,0-.81-.09-1.05-.36,1.75-.95,3.41-1.28,4.89-2.76,2.07-2.07,3.22-5.97.49-8.01-1.79-1.34-4.69-.29-6.34.89-3.02,2.16-2.13,6.81-2.45,10.02-.09.89-.28,1.44-1.24,1.6-.62.1-1.39.1-1.56-.63-.26-1.09-.17-2.61-.33-3.78-.21-1.58-.6-3.14-.81-4.71-.2-1.49-.79-3.28,1.33-3.45.93-.08,1.88.49,2.65.4s2.91-1.18,3.93-1.46c2.4-.66,7.38-1.63,9.12.65,1.06,1.38.98,4.97.35,6.55s-1.84,1.84-3.1,2.78Z"/>
      <path class="cls-35" d="M25.19,27.93c1.71-.26,3.42,1.41,3.71,3.02.11.61.11,2.04-.02,2.65-.09.41-.42.88-.48,1.23-.02.14.07.28.16.29.39.06,3.31-1.37,3.85-1.68,1.02-.57,1.92-1.28,2.87-1.95,1.08-.3-.42,1.89-.64,2.19-2.03,2.81-3.11,2.87-6.14,3.91-1.5.51-2.45,1.29-3.4,2.54,2.08,1.65,2.75,3.37-.22,4.45l-8.68-6.55c1.93-2.59,3.81-5.82,6-8.17.74-.8,1.9-1.78,3.01-1.95Z"/>
      <path class="cls-35" d="M125.07,48.58c-.8-.2-1.21-.89-1.67-1.51-.63-.86-1.44-2.21-1.73-3.22-.79-2.69.59-5.75-1.63-8.01-1.21.61-2.64,1.83-3.63.24-1.4-2.26.23-2.06,1.73-2.86,2.47-1.3,3.93-3.41,6.02-4.89.46-.33.57-.41,1,0,.51.48,1.49,1.92,1.96,2.57,1.01,1.39,2.22,3.08,3.12,4.53,1.29,2.08,2.61,4.62-.01,6.34-1.99,1.31-4.34.27-6-1.04-.13-.1-.21-.33-.36-.07-.35.63.34,4.24.54,5.13.21.95.77,1.81.67,2.8Z"/>
      <path class="cls-35" d="M27.35,125.62c-.73.15-1.31-.62-1.77-1.13-2.56-2.82-2.28-4.09-2.62-7.58-.13-1.33-.81-2.41-1.57-3.46-.23-.16-1.93,1.41-2.86,1.24-.78-.14-1.92-2.22-1.34-2.78.1-.09,1.43-.6,1.8-.82.64-.38,1.43-1.05,2-1.54.7-.62,3.92-4.24,4.34-4.3.2-.03,1.83,1.79,2.1,2.1,1.58,1.82,5.58,6.33,5.73,8.57.08,1.2-.61,2.16-1.57,2.82-1.16.8-3.08.59-4.34.11-.49-.19-1.35-.89-1.6-.96-.5-.13-.15,1.38-.11,1.67.32,2.13,1.08,4.05,1.8,6.06Z"/>
      <path class="cls-35" d="M46.02,12.49c.49-.13.75.3.96.68,1.28,2.28,3.02,6.43,3.96,8.93.33.89.54,1.43-.14,2.26-1.18,1.43-2.4-.47-3.18-.22-.44.14-1.73,1.54-2.2,1.92-3.1,2.5-8.7,4.81-11.19.29-3.97-7.21,6.5-12.14,11.8-13.86Z"/>
      <path class="cls-35" d="M35.54,121.27c2.59-.31,6.18,1.13,8.43,2.4.56.32,4.66,2.91,4.75,3.18.17.5-.17.99-.38,1.42-1.07,2.18-3.11,5.18-4.5,7.26-.72,1.08-1.61,2.68-3.17,1.5-1-.76.17-2.07-1.45-2.66-2.78-1.01-4.53-.85-7.05-3-4.25-3.64-1.74-9.48,3.37-10.09Z"/>
      <path class="cls-35" d="M131.16,83.56c.07.07.56,1.83.57,1.93.01.35-.35.54-.28.9,3.62-.33,7.68,3.05,5.66,6.8.36.27,1.07-.84,1.25-1.09.76-1.04,3.24-5.74,3.99-6.07.17-.08.18.06.28.14-.62,1.82-.88,4.27-1.86,5.92s-5.31,4.05-4.9,6.22c.25,1.32,2.19,1.41,2.36,1.9s-.41,2.19-.92,2.28c-.18.04-2.89-1.29-3.42-1.49-.71-.27-1.5-.52-2.23-.75-1.44-.44-3.76-.73-4.97-1.26-.82-.36-1.03-1.48-.41-2.13.83-.87,1.95.44,1.76-2.2-.12-1.63-.34-2.15.07-3.9.54-2.3,2.37-4.34,2.73-6.05.03-.16-.06-1.57.32-1.17Z"/>
      <path class="cls-35" d="M85,85.96c1.41-.56,4.22-.92,5.74-.86,1.4.06,4.84.61,4.45,2.62-.18.96-2.92.75-3.13.41-.12-.21-.09-.54-.27-.83-.93-1.54-5.06-1.26-5.6.78-.46,1.74.73,2.07,2.13,2.27,3.32.47,7.47-.89,7.01,4.04-.12,1.35-1.07,2.57-2.34,3.05-1.5.56-6.72.83-8.29.56-.27.41-.93,0-.99-.42-.39-.21-.64-.35-.91-.72-1.01-1.36-.9-2.04.77-2.4,0-.44.88-.58.99-.14.22-.56.88-.03,1.19.32,1.19,2.81,8.28,1.77,5.31-1.79-1.49-.48-3.08-.66-4.75-.53-.85.08-1.48-.11-1.89-.55-.24.41-.83.15-.85-.28-1.58-.93-1.09-4.01.28-4.96.25-.38.72-.99,1.13-.57Z"/>
      <path class="cls-35" d="M111.31,16.75c5.38-.24,11.07,7.65,8.07,12.47-1.75,2.82-6.5,3.51-9.31,2-1.7-.91-5.05-5-5.25-6.93-.36-3.54,2.93-7.38,6.49-7.54Z"/>
      <path class="cls-35" d="M135.13,57.64c-.29,0-.11.55-.08.71.29,1.54,1.34,2.94,1.35,4.52-.48.49-1.67-2.03-1.81-2.37-.91-2.18-1.77-4.78-2.59-7.05-.13-.35-.98-2.64-.85-2.76.07-.06.31-.01.43.1.57.5,1.5,2.43,2.03,3.18.61.88,1.24,1.8,2.17,2.36,1.18.72,2.35,1.05,3.22-.27,1.09-1.63-1.1-4.51-2.48-5.43-2.55-1.71-6.14-1.62-7.71,1.33-1,1.87-.16,5.21,1.14,6.8.93,1.15,2.55,1.59,3.05,2.97-2.33-.15-4.28-2.4-5.1-4.46-2.41-6.06-.37-10.39,6.59-9.7,3.78.37,6.28,6.26,6.44,9.56.22,4.29-4.8,3.82-5.81.49Z"/>
      <path class="cls-7" d="M62.34,84.41c-1.08-4.54-3.62-8.35-7.24-11.24-.92-.74-2.81-2.23-4.01-2.06-1.28.18-1.33,2.52-1.85,2.4-.58-.13-.21-3.37-.5-3.96-.53-.1-.68.48-1.09.68-.27.13-.84.13-.97.31-.11.15-.36,2.18-.29,2.28.45.64,1.81-.7,1.92-.57.26,1.11-1,1.71-1.92,1.83-.58.08-2.55.1-3.07-.02-.87-.19-1.16-1.38-1.09-2.16.04-.51.51-1.48.57-.57.05.79-.08.95.64,1.49.57.43,1,.69,1.35-.06.41-.88.82-2.85.28-3.69-1.22-1.88-1.91.4-2.63,1.33-.57.74-2.68,3.24-3.58,1.9-.47-.69-.17-1.57-.45-2.32l-.99,1.21c-2.38,2.13-4.62.2-2.61-2.47.63-.83,2.82-2.69,3.88-2.2.25.11.91,1.03,1.06,1.03.18,0,1.3-1.12,1.95-.95.5.13.69,1.1.81,1.54.51-.19.97-.95,1.49-.99.4-.03,1.73.34,2.22.46.86.21,2.32.61,3.04,1.07.53.34.89,1.11,1.31,1.24.72.22,1.32.12,2.19.5,5.08,2.27,9.89,9.11,10.71,14.57-.37-.02-1.11-.16-1.13-.57Z"/>
      <path class="cls-35" d="M12.31,45.78c.07.07.28.66.29.78.06.64-.92,1.25-1.31,1.75-.89,1.15-2.45,4.88-2.49,6.3-.1,3.01,2.98,5.33,5.85,4.84,2.47-.42,4.44-5.69,4.74-7.86.08-.61-.07-1.99.25-2.44.51-.71,1.41,1.13,1.47,1.64.31,2.53-2.39,8.63-4.44,10.26-3.22,2.56-9.31-1.02-9.69-4.77-.24-2.36,1.46-5.78,2.6-7.85.37-.68,1.74-3.65,2.73-2.65Z"/>
      <path class="cls-35" d="M15.29,90.11c5.53-.6,7.17,4.67,8.42,9.06.22.75,1.17,3.5-.6,2.86-1.03-.37-.63-1.63-.75-2.51-.21-1.58-2.15-5.53-3.43-6.48-2.69-1.98-7.53-.17-7.44,3.32.05,1.81,1.78,5.3,2.86,6.78.27.38,1.59,1.64,1.66,1.89.19.69-1.11.5-1.51.38-1.8-.52-4.29-5.95-4.72-7.75-1.04-4.43,1.05-7.07,5.51-7.55Z"/>
      <path class="cls-7" d="M84.71,98c.45,2.84-.1,6.24,1.53,8.74,3.04,4.69,8.35,7.14,13.83,7.41,1.95.09,3.81-.29,5.68-.3.73,0,.5.36.11.69-.48.41-2.06,1.39-2.64,1.61-1.41.52-3.69-.31-2.79,2.1-.88-.04-1.45-.12-1.91.71-.34-.3-.34-.76-.57-1.12-.34-.52-1.36-1.28-1.98-1.28h-4.82c-.35,0-.22-.53.27-.72,1.27-.5,4.11-.13,5.43.26.83.25,1.53.56,2.16,1.17-.08-.68.39-1.08.86-1.48l.98-.5c-4.99-.07-11.33-2.77-14.59-6.58-2.55-2.99-2.33-7.4-2.55-11.12.12.06.94.42.99.42Z"/>
      <path class="cls-35" d="M62.34,84.41c.45.05.89.18,1.13.57.84,3.66.66,7.48.22,11.19-.01.12-.07.24-.13.36s-.14.24-.23.35c-.87.18-2.41.48-2.74-.59-.47-1.51.13-4.92.05-6.71-.04-.9-.18-2.35-.5-3.18-.27-.69-.95-1.13-.91-1.84.14-.17,2.7-.2,3.11-.15Z"/>
      <path class="cls-7" d="M63.47,84.97c.35.56.62,2.7.71,3.47.6,5.19.17,11.67-.92,16.78-1.01,4.78-6.75,7.96-10.93,9.75-2.34,1-5.64,1.65-8.19,1.73-1.25.04-1.51-.44-.22-.79,2.05-.56,4.61-.49,6.52-1.13,3.55-1.19,9.5-4.75,11.3-8.1,1.14-2.11,1.31-7.28,1.59-9.82.43-3.92.74-7.92.14-11.9Z"/>
      <path class="cls-7" d="M113.74,66.14c3.13,5.07-1.22,2.85-4.16,2.25-.9-.64-.34-2.79-.51-2.96-.08-.08-2.5.17-.84-.77,1-.56,2.28-.05,3.3.19.31-.1.2-1.23.8-1.61.45-.29,2.59-.65,3.18-.66,1.19,0,4,.63,3.16,2.31-.28.55-1.88,1.24-2.45,1.24h-2.48Z"/>
      <path class="cls-3" d="M83.86,86.53c1.01-3.14,2.77-6,4.82-8.56,1.59-2,3.77-4.41,5.74-6.02,1.52-1.25,2.25-1.72,4.29-1.18.28.07,3.2,1.31,2.72,1.74-2.04-.36-2.67-1.41-4.86-.54-2.52,1-7.2,6.73-8.93,9.05-1.12,1.5-2.05,3.17-2.63,4.94-.09.04-1.08.53-1.13.57Z"/>
      <path class="cls-7" d="M30.19,61.04c.35-.24,1.31.79,1.66.95,1.93.91,5.92-.55,7.15,1.35,1.45,2.26-1.17,2.73-2.92,2.49-.56-.08-.86-.44-1.19-.53-.24-.06-.46.1-.7.01-.42-.15-.8-.91-1.18-1.23-1.1-.93-3.59-1.07-2.82-3.05Z"/>
      <path class="cls-7" d="M52.38,62.48c.98-.21,1.6,1.07,2.08,1.82.53.84,1.65,2.85,1.76,3.78s-1.97.24-2.49.08c-1.29-.41-2.02-.65-2.15-2.1-.08-.88-.26-3.35.81-3.58Z"/>
      <path class="cls-26" d="M95.33,64.72s.6-.34.65-.42c.45-.79-1.66-1.27-2.05-1.5-.73-.43-2.05-3.42-2.35-4.3-.34-1.01,1.02.17,1.28.42.38.35.96.99,1.05,1.5.05.31-.06.65.03.96.08.25.56.47.4.95.51.01,1.32-2.44,1.55-2.27.26.8.61,1.57.79,2.4.2.94.14,2.17.35,2.98-.74.46-1.57.21-1.7-.71Z"/>
      <path class="cls-3" d="M116.97,56.25c.16.09.43,1.02.59,1.24-.71-.35-1.3-.52-2.12-.42l1.7,1.63c-.24.19-1.32,1.58-1.63,1.07s.37-1.21-1-1.41c-1.55-.22-2.45.59-3.88.69l.99-1.06c-.1-.21-.67-.43-.71-.57-.17-.67,2.99-.57,3.46-.65.56-.09,2.18-.77,2.6-.53Z"/>
      <path class="cls-1" d="M118.38,102.98c1.05-.21,1.56,2.02,1.42,2.85-.08.48-.69,1.48-1.18,1.53-.87.08-1.94-2.56-1.49-3.34.12-.21.99-.98,1.24-1.03Z"/>
      <path class="cls-25" d="M97.18,35.41c-.03.12-.21.47-.28.57-.18.24-2.35,2.33-2.55,2.12-.5-1.89.91-4.06,2.32-5.23.81.49.75,1.72.52,2.54Z"/>
      <path class="cls-36" d="M43.93,117.55c1.73-.52,3.51-.64,5.31-.57l5.73,1.63c-.17.24-.38.22-.63.22-2.34.07-4.51-.87-6.65-1.01-1.04-.07-2.26.12-3.27.01-.21-.02-.44-.03-.49-.29Z"/>
      <path class="cls-36" d="M69.84,63.16c.89-.12,1.39.84,1.91-.28.71-1.54.08-3.38-.07-4.96.93.07,1.35,1.22,1.41,2.05s-.23,3.27-.59,3.93c-.79,1.41-3.05-.4-2.66-.75Z"/>
      <path class="cls-2" d="M38.69,61.18c-.47.24-1.04.14-1.56.14-1.99-1.66-5.07-1.86-6.94-3.68.43-.02.85-.02,1.28.06.83.16,2.98,1.04,3.81,1.43.92.42,1.58,1.23,2.36,1.61.39.19.9.08,1.04.45Z"/>
      <path class="cls-14" d="M40.1,57.78c.54-.34.88-.74,1.64-.84,1.59-.21,5.26-.42,6.77-.14.89.16,1.65.48,1.92,1.4-.71-.07-1.01-.85-1.63-1.13l-.07.85c-.44.08-.81-.23-1.21-.27-1.53-.17-5.82-.28-7.14.13-.07.02-.19-.02-.28,0Z"/>
      <path class="cls-36" d="M105.67,60.19c.11-2.29.31-4.72.75-6.96.05-.23,0-.72.31-.68.89.11.55,2.37.48,3.03-.16,1.41-.47,3.69-1.54,4.62Z"/>
      <path class="cls-25" d="M84.29,42.77c-.86-.07-.36.69-.46,1.31-.09.59-.81,1.98-1.53,1.6-.61-.32-.52-2.85-.14-3.41s1.64-.46,1.99.08c.09.14.09.28.14.42Z"/>
      <path class="cls-18" d="M83.01,56.37c.1.1-.54,1.07-.65,1.26-.46.77-2.53,4.32-3.07,4.58-.17.08-.33.13-.53.11-.33-.34,1.29-3.01,1.58-3.44.65-.96,1.5-2.16,2.66-2.5Z"/>
      <path class="cls-25" d="M57.95,57.22c.36-.73,1.93-1.97,2.48-2.69.43,1.34-.31,3.04-1.15,4.09-1.24,1.57-1.03.18-.91-.98-.14-.11-.58,1.01-.57.28.06-.2.04-.5.14-.71Z"/>
      <path class="cls-26" d="M70.97,56.51c.14.21.21.32.28.57-.35.36-2.57-.26-2.69-.14.1.71-.55,2.28-1.35,2.28-1.33,0-.3-2.37.36-2.77.95-.57,2.36.09,3.39.06Z"/>
      <path class="cls-5" d="M79.19,63.16l.42,8.92-.78-2.12c-.47-1.92-.38-4.06-.05-6,.04-.24.02-.92.4-.8Z"/>
      <path class="cls-26" d="M46.76,43.05c-.02.18-.87,2.63-.96,2.79-.11.2-.17.38-.45.32-.73-2.02-.3-3.2.59-5.01.06-.13.24-.2.26-.23.37.67.67,1.33.57,2.12Z"/>
      <path class="cls-26" d="M73.81,47.87c-.12.12-.32.5-.42.57-.29.19-.79.18-1.13.35-.72.37-1.71,1.3-2.59,1.04s.08-1.37.56-1.65c1.14-.66,2.41-.41,3.59-.3Z"/>
      <path class="cls-26" d="M42.51,46.88c-.03-.08-.15-.22-.14-.28.01-.2.18-.42.15-.78-.08-1.21-.7-2.58.06-3.75,1.22,1.15,2,4.23-.07,4.81Z"/>
      <path class="cls-26" d="M98.73,58.77c.15.59.02,2.32-.49,2.7-1.01.77-1.41-2.35-.44-3,.27-.18.46.28.64-.41.13.25.21.42.28.71Z"/>
      <path class="cls-18" d="M109.36,46.6c1.9-.83,3.46,2.19,2.19,3.54-.45.1-.34-.87-.41-1.14-.18-.67-.31-1.09-.86-1.55-.31-.26-.93-.34-.92-.85Z"/>
      <path class="cls-33" d="M50.3,62.46c.05.18.26.41.28.57.12.8.09,1.87.14,2.69-.25.29-2.15-1.84-.86-3.06.17-.16.32-.13.43-.2Z"/>
      <path class="cls-14" d="M109.49,55.37c.42.3-.23,3.96-1.56,3.4-.12-.11,1.02-2.98,1.15-3.16.08-.11.23-.36.4-.23Z"/>
      <path class="cls-10" d="M54.83,63.16c-.29.06-.33-.14-.45-.33-.65-.96-1.27-3.07-.96-4.2.42.17.47.65.6,1.03.39,1.12.57,2.35.81,3.51Z"/>
      <path class="cls-11" d="M84.43,91.77l.29.18c.06.11.25,2.38-.15,2.37-.21,0-.76.09-.99.14v-2.97c.16.09.64.22.85.28Z"/>
      <path class="cls-20" d="M109.07,43.76c.1.1-.45.73-.55.94-.49,1.03-.43,2.16-2,2.04-.05-.33.11-.53.28-.78.3-.43,1.33-1.46,1.77-1.91.09-.1.37-.41.5-.28Z"/>
      <path class="cls-13" d="M115.02,51.83c.11.32-.11,2.09-.63,1.98-.58-.12.33-2.35.63-1.98Z"/>
      <path class="cls-22" d="M87.26,62.03c-.02.64-.54,3.1,0,3.48.74.52,1.92-1.35,2.28-1.07-.67,1.36-.45,2.5.03,3.86.14.4.72,1.22.65,1.56-.15.72-1.87,2.34-2.57,2.68-2.23,1.08-4.92,1.61-6.01-1.12-1.55-3.85-.8-8.04,1.38-11.44.39-.61,1.55-2.56,2.41-2.13.96.48-1.01,4.33.28,4.97.83.41,1.33-1.05,1.56-.78Z"/>
      <path class="cls-23" d="M56.39,53.32c-.14-1.33-.82-2.58-2.37-1.95-.91.37-1.07,2.2-2.1.89-1.08-1.38,1.33-2.25,1.98-3.13.54-.73.73-2.7,1.7-2.83,1.95-.26,4.39.35,6.31.72-.94,1.23-2.53,1.4-3.94,1.03-.82-.22-1.46-.8-2.29-.75-.03,1.39,1.65,1.97,2.83,1.84-.19.28-.61.34-.92.57-1.33,1-.16,1.64.04,2.79.17.99-.28,2.81-.79,3.68-.11.19-.17.38-.45.33-.08-1.02.11-2.18,0-3.19Z"/>
      <path class="cls-23" d="M92.64,35.55l-.14,3.97c1.07.02,5.45.1,5.89,1.14.05.13.04.16.01.28-.41,1.52-4.11,1.23-5.33,1.27.16-.42,2.18-1.92,1.84-2.26-.83.04-1.69.94-2.2,1.55-.29.35-.37.77-.63,1.07-.41.47-1.25.87-1.77,1.48-.75.87-1.29,2.51-2.77,2.21-.55-1.15.87-3.62,1.99-3.98,1.28-.41,2-.07,2.35-1.9.26-1.33-.79-.25-1.5-.29-.08-1.14.56-2.35,1.16-3.3.1-.16.91-1.45,1.1-1.23Z"/>
      <path class="cls-23" d="M100.15,45.25c.07-.56.59-2.27,1.34-2.2,1.21.11,1.27,4.31,1.19,5.23l-3.95,1.01v-2.9c0-.08-.33-.3-.42-.21-.32.29-.12,2.78-1.15,3.32-.55.29-3.08.45-3.75.37-.21-.02-.36-.02-.49-.22-.06-.29,1.37-1,1.65-1.02.55-.03.9.59,1.46.52-.54-1.54.32-3.78,2.09-3.94,1.45-.13,1.12,2.6,1.73,3.02.13.09.28-.11.28-.14,0-.87-.1-2.01,0-2.83Z"/>
      <path class="cls-23" d="M43.08,48.01c.74.29,1.28.56,2.12.42-.3-.62-1.19-.57-1.56-1.13.63-.08,1.78.2,2.26-.22.63-.54.3-2.23.99-2.76.55,1.28,1.04,3.04-.38,3.94-.53.34-1.2.32-1.6.8,1.42,1.54,3.32.83,3.64,3.43.28,2.28-1.35,2.72-1.65.66-.08-.56.14-1.11-.23-1.61-.4-.55-1.29-.45-1.87-.68-.98-.38-1.88-1.79-1.74-2.86Z"/>
      <path class="cls-16" d="M75.18,39.05c-.91.78-4.26.03-5.48.18-.18-.16,1.54-1.53.5-1.56-.52-.01-.84.73-1.22,1.05-.45.38-2.67,1.66-2.83.71-.14-.88,1.15-1.81,1.85-2.12,2.03-.89,4.16.46,5.66,1.77-.02-.61.48-3.11,1.08-3.23,1.35-.26,1.17,2.56.44,3.19Z"/>
      <path class="cls-23" d="M42.51,52.12c-.15-.1-1.19-1.9-.98-.79.15.83,1.27,1.53,1.55,2.34-.92.04-2.07-.26-2.82-.79-.46-.32-1.69-1.68-1.55-2.23s2.42-1.98,3.01-1.79c.37.13.83,2.72.8,3.24Z"/>
      <path class="cls-23" d="M44.92,61.75c.68-.13.5-1.24.56-1.27.48-.24,1.72,1.64,1.81,2.08.11.52.07,2.09-.72,1.99-.97-.13-.71-2.91-2.18-2.27-.72.32-.82,1.4-.9,1.44-.51.33-.94-1.22-.98-1.62-.29-2.71,2.29-2.77,2.41-.36Z"/>
      <path class="cls-16" d="M72.65,42.67c.74-.07,1.35-.09,2.07.11,1.49.41.84.92-.2,1.34-1.39.55-2.33-.15-3.62-.21-2.18-.11-1.48,2.14-2.41,3.39-1.02,1.36-1.6.15-.94-1.08.22-.4,1.93-2.38,2.29-2.67.63-.49,2.01-.8,2.81-.88Z"/>
      <path class="cls-23" d="M91.58,63.02c.17-.04.27.1.32.24l.88,4.21c-.08.85-1.4,1.29-2.09.97-.88-.41-.59-3.31-.2-4.1.1-.21.95-1.28,1.09-1.32Z"/>
      <path class="cls-23" d="M86.98,42.63c-1.7.1-3.6-2.89-3.67-4.34-.06-1.3,1.67-.34,2.17.24.43.51,1.96,3.63,1.5,4.1Z"/>
      <path class="cls-23" d="M62.43,29.9c1.01-.08,1.8,3.5,1.75,4.3-.11,1.73-1.23.4-1.77-.37-.59-.85-1.4-3.81.01-3.93Z"/>
      <path class="cls-23" d="M102.54,56.06c-.51.12-2.85,1.18-3.08.49-.25-.76,1.15-2.73,1.76-3.17,1.97-1.42,1.23,1.52,1.33,2.67Z"/>
      <path class="cls-16" d="M111.05,60.76l-2.31,1.01c-.89,1.29-2.01,1.67-3.2,2.46-.19.13-.74.92-.86.41-.09-.39.36-1.46.59-1.81,1.05-1.6,3.99-2.45,5.78-2.08Z"/>
      <path class="cls-23" d="M55.77,37.12c.77-.24,1.92,2,2.15,2.62.39,1.03.54,2.54-1.03,1.73-.97-.5-2.09-4.05-1.13-4.36Z"/>
      <path class="cls-16" d="M86.98,34.7c.25-.19,1,1.16,1.11,1.37.37.77,1.35,4.07.08,4.28-.7.12-1.37-2.53-1.43-3.07-.05-.44-.05-2.36.25-2.58Z"/>
      <path class="cls-23" d="M83.86,30.73l1.63,3.11c.47.85.15,3.21-1.15,2.28-.87-.63-.97-4.39-.48-5.39Z"/>
      <path class="cls-23" d="M79.29,31.89c.89-.25.95,1.37.72,2s-1.6,2.3-2.29,2.07c-1.05-.76.82-3.86,1.57-4.07Z"/>
      <path class="cls-16" d="M91.51,44.89c-.04-.62.71-1.07,1.24-1.23,1.43-.44,3-.08,4.13.88.01.54-4.76.8-5.38.35Z"/>
      <path class="cls-16" d="M80.61,47.16c-.4.71-.98,1.48-1.65,1.96-.82.59-3.33,1.79-2.71-.3.24-.81,3.5-1.65,4.36-1.66Z"/>
      <path class="cls-16" d="M89.5,49.61c2.62-.23,2.92,1.04.32,1.59-3.49.74-3.91-1.28-.32-1.59Z"/>
      <path class="cls-16" d="M67.25,32.31c.08-.02.17-.04.26-.02.71,1.07-.13,3.78-1.56,3.83-2,.08.6-3.62,1.3-3.81Z"/>
      <path class="cls-16" d="M88.82,56.65c.02,2-.75,4.13-2.69,4.96-.03-1.7.76-3.19,1.91-4.39.11-.11.65-.72.78-.56Z"/>
      <path class="cls-32" d="M88.82,48.01l1.32-.73c1.08-.46,2.77-1.11,3.85-.4,1.43.93-.8,1.21-1.56,1.27-1.2.09-2.42-.04-3.61-.14Z"/>
      <path class="cls-16" d="M95.33,38.66c.48-1.11,3.28-2.9,4.35-2.44.17.08.35.24.45.4.14.82-3.97,2.44-4.81,2.04Z"/>
      <path class="cls-25" d="M54.51,43.37c1.04-.23,2.97.27,3.79.96,1.61,1.36-2.2.73-2.9.49-.63-.22-2.29-1.13-.89-1.45Z"/>
      <path class="cls-25" d="M96.04,51.13l-1.74,1.87c-.93.33-1.93.77-2.93.39.38-.9,1.48-1.59,2.36-1.96.76-.32,1.49-.64,2.32-.3Z"/>
      <path class="cls-16" d="M60.85,38.52c.73,0,.85,3.86.79,4.47-.02.15-.06.48-.22.49-.19,0-1.08-1.01-1.19-1.22-.4-.78-.2-3.15.62-3.73Z"/>
      <path class="cls-26" d="M105.25,61.32c-.57.19-1.18.08-1.73.18-1.46.27-2.73,1.1-4.21,1.1.28-.78,1.28-1.41,2.03-1.72,1.52-.64,2.61-.65,3.92.45Z"/>
      <path class="cls-16" d="M76.05,44.93c.37-.02,1.33,0,1.42.48.19,1.02-3.73,2.14-4.07.8-.21-.82,2.08-1.24,2.65-1.28Z"/>
      <path class="cls-16" d="M60.64,58.49v2.2c0,.52-1.21,2.51-1.99,1.99-1.1-.75,1.13-3.4,1.66-4,.08-.1,0-.27.32-.18Z"/>
      <path class="cls-32" d="M90.94,52.12c.07.28-.12.27-.24.4-1.18,1.21-3.7,1.11-5.28,1.44.93-2.12,3.62-1.57,5.52-1.84Z"/>
      <path class="cls-21" d="M87.97,64.44c-.34-.39,1.27-3.51,1.38-4.21.13-.85,0-1.7.21-2.62.05-.21.15-.76.38-.82.18.53.17,1.08.15,1.63-.05,1.65-.34,4.57-1.63,5.73-.16.14-.24.33-.5.28Z"/>
      <path class="cls-16" d="M104.11,57.36c-1,1.35-2.86,2.21-4.53,2.26.38-1.86,2.91-2.37,4.53-2.26Z"/>
      <path class="cls-21" d="M55.68,57.64c-.96-.66-.66-2.1-.71-3.12-.58.39-1.47,1.81-1.56.35-.04-.59.43-2.8,1.22-2.2.58.44,1.09,4.11,1.05,4.97Z"/>
      <path class="cls-26" d="M77.07,32.29c-.37-1.72-.7-4,.35-5.52.5.01.53,2.61.49,3.04-.06.75-.32,1.92-.85,2.48Z"/>
      <path class="cls-16" d="M79.14,39.53c.19-.06.42-.07.54.12.44.64-.14,3.83-.84,3.68-1.06-.57-.6-3.53.3-3.8Z"/>
      <path class="cls-32" d="M46.62,55.09c-1.43-.28-2.92-1.77-2.97-3.26.23-.03.43.07.64.14,1.98.63,1.54,1.44,2.33,3.12Z"/>
      <path class="cls-21" d="M40.81,48.43c-1.03.26-2.11.36-3.18.28-.18-.01-2.51-.34-2.05-.85,1.22-.22,2.52-.32,3.75-.14.53.08,1.23.17,1.49.71Z"/>
      <path class="cls-2" d="M54.26,40.79c-.15.16-.8-.57-.92-.7-.74-.8-1.75-2.45-1.85-3.54-.01-.14-.05-.43.15-.43.09,0,1.1,1.11,1.23,1.31.24.37,1.52,3.22,1.39,3.35Z"/>
      <path class="cls-16" d="M69.77,58.07c.92-.21.4,3.58-.96,3.24-1.12-.28.28-3.08.96-3.24Z"/>
      <path class="cls-32" d="M62.2,43.48c1.38,1.07,2.64,2.58,1.63,4.39-.51,0-1.59-3.76-1.63-4.39Z"/>
      <path class="cls-24" d="M64.04,51.97c-1.65-.07-3.51-1.11-4.67-2.26,1.82-.13,3.53.95,4.67,2.26Z"/>
      <path class="cls-32" d="M68.42,43.34c.25.35-1.33,2.03-1.69,2.26l-.42-3.12c.25.36,2.05.76,2.12.86Z"/>
      <path class="cls-32" d="M62.9,64.72c-.31-.45.85-1.03,1.24-1.1,2.45-.42,2.15,1.67-.3,1.37-.13-.02-.9-.23-.93-.27Z"/>
      <path class="cls-21" d="M70.94,45.06c.78-.1,2.1.64,1.01,1.31-2.07,1.26-2.91-1.06-1.01-1.31Z"/>
      <path class="cls-15" d="M91.79,54.95c-.04-.2.27-.18.42-.21.59-.12,4.67-.51,4.67.14-1.52.73-3.49.26-5.09.07Z"/>
      <path class="cls-21" d="M52.14,56.65c-.32.23-.72-1.06-.78-1.27-.22-.83-.26-1.54-.21-2.41.28-.31,1.03,1.49,1.07,1.69.07.34.13,1.83-.08,1.99Z"/>
      <path class="cls-8" d="M48.6,40.22l.28,1.06c-.08,1.03.3,2.38-.49,3.18-.82-1.22-.02-2.93.21-4.24Z"/>
      <path class="cls-2" d="M50.02,61.04c-.5.22-2.95-.51-2.83-1.06s3.24-.15,2.83,1.06Z"/>
      <path class="cls-12" d="M102.41,70.81l-2.4-1.77,1.2-1.06c.26,1.02.77,1.88,1.2,2.83Z"/>
      <path class="cls-4" d="M64.6,61.75c.4.53-1.36.43-1.59.39-.57-.1-1.09-.46-1.38-.96.39-.03,2.88.44,2.97.57Z"/>
      <path class="cls-9" d="M54.26,45.32c-.04.35-1.86,1.4-1.84.78,0-.24,1.49-.97,1.84-.78Z"/>
      <path class="cls-29" d="M59.93,45.32c-.42-.44,1.57-.67,1.42.07-.09.41-1.31.03-1.42-.07Z"/>
      <path class="cls-19" d="M91.65,61.6c-.78.05-.87-.89-1.13-1.41.24-.24,1.04,1.25,1.13,1.41Z"/>
      <path class="cls-31" d="M126.03,105.54c2.02-.27,3.73-.1,5.05,1.53,1.78,2.22,1.46,4.11.05,6.4-2.18,3.56-6.75,5.02-9.35,1.05-1.15-1.76-1.26-2.86-.27-4.73.8-1.51,2.76-4.02,4.52-4.26Z"/>
      <path class="cls-31" d="M73.35,86.28c4.18-.57,6.42,1.03,5.96,5.4-.26,2.51-1.88,3.73-4.2,4.29-4.47,1.08-7.09-.58-6.24-5.4.39-2.21,2.25-4,4.48-4.3Z"/>
      <path class="cls-31" d="M23.63,30.62c1.63-.3,3.41,1.11,3.58,2.73.31,2.95-2.73,5.99-5.32,3.48-.49-.48-.99-1.37-1.06-2.06-.13-1.37,1.36-3.88,2.79-4.15Z"/>
      <path class="cls-31" d="M125.32,33.46c1.68-.29,2.79.61,3.64,1.96.94,1.5.99,2.75-.5,3.87-3.52,2.65-7.93-2.92-4.71-5.13.31-.21,1.2-.64,1.57-.7Z"/>
      <path class="cls-31" d="M26.47,110.64c1.61-.28,2.62.38,3.57,1.6,1.17,1.5,1.28,2.97-.35,4.17-3.39,2.5-8.11-2.71-4.59-5.16.31-.22,1.01-.55,1.37-.61Z"/>
      <path class="cls-31" d="M41.77,16.04c3.93-.11,5.67,4.49,4.07,7.76-2.61,5.33-10.29,3.58-9.71-2.48.25-2.59,3.05-5.2,5.63-5.27Z"/>
      <path class="cls-31" d="M37.38,122.96c2.51-.34,5.91,1.1,6.51,3.76,1.14,5.1-5.23,8.05-9.15,5.05-3.53-2.7-1.49-8.24,2.64-8.8Z"/>
      <path class="cls-31" d="M132.41,88.26c3.84-.21,4.98,3.95,2.64,6.61-1.49,1.69-5.73,1.1-6.01-1.19-.25-2.01,1.06-5.3,3.38-5.42Z"/>
      <path class="cls-31" d="M84.57,94.32l-.14-2.55c2.01.55,4.31,0,6.26.61,1.32.41,1.43,1.47,1.24,2.71-.25,1.6-3.92,1.57-5.05,1.1s-1.14-1.85-2.31-1.87Z"/>
      <path class="cls-31" d="M111.44,19.01c2.75-.4,4.29.87,5.62,3.09,1.45,2.43,1.78,4.65-.64,6.56-6.09,4.84-12.62-4.85-7.26-8.67.56-.4,1.6-.88,2.28-.98Z"/>
      <path class="cls-16" d="M38.12,67.13c.47,1.28-.52,2.89-1.57,3.6-1.12.76-1.72.04-1.1-1.1.52-.96,1.89-1.73,2.67-2.5Z"/>
      <path class="cls-16" d="M41.05,68c.48-.04.59.84.52,1.22-.09.49-1.15,2.46-1.68,2.42-1.08-.09.1-3.53,1.16-3.63Z"/>
      <path class="cls-6" d="M46.19,70.53c-.23.04-.13-.19-.14-.35-.03-.71.06-.57-.23-1.1-.24-.43.32-.53.72-.52,1.82.07-.42,1.28-.34,1.97Z"/>
      <path class="cls-25" d="M114.31,68.69c-.26.2-3.15-1.16-3.59-1.44-.26-.17-1.84-1.35-1.51-1.67.94,0,2.42.02,3.25.51s1.25,1.84,1.85,2.61Z"/>
      <path class="cls-16" d="M114.28,63.77c.58-.08,3.45-.27,3.28.72-.62,1-2.54.75-3.49.4-1.3-.49-1.07-.94.2-1.12Z"/>
      <path class="cls-32" d="M35.82,63.34c.75-.14,2.22-.11,2.39.81.24,1.26-2.08.81-2.74.46-.85-.46-.5-1.12.35-1.27Z"/>
      <path class="cls-32" d="M52.69,64.32s-.02.27.09.27c.24,0,.32-.3.49-.23.73.32,1.46,3.08-.18,2.6-1.08-.32-.9-1.8-.67-2.66.09,0,.2-.03.27.02Z"/>
    </g>
  </g>
</svg>