<?xml version="1.0" encoding="UTF-8"?>
<svg id="Layer_2" data-name="Layer 2" xmlns="http://www.w3.org/2000/svg" viewBox="0 0 133.28 150">
  <defs>
    <style>
      .cls-1 {
        fill: #324462;
      }

      .cls-2 {
        fill: #f9faf9;
      }

      .cls-3 {
        fill: #804864;
      }

      .cls-4 {
        fill: #610c33;
      }

      .cls-5 {
        fill: #640f37;
      }

      .cls-6 {
        fill: #8e6077;
      }

      .cls-7 {
        fill: #fafbf9;
      }

      .cls-8 {
        fill: #f9f8f7;
      }

      .cls-9 {
        fill: #eaeff4;
      }

      .cls-10 {
        fill: #640d36;
      }

      .cls-11 {
        fill: #f5ebf1;
      }

      .cls-12 {
        fill: #652d47;
      }

      .cls-13 {
        fill: #eed6e6;
      }

      .cls-14 {
        fill: #601c3f;
      }

      .cls-15 {
        fill: #223863;
      }

      .cls-16 {
        fill: #642342;
      }
    </style>
  </defs>
  <g id="Layer_1-2" data-name="Layer 1">
    <g>
      <path class="cls-14" d="M131.88,83.25c-1.64,14.27-8.53,28.82-19.13,38.5-12.01,10.97-27.34,19.44-40.95,28.25h-11.13c-8.44-5.6-17.23-10.68-25.51-16.55-11.16-7.92-28.59-21.37-30.57-35.97h1.78c-.18-1.04-.05-3.02-1.33-2.67.18-.79.53-1.65.49-2.46s-.84-.58-.93-.95c-.22-.95.12-2.24,0-3.26,1.02,4.18,2.71,8.45,4.24,12.47.26.69-.13,1.59,1.1,1.33-.5,1.7-.18,3.27,1.78,2.67,0,.29.03.6,0,.89,0,.07-.74,0-.13,1.23.37.74,1,.5,1.02.55.37.85,1.34,3.55,1.92,4.31.31.4,2.31,1.85,2.4,2.04.25.57.04,1.56.13,1.66.17.18,1.63-.16,1.78,0s-.16,1.64,0,1.79,1.64-.16,1.79,0-.16,1.64,0,1.79c.16.16,1.51-.16,1.78,0,.05.03-.54.85-.04,1.13.55.31,1.75.14,1.82.21.04.04-.14.75.16,1.17.26.37,1.41,1.01,1.49,1.18.25.56.03,1.52.15,1.64s1.08-.1,1.64.15c.26.11.96,1.55,1.34,1.63,4.05.89,1.78.73,4.26,2.54.21.15,1.83.46,2.53,1.03.07.05.06.75.46,1.08,1.5,1.22,2.13,1.74,3.99,1.15.04.43-.06.91,0,1.34.08.54,1.47,2.24,1.92,2.53.28.18,1.96.71,2.53,1.03.86.49,1.96,1.74,2.1,1.76.95.18,1.97-.14,2.92.03.35.07.98,1.39,1.35,1.62.14.09,2.14.87,2.53,1.03-.26,2.3,1.38,1.76,2.23,2.23,2,1.1,3.4,2.17,5.79,2.67-.4,2.18,1.11,1.06,2.35,1.35.84.2.79,2.66,3.77,1.62.13-.05.98-1.45,1.12-1.51,1.29-.51,2.99.76,2.56-1.47,2.91-.65,3.79-2.03,5.79-3.12.69-.38,1.05.84,1.34-.89,2.61-.12,1.3-.43,1.78-.89.23-.22.71.56.89-.89,3.02-.45,1.47-.74,2.67-1.78.98-.85,4.24-2.1,5.2-2.81,1.79-1.33.74-2.16,3.7-2.53.48-.06,1.53.16,1.75-.04.21-.19-.08-1.06.03-1.29.13-.28,3.43-1.86,4.01-2.23.9-.56,1.67-.77,2.08-1.03.27-.18,1.96-1.97,1.92-2.53,2.6-.51,2.55-1.28,4.45-3.12,1-.97,2.1-2.56,2.67-3.12.92-.89,6.65-5.58,6.99-6.35.25-.57.04-1.56.13-1.65.16-.18,1.63.15,1.78,0,.33-.32-.84-1.89.89-3.12.09-.07.5.2.93-.29s-.05-.99-.04-1.04c.24-1.19,1.39-1.19.89-3.12,1.66.27,1.79-1.25,2.43-2.69,2.49-5.55,3.59-11.63,5.58-17.34-.11,1.38.12,2.8-.04,4.19-.11,1-2.11,4.76.03,4.71-.02-.63-.07-1.26.12-1.88.38-1.25,1.49-4.01,1.65-4.66.24-1-.75-3.53.9-3.26Z"/>
      <path class="cls-4" d="M4.6.03l127.73.44.02,76.35c-.4,1.84-.29,3.75-.47,5.54-.03.29.03.6,0,.89-1.65-.27-.66,2.26-.9,3.26-.16.65-1.27,3.41-1.65,4.66-.19.62-.14,1.25-.12,1.88-2.14.05-.15-3.71-.03-4.71.16-1.39-.07-2.81.04-4.19.11-1.48.39-2.79.45-4.45V4.92c-.03-.55.1-1.32,0-1.78-.04-.19-.27-.36-.45-.45L3.71,2.25c.13-.16-.09-1.37,0-1.78V.03c.3-.01.59,0,.89,0Z"/>
      <path class="cls-5" d="M1.93.03l1.78.45c-.09.41.13,1.62,0,1.78-.09.11-.93-.24-.9.22l.9.67-.9.27v74.29c.65,3.45.96,7.03,1.79,10.44.13,1.02-.21,2.31,0,3.26.09.37.89.14.93.95s-.32,1.67-.49,2.46h-.45c-.14-1.41-1.33-4.58-1.79-6.35-.1-.38-.79-.3-.87-.63-.23-.94.07-2.41,0-3.5-.1-1.37.2-1.14-1.34-1.09-.07-.42.06-.91,0-1.34,1.18-1.08,1.55-2.66-.45-2.23C.5,54.96-.32,30.11.15,5.37l.44-.22-.44-.22C.19,3.44.13,1.95.15.47.59.62.93.06,1.04.03,1.28-.04,1.64.06,1.93.03Z"/>
      <path class="cls-3" d="M131.88,82.36c.17-1.79.07-3.7.47-5.54l-.02-76.35L4.6.03l127.75.19.44,1.34c-1.23,25.56,1.56,52.52,0,77.92-.06,1.01-.12,2.13-.91,2.88Z"/>
      <path class="cls-14" d="M.6,83.25c1.54-.05,1.24-.28,1.34,1.09.08,1.09-.22,2.56,0,3.5.08.33.77.25.87.63.47,1.78,1.66,4.94,1.79,6.35.07.72-.09,1.52,0,2.23-1.95-4-3.3-9.38-4.01-13.8Z"/>
      <path class="cls-4" d="M5.05,94.82c1.28-.35,1.15,1.63,1.33,2.67h-1.78c-.02-.14.02-.3,0-.44-.09-.71.07-1.51,0-2.23h.45Z"/>
      <path class="cls-14" d="M.15,79.69c2-.43,1.63,1.14.45,2.23-.09-.72-.48-1.45-.45-2.23Z"/>
      <path class="cls-3" d="M3.71.03v.45L1.93.03C2.51-.04,3.13.05,3.71.03Z"/>
      <path class="cls-3" d="M1.04.03c-.11.03-.46.6-.89.45L1.04.03Z"/>
      <path class="cls-12" d="M.15,5.37c0-.15,0-.3,0-.45l.44.22-.44.22Z"/>
      <path class="cls-2" d="M3.71,3.14h125.94c.1.46-.03,1.23,0,1.78,1.08,23.47.81,51.21,0,74.76-.06,1.66-.33,2.97-.45,4.45-1.98,5.71-3.09,11.79-5.58,17.34-.65,1.44-.77,2.96-2.43,2.69-2.02-.33-5.14-2.17-7.52-2.43-.59-.06-1.04.22-1.38.2.46-.61-1.02-1.32-1.34-1.34.25-.41.33-.87.45-1.34.72-2.85-.39-4.08-1.78-6.23-1.48-2.29-3.68-5-6.23-6.23-.02-.14,0-.3,0-.45.01-1.83.64-3.5.45-5.34,1.82-.24,4.53,2.41,6.02.9.48-.49,1.27-3.88.9-4.46-.35-.55-3.83-1.99-4.7-2.23-.13-.04-.3.03-.45,0-.07-.77-1.24-.78-1.34-.89-.12-.14-1.09-3.62-1.77-3.11-.45,1.01-.61,2.12-.9,3.11-.12.06-.5-.12-.79.09-.37.27-1.61,2.8-1.88,3.47-.05.13.05.31,0,.45-.69.09-1.08,1.17-1.34,1.34s-2.47,1.27-2.67,1.34c-.12.04-.29-.03-.45,0-.09-.89.18-1.93-.02-2.79-.03-.13-1.71-1.86-1.74-1.99-.17-.77.13-1.67-.1-2.49-.36-1.27-2.35-1.43-2.52-1.71-.34-.55.12-1.95-.07-2.75-.08-.34-.88-.27-.91-.58-.15-1.54.2-2.84-.9-4.71l-1.75-2.12c-1.52-6.03-2.42-9.71-1.21-16.12.42-2.22,5.43-16.36,6.55-17.26.39-.31.67.73.89-.89.02-.15-.03-.3,0-.45,1.57-1.23,2.97-3.42,3.56-5.34.1-.06.31.05.45,0,.31-.12.34-.11.45-.45.04-.12-.01-.29,0-.45.85-.48,1.72-1.16,1.78-2.23.52.04.92.02,1.42-.11,4.24-1.1,10.28-5.65,14.77-7.06,1.06-.62,1.02-1.95.06-2.6l-20.7,10.22c-.15.02-.3-.03-.45,0-2.02.39-9.57,4.19-12.02,5.34-2.5-1.03-3.05,1.4-3.67,1.65-1.29.51-2.99-.76-2.56,1.47-.3.14-.59.3-.89.45-1.64.14-3.09-.73-2.67,1.34-.3.14-.58.3-.89.45-1.77-1.38-2.71,1.5-4.45.89v-13.35c.73-.16.42,1.19,1.33,1.33-.53-1.24.36-1.83.45-3.11.33-4.9-4.8-4.97-4.45,0,.04.63.39,2.31.89,2.67-.05.28.07.67,0,.89-.02.06-.28.36-.45.89-.04.13.04.3,0,.45-3.22,1.38-8.69-.34-11.72.43-.83.21-.32,1.14-.29,1.35.14.97.95,2.05.01,2.9l-8.47,3.32c2.82.07,7.77,1.1,10.38.47,1.04-.25.02-2.48.72-2.92,1.6-1.02,6.48-.5,8.48-.66-.5,1.94-.77,4.22-.89,6.23-.44.03-.89-.03-1.33,0-.23.73.78.26.9.66.3.98-.27.98-.89,1.41v.6c-10.26,4.98-20.45,10.13-30.89,14.74-1.19.25-.47,2.65-.03,2.64l7.76-4.02c.31.04.91-.2.9.23-2.04,8.21-1.94,14.97,4.44,21.13-.18.58.14,1.59-.24,2.65-.41,1.14-2.13,2.24-2.42,2.92-.38.86,1.28.5.89,1.55-.09.19-.39.32-.45.45l-.22-.44c-2.03-.44-1.03,1.94-.67,3.11.07.23-.05.61,0,.89-1.74.32-.85.94-1.34,2.23-.46,1.21-.82,2.64-1.78,3.56-.49-3.69-1.37-12.05-3.02-15-.35-.63-.74-1.17-1.43-1.46-.16-.4-.25-.54-.45-.89-1.43-2.55-5.01-3.36-4.01-7.12-1.99-.25-2.56,1.93-3.56,3.11-.93,1.11-1.45.77-2.23,2.67-.92.12-2.36-.28-3.14.21-.6.37-.02,1.59-.24,2.37-.63,2.22-4.74,3.34-6.85,3.66-.07.88.62,1.48.89,2.22.15.42.66.79.26,1.34-1,.68-2.13,1.41-3.37,1.33-.39-.37,1.83-3.94-1.33-2.44-2.09.99.33,4.75,4.04,3.58.83-.26,1.08-1.02,1.3-1.13.16-.09.63.06.89,0,0,.14-.02.31,0,.45.1.59.17.92.64,1.35,1.27,1.16.9.02,1.47-.45,3.23-2.64,4.2-3.58,8.57-3.57.15,0,.3,0,.45,0,.13.95,1.5,1.11,1.73,1.39.19.24-.02.65.05.83,0,.02-.11-.08,0,.45.38,1.74.84,3.55.89,5.34,0,.07,0,.42,0,.45-.24.94-1.29,2.98-1.78,4.01-.07.14-.36.27-.45.45-.18.36-.61.69-.89,1.34-2.65,2.15-5.93,4.74-4.45,8.46-.08,0-.48.43-.89.45-2.11.05-9.9,0-10.68,2.67-1.23.26-.83-.64-1.1-1.33-1.54-4.02-3.22-8.29-4.24-12.47-.83-3.41-1.14-6.99-1.8-10.44V3.41s.91-.27.91-.27Z"/>
      <path class="cls-15" d="M24.18,120.18c1.24-1.45,3.81-3.11,5.67-3.46,8.4-1.56,19.19,6.29,27.61,8.67,4.52,1.28,9.43,1.85,14.13,1.48,11.83-.94,18.93-10.64,31.8-8.92l1.78.89c.44.32.58.4.89.89.46,1.76-.57,3.29-1.92,4.31-.46.34-2.49.19-2.53,1.92-1.82.33-.78,1.95-4.01,1.78-.97-.05-1.88-.43-2.87-.46-8.17-.24-16.17,7.24-24.57,7.41-6.65.13-15.8-4.49-22.3-6.38-4.53-1.31-8.43-2.8-12.11,1.21-.7-.57-2.32-.88-2.53-1.03-2.49-1.81-.22-1.65-4.26-2.54-.38-.08-1.08-1.52-1.34-1.63-.56-.25-1.52-.03-1.64-.15s.1-1.08-.15-1.64c-.08-.18-1.23-.81-1.49-1.18-.29-.42-.11-1.13-.16-1.17Z"/>
      <path class="cls-15" d="M29.52,102.38c6.53,1.33,14.65,6.52,20.47,9.79.68.38,2.15.42,2.7,1.2.95,1.36.67,5.64,2.65,4.36l-1.34-3.33c.22-.17,4.5,1.29,4.88,1.57,1.59,1.18.35,4.87,2.69,4.21l-.89-3.56c.77.05,5.09.32,5.29.49.14.11.65,3.22.94,3.51,1.56,1.56.29-3.41.44-3.56l5.05-.48c.66.15.58,1.75.74,2.26,1.3,4.06,3.09,3.4,1.81.17-.26-.67-.9-.99-.92-1.06-.41-1.14.01-1.36,0-1.78,1.31.37,3.18-1.09,4.19-.92.53.09.14.73.26.92-.63,2.46,1.4,2.68.87,5.01-.45,1.96-4.12.12-3.98,3-.53.09-1.2-.04-1.78,0-3.91.27-8.02-.07-11.71-.9-.2-.05-3.07-1.72-3.28-1.77-2.87-.63-4.49-1.37-6.94-2.53-.79-.38-1.72-.07-2.55-.14-.58-.32-1.08,0-1.78-.89-.07-.09.15-.7-.03-.84-.32-.25-1.6.04-2.19-.05-.14-.02-.3.03-.45,0l-1.93-1.63c-1.95-.85-2.48-.94-4.74-1.04-.15,0-.3,0-.45,0-.04-.25.08-.83,0-.89-.21-.16-4.9-.35-4.9.89-.59.01-1.19-.02-1.78,0-1.19.05-2.56-.48-2.23.89-.29.04-.61-.04-.89,0-.96.14-2.06-.53-1.78.89-1.11.59-2.73,1.69-3.56,2.67-.27-.16-1.62.16-1.78,0s.16-1.64,0-1.79-1.64.16-1.79,0,.16-1.64,0-1.79-1.62.18-1.78,0c-.09-.09.12-1.09-.13-1.66-.08-.19-2.09-1.64-2.4-2.04-.59-.76-1.56-3.46-1.92-4.31,4.34-4.55,10.82-6.14,16.91-4.9Z"/>
      <path class="cls-15" d="M114.97,106.39c1.37.45,3.02,1.7,4.45,2.23-1.73,1.23-.56,2.8-.89,3.12-.16.15-1.62-.18-1.78,0-.09.1.12,1.09-.13,1.65-.34.78-6.07,5.46-6.99,6.35-1.34-1.84-3.92-2.43-5.34-3.56-.06-.05.24-.78-.28-.91-.71-.18-5.72-.14-6.65-.02-.82.11-.58.83-.94.92-1.26.3-3.27-.91-2.81,1.34-.25.03-.64.04-.89,0s-1.06-1.31-.89.45c-.15.02-.3-.03-.45,0-.75.14-1.48.29-2.22.44.15-2.23,1.24-3.65.92-6.04-.12-.89-.99-.45-.97-1.28.02-.9.53-1.71.94-2.47.06-.12-.16-.57.08-.8.18-.17,4-1.71,4.58-1.89,5.53-1.78,14.77-1.36,20.27.46Z"/>
      <path class="cls-15" d="M90.94,130.86c1.56.84,2.1-.11,1.78,2.23-2.96.37-1.91,1.2-3.7,2.53-.96.72-4.22,1.96-5.2,2.81h-2.67c-.05.58.07,1.2,0,1.78-1.46.22-.71.78-.89.89-.8.48-1.48-.97-1.78.89-1.7.08-5.33.28-6.8-.02-.39-.08-1.15-1.66-1.54-1.74-1.79-.36-4.59-.09-6.24.74-.51.26-.53.95-.86,1.01-.66.13-1.41-.13-2.06.01-.34.08-.27.79-.61.87-1.83.47-2.57-.45-3.97-.85s-1.61-.39-2.85-.92c-.39-.16-2.39-.94-2.53-1.03-.37-.23-1-1.55-1.35-1.62-.95-.18-1.97.14-2.92-.03-.14-.03-1.24-1.28-2.1-1.76.35-2.68-.48-1.31-1.66-1.91-.66-.34-1-2.39-2.79-1.65-.06-.42.04-.9,0-1.34,1-.32,1.88-.98,3.1-1.15,3.75-.52,12.6,4.17,16.93,5.38,6.41,1.78,9.91,1.79,16.26-.21,4.67-1.47,9.56-5.13,14.45-4.91Z"/>
      <path class="cls-9" d="M32.64,114.4c1.62-.03,3.28-.05,4.9,0,.15,0,.3,0,.45,0,1.79,1.03,4.69,2.24,6.68,2.67.14.03.3-.02.45,0,.48.76,1.39.91,2.23.89.7.89,1.2.57,1.78.89,6.5,3.58,17.26,7.89,24.48,5.34.58-.04,1.25.09,1.78,0,1.89-.3,7.78-2.45,9.88-3.25,1.82-.69,4.26-2.16,6.14-2.98.14-.03.3.02.45,0,.37-.05.75,0,.89-.45.25.04.64.03.89,0,1.44-.18,3.65-1.54,5.61-1.73,1.81-.18,3.33.03,5.07.4,1.42,1.13,4,1.72,5.34,3.56-.57.56-1.67,2.14-2.67,3.12-.42-1.38,0-1.74-.89-3.12-.31-.49-.45-.57-.89-.89-.71-.51-.73-.75-1.78-.89-12.88-1.72-19.98,7.98-31.8,8.92-4.7.37-9.61-.2-14.13-1.48-8.42-2.38-19.21-10.23-27.61-8.67-1.86.34-4.43,2-5.67,3.46-.07-.06-1.27.1-1.82-.21-.5-.28.09-1.1.04-1.13.83-.98,2.45-2.08,3.56-2.67.47-.25,1.42-.08,1.78-.89.28-.04.6.04.89,0,.77-.1,1.68-.29,2.23-.89.59-.02,1.19.01,1.78,0Z"/>
      <path class="cls-9" d="M97.61,127.75l.89,1.78c-.58.36-3.87,1.95-4.01,2.23-1.18-.64-2.23-.83-3.56-.89-4.89-.22-9.78,3.44-14.45,4.91-6.35,2-9.85,1.98-16.26.21-4.33-1.2-13.17-5.89-16.93-5.38-1.22.17-2.1.83-3.1,1.15-1.86.59-2.49.07-3.99-1.15-.41-.33-.4-1.02-.46-1.08,3.68-4.01,7.58-2.52,12.11-1.21,6.51,1.88,15.65,6.51,22.3,6.38,8.4-.17,16.4-7.65,24.57-7.41.99.03,1.9.41,2.87.46Z"/>
      <path class="cls-9" d="M77.14,142.88c-2,1.08-2.87,2.47-5.79,3.12s-6.87.61-9.79,0c-2.38-.5-3.79-1.57-5.79-2.67,1.77-.15,3.82.24,5.54-.03,1.23-.19,2.22-1.12,3.38-1.52,5.15-1.75,7.3,2,12.45,1.1Z"/>
      <path class="cls-9" d="M22.4,98.82v1.78s3.12-.44,3.12-.44c1.48.56,2.94.89,4.45,1.34.57.91.74.97-.45.89-6.09-1.24-12.57.35-16.91,4.9-.02-.05-.65.19-1.02-.55-.61-1.22.12-1.16.13-1.23,1.53-.94,3.06-2.82,4.58-3.65,1.67-.91,4.72-.44,4.32-2.58.41-.01.81-.44.89-.45.29,0,.6-.01.89,0Z"/>
      <path class="cls-1" d="M121.2,104.16c.5,1.92-.65,1.92-.89,3.12-1.55-1.14-3.74-1.19-5.34-1.78-3.27-1.21-4.94-2.83-8.9-2.67.96-1.46,4.47-.95,6.23-.89.34.01.79-.27,1.38-.2,2.38.25,5.5,2.1,7.52,2.43Z"/>
      <path class="cls-1" d="M20.62,99.27c.4,2.14-2.65,1.66-4.32,2.58-1.52.83-3.05,2.71-4.58,3.65.04-.29,0-.6,0-.89-1.96.6-2.28-.97-1.78-2.67.78-2.68,8.57-2.62,10.68-2.67Z"/>
      <path class="cls-1" d="M83.82,138.43c-1.2,1.04.35,1.33-2.67,1.78-.18,1.45-.66.67-.89.89-.48.46.83.77-1.78.89-.28,1.73-.64.51-1.34.89-5.15.9-7.3-2.85-12.45-1.1-1.16.39-2.14,1.32-3.38,1.52-1.71.27-3.77-.13-5.54.03-.84-.46-2.48.08-2.23-2.23,1.24.53,1.47.52,2.85.92s2.13,1.32,3.97.85c.34-.09.27-.8.61-.87.65-.14,1.4.12,2.06-.01.33-.07.35-.76.86-1.01,1.65-.83,4.45-1.11,6.24-.74.39.08,1.15,1.66,1.54,1.74,1.47.3,5.09.1,6.8.02.3-1.86.98-.41,1.78-.89.18-.11-.57-.67.89-.89.07-.58-.05-1.2,0-1.78h2.67Z"/>
      <path class="cls-1" d="M71.36,145.99c.43,2.23-1.27.96-2.56,1.47-.14.05-.98,1.46-1.12,1.51-2.98,1.04-2.93-1.42-3.77-1.62-1.24-.3-2.75.82-2.35-1.35,2.92.61,6.87.65,9.79,0Z"/>
      <path class="cls-1" d="M106.96,122.85c-1.9,1.84-1.85,2.61-4.45,3.12-.27.05-.61-.05-.89,0,.04-1.73,2.07-1.58,2.53-1.92,1.35-1.02,2.38-2.55,1.92-4.31.89,1.38.47,1.73.89,3.12Z"/>
      <path class="cls-13" d="M120.31,107.28c-.01.05.49.53.04,1.04s-.84.23-.93.29c-1.43-.53-3.08-1.77-4.45-2.23v-.89c1.6.59,3.79.64,5.34,1.78Z"/>
      <path class="cls-1" d="M40.2,133.09c1.8-.75,2.14,1.31,2.79,1.65,1.17.6,2.01-.77,1.66,1.91-.57-.32-2.25-.85-2.53-1.03-.45-.29-1.84-1.99-1.92-2.53Z"/>
      <path class="cls-12" d="M101.62,125.97c.28-.05.62.05.89,0,.04.55-1.65,2.35-1.92,2.53-.41.27-1.18.47-2.08,1.03l-.89-1.78c3.22.17,2.19-1.45,4.01-1.78Z"/>
      <path class="cls-1" d="M94.5,131.75c-.11.24.18,1.11-.03,1.29-.22.2-1.27-.02-1.75.04.32-2.34-.22-1.38-1.78-2.23,1.33.06,2.38.25,3.56.89Z"/>
      <path class="cls-14" d="M3.71,2.25l125.5.45v.45H3.71l-.9-.67c-.03-.47.81-.11.9-.22Z"/>
      <path class="cls-6" d="M129.65,79.69c.81-23.56,1.08-51.29,0-74.76v74.76Z"/>
      <path class="cls-6" d="M129.65,3.14h-.45v-.45c.18.09.4.25.45.45Z"/>
      <path class="cls-10" d="M97.17,19.16c-.04.59.05,1.2,0,1.78-.01.16.04.33,0,.45l-.45.45c-.14.05-.34-.06-.45,0-2.52,1.48-3.03,2.37-3.56,5.34-.03.14.02.3,0,.45-.91-.13-1.02-.02-.89.89-1.12.89-6.14,15.04-6.55,17.26-1.21,6.41-.31,10.09,1.21,16.12.62,2.45,1.07,4.68,2.01,7.11,1.59,4.13,4.04,7.87,5.56,12.02h-.89c-.14-.16-.31-.29-.45-.45-.51-.57-.64-.63-.89-.89-5.15-5.39-12.7-12.12-19.58-15.13l-1.93-1.63c-1.36.29-1.74-1.02-1.85-1.05-.85-.2-.78.76-1.11.9-.28.11-.95-.08-1.34,0l-.27-.93c-.92-.59-1.39.04-1.51.04-.59,0-1.19-.02-1.78,0-.04-.41.24-.78-.28-.9-1.31-.31-3.6.23-5.06,0-.02.29.02.59,0,.89-.74.04-1.49-.05-2.23,0l-.45.45c-.14.03-.31-.03-.45,0-.73.17-.86.08-1.78.45-.2.08-.67.32-.89.45l-.25-.42c-1.46.33-2.63,1.27-3.76,2.2-.81.66-3.32,3.23-3.56,4.01-6.38-6.16-6.48-12.92-4.44-21.13.01-.43-.59-.2-.9-.23-.83-.1-1.03.32-.89-.89,3.97.69,2.22-1.34,2.67-1.79.13-.13,1.74.14,2.36,0,.43-.1,3.07-2.2,4.22-2.53.73-.21,1.94.03,2.26-.18.29-.19.27-1.49.56-1.67.38-.24,1.29.08,1.85-.06.37-.09.28-.8.62-.88.63-.14,1.39.12,2.04-.02.39-.08,1.14-1.66,1.54-1.75,2.76-.6,2.2-.82,4.48-1.67.99-.37,2.33-.25,3.39-1.03l.71-1.76c1.15-.53,1.33-.45,1.78-1.78.12-.37-.19-1.07.45-1.34.08.64-.43,2.09.65,1.77,1.2-.36,3.04-1.66,4.24-2.21.31-.14.59-.31.89-.45.93-.43,1.78-.91,2.67-1.34.3-.15.59-.3.89-.45,1.01-.48,2.55-.85,3.56-1.34.94.08,1.73.06,2.64-.25,3.98-1.35,7.49-3.8,11.26-5.09.62-.21.38-1.32.78-1.79.14-.03.3.02.45,0,.41-.06,2.15.42,2.67,0ZM62.45,44.09c-.83-.61-1.14,1.07-1.42,1.24-.51.3-1.56-.03-1.69.09-.29.26.44,1.84.33,2.39-.11.58-1.03.82-.77,1.61,2.36-.76,2.39,1.13,2.68,1.33.78.55,1.08-.89,1.47-1.19.43-.33,1.37-.13,1.6-.86.15-.45-.51-2.42.04-3.28-2.01.61-2.04-1.19-2.24-1.33Z"/>
      <path class="cls-10" d="M23.29,69c-.29.02-.59-.03-.89,0l.05,3.5c5.27,1.22,2.84-1.26,3.51-4.08.06-.24,1.49-.42.88-2.69-.15-.57-2.05.03.67-2.51-.52,2.55,2.46,2.6,2,4.61-.02.1-1.67.83-.89,1.62,1.01,1.02,1.69-1.25,1.79-1.33.17-.15,1.62,1.75,2.22.45.2.35.28.49.45.89.33.82,1.71,4.08,1.77,4.32.22.94-.08,2.22.01,3.25.08.86-.31,1.01.89.89.06.58-.08,1.21,0,1.78l-1.77,2.08v1.48c2.43-.21,1.64.09,1.77,2.02.06.85-.48,1.79.89,1.54,0,.3,0,.59,0,.89-1.41.2-3.22-.24-4.01,0-.71.22-.31,1.13-.45,1.34-.09.14-.35.26-.45.45-.05.1-.7.19-.79.7-.15.87.57,4.66,2.13,3.75.03.14-.02.3,0,.45.08.65-.13,2.99,0,3.12.47.45,2.47-1.32,1.78,2.67l2.22-.45c.24.34.29.63.45.89.31.53,1.41.64.89,2.22-1.03-.05-2.09.08-3.12,0-.15-.01-.3.02-.45,0l-2.12-1.74c-2.72-1.21-7.29-1.62-9.3-2.86-1.51-.93-.76-2.81.02-4.15.36-.61,1.99-1.38,2.28-1.94.37-.68.09-1.49.22-1.77.37-.3,1.78-1.59,1.9-1.65.57-.25,1.55-.05,1.65-.14.17-.15-.12-3.75.03-4.65.13-.78.92-1.31.92-2.25,0-1.22-1.54-3.42-1.81-4.13-.16-.42.1-1.29-.02-1.43-.08-.09-1.74,0-2.22,0-.15,0-.3,0-.45,0-.02-.37-.31-.62-.45-.89-.09-.19.28-.78-.28-.91-.98-.23-2.62.19-3.73.02v1.78c-1.51.42-.72-.21-2.22.89-.4-2.42-1.25-.74-2.09-.57-.55.11-1.02-.28-1.47-.32s-.95.08-1.34,0c-.18-.03-.35-.28-.45-.45.53-.93.3-1.11,1.34-1.34.36-.08,1.2.12,1.34,0,.11-.09-.1-.72,0-.89.02-.04.29.02.45,0,2.29-.29.91-.46,1.34-.89.07-.07.35.07.45,0,.16,2.53.77,1.84.89-.45,0-.15-.02-.3,0-.45,1.24.13.78-.07.89-.89.18-1.33-.14-1.69,1.22-2.65.26-.18.87.07,1-.02.67-.07.95.23.89.89-.14-.02-.3,0-.45,0ZM33.97,74.79c-1.65-.37-.63,2.17-.89,3.11,1.65.37.63-2.17.89-3.11ZM33.08,81.47h-.89v1.78h.89v-1.78Z"/>
      <path class="cls-5" d="M101.62,74.35c.12-.06.5.16.79-.12.27-.26-.26-.97.77-.78.4.07.13.48.39.72s.66.11.73.17c.38.33-.85.48,1.34.89.15.03.31-.04.45,0,.18,2,1.54-.57,2.23,2.67.33.08,1.2-.13,1.32.01.44.51-.42,1.59-.43,1.77-1.48.29-.68-.79-.89-1.78-1.02-.25-2.03-.59-3.12-.45-.04-1.12-.22-2.15-1.78-1.33.36,1.78-.64,1.98,1.78,1.78,0,.57-.08,1.26,0,1.78-2.66,1.2-2.77,2.43-2.67,5.14.03.85-.46,1.78.89,1.53,0,.14-.02.3,0,.45.11.87,2.04,2.55,2.85,3.37.22.23.89.2,1.12.44.68.7,1.09,2.82,2.27,2.86-.02.89.02,1.78,0,2.67-.92.09-2.15.34-1.78,1.33h1.78c.02-.44-.01-.89,0-1.33.44-.04.9.02,1.34,0l-.45,3.12c-.59,0-1.19,0-1.78,0-1.11,0-3.31-.23-4.16,0-.48.13-.25.86-.29.9-.88.66-6.52,1.37-8.13,1.79-.38.1-.3.79-.63.87-.83.2-1.92-.09-2.81,0l3.78-4.22.67-1.56c.14-.08.25-.35.45-.45.25-.12,1.16.18,1.31-.02.14-.18-.1-1.06.16-1.63.51-1.14,1.97,0,1.65-3.69-.04-.42.2-1.34-.23-1.34-1.41.6-2.21,1.05-3.78,1.34-.96.18-2.34-.04-2.67,0-.02-.38.35-.65.45-.89,1.24-1.16,1.63-1.27,1.78-3.12.02-.29.01-.6,0-.89.43-.87.76-2.59.89-3.56.02-.15-.02-.3,0-.45,1.56.33.62-1.17.9-2.36.02-.1.51-.65.88-1.64.05-.13-.05-.32,0-.45,2.68.28,1.37-.33,1.8-1.44.29-.74.43-.58.87-2.12Z"/>
      <path class="cls-1" d="M64.24,21.39c.15.02.55.48.89.45-.06.42.04.9,0,1.34-.98-.4-1.04,1.08-1.34,2.23-2,.16-6.88-.36-8.48.66-.69.44.33,2.67-.72,2.92-2.62.63-7.57-.4-10.38-.47l8.47-3.32c.93-.86.13-1.93-.01-2.9.46-.74,1.21-.84,1.99-.9,2.25-.18,7.49-.31,9.58.01Z"/>
      <path class="cls-12" d="M98.95,18.72c-.17-.01-.71-.68-1.5-.48-.47.12-.24.89-.28.92-.52.42-2.26-.06-2.67,0l20.7-10.22c.97.65,1,1.98-.06,2.6-4.49,1.41-10.53,5.96-14.77,7.06-.51.13-.91.15-1.42.11Z"/>
      <path class="cls-5" d="M25.07,64.55c1-1.19,1.57-3.37,3.56-3.11-1,3.75,2.58,4.57,4.01,7.12-.6,1.31-2.04-.59-2.22-.45-.09.08-.78,2.36-1.79,1.33-.78-.79.87-1.52.89-1.62.45-2.02-2.53-2.06-2-4.61-2.71,2.54-.82,1.94-.67,2.51.61,2.27-.82,2.45-.88,2.69-.67,2.83,1.76,5.31-3.51,4.08l-.05-3.5c.29-.02.59.02.89,0-1.63,5.9,5.61.59.45,0,.06-.66-.22-.96-.89-.89.09-.06-.08-.7,0-.89,1.57-.21,2.49-.82,2.23-2.67Z"/>
      <path class="cls-12" d="M64.24,33.4l-.71,1.76c-1.06.78-2.4.67-3.39,1.03-2.28.85-1.72,1.07-4.48,1.67-.39.09-1.15,1.67-1.54,1.75-.66.14-1.41-.12-2.04.02-.34.08-.25.78-.62.88-.56.14-1.48-.18-1.85.06-.28.18-.27,1.48-.56,1.67-.32.21-1.53-.03-2.26.18-1.15.34-3.79,2.43-4.22,2.53-.62.15-2.23-.12-2.36,0-.44.45,1.3,2.48-2.67,1.79-.14,1.21.06.79.89.89l-7.76,4.02c-.44.01-1.16-2.39.03-2.64,10.44-4.61,20.63-9.75,30.88-14.74.83-.4,2.06-.61,2.67-.89Z"/>
      <path class="cls-8" d="M47.32,65c-.16.13-.6,3.14-2.22,3.34-.28.91,1.31.91,1.37,1.37.15,1.09-1.92,2.36-.03,4.19-1.03-.13-1.74.84-2.67.9-.62.04-.58-1.2-1.78,1.34.39-1.05-1.27-.69-.89-1.55.3-.68,2.02-1.78,2.42-2.92.38-1.06.06-2.06.24-2.65.24-.78,2.75-3.34,3.56-4.01Z"/>
      <path class="cls-11" d="M64.24,15.6c.77,1.62,3.26,1.06,4.45,0-.09,1.29-.98,1.87-.45,3.11-.91-.14-.6-1.5-1.33-1.33v13.35c1.74.61,2.68-2.27,4.45-.89-1.2.56-3.04,1.86-4.24,2.21-1.08.32-.57-1.13-.65-1.77-.29-2.2-.78-1.69-.89-2.07-.45-1.61.8-1.46.88-1.79.21-.89.05-2.89,0-3.95-.03-.86.46-1.78-.89-1.54.09-.63.54-2.57.45-2.67-.1-.12-.75.1-.89,0-.5-.36-.85-2.04-.89-2.67Z"/>
      <path class="cls-12" d="M106.07,75.24c.88.23,4.35,1.68,4.7,2.23.37.58-.43,3.98-.9,4.46-1.49,1.51-4.2-1.14-6.02-.9.19,1.84-.44,3.51-.45,5.34-1.35.25-.86-.68-.89-1.53-.1-2.71,0-3.94,2.67-5.14.05.32-.22.95.27.9h4.19c.17-.12-.46-.76-.45-.9.01-.18.88-1.26.43-1.77-.12-.14-.99.07-1.32-.01-.68-3.24-2.05-.67-2.23-2.67Z"/>
      <path class="cls-16" d="M94.05,19.16c-.4.47-.16,1.58-.78,1.79-3.77,1.29-7.28,3.73-11.26,5.09-.91.31-1.7.33-2.64.25.5-.24,2.17-1.55,2.67-1.78,2.44-1.15,9.99-4.95,12.02-5.34Z"/>
      <path class="cls-5" d="M26.41,76.13c.49.01,2.14-.09,2.22,0,.12.14-.14,1.01.02,1.43.27.7,1.81,2.91,1.81,4.13,0,.94-.79,1.47-.92,2.25-.15.89.15,4.49-.03,4.65-.1.09-1.08-.12-1.65.14-.12.05-1.54,1.35-1.9,1.65.28-.65.71-.97.89-1.34l.45-.45c.49-1.02,1.54-3.07,1.78-4.01v-.45c-.05-1.79-.51-3.6-.89-5.34v-.45c-.07-.18.14-.59-.05-.83-.23-.29-1.6-.44-1.73-1.39Z"/>
      <path class="cls-16" d="M64.24,15.6c-.35-4.97,4.78-4.9,4.45,0-1.19,1.06-3.68,1.62-4.45,0Z"/>
      <path class="cls-8" d="M110.96,100.6c.32.01,1.79.72,1.34,1.34-1.76-.06-5.27-.57-6.23.89-.15,0-.3,0-.45,0-1.22-.38-2.78-.32-4.01,0s-.78.85-1.54.93c-1.3.15-1.72-.35-2.47-.49l2.67-1.34c.14-.03.3.03.45,0,.3.67.71.09.89-.45,2.82.24,6.69-.99,9.35-.89Z"/>
      <path class="cls-14" d="M25.07,64.55c.27,1.85-.65,2.46-2.23,2.67-.08.19.09.83,0,.89-.13.09-.74-.16-1,.02-1.37.96-1.04,1.32-1.22,2.65-1.23-.13-.78.06-.89.89-.02.14,0,.3,0,.45-.36.05-.61.24-.89.45-.1.07-.37-.07-.45,0-1.05-.02-1.54-.3-1.34.89-.15.02-.42-.04-.45,0-.9-.13-1.5-.12-1.34.89-1.04.23-.81.41-1.34,1.34h-.45c-.27-.75-.96-1.34-.89-2.22,2.11-.32,6.22-1.44,6.85-3.66.22-.79-.36-2,.24-2.37.78-.48,2.22-.08,3.14-.21.78-1.9,1.29-1.56,2.23-2.67Z"/>
      <path class="cls-16" d="M37.53,85.92c.07.51.41,1.04.45,1.34.02.15,0,.3,0,.45-.43.04-.91-.06-1.34,0,0-.3,0-.59,0-.89,0-2.87-.54-4.45-.89-7.12-.08-.57.06-1.2,0-1.78-.1-.84.33-1.02-.89-.89-.09-1.03.2-2.31-.01-3.25-.05-.24-1.43-3.5-1.77-4.32.69.29,1.08.83,1.43,1.46,1.65,2.95,2.53,11.31,3.02,15Z"/>
      <path class="cls-12" d="M97.17,97.04l-.67,1.56-3.78,4.22c.89-.1,1.98.19,2.81,0,.33-.08.24-.77.63-.87,1.61-.42,7.25-1.13,8.13-1.79,1.44-.3,4.82.82,4.45-.89.59,0,1.19,0,1.78,0h.89c-.12.46-.19.92-.45,1.34-2.66-.1-6.52,1.13-9.35.89-.52-.19-.84.44-.89.45-.14.03-.3-.03-.45,0-1.73.37-2.81.73-4.45,1.34-.77.28-2.71.68-3.12.89,0-2.25-3.78.77-.45.45-1.33.74-2.76,1.81-3.56,3.12-1.61.3-2.15-1.07-1.81-2.39.05-.18,2.64-1.72,3.14-2.06.95-.66,2.08-1.1,3.12-2,1.39-1.2,2.7-3.43,4-4.23Z"/>
      <path class="cls-16" d="M25.96,90.37c-.12.29.15,1.09-.22,1.77-.3.55-1.92,1.32-2.28,1.94-.78,1.33-1.53,3.22-.02,4.15,2.01,1.24,6.58,1.64,9.3,2.86l2.12,1.74c-1.28-.19-3.52-.93-4.9-1.34-1.51-.44-2.97-.77-4.45-1.34-.8-.31-1.02-1.26-3.12-1.34-.29-.01-.6,0-.89,0-1.48-3.71,1.8-6.3,4.45-8.46Z"/>
      <path class="cls-12" d="M14.39,78.35c-.22.11-.47.87-1.3,1.13-3.7,1.17-6.12-2.59-4.04-3.58,3.16-1.5.94,2.07,1.33,2.44,1.24.08,2.37-.65,3.37-1.33.41-.55-.1-.92-.26-1.34h.45c.1.17.27.41.45.45v2.23Z"/>
      <path class="cls-8" d="M43.32,76.57c-.07,2.02-.73,1.97-.89,2.9-.04.25.84.16.91.48.41,1.8-1.45,3-3.14,2.85-.05,0-.44-.62-.89-.45.49-1.29-.4-1.91,1.34-2.23.36-.06,1.18.14,1.31-.02.16-.18.16-3.09,1.36-3.54Z"/>
      <path class="cls-8" d="M86.49,61.88l1.75,2.12c1.1,1.88.75,3.17.9,4.71.03.31.83.24.91.58.19.8-.27,2.21.07,2.75.17.27,2.16.43,2.52,1.71.23.82-.07,1.71.1,2.49.03.13,1.71,1.86,1.74,1.99.2.85-.07,1.89.02,2.79-.13.03-.3,0-.45,0-1.51-4.15-3.96-7.89-5.56-12.02-.94-2.43-1.39-4.66-2.01-7.11Z"/>
      <path class="cls-5" d="M19.29,77.02c-1.26.92-2.24,2.28-4.01,1.78-.02-.14,0-.3,0-.45-.01-.76.27-1.5.45-2.23.45.04.92.43,1.47.32.84-.17,1.69-1.85,2.09.57Z"/>
      <path class="cls-16" d="M25.52,75.24c.14.27.43.52.45.89-4.37,0-5.34.93-8.57,3.57-.57.47-.2,1.6-1.47.45-.47-.43-.54-.76-.64-1.35,1.76.5,2.75-.86,4.01-1.78,1.5-1.1.71-.47,2.23-.89,1.21-.34,1.84-1.48,4.01-.89Z"/>
      <path class="cls-6" d="M65.13,23.17c-.03.29.05.63,0,.89-.22.04-.42.24-.45.45-.19,1.54-.38,3.35-.45,4.9-1.02,1.34.38,2.1-1.34,2.23.12-2.01.39-4.29.89-6.23.29-1.15.36-2.62,1.34-2.23Z"/>
      <path class="cls-11" d="M64.24,29.4c-.04.89.02,1.78,0,2.67l1.78-.44c-.45,1.33-.63,1.25-1.78,1.78-.61.28-1.84.49-2.67.89v-.6c.63-.43,1.2-.42.9-1.41-.12-.4-1.13.07-.9-.66.44-.03.89.03,1.33,0,1.72-.12.31-.88,1.34-2.23Z"/>
      <path class="cls-12" d="M96.28,21.83c-.59,1.92-1.99,4.11-3.56,5.34.53-2.97,1.04-3.86,3.56-5.34Z"/>
      <path class="cls-13" d="M94.05,81.02c.14,0,.31.03.45,0,.15-.03.32.04.45,0,.4,1.13.88,1.99,2.23,1.78-.13.97-.46,2.69-.89,3.56-.11-2.93-1.46-3.42-3.12-5.34h.89Z"/>
      <path class="cls-6" d="M43.76,74.79c-.4.55-.42,1.13-.45,1.78-1.2.45-1.2,3.36-1.36,3.54-.13.15-.96-.05-1.31.02-.05-.28.07-.66,0-.89,1.14-.52.64-2.09.89-2.67.05-.12.36-.26.45-.45,1.2-2.54,1.16-1.3,1.78-1.34Z"/>
      <path class="cls-14" d="M111.41,99.27h-.89l.45-3.12c-.44.02-.9-.04-1.34,0-.01.45.02.89,0,1.34h-1.78c-.37-1,.86-1.25,1.78-1.34.02-.89-.02-1.78,0-2.67v-.45c1.39,2.16,2.5,3.38,1.78,6.23Z"/>
      <path class="cls-13" d="M64.24,21.39c-2.09-.32-7.33-.19-9.58-.01-.79.06-1.53.16-1.99.9-.03-.21-.54-1.14.29-1.35,3.03-.77,8.51.95,11.72-.43-.07.28-.34.59-.45.89Z"/>
      <path class="cls-6" d="M40.2,82.8c-.38,1.27-1.42,2.65-1.34,4.01l-.89.45c-.03-.29-.38-.82-.45-1.34.96-.92,1.32-2.35,1.78-3.56.45-.17.84.44.89.45Z"/>
      <path class="cls-8" d="M97.17,82.36c-.02.15.02.3,0,.45-1.35.21-1.83-.65-2.23-1.78.2-.07,2.41-1.17,2.67-1.34-.63.83-.32,1.81-.45,2.67Z"/>
      <path class="cls-12" d="M104.29,74.35c.09.11,1.27.12,1.34.89-2.18-.41-.95-.56-1.34-.89-.06-.06-.47.06-.73-.17s.01-.65-.39-.72c-1.03-.19-.5.52-.77.78-.29.27-.66.05-.79.12-.45,1.55-.59,1.38-.87,2.12-.43,1.11.89,1.71-1.8,1.44.27-.67,1.51-3.2,1.88-3.47.29-.21.67-.03.79-.09.29-1,.44-2.1.9-3.11.68-.51,1.66,2.97,1.77,3.11Z"/>
      <path class="cls-12" d="M109.63,93.04v.45c-1.18-.04-1.59-2.15-2.27-2.86-.23-.24-.9-.22-1.12-.44-.8-.82-2.73-2.51-2.85-3.37,2.55,1.23,4.75,3.94,6.23,6.23Z"/>
      <path class="cls-8" d="M41.54,76.57c-.25.58.25,2.15-.89,2.67-.36-1.18-1.36-3.55.67-3.11l.22.44Z"/>
      <path class="cls-16" d="M98.95,18.72c-.06,1.06-.93,1.74-1.78,2.23.05-.58-.04-1.19,0-1.78.04-.03-.18-.8.28-.92.78-.2,1.33.46,1.5.48Z"/>
      <path class="cls-12" d="M98.95,78.35c-.37,1-.86,1.54-.88,1.64-.28,1.19.66,2.7-.9,2.36.12-.86-.18-1.84.45-2.67.26-.16.64-1.25,1.34-1.34Z"/>
      <path class="cls-11" d="M82.04,24.5c-.5.23-2.17,1.54-2.67,1.78-1.01.48-2.55.85-3.56,1.34-.43-2.23,1.27-.96,2.56-1.47.62-.24,1.17-2.68,3.67-1.65Z"/>
      <path class="cls-6" d="M65.13,18.27c.14.1.79-.11.89,0,.09.1-.36,2.03-.45,2.67-.04.26-.41.63-.45.89-.34.03-.74-.42-.89-.45.11-.3.37-.61.45-.89.04-.14-.04-.31,0-.45l.45-.89c.07-.22-.05-.61,0-.89Z"/>
      <path class="cls-14" d="M15.73,76.13c-.17.73-.46,1.46-.45,2.23-.26.06-.73-.09-.89,0v-2.23c.39.08.9-.04,1.34,0Z"/>
      <path class="cls-11" d="M74.92,28.06c-.89.43-1.74.9-2.67,1.34-.42-2.07,1.03-1.2,2.67-1.34Z"/>
      <path class="cls-12" d="M92.72,27.62c-.22,1.62-.5.58-.89.89-.13-.91-.02-1.02.89-.89Z"/>
      <path class="cls-11" d="M64.68,20.05c.16-.53.42-.83.45-.89l-.45.89Z"/>
      <path class="cls-12" d="M96.72,21.83l.45-.45c-.1.34-.14.33-.45.45Z"/>
      <path class="cls-10" d="M26.85,89.03c.09-.17.38-.31.45-.45l-.45.45Z"/>
      <path class="cls-10" d="M29.08,84.58s0-.37,0-.45v.45Z"/>
      <path class="cls-10" d="M28.19,78.8c-.11-.52,0-.42,0-.45v.45Z"/>
      <path class="cls-13" d="M105.18,118.85l-1.78-.89c1.05.14,1.07.38,1.78.89Z"/>
      <path class="cls-13" d="M32.19,89.03c1.79,1.22,3.47,2.66,5.28,3.85.86.57,5.18,2.63,5.34,2.89.11.18.11,1.22.06,1.27-.89.93-7.62-4.96-8.9-4,3.09,6.25,9.35,9.95,15.79,12.02l-.66-4.01c.37.1.95-.09,1.34,0l1.12,3.98c.62,1.16,2.99,1.1,4.22,1.36.35-1.38-1.4-3.74.67-3.12.6.18.9,3.22,1.19,3.49.34.31,4.93.75,5.26.52-.69-.95-.59-2.17-.89-3.11-.05-.14.05-.34,0-.45h1.34c-.28,4.61,2.65,4.18,6.23,4-.28-1.17-.28-2.39-.44-3.56l1.34.45c0,.72.1,1.15.45,1.78-.05,1.55-.28,1.23,1.09,1.34,1.25.1,2.55-.07,3.81,0,.22-.87-.43-1.8-.43-2.53,0-.67.43-.97.43-1.03.38,0,.63.32.89.45.2,3.08.65,3.13,3.56,2.23-.09.15.06.63,0,.89-.68.06-1.8.93-2.67.9.67,2.57,1.31,5.74,4.45,3.55l.45.89c-1.02.48-1.97,1.16-3.12,1.34l1.78,6.67c-1.57.1-1.57-2.91-2-4.02-.17-.45-.53-.63-.67-.87-.11-.2.28-.84-.26-.92-1.01-.16-2.88,1.29-4.19.92,0-.22-.36-.62-.45-.89.77.12,2.09-.28,2.67-.89.15-.02.42.04.45,0,2.03-.2.93-.94.89-1.34-.03-.29.06-.67,0-.89-.21-.72-.68-1.25-.89-1.78-.11-.28.16-1.15-.02-1.31-.32-.28-4.01.14-4.88-.03.5,1.74.77,3.62,1.33,5.34.05.14-.05.33,0,.45-.3.14-.59.3-.89.45-.89-1.25-1.23-4.87-2-5.79s-3.88-.24-5.13-.44l1.34,6.23c-.42-.06-.94.08-1.34,0-1.09-4.41-.98-7.8-6.67-6.67.39,1.15.54,3.5.89,4.45-.3.1-.61.37-.89.45.01-.4-.3-.62-.45-.89-.12-.21-.38-.72-.45-.89l-.45-1.78c-.04-.13.04-.31,0-.45-.6-1.95-2.32-2.08-4.23-2.23-1.34-.11.28,1.69-.22,2.23-.2-.08-.62.05-.89,0-.12-.39-1.17-2.74-1.34-2.89-.61-.52-5.14-1.71-6.52-2.38-2.15-1.05-4.02-3-6.37-3.64-.15-.26-.2-.55-.45-.89-1.28-1.79-2.95-3.34-4.01-5.34-.02-.15.03-.3,0-.45-.24-1.34-1.44-2.9-1.34-4.45.1-.19.35-.31.45-.45Z"/>
      <path class="cls-1" d="M90.05,108.61c-.41.76-.92,1.57-.94,2.47-.02.83.85.39.97,1.28.32,2.39-.77,3.81-.92,6.04.74-.16,1.48-.31,2.22-.44-1.88.83-4.32,2.29-6.14,2.98-2.1.8-8,2.95-9.88,3.25-.14-2.87,3.53-1.04,3.98-3,.53-2.33-1.5-2.56-.87-5.01.14.24.5.42.67.87.43,1.11.43,4.12,2,4.02l-1.78-6.67c1.15-.18,2.1-.86,3.12-1.34.2-.09.69.09.89,0,.19,1,1.13,6.78,2.67,5.34.22-.21-1.21-5.19-1.78-5.78.08-.08.03-.78.45-1.09.64-.48,1.51-.74,2.22-1.13.16.13.88,3.36,1.14,4,.29.71-.04,1.09,1.09.89.23-1.78-1.16-3.64-1.25-5.27-.05-.75.34-.83.37-.96l1.78-.45ZM83.12,116c-.24-.42-1.06-2.59-1.97-1.6s.86,1.96.88,2.08c.35,1.81-.22,3.51,2.67,3.25.44-1.19-.81-.71-.9-1.17-.29-1.61.19-1.07-.69-2.57Z"/>
      <path class="cls-9" d="M52.67,109.5c.25.1.6.7.89.89,0,.28-.05.65,0,.89.32,1.59,3.74,2.54,4.9,2.23.28-.08.59-.34.89-.45.66,1.79,4.12,1.91,5.79,2.23.4.08.91-.06,1.34,0,2.59.35,2.83,1.45,5.79,0,.3-.15.59-.3.89-.45.13.27.03.38.45.45.08.27.44.67.45.89.01.42-.41.64,0,1.78.11.95.06,1-.89.89-.16-.5-.08-2.11-.74-2.26l-5.05.48c-.15.15,1.12,5.11-.44,3.56-.3-.29-.8-3.4-.94-3.51-.21-.17-4.53-.44-5.29-.49l.89,3.56c-2.34.67-1.1-3.02-2.69-4.21-.38-.28-4.66-1.74-4.88-1.57l1.34,3.33c-1.97,1.28-1.69-3-2.65-4.36-.55-.78-2.02-.82-2.7-1.2l.3-.36,1.93-.09c.21-.6-.43-.84-.44-.89-.08-.4.1-1,0-1.34.27.05.69-.08.89,0Z"/>
      <path class="cls-13" d="M34.86,102.83c.14.02.3-.01.45,0,4.92,2.51,9.69,5.41,14.68,7.79.45.22,1.52,1.11,1.79.22,0,.05.65.29.44.89l-1.93.09-.3.36c-5.82-3.27-13.94-8.46-20.47-9.79,1.19.08,1.01.02.45-.89,1.38.4,3.61,1.15,4.9,1.34Z"/>
      <path class="cls-1" d="M49.1,118.85c.83.07,1.76-.23,2.55.14,2.44,1.16,4.07,1.9,6.94,2.53.2.05,3.07,1.72,3.28,1.77,3.69.83,7.8,1.16,11.71.9-7.22,2.55-17.97-1.76-24.48-5.34Z"/>
      <path class="cls-13" d="M74.03,117.96c.02.07.66.39.92,1.06,1.28,3.23-.52,3.89-1.81-.17.95.11,1,.06.89-.89Z"/>
      <path class="cls-1" d="M32.64,114.4c0-1.24,4.69-1.05,4.9-.89.07.05-.04.64,0,.89-1.62-.05-3.28-.03-4.9,0Z"/>
      <path class="cls-1" d="M37.98,114.4c2.27.1,2.8.19,4.74,1.04l1.93,1.63c-1.98-.43-4.88-1.64-6.68-2.67Z"/>
      <path class="cls-1" d="M45.1,117.07c.59.09,1.87-.2,2.19.05.18.14-.04.75.03.84-.84.02-1.74-.13-2.23-.89Z"/>
      <path class="cls-1" d="M30.86,114.4c-.55.6-1.45.79-2.23.89-.34-1.37,1.03-.84,2.23-.89Z"/>
      <path class="cls-1" d="M27.74,115.29c-.36.81-1.31.64-1.78.89-.28-1.42.82-.75,1.78-.89Z"/>
      <path class="cls-9" d="M101.62,102.83c1.2,1.25,3.2.02,4.01,0,.15,0,.3,0,.45,0,3.96-.16,5.63,1.46,8.9,2.67v.89c-5.5-1.82-14.74-2.25-20.27-.46-.57.19-4.4,1.72-4.58,1.89-.24.23-.01.68-.08.8l-1.78.45c.11-.46.19-.93.45-1.34.8-1.31,2.24-2.38,3.56-3.12.18-.1.31-.38.45-.45.41-.21,2.35-.61,3.12-.89.57.07,1.25-.1,1.78,0,.75.14,1.17.64,2.47.49.75-.09.29-.6,1.54-.93Z"/>
      <path class="cls-1" d="M93.61,117.51c-.46-2.25,1.55-1.04,2.81-1.34.36-.09.12-.81.94-.92.93-.12,5.93-.16,6.65.02.52.13.22.86.28.91-1.74-.37-3.26-.58-5.07-.4-1.95.19-4.17,1.55-5.61,1.73Z"/>
      <path class="cls-1" d="M92.72,117.51c-.14.45-.52.39-.89.45-.17-1.76.63-.48.89-.45Z"/>
      <path class="cls-13" d="M25.52,100.16l-3.11.44v-1.78c2.1.07,2.31,1.03,3.11,1.34Z"/>
      <path class="cls-8" d="M72.25,64.55c6.88,3.01,14.43,9.74,19.58,15.13-.14.85.04,1.04.89.89.14.16.31.29.45.45,1.65,1.92,3,2.42,3.12,5.34.01.29.02.6,0,.89-1.18-.32-1.34,2.04-1.78,3.12-.1.24-.47.51-.45.89-.73.09-4.7,1.56-4.9,1.78-1.13-3.15-4.36-3.64-7.23-2.54-1.01.39-1.86,1.62-1.99,1.64-3.03.61-5.19,1.09-8.34,1.37-1.22.11-2.76,1.85-3.36-.91.11-.64-.03-1.52,0-2.23s.02-1.49,0-2.23c-.12-5.2-.44-10.34-.45-15.58,0-2.41.38-5.42-.45-7.57.05-.59-.04-1.19,0-1.78,1.5.22,3.53.74,4.9,1.34Z"/>
      <path class="cls-8" d="M62.46,61.88c.59-.02,1.19,0,1.78,0l1.37,1.08c-.04,7.5-.08,15.01-.04,22.5-.74,1.04-.76,3.77,0,4.9,0,.3-.01.59,0,.89-1.08,4.61-1.78,1.85-4.44,1.51-1.85-.24-3.3-.29-5.35-.62-1.05-.17-1.57-.18-2.67-.45.51-2.04,1.33-4.83,1.35-6.89,0-.89-.06-.71-.9-.67.39,1.11-.31,1.99-.45,2.67-1.49.17-.69-.43-.58-1.25.3-2.14,1.03-2.41,1.03-2.56,0-.45-.53-1.09-.47-1.74.07-.88,1.06-1.2,1.26-1.87.26-.88.88-5.43.97-6.59.15-1.97-1.3-5.47,1.34-5.11-.07.97-1.09,2.89.44,3.56.02-2.35.36-4.84.89-7.12.12-.53.58-1.1.45-1.78,1.03-.05,2.52-.4,4.01-.45Z"/>
      <path class="cls-14" d="M67.35,62.77v.45c-.04.59.05,1.2,0,1.78,0,.09-.48.44-.47,1.08l.91,6.49c.01,5.23.32,10.38.45,15.58-.7.29-.7,1.93,0,2.23-.03.71.11,1.58,0,2.23-.26,1.51-1.33,1.52-2.67,1.34-.02-.59.02-1.19,0-1.78.74-.46.44-1.69.45-2.44.09-8.97-.04-17.98,0-26.93.38-.08,1.06.11,1.34,0Z"/>
      <path class="cls-13" d="M62.45,44.09c.2.14.23,1.95,2.24,1.33-.55.86.11,2.83-.04,3.28-.24.73-1.18.53-1.6.86-.39.3-.69,1.74-1.47,1.19-.28-.2-.32-2.09-2.68-1.33-.26-.79.66-1.04.77-1.61.11-.54-.62-2.12-.33-2.39.13-.12,1.18.2,1.69-.09.28-.17.59-1.85,1.42-1.24Z"/>
      <path class="cls-2" d="M65.57,20.94c1.35-.25.86.68.89,1.54.04,1.06.2,3.06,0,3.95-.08.34-1.33.18-.88,1.79.11.38.59-.13.89,2.07-.63.27-.32.96-.45,1.34l-1.78.44c.02-.88-.04-1.78,0-2.67.06-1.54.25-3.36.45-4.9.21-.06.4-.23.45-.45.05-.26-.03-.6,0-.89.04-.43-.06-.92,0-1.34.04-.26.41-.63.45-.89Z"/>
      <path class="cls-12" d="M64.24,61.88c.12,0,.6-.63,1.51-.04l.27.93c-.04,8.95.1,17.96,0,26.93,0,.75.28,1.98-.45,2.44,0-.3.01-.59,0-.89s0-.59,0-.89c-.04-1.63,0-3.27,0-4.9-.04-7.49,0-15,.04-22.5l-1.37-1.08Z"/>
      <path class="cls-8" d="M57.12,61.88c-.04.73.08,1.53,0,2.23-.08.63-.37,1.28-.45,2.23-1.56.32-.55-1.08-.96-1.7-.28-.43-2.96-1.17-3.62-1-.49.13-.46,1.15-1.02,1.32-.3.09-.59-.41-.62-.41l-.45-.88c.55.1.9-.21,1.34-.45.22-.12.69-.36.89-.45l1.78-.45c.14-.03.3.03.45,0,.14-.02.34-.44.45-.45.73-.05,1.49.04,2.23,0Z"/>
      <path class="cls-12" d="M57.12,61.88c.02-.3-.02-.59,0-.89,1.47.22,3.75-.32,5.06,0,.52.12.24.49.28.9-1.48.04-2.98.4-4.01.45-.53.03-1.17-.45-1.34-.45Z"/>
      <path class="cls-13" d="M51.33,63.22c-.44.24-.79.55-1.34.45l.45.88c-.53.07-2.99.35-3.12.45,1.13-.93,2.3-1.87,3.76-2.2l.25.42Z"/>
      <path class="cls-12" d="M67.35,62.77c.33-.13.26-1.1,1.11-.9.12.03.49,1.34,1.85,1.05l1.93,1.63c-1.36-.6-3.39-1.12-4.9-1.34v-.45Z"/>
      <path class="cls-13" d="M54,62.33l-1.78.45c.92-.37,1.06-.27,1.78-.45Z"/>
      <path class="cls-13" d="M91.83,79.69c.25.26.38.32.89.89-.85.15-1.03-.04-.89-.89Z"/>
      <path class="cls-13" d="M54.45,62.33l.45-.45c-.11,0-.31.42-.45.45Z"/>
      <path class="cls-16" d="M51.77,109.5c.1.34-.08.94,0,1.34-.27.89-1.33,0-1.79-.22-4.99-2.39-9.76-5.28-14.68-7.79,1.02.08,2.09-.05,3.12,0,.52-1.58-.59-1.7-.89-2.22,2.35.64,4.22,2.59,6.37,3.64,1.38.67,5.91,1.86,6.52,2.38.18.15,1.22,2.49,1.34,2.89Z"/>
      <path class="cls-5" d="M36.64,87.7c.42-.06.9.04,1.34,0,.03.57.04,1.21,0,1.78,0,.05-.72.59-.45.88.1.11,1.47.19,1.72.53.24.32-.02.91.06,1.26-1.83-.18-1.13-.7-1.66-.87-1.16-.38-1.72.41-2.73-1.31-.17-.29.01-.86-.06-.93-.28-.3-2.17,1.62-2.22-1.33.78-.24,2.6.2,4.01,0Z"/>
      <path class="cls-5" d="M39.31,92.15c1.43.14,3.27-.38,3.56,1.78-2.62-.06-2.98.76-3.56-1.78Z"/>
      <path class="cls-5" d="M35.75,79.69c.35,2.67.9,4.25.89,7.12-1.37.25-.83-.69-.89-1.54-.13-1.93.66-2.23-1.78-2.02v-1.48s1.78-2.08,1.78-2.08Z"/>
      <path class="cls-13" d="M23.29,69c.14,0,.31-.02.45,0,5.16.59-2.08,5.9-.45,0Z"/>
      <path class="cls-16" d="M33.08,93.93c-1.56.91-2.28-2.88-2.13-3.75.09-.51.74-.6.79-.7-.1,1.55,1.09,3.11,1.34,4.45Z"/>
      <path class="cls-5" d="M21.51,76.13v-1.78c1.11.18,2.75-.25,3.73-.02.55.13.18.72.28.91-2.16-.59-2.79.55-4.01.89Z"/>
      <path class="cls-16" d="M37.09,99.71l-2.22.45c.68-3.99-1.32-2.21-1.78-2.67-.13-.12.09-2.47,0-3.12,1.06,2,2.73,3.55,4.01,5.34Z"/>
      <path class="cls-5" d="M33.97,74.79c-.25.94.77,3.48-.89,3.11.25-.94-.77-3.48.89-3.11Z"/>
      <path class="cls-5" d="M19.73,72.12c-.12,2.29-.73,2.98-.89.45.28-.21.53-.4.89-.45Z"/>
      <rect class="cls-5" x="32.2" y="81.47" width=".89" height="1.78"/>
      <path class="cls-5" d="M18.4,72.57c-.43.43.96.6-1.34.89-.21-1.19.28-.91,1.34-.89Z"/>
      <path class="cls-5" d="M16.62,73.46c-.1.17.11.8,0,.89-.14.12-.98-.08-1.34,0-.16-1.01.44-1.02,1.34-.89Z"/>
      <path class="cls-16" d="M32.64,87.7c.05,2.95,1.94,1.04,2.22,1.33.07.07-.11.65.06.93,1.02,1.72,1.58.93,2.73,1.31.53.18-.17.69,1.66.87.58,2.54.94,1.72,3.56,1.78-.29-2.16-2.12-1.64-3.56-1.78-.08-.35.18-.93-.06-1.26-.25-.34-1.62-.42-1.72-.53-.27-.3.44-.84.45-.88.39.29.94.28,1.34.45.26.11.6.31.89.45,1.17.56,2.38,1.22,3.56,1.78-.12.32.01,1.15.45,1.34-2.02,3.48.94,6.13,4.01,7.12.17.06.4.32.89.45l.66,4.01c-6.44-2.07-12.7-5.77-15.79-12.02,1.28-.96,8.01,4.93,8.9,4,.05-.05.06-1.09-.06-1.27-.16-.26-4.48-2.32-5.34-2.89-1.8-1.19-3.49-2.63-5.28-3.85.13-.2-.27-1.11.45-1.34Z"/>
      <path class="cls-5" d="M34.86,77.02c1.22-.13.79.05.89.89-1.2.12-.81-.03-.89-.89Z"/>
      <path class="cls-5" d="M20.62,70.78c-.11.82.35,1.02-.89.89.11-.83-.34-1.02.89-.89Z"/>
      <path class="cls-13" d="M96.72,91.26c1.56-.29,2.37-.74,3.78-1.34.43,0,.19.92.23,1.34l-3.12,5.34c-.19.09-.31.36-.45.45-1.3.8-2.61,3.03-4,4.23-1.04.9-2.17,1.33-3.12,2l-.89-.45c1.9-1.29,7.82-7.1,8.45-9.13.19-.61-.05-.8-.65-.65-.86,1.13-5.56,2.17-6.02,2.66h-.89c.07-1.45,4.15-2.65,5.46-3.24.66-.3,1.46-.06,1.22-1.21Z"/>
      <path class="cls-12" d="M90.94,95.71c-.07.08.14.66-.05.85-.37.36-.79-.4-.84-.41.22.11.51-.14.45-.45h.45Z"/>
      <path class="cls-12" d="M94.05,91.26c.33-.04,1.71.18,2.67,0,.24,1.15-.56.91-1.22,1.21-1.31.59-5.39,1.8-5.46,3.24,0,.14-.02.44,0,.45-.27-.05-.6.04-.89,0h-.45c.11-.52-.12-1.27,0-1.78.03-.12.4-1.28.45-1.34.2-.22,4.17-1.69,4.9-1.78Z"/>
      <path class="cls-4" d="M108.29,77.91c.21.99-.59,2.07.89,1.78-.01.14.62.78.45.89h-4.19c-.49.06-.22-.57-.27-.89-.08-.52,0-1.21,0-1.78,0-.15,0-.3,0-.45,1.08-.14,2.09.2,3.12.45Z"/>
      <path class="cls-12" d="M100.73,91.26c.32,3.69-1.14,2.54-1.65,3.69-.25.57-.02,1.45-.16,1.63-.15.2-1.06-.09-1.31.02l3.12-5.34Z"/>
      <path class="cls-14" d="M108.74,99.27c.37,1.71-3.01.59-4.45.89.04-.03-.18-.77.29-.9.84-.22,3.05,0,4.16,0Z"/>
      <path class="cls-12" d="M105.18,77.91c-2.42.21-1.42,0-1.78-1.78,1.56-.82,1.74.21,1.78,1.33,0,.15,0,.3,0,.45Z"/>
      <path class="cls-13" d="M96.28,87.25c-.15,1.84-.54,1.95-1.78,3.12.44-1.08.6-3.44,1.78-3.12Z"/>
      <path class="cls-7" d="M50.44,64.55s.33.5.62.41c.56-.17.54-1.19,1.02-1.32.66-.17,3.34.57,3.62,1,.41.62-.59,2.02.96,1.7-.04.44.03.89,0,1.34-2.65-.36-1.19,3.15-1.34,5.11-.09,1.16-.7,5.71-.97,6.59-.2.68-1.19.99-1.26,1.87-.05.65.48,1.29.47,1.74,0,.15-.73.43-1.03,2.56-.12.82-.91,1.42.58,1.25-.3,1.46-.57,2.94-.45,4.45l-.45.45c-.29-.07-.6-.36-.89-.45-.62-1.46-1-2.76-2.91-2.62-1.38.1-2.03,1.66-2.3,1.72-1.64.36-4.14-.23-5.92.01-.29-.14-.63-.33-.89-.45.46-1.06-.41-2.58-.45-3.12-.08-1.35.96-2.74,1.34-4.01,1.69.15,3.55-1.05,3.14-2.85-.07-.31-.96-.23-.91-.48.16-.93.82-.88.89-2.9.02-.65.05-1.23.45-1.78.93-.06,1.64-1.03,2.67-.9-1.89-1.82.19-3.1.03-4.19-.06-.46-1.65-.46-1.37-1.37,1.62-.2,2.06-3.21,2.22-3.34.12-.1,2.59-.38,3.12-.45Z"/>
      <path class="cls-13" d="M105.62,102.83c-.8.02-2.8,1.25-4.01,0,1.22-.32,2.78-.38,4.01,0Z"/>
      <path class="cls-13" d="M100.28,101.94l-2.67,1.34c-.53-.1-1.21.07-1.78,0,1.64-.61,2.72-.96,4.45-1.34Z"/>
      <path class="cls-13" d="M101.62,101.49c-.18.53-.59,1.11-.89.45.05,0,.37-.63.89-.45Z"/>
      <path class="cls-8" d="M39.31,89.92c-.39-.17-.94-.16-1.34-.45.04-.57.03-1.21,0-1.78,0-.15.02-.3,0-.45l.89-.45c.03.53.91,2.05.45,3.12Z"/>
      <path class="cls-11" d="M64.68,24.5c.03-.21.23-.4.45-.45-.04.21-.24.38-.45.45Z"/>
      <path class="cls-11" d="M85.6,101.94c-.15,1.44.16,2.72,1.77,2,.27-.12.35-.61.45-.66.34-.17.91-.15,1.34-.45l.89.45c-.5.35-3.1,1.88-3.14,2.06-.34,1.31.19,2.69,1.81,2.39-.25.41-.34.88-.45,1.34-.03.13-.41.21-.37.96.1,1.63,1.49,3.49,1.25,5.27-1.13.2-.8-.17-1.09-.89-.26-.65-.98-3.88-1.14-4-.7.39-1.58.65-2.22,1.13-.42.32-.37,1.02-.45,1.09-.04.03-.73.37-.89.45-.2.09-.69-.09-.89,0l-.45-.89c1.5-1.05.22-4.64-1.78-4.45.06-.26-.09-.74,0-.89.1-.18.84-.21.86-1.06.02-.68-.81-2.38-.39-2.93.11-.14.67.06.86-.01-.05,1.07.67,1.29.89,1.78.12.26-.09.95,0,1.34,2.84-.71,3.18-.88,1.78-3.56.48-.54.68-.46,1.34-.45ZM83.37,110.84c5.64-1.11,1.65-6.69-.26-3.56-.35.57.61,2.64.26,3.56Z"/>
      <path class="cls-16" d="M51.33,101.05c1.61.31,2.99,1.38,4.9.89-1.13-2.38,2.12.46,2.66.7.64.27,1.43.06,1.79.2.33.12,1.18.58,1.34.89-1.48,0-2.97,0-4.45,0-.05,2.48,3.87,2.7,4.45.44.3.95.2,2.16.89,3.11-.33.23-4.92-.22-5.26-.52-.3-.26-.6-3.31-1.19-3.49-2.07-.62-.32,1.74-.67,3.12-1.22-.25-3.6-.2-4.22-1.36l-1.12-3.98c.26.06.62-.05.89,0Z"/>
      <path class="cls-14" d="M72.25,115.29c-2.95,1.45-3.19.35-5.79,0l-1.34-6.23c1.25.2,4.35-.49,5.13.44s1.11,4.54,2,5.79Z"/>
      <path class="cls-14" d="M65.13,115.29c-1.66-.32-5.13-.43-5.79-2.23-.35-.95-.5-3.3-.89-4.45,5.69-1.13,5.58,2.27,6.67,6.67Z"/>
      <path class="cls-5" d="M73.14,114.4c-.57-1.72-.83-3.59-1.33-5.34.87.16,4.56-.25,4.88.03.18.16-.09,1.03.02,1.31-.08.78.07,1.55.89,1.78.06.22-.03.6,0,.89v.89c-1.36-.89-.68.1-.89.44-.02.04-.29-.02-.45,0-.98.12-2.11-.08-3.12,0Z"/>
      <path class="cls-14" d="M64.24,102.83c1.39,1.17,2.8,1.24,4.45.45.04.47.43.79.45.89.16,1.16.16,2.39.44,3.56-3.58.18-6.51.61-6.23-4,.05-.89-.27-1.01.89-.89Z"/>
      <path class="cls-16" d="M82.04,112.17c-3.14,2.19-3.78-.98-4.45-3.55.87.03,1.99-.84,2.67-.9,2-.19,3.28,3.4,1.78,4.45Z"/>
      <path class="cls-12" d="M68.69,101.05c2.3,3.12,4.01,2.01,7.12,1.78.05-.26-.04-.6,0-.89l.45-.45c2,.78,3.81,1.09,5.79,0-.05.28.07.67,0,.89-.37-.1-.38.42-.45.45-.2.08-.75-.13-.86.01-.43.55.41,2.25.39,2.93-.02.85-.76.89-.86,1.06-2.91.9-3.36.86-3.56-2.23,1.55.74,1.24,1.53,3.56.89-.2-1.14-.86-3.37-2.23-2.66l-.22.89c-.4-1.18-.84-.98-2-.9-.08.37.02.91,0,1.34,0,.06-.42.36-.43,1.03,0,.73.65,1.66.43,2.53-1.25-.06-2.55.1-3.81,0-1.37-.11-1.14.22-1.09-1.34.86,1.58,2.41.71,4.01.89.74-3.06-1.8-3.86-4.46-3.56,0,.3,0,.59,0,.89l-1.34-.45c-.01-.1-.4-.42-.45-.89-.03-.29.01-1.27,0-1.78,0-.15,0-.3,0-.45Z"/>
      <path class="cls-12" d="M48.21,100.6c1.02-.31.87-1.15.91-1.98.14-2.62-.42-.83-1.52-1.6-1.62-1.13-.11-2.91,1.26-2.67.3.05-.12,1.44,1.56.47-.53,2.49-.05,3.96.89,6.23-.27-.05-.63.06-.89,0-.39-.09-.97.1-1.34,0-.49-.13-.72-.39-.89-.45Z"/>
      <path class="cls-5" d="M70.47,104.61c0-.3-.01-.59,0-.89,2.65-.3,5.2.5,4.46,3.56-1.59-.18-3.15.69-4.01-.89-.34-.63-.44-1.06-.45-1.78Z"/>
      <path class="cls-4" d="M53.56,110.39c.05-1.68.3-1.17,1.56-2.22.37,1.06,1.06.98,2,1.33.04.14-.04.31,0,.45.15.46.14.95.45,1.78.06.17.33.68.45.89-1.42.62-1.82-.79-2.07-.85-.44-.12-1.64.42-2.38-.48-.05-.24,0-.61,0-.89Z"/>
      <path class="cls-4" d="M75.81,102.83c1.17-.09,1.61-.28,2,.9l.22-.89c1.37-.7,2.03,1.53,2.23,2.66-2.32.64-2.01-.15-3.56-.89-.27-.13-.51-.44-.89-.45.02-.43-.08-.96,0-1.34Z"/>
      <path class="cls-4" d="M62.01,103.72c.05.11-.05.3,0,.45-.58,2.26-4.5,2.04-4.45-.44,1.48,0,2.97,0,4.45,0Z"/>
      <path class="cls-3" d="M62.46,100.16c.11.54,1.35,2.31,1.78,2.67-1.16-.12-.84,0-.89.89h-1.34c-.15-.31-1-.77-1.34-.89l1.34-.46-.45-2.21c.24.07.61-.04.89,0Z"/>
      <path class="cls-12" d="M57.12,109.5c-.93-.35-1.63-.27-2-1.33-1.27,1.05-1.51.55-1.56,2.22-.29-.19-.64-.79-.89-.89.5-.54-1.12-2.34.22-2.23,1.91.15,3.63.28,4.23,2.23Z"/>
      <path class="cls-12" d="M53.56,111.28c.74.91,1.94.37,2.38.48.25.06.65,1.48,2.07.85.15.27.46.49.45.89-1.15.31-4.57-.63-4.9-2.23Z"/>
      <path class="cls-3" d="M76.25,114.4c-.58.61-1.9,1.01-2.67.89-.42-.06-.31-.18-.45-.45-.05-.11.05-.3,0-.45,1.01-.08,2.14.12,3.12,0Z"/>
      <path class="cls-12" d="M57.56,111.73c-.3-.83-.29-1.32-.45-1.78l.45,1.78Z"/>
      <path class="cls-3" d="M77.59,112.17c-.82-.23-.97-1-.89-1.78.21.53.68,1.07.89,1.78Z"/>
      <path class="cls-3" d="M76.7,114.4c.21-.35-.47-1.33.89-.44v-.89c.04.4,1.15,1.13-.89,1.34Z"/>
      <path class="cls-15" d="M83.12,116c.88,1.49.39.96.69,2.57.08.47,1.34-.02.9,1.17-2.9.26-2.32-1.44-2.67-3.25-.02-.12-1.78-1.1-.88-2.08s1.73,1.18,1.97,1.6Z"/>
      <path class="cls-13" d="M84.26,112.62c.57.6,2,5.58,1.78,5.78-1.54,1.44-2.48-4.34-2.67-5.34.16-.08.85-.41.89-.45Z"/>
      <path class="cls-5" d="M92.27,104.61c-3.33.33.44-2.69.45-.45-.14.07-.27.35-.45.45Z"/>
      <path class="cls-3" d="M89.16,93.04c-.05.05-.42,1.21-.45,1.34-1.57-5.63-9.4-3.97-8.9,1.78-.28.04-.65-.07-.89,0l.44-3.11c-2.59-.09-4.53,1.98-4.89,4.45-.3.01-.6-.02-.89,0l.89-3.11c-2.21-.5-5.34.7-5.79,3.11h-.45c-.15,0-.3,0-.45,0l1.33-2.66c-2.44-1.16-6.07-.19-6.67,2.66-.33.05-.77-.43-.89-.45l1.33-2.67c-2.92-1.14-4.6-.25-6.67,1.77l-.45-.45c.14-.13.2-.73.43-1.02.39-.48,1.16-.06.91-.98-.55-.11-1.25-1.09-1.34-1.12v-.45c2.05.32,3.5.38,5.35.62,2.66.34,3.36,3.1,4.44-1.51.01.3,0,.59,0,.89.02.59-.02,1.19,0,1.78,1.34.19,2.42.17,2.67-1.34.6,2.76,2.14,1.02,3.36.91,3.16-.28,5.32-.75,8.34-1.37.13-.03.97-1.26,1.99-1.64,2.87-1.09,6.09-.61,7.23,2.54Z"/>
      <path class="cls-12" d="M67.8,72.57l-.91-6.49c0-.63.46-.98.47-1.08.82,2.15.44,5.15.45,7.57Z"/>
      <path class="cls-3" d="M68.24,90.37c-.7-.29-.7-1.93,0-2.23.02.73.03,1.49,0,2.23Z"/>
      <path class="cls-12" d="M51.33,91.26c.29.08.6.37.89.45.14.03.31-.04.45,0s.3-.03.45,0c1.1.26,1.62.28,2.67.45v.45c-1.66-.47-3.98,1.2-4.45.89-.06-.04.6-.51-.24-1.27-1.99-1.8-5.66-.84-6.88,1.27-.43-.18-.57-1.01-.45-1.34.14-.38,2.73-1.66,3.37-1.75,2.25-.34,2.59.41,4.2.86Z"/>
      <path class="cls-6" d="M53.11,86.81c.14-.68.83-1.56.45-2.67.84-.04.91-.21.9.67-.02,2.06-.84,4.85-1.35,6.89-.14-.03-.31.04-.45,0v-.45c-.12-1.51.14-2.99.45-4.45Z"/>
      <path class="cls-6" d="M58.01,64.11c-.53,2.28-.87,4.77-.89,7.12-1.54-.67-.51-2.59-.44-3.56.03-.44-.04-.9,0-1.34.08-.95.37-1.59.45-2.23h.89Z"/>
      <path class="cls-13" d="M58.45,62.33c.14.68-.32,1.25-.45,1.78h-.89c.08-.69-.04-1.5,0-2.23.17,0,.81.47,1.34.45Z"/>
      <path class="cls-3" d="M65.57,90.37c-.76-1.13-.74-3.85,0-4.9,0,1.63-.04,3.27,0,4.9Z"/>
      <path class="cls-14" d="M90.94,95.71c.46-.49,5.16-1.53,6.02-2.66.6-.14.84.04.65.65-.63,2.03-6.55,7.84-8.45,9.13-.43.29-1,.27-1.34.45-.94-.23-1.24-1.32-2.23-1.34-.66-.01-.86-.09-1.34.45-1.07,1.2.47,2.65-1.78,2.23-.22-.49-.94-.71-.89-1.78,0-.03.3-.01.45-.45.07-.22-.05-.61,0-.89.03-.02.44-.41.45-.45.54,1.31,1.84,1.33.88,0,.96.05,1.58.22,1.34-.89.42-.05,1.02.1,1.34,0,.94.09,1.56.19,1.34-.89.31-.27.32-.73.45-.89l.89-.89c.08-.2-.05-.61,0-.89l.45-.45c.29.04.62-.05.89,0,.05,0,.47.77.84.41.19-.19-.02-.77.05-.85Z"/>
      <path class="cls-14" d="M90.05,96.15s0-.3,0-.45h.45c.07.3-.23.55-.45.45Z"/>
      <path class="cls-11" d="M79.81,96.15c-.5-5.75,7.33-7.41,8.9-1.78-.12.51.11,1.26,0,1.78-.03.14.03.3,0,.45-.05.28.08.69,0,.89-.02.06-.59.52-.89.89-.13.16-.13.62-.45.89-.06.05-.55.04-.89.23-.3.17-.41.65-.45.66-.32.1-.92-.05-1.34,0-.86.1-1.8-.08-2.67,0-.16.09.45.74.45.89,0,.03-.42.43-.45.45-1.98,1.09-3.79.78-5.79,0-.2-.68-1.09-1.29-1.34-1.78-.08-.17.06-.62,0-.89-.04-.2-.25-.38-.45-.45-.04-.21-.03-.66,0-.89.36-2.47,2.31-4.54,4.89-4.45l-.44,3.11c-2.63.73-1.07,3.63,1.78,2.67.01-1.03-.79-1.59-.89-2.67ZM85.53,94.44c-.62-1-3.34-.1-2.4,1.71.98,1.9,3.54.13,2.4-1.71Z"/>
      <path class="cls-3" d="M88.71,96.6c.03-.14-.03-.3,0-.45h.45l-.45.45Z"/>
      <path class="cls-8" d="M40.2,90.37c1.78-.24,4.27.34,5.92-.01.28-.06.92-1.61,2.3-1.72,1.91-.14,2.29,1.16,2.91,2.62-1.61-.46-1.95-1.2-4.2-.86-.64.1-3.23,1.37-3.37,1.75-1.18-.56-2.39-1.22-3.56-1.78Z"/>
      <path class="cls-8" d="M52.67,91.7c-.14-.04-.31.03-.45,0l.45-.45v.45Z"/>
      <path class="cls-11" d="M44.21,93.48c1.22-2.11,4.88-3.07,6.88-1.27.84.76.18,1.22.24,1.27.47.31,2.79-1.36,4.45-.89.08.02.79,1,1.34,1.12.26.92-.52.5-.91.98-.24.29-.29.89-.43,1.02-.82.75-2.13.21-2.26,1.56-.15,1.6,1.74,1.45,1.82,2.89l.88-4c2.07-2.03,3.75-2.91,6.67-1.77l-1.33,2.67c-.27-.02-.63-.04-.89,0l-.89.45c-1.46,1.51.41,2.3,1.78,2.67l.45,2.21-1.34.46c-.36-.13-1.15.07-1.79-.2-.54-.23-3.79-3.08-2.66-.7-1.91.5-3.29-.58-4.9-.89-.94-2.26-1.42-3.74-.89-6.23-1.68.97-1.26-.42-1.56-.47-1.38-.24-2.88,1.54-1.26,2.67,1.1.77,1.66-1.03,1.52,1.6-.05.83.1,1.67-.91,1.98-3.06-.99-6.02-3.64-4.01-7.12Z"/>
      <path class="cls-12" d="M83.37,110.84c.35-.92-.61-2.98-.26-3.56,1.9-3.13,5.89,2.45.26,3.56Z"/>
      <path class="cls-16" d="M84.26,102.38c1.4,2.68,1.06,2.85-1.78,3.56-.09-.39.11-1.07,0-1.34,2.25.42.71-1.02,1.78-2.23Z"/>
      <path class="cls-16" d="M85.6,101.94c.98.02,1.29,1.1,2.23,1.34-.1.05-.18.55-.45.66-1.62.72-1.92-.56-1.77-2Z"/>
      <path class="cls-11" d="M62.46,97.49c.61-2.85,4.24-3.82,6.67-2.66l-1.33,2.66c-3.52.18-2.93,2.9,0,2.67-.07.67.26,1.14.89,1.34.01.51-.03,1.49,0,1.78-1.65.8-3.06.73-4.45-.45-.43-.36-1.67-2.13-1.78-2.67-.09-.45-.09-2.22,0-2.67Z"/>
      <path class="cls-11" d="M68.69,97.49c.45-2.41,3.57-3.61,5.79-3.11l-.89,3.11c-.92.07-1.69-.08-1.81,1.12-.19,1.83,1,1.27,1.81,1.55,1.44.5.92.99,2.23,1.78-.04.29.05.63,0,.89-3.11.23-4.82,1.34-7.12-1.78,0-1.05-.17-2.64,0-3.56Z"/>
      <path class="cls-3" d="M74.92,99.71c.24.49,1.13,1.1,1.34,1.78l-.45.45c-1.3-.79-.78-1.28-2.23-1.78l1.34-.45Z"/>
      <path class="cls-16" d="M81.59,102.83c.06-.02.07-.55.45-.45-.14.43-.44.41-.45.45Z"/>
      <path class="cls-6" d="M68.69,101.05c0,.15,0,.3,0,.45-.63-.2-.96-.66-.89-1.34.05-.52.89-1.7.45-2.67h.45c-.17.92,0,2.51,0,3.56Z"/>
      <path class="cls-16" d="M61.57,97.04c.12.01.56.49.89.45-.09.45-.09,2.22,0,2.67-.28-.04-.65.07-.89,0-1.37-.37-3.24-1.16-1.78-2.67.03-.04.84-.44.89-.45.26-.04.62-.02.89,0Z"/>
      <path class="cls-16" d="M56.23,96.15l-.88,4c-.08-1.43-1.97-1.29-1.82-2.89.13-1.35,1.44-.81,2.26-1.56l.45.45Z"/>
      <path class="cls-16" d="M73.58,97.49c.29-.02.59.01.89,0-.03.23-.04.68,0,.89s.23.38.45.45c.06.27-.08.72,0,.89l-1.34.45c-.81-.28-1.99.28-1.81-1.55.12-1.2.89-1.05,1.81-1.12Z"/>
      <path class="cls-16" d="M67.8,97.49c.15,0,.3,0,.45,0,.44.97-.39,2.15-.45,2.67-2.93.23-3.52-2.49,0-2.67Z"/>
      <path class="cls-16" d="M79.81,96.15c.09,1.08.9,1.64.89,2.67-2.85.96-4.41-1.94-1.78-2.67.24-.07.61.04.89,0Z"/>
      <path class="cls-16" d="M84.71,100.16c.24,1.11-.39.94-1.34.89.96,1.33-.34,1.31-.88,0,0-.14-.61-.79-.45-.89.87-.08,1.82.09,2.67,0Z"/>
      <path class="cls-16" d="M87.38,99.27c.22,1.08-.39.98-1.34.89.04-.01.15-.49.45-.66.33-.19.83-.18.89-.23Z"/>
      <path class="cls-12" d="M87.82,98.38c.3-.37.87-.83.89-.89l-.89.89Z"/>
      <path class="cls-12" d="M85.53,94.44c1.13,1.84-1.42,3.6-2.4,1.71s1.78-2.71,2.4-1.71Z"/>
      <path class="cls-3" d="M74.92,98.82c-.21-.06-.4-.23-.45-.45.2.07.4.25.45.45Z"/>
      <path class="cls-3" d="M60.68,97.04s-.86.41-.89.45l.89-.45Z"/>
    </g>
  </g>
</svg>