<?xml version="1.0" encoding="UTF-8"?>
<svg id="Layer_2" data-name="Layer 2" xmlns="http://www.w3.org/2000/svg" xmlns:xlink="http://www.w3.org/1999/xlink" viewBox="0 0 204 204">
  <defs>
    <style>
      .cls-1 {
        fill: none;
      }

      .cls-2 {
        fill: #3f2a71;
      }

      .cls-3 {
        fill: #7f3f98;
      }

      .cls-4 {
        clip-path: url(#clippath-1);
      }

      .cls-5 {
        clip-path: url(#clippath-3);
      }

      .cls-6 {
        clip-path: url(#clippath-2);
      }

      .cls-7 {
        fill: #fff;
      }

      .cls-8 {
        clip-path: url(#clippath);
      }
    </style>
    <clipPath id="clippath">
      <rect class="cls-1" width="204" height="204"/>
    </clipPath>
    <clipPath id="clippath-1">
      <rect class="cls-1" y="0" width="204" height="204"/>
    </clipPath>
    <clipPath id="clippath-2">
      <rect class="cls-1" x="3.54" y="143.86" width="196.92" height="42.21"/>
    </clipPath>
    <clipPath id="clippath-3">
      <rect class="cls-1" y="0" width="204" height="204"/>
    </clipPath>
  </defs>
  <g id="Layer_1-2" data-name="Layer 1">
    <g class="cls-8">
      <g class="cls-4">
        <path class="cls-2" d="M45.85,46.02c-.22.24-.23.52-.27.78-.42,2.48-.85,4.96-1.21,7.46-.38,2.58-.65,5.17-.87,7.77-.21,2.47-.37,4.94-.45,7.41-.12,3.7-.12,7.4.05,11.1.12,2.58.3,5.16.55,7.74.26,2.64.59,5.27,1,7.89.64,4.05,1.47,8.07,2.52,12.03,2.3,8.73,5.61,17.05,10.05,24.91,3.83,6.77,8.42,12.97,13.9,18.5,6.52,6.56,13.97,11.83,22.26,15.91,2.26,1.11,4.57,2.12,6.91,3.05.5.2,1.01.33,1.56.31.43-.02.83-.15,1.22-.31,1.56-.66,3.13-1.29,4.67-1.99,7.14-3.25,13.73-7.39,19.7-12.5,6.28-5.38,11.59-11.59,16.04-18.55,5.53-8.65,9.58-17.95,12.33-27.83,2.02-7.26,3.28-14.65,3.98-22.14.25-2.64.42-5.29.52-7.94.12-3.34.13-6.69.01-10.03-.09-2.56-.22-5.12-.48-7.67-.23-2.26-.45-4.52-.73-6.78-.37-2.96-.87-5.91-1.43-8.84-.02-.13-.06-.25-.11-.41-.22.06-.41.11-.59.18-.69.26-1.37.54-2.06.8-3.27,1.23-6.65,2.01-10.13,2.33-1.91.17-3.83.21-5.75.08-2.32-.16-4.61-.5-6.86-1.05-5.51-1.36-10.61-3.64-15.32-6.8-4.46-2.99-8.33-6.63-11.74-10.77-1.05-1.27-2.02-2.61-3.03-3.91-.13-.17-.22-.38-.43-.48-.05.04-.1.05-.12.09-.31.41-.61.82-.91,1.24-2.25,3.09-4.74,5.97-7.54,8.58-5.19,4.83-11.1,8.5-17.79,10.88-4.52,1.61-9.18,2.39-13.98,2.29-1.02-.02-2.05-.11-3.07-.2-2.34-.21-4.64-.64-6.88-1.33-1.62-.49-3.22-1.04-4.83-1.56-.23-.07-.46-.14-.69-.2M51.06,42.7c.23.06.4.1.57.14,1.57.32,3.14.67,4.72.94,2.11.37,4.25.47,6.4.42,7.03-.15,13.43-2.34,19.36-6.03,4.81-3,8.99-6.72,12.67-11.02,2.22-2.6,4.22-5.36,6.05-8.24.26-.41.53-.82.81-1.23.26.16.35.4.48.6,1.23,1.92,2.5,3.8,3.87,5.62,2.61,3.47,5.5,6.68,8.79,9.52,3.93,3.39,8.25,6.15,13.06,8.12,2.67,1.09,5.43,1.88,8.29,2.31,2.41.36,4.83.5,7.27.35,2.61-.16,5.18-.57,7.71-1.24.3-.08.59-.18.9-.28.05-.45-.08-.86-.12-1.28-.04-.42-.1-.84-.13-1.26-.11-2.17,1.32-3.85,3.14-4.38,2.69-.79,5.22.77,5.86,3.34.26,1.06.48,2.13.67,3.21.45,2.55.9,5.09,1.29,7.65.29,1.92.51,3.84.73,5.77.19,1.66.35,3.33.48,4.99.13,1.62.21,3.25.31,4.87.02.31.07.62.1.93.03.29.07.58.07.86,0,4.1.02,8.21,0,12.31,0,.93-.13,1.87-.21,2.8-.06.78-.15,1.55-.2,2.33-.16,2.29-.39,4.57-.66,6.86-.58,4.92-1.43,9.79-2.57,14.61-2.57,10.85-6.55,21.15-12.17,30.78-4.24,7.27-9.36,13.84-15.47,19.64-6.42,6.1-13.64,11.04-21.57,14.96-2.74,1.35-5.54,2.57-8.39,3.67-.31.12-.62.26-.9.43-.34.2-.68.22-1.02.07-3.45-1.52-6.97-2.86-10.32-4.6-2.81-1.46-5.57-3.01-8.23-4.74-9.65-6.26-17.68-14.17-24.2-23.64-4.96-7.2-8.86-14.94-11.86-23.15-1.99-5.45-3.54-11.03-4.71-16.71-.62-2.99-1.13-6-1.55-9.02-.36-2.63-.66-5.26-.87-7.91-.17-2.16-.34-4.31-.51-6.47-.03-.33-.03-.67-.03-1,0-3.5-.02-7,0-10.5,0-1.18.13-2.36.21-3.54.06-.85.14-1.69.2-2.53.16-2.38.39-4.75.65-7.13.3-2.75.67-5.49,1.13-8.21.41-2.37.87-4.73,1.34-7.09.09-.48.26-.95.46-1.39.71-1.52,1.88-2.47,3.6-2.62,1.79-.16,3.24.51,4.28,1.97.85,1.2,1.06,2.53.64,3.95-.11.38-.25.76-.4,1.22"/>
        <path class="cls-7" d="M154.9,52.5c-.12-.03-.17-.05-.21-.04-.33.06-.66.12-.98.2-3.4.8-6.85,1.21-10.34,1.21-3.04,0-6.05-.31-9.03-.93-6.41-1.31-12.43-3.65-18.05-7.01-4.83-2.88-9.18-6.39-13.16-10.36-.37-.36-.69-.75-.96-1.2-.1-.16-.22-.31-.36-.5-.11.13-.18.21-.24.3-.36.57-.82,1.06-1.3,1.52-.37.36-.73.72-1.1,1.08-6.23,6-13.35,10.61-21.43,13.71-5.4,2.07-10.97,3.24-16.77,3.32-2.12.03-4.24-.04-6.34-.33-1.83-.25-3.66-.56-5.48-.85-.15-.02-.3-.03-.48-.04-.06.22-.12.4-.15.6-.14.88-.3,1.76-.41,2.64-.25,2.06-.49,4.12-.72,6.18-.25,2.33-.39,4.67-.48,7-.11,2.96-.14,5.93-.05,8.9.1,3.05.29,6.1.6,9.14.31,3.08.74,6.15,1.28,9.2.84,4.77,1.95,9.47,3.38,14.1,2.91,9.39,7.03,18.2,12.54,26.35,8.98,13.26,20.82,23.05,35.59,29.29.21.09.41.17.62.25.63.25,1.26.25,1.89-.02.45-.2.9-.38,1.35-.57,12.27-5.32,22.58-13.2,30.89-23.68,5.61-7.07,10.05-14.82,13.43-23.18,3.18-7.89,5.32-16.07,6.7-24.45.49-2.99.86-6,1.12-9.02.26-2.96.41-5.92.47-8.88.05-2.25,0-4.5-.07-6.76-.09-2.47-.25-4.94-.46-7.41-.25-2.87-.63-5.72-1.07-8.56-.06-.39-.13-.79-.2-1.2M45.85,46.02c.23.07.46.13.69.2,1.61.52,3.21,1.07,4.83,1.56,2.25.68,4.54,1.11,6.88,1.33,1.02.09,2.04.18,3.07.2,4.8.11,9.46-.68,13.98-2.29,6.69-2.38,12.6-6.05,17.79-10.88,2.8-2.61,5.3-5.48,7.54-8.58.3-.41.61-.83.91-1.24.02-.03.07-.05.12-.09.2.1.3.31.43.48,1.01,1.3,1.98,2.64,3.03,3.91,3.4,4.14,7.28,7.78,11.74,10.77,4.71,3.16,9.81,5.44,15.32,6.8,2.26.55,4.54.89,6.86,1.05,1.92.13,3.83.1,5.75-.08,3.48-.32,6.86-1.11,10.13-2.33.69-.26,1.37-.54,2.06-.8.18-.07.37-.11.59-.18.04.17.08.29.11.41.56,2.93,1.06,5.88,1.43,8.84.28,2.26.5,4.52.73,6.78.26,2.55.39,5.11.48,7.67.11,3.34.11,6.69-.01,10.03-.1,2.65-.27,5.3-.52,7.94-.7,7.49-1.96,14.89-3.98,22.14-2.75,9.88-6.8,19.18-12.33,27.83-4.45,6.96-9.76,13.17-16.04,18.55-5.97,5.11-12.55,9.25-19.7,12.5-1.54.7-3.11,1.33-4.67,1.99-.39.16-.79.29-1.22.31-.55.03-1.06-.11-1.56-.31-2.34-.93-4.65-1.94-6.91-3.05-8.29-4.08-15.74-9.34-22.26-15.91-5.49-5.53-10.08-11.73-13.9-18.5-4.44-7.86-7.75-16.19-10.05-24.91-1.05-3.97-1.88-7.98-2.52-12.03-.41-2.62-.75-5.25-1-7.89-.25-2.57-.43-5.15-.55-7.74-.17-3.7-.16-7.4-.05-11.1.08-2.47.24-4.94.45-7.41.22-2.6.5-5.19.87-7.77.36-2.49.8-4.97,1.21-7.46.04-.25.05-.53.27-.78"/>
        <path class="cls-3" d="M50.55,55.38c-.06.22-.14.38-.16.55-.15,1.01-.31,2.03-.42,3.05-.21,1.84-.42,3.68-.57,5.52-.16,1.91-.29,3.83-.35,5.74-.19,5.85-.02,11.68.62,17.5.24,2.15.52,4.29.86,6.43.61,3.79,1.4,7.54,2.38,11.25,1.87,7.07,4.42,13.88,7.78,20.39,3.42,6.63,7.53,12.79,12.52,18.35,7.64,8.53,16.76,14.97,27.29,19.44.85.36,1.65.37,2.52,0,2.92-1.24,5.77-2.61,8.51-4.19,7.82-4.49,14.57-10.26,20.4-17.11,4.99-5.86,9.04-12.32,12.29-19.29,4.06-8.72,6.85-17.83,8.54-27.3.75-4.22,1.27-8.47,1.54-12.74.15-2.38.23-4.77.26-7.15.05-4.4-.17-8.78-.58-13.16-.22-2.31-.5-4.61-.86-6.9-.02-.15-.08-.29-.14-.46-.36.02-.69.07-1.01.13-1.64.35-3.29.58-4.96.72-2.67.23-5.34.2-8.02-.07-2.69-.27-5.34-.76-7.95-1.46-3.98-1.08-7.9-2.34-11.83-3.6-2.38-.76-4.75-1.54-7.14-2.25-2.74-.82-5.55-1.34-8.4-1.52-3.7-.24-7.35.12-10.91,1.23-4.3,1.34-8.6,2.68-12.89,4.03-3.42,1.08-6.85,2.13-10.38,2.81-2.81.55-5.64.88-8.5.96-2.91.08-5.79-.23-8.66-.69-.57-.09-1.13-.25-1.78-.21M154.9,52.5c.07.41.14.8.2,1.2.44,2.84.82,5.69,1.07,8.56.21,2.47.38,4.93.46,7.41.08,2.25.12,4.5.07,6.76-.06,2.97-.21,5.93-.47,8.88-.27,3.02-.63,6.03-1.12,9.02-1.37,8.38-3.51,16.56-6.7,24.45-3.38,8.36-7.82,16.11-13.43,23.18-8.32,10.48-18.62,18.36-30.89,23.68-.45.2-.91.38-1.35.57-.63.28-1.25.27-1.89.02-.21-.08-.41-.16-.62-.25-14.76-6.24-26.61-16.02-35.59-29.29-5.52-8.15-9.64-16.96-12.54-26.35-1.43-4.63-2.54-9.33-3.38-14.1-.54-3.05-.96-6.12-1.28-9.2-.31-3.04-.5-6.09-.6-9.14-.09-2.97-.06-5.93.05-8.9.09-2.34.23-4.68.48-7,.23-2.06.46-4.12.72-6.18.11-.88.27-1.76.41-2.64.03-.19.1-.38.15-.6.18.02.34.02.48.04,1.83.28,3.65.59,5.48.85,2.1.29,4.22.36,6.34.33,5.79-.07,11.37-1.25,16.77-3.32,8.08-3.1,15.2-7.71,21.43-13.71.37-.36.73-.72,1.1-1.08.48-.47.94-.96,1.3-1.52.06-.09.14-.17.24-.3.13.19.26.33.36.5.26.44.59.83.96,1.2,3.98,3.97,8.33,7.47,13.16,10.36,5.62,3.35,11.64,5.7,18.05,7.01,2.98.61,5.99.92,9.03.93,3.49,0,6.94-.41,10.34-1.21.32-.08.65-.14.98-.2.04,0,.08.02.21.04"/>
        <path class="cls-7" d="M153.09,77.38s.06,0,.09,0c-.05-2.03-.09-4.05-.14-6.08-.05-2.18-.23-4.36-.43-6.54-.19-2.02-.37-4.04-.7-6.04-.08-.51-.16-1.01-.26-1.52-.08-.41-.35-.6-.76-.6-.09,0-.18.02-.27.03-.53.09-1.06.17-1.58.27-1.47.28-2.95.49-4.44.57-2.43.14-4.86.14-7.28-.13-2.57-.28-5.12-.74-7.61-1.44-1.78-.5-3.56-1.02-5.32-1.57-3.42-1.07-6.84-2.15-10.25-3.27-2.89-.94-5.82-1.65-8.84-2.04-1.8-.23-3.6-.27-5.41-.19-2.08.09-4.12.44-6.12,1.02-2.65.77-5.29,1.59-7.93,2.41-2.85.89-5.69,1.81-8.54,2.69-2.75.85-5.54,1.54-8.38,1.98-1.78.28-3.58.51-5.38.56-1.05.03-2.09.02-3.14,0-1.38-.01-2.76-.16-4.13-.36-1.12-.16-2.25-.33-3.37-.48-.55-.07-.84.11-1.02.63-.08.25-.13.52-.16.78-.2,1.5-.42,3-.59,4.51-.15,1.28-.26,2.57-.37,3.86-.07.82-.13,1.64-.17,2.47-.08,1.58-.18,3.16-.2,4.74-.02,2.23-.07,4.46.07,6.69.12,1.87.19,3.74.35,5.6.16,1.89.38,3.77.63,5.65.21,1.61.47,3.22.75,4.82.38,2.17.83,4.33,1.34,6.48.56,2.36,1.19,4.71,1.91,7.03.86,2.79,1.86,5.53,2.97,8.23,1.27,3.09,2.71,6.11,4.31,9.05,1.15,2.11,2.39,4.17,3.72,6.19,1.67,2.54,3.46,4.98,5.39,7.32,1.38,1.67,2.81,3.29,4.35,4.81,1,.99,1.99,1.98,3.02,2.93,1.73,1.58,3.54,3.06,5.41,4.47,2.09,1.56,4.26,3.01,6.5,4.35,2.45,1.46,4.99,2.75,7.59,3.93.57.26,1.14.5,1.72.74.88.37,1.76.42,2.65,0,.63-.29,1.27-.54,1.9-.82,1.91-.86,3.79-1.79,5.62-2.8,2.8-1.54,5.46-3.28,8.02-5.19,2.24-1.67,4.38-3.45,6.4-5.36,1.57-1.48,3.1-3.01,4.55-4.62,1.47-1.62,2.86-3.3,4.19-5.04,1.36-1.77,2.64-3.59,3.84-5.47,1.58-2.46,3.02-4.99,4.34-7.6,1.14-2.27,2.2-4.58,3.15-6.93.94-2.31,1.81-4.65,2.56-7.03.52-1.66,1-3.33,1.49-4.99.58-1.97,1.04-3.97,1.47-5.97.44-2.02.83-4.06,1.14-6.11.19-1.26.39-2.51.53-3.77.18-1.62.34-3.24.46-4.86.13-1.75.24-3.51.32-5.27.04-.91,0-1.83,0-2.74M50.55,55.38c.65-.04,1.22.12,1.78.21,2.87.46,5.75.77,8.66.69,2.86-.08,5.69-.41,8.5-.96,3.53-.69,6.96-1.73,10.38-2.81,4.29-1.35,8.59-2.69,12.89-4.03,3.56-1.1,7.2-1.47,10.91-1.23,2.86.18,5.66.7,8.4,1.52,2.39.72,4.76,1.49,7.14,2.25,3.93,1.26,7.85,2.52,11.83,3.6,2.61.71,5.26,1.19,7.95,1.46,2.67.27,5.34.3,8.02.07,1.67-.14,3.32-.37,4.96-.72.32-.07.65-.12,1.01-.13.05.17.11.31.14.46.36,2.29.65,4.59.86,6.9.41,4.38.62,8.76.58,13.16-.02,2.39-.11,4.77-.26,7.15-.27,4.27-.78,8.52-1.54,12.74-1.69,9.46-4.48,18.58-8.54,27.3-3.25,6.97-7.3,13.43-12.29,19.29-5.84,6.85-12.58,12.62-20.4,17.11-2.75,1.58-5.6,2.95-8.51,4.19-.86.37-1.66.35-2.52,0-10.53-4.47-19.65-10.91-27.29-19.44-4.98-5.56-9.1-11.72-12.52-18.35-3.36-6.5-5.91-13.32-7.78-20.39-.98-3.71-1.76-7.46-2.38-11.25-.35-2.13-.62-4.28-.86-6.43-.65-5.82-.82-11.65-.62-17.5.06-1.92.19-3.83.35-5.74.15-1.84.36-3.68.57-5.52.12-1.02.27-2.03.42-3.05.03-.17.1-.34.16-.55"/>
        <path class="cls-7" d="M101.8,100.13c0,.34-.01.58-.01.82,0,1.85,0,3.7,0,5.55,0,18.06,0,36.13,0,54.19,0,.28.06.58-.08.86-.35.05-.67-.06-.97-.2-1.12-.5-2.25-.98-3.35-1.51-2.48-1.18-4.89-2.48-7.22-3.93-1.82-1.13-3.58-2.34-5.3-3.62-1.84-1.38-3.61-2.84-5.3-4.39-1.18-1.08-2.32-2.22-3.44-3.36-1.34-1.37-2.61-2.81-3.83-4.29-1.88-2.29-3.66-4.66-5.26-7.17-.95-1.48-1.88-2.98-2.77-4.5-1.03-1.75-1.99-3.54-2.84-5.38-.68-1.45-1.36-2.9-2-4.37-.82-1.88-1.54-3.8-2.23-5.73-.73-2.06-1.38-4.14-1.97-6.24-.59-2.1-1.1-4.22-1.57-6.36-.02-.1-.02-.21-.04-.33.12-.02.2-.05.29-.06.22,0,.45,0,.67,0,15.39,0,30.78,0,46.16,0,.31,0,.62,0,.95-.01.02-.17.05-.29.06-.42,0-.22,0-.45,0-.67,0-16.19,0-32.38,0-48.57,0-.28-.03-.57.05-.89.14-.02.27-.05.4-.04.87.04,1.74.06,2.6.15,2.73.3,5.41.88,8.03,1.7,1.98.62,3.94,1.27,5.91,1.91,1.8.58,3.6,1.16,5.41,1.71,1.77.54,3.54,1.08,5.32,1.56,1.68.46,3.37.84,5.09,1.11,2.03.32,4.06.53,6.12.59,2.82.08,5.61-.15,8.38-.66.61-.11,1.22-.2,1.87-.31.05.19.11.33.14.48.19,1.23.39,2.47.55,3.7.13.99.21,1.99.29,2.99.13,1.53.27,3.06.36,4.6.09,1.45.14,2.89.17,4.34.03,1.85.03,3.7,0,5.55-.03,1.51-.12,3.03-.21,4.54-.08,1.31-.19,2.62-.31,3.93-.19,2-.42,3.99-.73,5.97-.33,2.16-.74,4.3-1.17,6.44-.01.06-.04.12-.08.23-.11.02-.24.05-.36.06-.22.01-.45,0-.67,0-15.39,0-30.77,0-46.16,0-.29,0-.57,0-.95.01"/>
        <path class="cls-2" d="M101.8,100.13c.38,0,.66-.01.95-.01,15.39,0,30.77,0,46.16,0,.22,0,.45,0,.67,0,.13,0,.25-.04.36-.06.04-.1.07-.16.08-.23.43-2.14.84-4.29,1.17-6.44.31-1.98.54-3.97.73-5.97.12-1.31.23-2.62.31-3.93.09-1.51.18-3.03.21-4.54.04-1.85.03-3.7,0-5.55-.02-1.45-.08-2.9-.17-4.34-.09-1.53-.23-3.07-.36-4.6-.09-1-.17-2-.29-2.99-.16-1.24-.36-2.47-.55-3.7-.02-.15-.08-.29-.14-.48-.65.11-1.26.2-1.87.31-2.77.51-5.56.74-8.38.66-2.06-.06-4.09-.27-6.12-.59-1.72-.27-3.41-.66-5.09-1.11-1.78-.49-3.55-1.02-5.32-1.56-1.81-.55-3.61-1.14-5.41-1.71-1.97-.63-3.94-1.28-5.91-1.91-2.62-.82-5.3-1.4-8.03-1.7-.86-.09-1.73-.11-2.6-.15-.13,0-.25.02-.4.04-.08.32-.05.61-.05.89,0,16.19,0,32.38,0,48.57,0,.22,0,.45,0,.67,0,.13-.03.25-.06.42-.34,0-.65.01-.95.01-15.39,0-30.78,0-46.16,0-.22,0-.45,0-.67,0-.08,0-.17.03-.29.06.01.12.01.23.04.33.46,2.13.97,4.26,1.57,6.36.59,2.1,1.24,4.18,1.97,6.24.68,1.93,1.41,3.85,2.23,5.73.64,1.47,1.33,2.92,2,4.37.86,1.84,1.82,3.63,2.84,5.38.89,1.52,1.83,3.01,2.77,4.5,1.6,2.5,3.37,4.87,5.26,7.17,1.22,1.48,2.49,2.92,3.83,4.29,1.12,1.14,2.26,2.28,3.44,3.36,1.69,1.55,3.46,3.01,5.3,4.39,1.71,1.28,3.48,2.49,5.3,3.62,2.33,1.45,4.74,2.76,7.22,3.93,1.11.52,2.23,1.01,3.35,1.51.3.13.62.24.97.2.14-.28.08-.58.08-.86,0-18.06,0-36.13,0-54.19,0-1.85,0-3.7,0-5.55,0-.24,0-.48.01-.82M153.09,77.38c0,.91.03,1.83,0,2.74-.08,1.76-.18,3.51-.32,5.27-.12,1.62-.28,3.24-.46,4.86-.14,1.26-.35,2.52-.53,3.77-.31,2.05-.7,4.08-1.14,6.11-.43,2-.9,4-1.47,5.97-.49,1.67-.97,3.34-1.49,4.99-.75,2.38-1.62,4.72-2.56,7.03-.96,2.35-2.01,4.66-3.15,6.93-1.31,2.61-2.76,5.15-4.34,7.6-1.21,1.88-2.48,3.7-3.84,5.47-1.33,1.73-2.72,3.42-4.19,5.04-1.45,1.6-2.98,3.13-4.55,4.62-2.03,1.91-4.17,3.7-6.4,5.36-2.56,1.91-5.23,3.64-8.02,5.19-1.84,1.01-3.71,1.94-5.62,2.8-.63.28-1.28.53-1.9.82-.89.41-1.77.37-2.65,0-.57-.24-1.15-.49-1.72-.74-2.6-1.18-5.14-2.47-7.59-3.93-2.24-1.33-4.41-2.78-6.5-4.35-1.88-1.4-3.69-2.88-5.41-4.47-1.03-.95-2.02-1.95-3.02-2.93-1.54-1.52-2.97-3.14-4.35-4.81-1.93-2.34-3.72-4.78-5.39-7.32-1.32-2.01-2.56-4.07-3.72-6.19-1.6-2.94-3.04-5.95-4.31-9.05-1.11-2.7-2.1-5.44-2.97-8.23-.72-2.32-1.35-4.66-1.91-7.03-.51-2.15-.96-4.31-1.34-6.48-.28-1.6-.54-3.21-.75-4.82-.25-1.88-.46-3.76-.63-5.65-.16-1.86-.24-3.74-.35-5.6-.14-2.23-.09-4.46-.07-6.69.02-1.58.12-3.16.2-4.74.04-.82.1-1.65.17-2.47.11-1.29.22-2.58.37-3.86.18-1.5.39-3,.59-4.51.04-.26.08-.53.16-.78.17-.52.46-.71,1.02-.63,1.13.15,2.25.32,3.37.48,1.37.2,2.74.35,4.13.36,1.05,0,2.1.02,3.14,0,1.81-.06,3.6-.28,5.38-.56,2.85-.44,5.63-1.13,8.38-1.98,2.85-.88,5.69-1.81,8.54-2.69,2.64-.82,5.27-1.64,7.93-2.41,1.99-.58,4.04-.92,6.12-1.02,1.8-.08,3.61-.04,5.41.19,3.02.38,5.95,1.1,8.84,2.04,3.41,1.11,6.83,2.19,10.25,3.27,1.76.55,3.54,1.07,5.32,1.57,2.49.7,5.04,1.16,7.61,1.44,2.42.26,4.85.27,7.28.13,1.49-.09,2.97-.29,4.44-.57.52-.1,1.05-.18,1.58-.27.09-.02.18-.03.27-.03.41,0,.68.2.76.6.1.5.18,1.01.26,1.52.33,2,.52,4.02.7,6.04.2,2.17.37,4.35.43,6.54.05,2.03.09,4.05.14,6.08-.03,0-.06,0-.09,0"/>
        <path class="cls-2" d="M148.16,69.09s.09-.05.13-.07c-.05-.11-.06-.27-.15-.32-.06-.04-.21.03-.42.08.21.15.32.24.43.32M134.72,70.56c-.09.16-.18.29-.17.31.12.11.26.21.4.29.02,0,.17-.18.16-.19-.1-.13-.23-.24-.4-.41M142.86,70.53s.08.02.12.04c.07-.18.17-.36.18-.55,0-.06-.26-.13-.49-.23.08.34.13.54.18.74M104.94,68.11c.01-.08.03-.15.04-.23-.17-.08-.34-.16-.51-.25-.03.18-.05.36-.08.54.19-.02.37-.04.56-.07M117.7,67.73c.27-.16.48-.34.32-.6-.07-.11-.32-.11-.58-.18.11.34.18.54.26.78M125.72,72.47c.06.06.14.23.25.24.27.03.43-.16.46-.41.01-.1-.14-.31-.22-.31-.25-.02-.44.1-.49.48M108.53,68.34c.24.21.36.4.52.43.29.04.31-.24.34-.45.04-.28-.2-.29-.36-.28-.14.01-.26.15-.5.3M147.71,84.3c-.23.23-.52.37-.39.71.07.17.53.19.66.03.25-.34-.12-.47-.27-.74M104.77,85.22s.07.07.11.11c.27-.18.55-.36.82-.55.12-.08.27-.2.08-.33-.11-.08-.37-.14-.42-.08-.23.26-.4.57-.6.86M132.68,89.89c0,.36.19.67.44.66.21-.01.46-.04.46-.34,0-.46-.19-.73-.53-.72-.28,0-.35.21-.37.4M121.29,90.2c-.4-.16-.75-.33-1.13-.45-.09-.03-.32.09-.35.18-.1.29.12.62.42.71.37.11.76-.03,1.06-.44M108.66,82.48c.27-.03.42-.05.58-.07.58-.08,1.17-.16,1.75-.23.24-.03.48-.03.72-.05.66-.06.7-.14.53-.76-.13-.45-.26-.91-.33-1.37-.07-.45.14-.66.54-.75.91-.21,1.8-.46,2.71-.67.94-.22,1.27.03,1.36.87.05.45,0,.92,0,1.38,0,.2,0,.4,0,.65.95-.12,1.83-.23,2.7-.33.26-.03.35-.17.31-.42-.07-.45-.15-.91-.22-1.36-.1-.71-.19-1.43-.28-2.1-.82.07-1.63.14-2.45.21-.07,0-.15,0-.22.02-1.16.24-2.31.52-3.48.72-.96.17-1.94.26-2.91.36-.24.02-.34.1-.39.32-.09.36-.2.72-.3,1.09-.21.81-.41,1.61-.64,2.51M116.66,70.79c-2.45,1.62-3.15,1.79-5.54,1.36-.58,1.33-1.17,2.67-1.73,4.02-.17.41-.26.86-.34,1.3-.1.56-.05.61.5.65,1.41.1,2.77-.18,4.13-.5,1.4-.33,2.8-.66,4.26-.67.23,0,.46-.05.68-.1.64-.15.8-.42.52-1.02-.48-1.02-.99-2.02-1.49-3.03-.33-.66-.65-1.33-.98-2.01M129.87,82.42c.04.08.05.11.07.12.05.03.1.06.16.09.6.29,1.21.17,1.82.04.81-.18,1.63-.3,2.43.02.53.21,1.02.14,1.51-.08.67-.29.79-.23,1.21.39.13.19.37.39.58.41.41.04.84.01,1.25-.08.2-.04.42-.25.54-.44.24-.37.27-.4.68-.19.72.39,1.14.33,1.74-.23.08-.07.15-.15.23-.23.3-.31.41-.32.72-.03.33.31.7.38,1.11.21.3-.13.59-.28.88-.43.42-.22.84-.32,1.33-.2.6.14,1.21.06,1.7-.32.58-.45,1.18-.91,1.65-1.47.3-.35.48-.88.55-1.35.13-.89-.17-1.72-.64-2.48-.06-.1-.15-.17-.3-.35-.19.45-.36.8-.49,1.17-.19.52-.31,1.07-.52,1.59-.33.8-.79,1.02-1.65.9-.85-.13-1.65-.43-2.37-.88-.38-.24-.75-.56-.98-.94-.36-.57-.59-1.22-.89-1.82-.28-.56-.57-1.12-.89-1.66-.17-.27-.46-.44-.81-.34-1.05.29-2.1.31-3.16.03-.24-.06-.38,0-.49.24-.35.77-.72,1.54-1.06,2.31-.63,1.44-1.39,2.77-2.73,3.69-.66.45-1.3.93-1.94,1.4-.42.3-.82.61-1.23.92M142.39,62.7c-.26.18-.5.41-.78.54-1.04.47-1.06.48-.54,1.51.35.7.33.88-.23,1.43-.38.38-.65.81-.71,1.36-.02.19.03.28.23.33.86.19,1.52.66,2.02,1.38.07.1.23.18.35.18.52.03.8.17.89.49.09.32-.1.78-.46.99-.23.13-.31.29-.35.54-.13.77-.57,1.35-1.18,1.81.02.04.03.07.04.07.92.06,1.84.06,2.71-.32.54-.23.96-.62,1.22-1.15.31-.64.58-1.31.87-1.96.28-.63.63-1.21,1.25-1.56.49-.28.98-.03.98.52,0,.19-.1.46-.24.55-.14.09-.41.03-.6-.02-.14-.04-.25-.17-.44-.31-.2.35-.41.67-.57,1.01-.22.46-.4.93-.59,1.41-.58,1.46-1.69,2.16-3.22,2.25-.48.03-.96,0-1.39,0,.55,1.18,1.08,2.32,1.62,3.45.24.51.61.92,1.14,1.12.72.27,1.45.55,2.19.74.53.13.79-.03,1.02-.54.2-.44.3-.92.47-1.37.17-.45.32-.92.56-1.33.26-.46.66-.48.94-.03.3.47.49,1.02.73,1.53.05.12.1.24.14.36v1.31c-.29,1.11-1.1,1.82-1.94,2.51-.79.65-1.66.91-2.68.68-.21-.05-.48.03-.69.12-.34.13-.65.33-.98.47-.55.24-1.08.25-1.57-.16-.04-.03-.1-.05-.15-.08-.2.82.22,1.92.89,2.36.63.42,1.5.33,2.23-.22.34-.26.67-.53,1.03-.74.75-.44,1.61-.08,1.86.75.08.28.01.53-.23.71-.29.22-.85.22-1.14,0-.25-.19-.34-.44-.21-.74.06-.15.15-.29.23-.43-.02-.03-.04-.05-.06-.08-.26.17-.53.34-.79.52-.37.25-.71.57-1.12.73-1.38.55-2.68-.17-3.06-1.67-.06-.23-.1-.47-.15-.71q-1.04.44-2.07.07c-.89,1.11-2.5,1.09-3.43-.07-.51.77-.97,1.56-1.18,2.45-.15.65-.22,1.31-.32,1.97-.08.6-.11,1.21-.23,1.8-.12.64-.46,1.17-1.02,1.53-.44.28-.86.26-1.16-.06-.34-.36-.39-1.02-.11-1.38.35-.45,1.2-.34,1.44.19.04.09.06.18.17.3.09-.22.22-.44.26-.68.1-.58.19-1.17.21-1.76.05-1.39.49-2.66,1.06-3.9.04-.08.07-.15.14-.32-.72.28-1.33-.02-1.96-.11-.5-.07-1.03-.01-1.54.07-.77.12-1.52.27-2.29-.04-.83-.33-.9-.65-.2-1.19.67-.52,1.35-1.03,2.08-1.45,1.93-1.12,3.07-2.83,3.84-4.86.17-.46.4-.9.64-1.45-.21.1-.35.17-.48.23-1.58.78-3.23,1.24-5.02,1.05-1.68-.18-3.11-.87-4.28-2.08-.1-.1-.26-.2-.39-.2-.31.01-.56-.05-.72-.32-.18-.3-.15-.6.03-.89.04-.06.07-.12.15-.27-.32.08-.57.12-.8.19-.56.17-1.1.42-1.66.5-.51.07-1.08.03-1.58-.12-1.04-.31-2.04-.74-3.07-1.1-.38-.13-.78-.22-1.17-.33-.02.03-.04.06-.05.09.06.14.12.28.19.42.67,1.41,1.35,2.82,2.02,4.23.2.42.26.81.09,1.29-.13.36-.06.82,0,1.22.13.92.3,1.84.46,2.76.07.39-.03.59-.42.72-.26.08-.53.13-.87.22.14.68.26,1.35.4,2.01.33,1.51.97,2.88,1.73,4.22.3.52.55,1.08.76,1.64.21.56.07.95-.32,1.23-.45.33-1.03.37-1.47.1-.38-.23-.59-.85-.42-1.25.14-.34.43-.42.75-.36.34.07.66.2,1.06.33-.15-.33-.26-.63-.42-.91-.73-1.28-1.44-2.56-1.85-3.98-.28-.97-.51-1.96-.78-3-.45.04-.97.09-1.48.14-.46.05-.63-.07-.66-.53-.02-.34.03-.68.02-1.02,0-.37-.03-.75-.08-1.12-.04-.25-.21-.36-.48-.3-.99.24-1.97.48-2.96.7-.23.05-.25.21-.22.38.09.39.19.77.3,1.16.04.14.08.28.11.42.1.46-.02.72-.48.81-.52.11-1.05.15-1.58.17-.3.01-.43.09-.49.39-.19.97-.36,1.96-.62,2.91-.13.47-.39.94-.7,1.33-.45.58-1.05.56-1.5-.03-.32-.42-.55-.91-.8-1.38-.15-.26-.27-.54-.42-.84-.11.07-.18.11-.26.16-.22.15-.43.31-.67.44-.24.13-.52.3-.78.07-.27-.24-.09-.53.04-.77.15-.29.32-.58.53-.82.29-.33.68-.34.99-.02.19.19.36.42.49.67.29.54.55,1.11.83,1.65.1.19.22.38.36.54.31.38.58.39.89,0,.2-.25.4-.54.48-.84.29-1.1.53-2.21.8-3.38-.34.06-.59.12-.85.16-.65.09-.83-.08-.69-.71.25-1.06.53-2.11.8-3.17.04-.14.07-.28.1-.41-.7-.4-.72-.45-.6-1.24.19-1.22.74-2.3,1.23-3.4.22-.48.44-.96.68-1.49-.36.08-.64.15-.92.19-.83.13-1.65.06-2.43-.26-1.09-.44-1.75-1.22-1.85-2.43-.04-.49-.11-.98-.18-1.55-.51.36-.93.44-1.26-.1v-.65c.49-.65.98-.63,1.38.1.19.34.28.74.36,1.13.08.37.1.74.13,1.12.09,1.01.68,1.64,1.57,2,.87.35,1.77.38,2.67.14.21-.05.42-.08.7-.14-.25-.24-.54-.46-.76-.73-.22-.28-.41-.6-.54-.94-.13-.34-.16-.72-.23-1.09-.69-.07-1.04-.45-.93-1.03.1-.54.48-.68,1.3-.47.06-.09.12-.2.18-.3.51-.87,1.24-1.45,2.24-1.66.24-.05.32-.15.3-.39-.03-.33-.04-.65-.03-.98,0-.09.13-.17.2-.26.07.08.19.16.21.25.04.29.03.58.04.87.02.58-.15.81-.72.93-1.2.27-2.17,1.44-2.29,2.76-.12,1.27.49,2.3,1.66,2.78.73.3,1.5.31,2.25.11,1.07-.28,2.07-.73,2.8-1.58.34-.39.64-.88.77-1.37.41-1.49-.43-2.69-1.96-2.91-.24-.03-.48-.02-.72-.04-.25-.02-.39-.1-.3-.42.13-.44.19-.9.28-1.36.27-.05.44-.02.36.32-.07.32-.11.64-.17.99.34.06.66.1.97.17.56.13,1.03.41,1.43.81.09.09.27.14.4.12.54-.07.87.06,1,.44.12.38-.1.82-.51,1.06-.11.06-.24.19-.25.3-.07.67-.2,1.32-.66,1.91,1.37.12,2.5.77,3.71,1.22.42.16.85.26,1.27.39.84.26,1.59,0,2.35-.32.4-.17.86-.25,1.29-.29.46-.04.87.21,1.13.56.13.18.12.53.05.78-.05.2-.04.3.1.44,1.41,1.39,3.08,2.11,5.08,1.97,1.58-.11,3.01-.66,4.42-1.48-.1-.08-.16-.14-.24-.19-.52-.37-.88-.85-1.06-1.47-.03-.1-.15-.18-.25-.23-.15-.08-.33-.1-.47-.18-.34-.19-.48-.6-.32-.94.15-.33.5-.46.89-.33.07.02.13.06.26.11.4-1.15,1.21-1.95,2.29-2.51-.3-.41-.68-.58-1.14-.6-.35-.02-.71.02-1.05-.01-.3-.03-.61-.09-.87-.21-.61-.29-.77-.69-.61-1.34.23-.91.22-.9-.56-1.35-.24-.14-.47-.31-.66-.5-.29-.31-.41-.68-.23-1.1h.44c-.15.49-.09.72.34,1.03.22.16.48.28.73.4.46.22.61.48.52.99-.04.23-.11.45-.16.67-.1.43-.02.64.38.82.24.11.51.15.77.17.32.03.65,0,.98,0,.56.02,1.03.25,1.41.66.25.28.19.63-.15.79-1,.46-1.63,1.26-1.95,2.28-.43,1.36.09,2.34,1.27,2.77,1.04.38,2.14.39,3.22.13.87-.21,1.59-.66,1.99-1.5.72-1.49-.21-3.26-1.9-3.65-.12-.03-.31-.07-.34-.15-.09-.26-.29-.23-.49-.26-.1-.02-.22-.13-.27-.22-.18-.37-.3-.77-.51-1.11-.23-.39-.55-.74-.81-1.11-.24-.33-.29-.73,0-1,.64-.6.51-1.14,0-1.71h.51c.11.17.24.34.32.52.23.49-.01.86-.33,1.21-.25.27-.34.53-.08.86.56.7,1.14,1.38,1.36,2.3.08-.82.54-1.41,1.09-1.95.08-.08.08-.32.04-.46-.1-.28-.27-.54-.38-.82-.23-.6-.07-1,.5-1.28.27-.13.54-.25.82-.38h.65Z"/>
        <path class="cls-2" d="M135.26,62.7c.11.18.2.38.33.55.38.48.45.97.16,1.52-.13.25-.25.5-.35.76-.13.33-.05.45.31.44.24,0,.48-.03.72-.07.69-.12,1.21.16,1.6.7.24.34.43.72.65,1.08-.25.25-.4.26-.53-.06-.09-.21-.21-.41-.33-.6-.35-.55-.81-.84-1.49-.69-.27.06-.56.08-.83.05-.47-.05-.68-.37-.55-.82.09-.32.24-.64.4-.93.24-.43.17-.79-.13-1.17-.17-.22-.27-.5-.4-.75h.44Z"/>
        <path class="cls-2" d="M110.63,69c.13-.05.23-.09.36-.13.06.13.12.24.17.35.49,1,1.43,1.4,2.49,1.02.96-.34,1.6-1.01,1.91-1.99.04-.14.04-.33.28-.27.28.07.16.26.11.4-.39,1.25-1.22,2.05-2.49,2.35-1.28.31-2.39-.38-2.83-1.73"/>
        <path class="cls-2" d="M113.41,64.7c0,.21.02.41,0,.62,0,.07-.14.2-.19.19-.09-.02-.21-.12-.22-.2-.01-.4,0-.8.02-1.2,0-.06.13-.17.2-.16.07,0,.19.1.2.18.03.19,0,.39,0,.58h-.02Z"/>
        <path class="cls-2" d="M112.98,68.04c-.17.12-.25.23-.33.22-.08,0-.21-.13-.21-.2,0-.08.11-.2.2-.21.07-.02.17.09.34.19"/>
        <path class="cls-2" d="M113.62,67.6c.11.15.21.23.21.32,0,.06-.14.19-.18.18-.09-.03-.19-.12-.22-.2-.02-.05.09-.14.18-.29"/>
        <path class="cls-2" d="M141.64,70.48c-.13.76-.48,1.32-1.11,1.76-.77.54-1.57.64-2.44.39-1.1-.32-1.57-1.51-1.03-2.55.31.02.44.11.34.48-.23.79.18,1.46.99,1.65,1.08.25,2.49-.2,2.79-1.56.06-.28.21-.28.47-.16"/>
        <path class="cls-2" d="M140.02,69.77c-.14.09-.23.18-.27.17-.09-.04-.16-.14-.24-.21.06-.06.14-.17.19-.16.1.02.18.1.33.2"/>
        <path class="cls-2" d="M138.95,70.02c-.11.03-.22.09-.31.07-.05,0-.08-.15-.12-.23.13-.01.26-.03.39-.04.01.07.03.14.04.21"/>
        <path class="cls-2" d="M137,79.47c.11.2.22.32.19.38-.23.62-.47,1.24-.73,1.84-.02.05-.24.04-.34,0-.05-.02-.09-.19-.06-.26.17-.41.36-.82.53-1.22.05-.12.06-.26.12-.38.05-.1.14-.17.29-.36"/>
        <path class="cls-2" d="M140.04,81.35c-1.06-.14-1.15-.59-1.19-1.33,0-.09.11-.22.19-.25.16-.06.28.02.28.22-.01.48.21.79.66.95.29.11.12.27.06.42"/>
        <path class="cls-2" d="M143.49,80.96c-.74-.04-1.2-.33-1.6-.88.09-.08.18-.16.28-.24,0,.04,0,.08,0,.12.39.19.78.37,1.16.59.09.05.1.23.17.41"/>
        <path class="cls-7" d="M69.13,80.42c-.52-1.81-1.49-3.31-2.88-4.53-1.73-1.52-3.72-1.55-5.5-.08-1.36,1.13-2.31,2.55-2.85,4.23-.11.34-.24.44-.58.44-1.05-.02-2.11,0-3.17,0v-5.86c.12-.05.18-.09.23-.09,2.12.27,4.06-.55,6.06-1.01,1.88-.44,3.76-.92,5.65-1.31,1.64-.33,3.3-.68,4.97-.81,2.32-.18,4.66-.22,6.99-.2,3.08.03,6.1.67,9.11,1.28,2.15.44,4.28,1.02,6.4,1.62.99.28,1.96.47,2.98.41.34-.02.68,0,1.05,0v5.96c-1.18,0-2.33.01-3.48-.02-.13,0-.32-.25-.38-.42-.6-1.68-1.54-3.11-2.92-4.26-1.85-1.55-3.95-1.3-5.64.28-1.2,1.13-2.1,2.47-2.59,4.06-.03.11-.09.22-.13.32-.99.09-.99.09-1.27-.79-.54-1.72-1.35-3.31-2.51-4.68-.51-.6-1.18-1.14-1.88-1.5-1.12-.59-2.53-.09-3.53,1.01-1.5,1.63-2.48,3.53-3.09,5.65-.12.4-.15.41-1.03.32"/>
        <path class="cls-2" d="M98.59,123.42c-.07-.1-.1-.15-.14-.21-3.19-4.34-6.38-8.68-9.57-13.02-1.02-1.38-1.02-1.39-2.68-1.88-2-.59-4.02-.89-6.08-.41-1.24.29-2.27.92-3.08,1.95,3.55,4.81,7.1,9.61,10.66,14.44.09-.1.17-.19.24-.27,2.31-2.58,5.39-3.22,8.52-1.75.72.34,1.4.75,2.15,1.15M86.77,124.51c-.07-.1-.11-.16-.16-.23-3.25-4.4-6.5-8.79-9.74-13.2-.43-.59-.96-1-1.61-1.28-1.01-.43-2.08-.44-3.14-.28-2.03.31-3.83,1.17-5.45,2.42-1.57,1.22-2.81,2.71-3.58,4.56-.09.22-.12.4.03.63,2.85,4.31,5.69,8.63,8.53,12.94.06.09.13.18.17.24.55-.74,1.04-1.48,1.61-2.17,1.85-2.23,4.06-3.95,6.89-4.75,1.65-.47,3.3-.48,4.89.23.52.24,1,.57,1.54.88M60.72,119.3v-.41c.32-.52.64-1.05.95-1.57.18-.3.4-.58.53-.91.43-1.12,1.03-2.14,1.8-3.06,1.81-2.18,4.08-3.68,6.81-4.43,1.13-.31,2.29-.46,3.46-.25.7.13,1.37.39,2.1.6,0,0,.08-.08.14-.16.94-1.1,2.13-1.77,3.54-2.08.42-.09.85-.15,1.28-.23h1.79c.06.02.13.06.19.06,1.71.14,3.34.6,4.92,1.25.18.07.35.21.47.37,3.77,5.12,7.53,10.24,11.3,15.36.64.87,1.3,1.74,1.95,2.6v.21c-.09.01-.21,0-.28.05-.14.11-.25.25-.38.39-1.02-.68-2.15-.9-3.31-.98-3.32-.22-6.38.6-9.21,2.34-.3.18-.33.37-.25.67.29,1.17,1.01,2.01,2,2.63.51.32,1.05.58,1.6.88-.12.25-.24.5-.36.75-2.1-.9-3.8-2.12-4.19-4.52-1.28-.26-2.54-.17-3.77.06-3.82.73-7.18,2.38-10.01,5.06-.59.56-1.06,1.25-1.59,1.88h-.55c-.05-.1-.09-.21-.15-.3-3.52-5.33-7.04-10.67-10.56-16-.06-.09-.14-.17-.21-.25"/>
      </g>
      <g class="cls-6">
        <path class="cls-2" d="M3.73,185.44c3.35-2.72,6.7-5.44,10.16-8.24-1.9-.22-3.87-.32-5.77-.71-1.97-.41-3.95-1.03-4.58-3.71,2.17-.36,4.21-.69,6.25-1.06,3.93-.7,7.39-2.16,10.36-5.05,1.77-1.73,4.17-2.88,6.44-3.99.99-.48,2.59-.66,3.48-.18,1.95,1.06,3.46-.31,5.16-.46.29-.03.75-1.1.67-1.62-.64-4.11,1.86-6.27,4.91-8.05,5.17-3.02,10.95-4.13,16.76-5.03,16.03-2.47,32.16-3.74,48.38-3.44,15.9.3,31.75,1.42,47.33,4.77,3.69.79,7.25,2.44,10.69,4.08,3.1,1.48,5.1,3.97,4.49,7.79-.07.42.05.88.08,1.3,2.19.74,4.17.99,6.51.58,3.8-.67,6.76,1.77,9.28,4.3,2.56,2.57,5.57,4.05,9.03,4.76,2.35.49,4.73.83,7.08,1.23-.04,2.89-1.11,3.36-9.96,4.48,3.37,2.76,6.73,5.51,10.09,8.25-.12.32-.23.64-.35.96-1.8,0-3.64.23-5.4-.04-4.79-.75-8.88-3.14-12.79-5.91-1.45-1.03-3.04-1.85-4.96-3-.26,1.44-.47,2.43-.61,3.42-.39,2.77-2.09,4.47-4.84,4.76-.6.06-1.21.06-1.81.01-4.84-.41-4.9-1-3.7-4.59.14-.41.08-.87.14-1.6-3.78,0-7.45.06-11.12-.03-1.64-.04-3.31-.22-4.9-.6-2.69-.64-3.45-1.94-2.92-4.63.49-2.49,1.05-4.97,1.71-8.08-31.32-4.85-62.32-4.9-93.73,0,.62,3.06,1.13,5.6,1.65,8.15.53,2.59-.11,3.97-2.7,4.47-2.64.5-5.36.6-8.06.72-2.69.11-5.4.02-8.27.02.16.89.25,1.54.39,2.18.7,3.24.49,3.54-2.83,3.95-4.75.58-6.95-1.09-7.68-5.82-.09-.59-.27-1.16-.53-2.27-1.89,1.14-3.64,2.06-5.26,3.18-3.87,2.68-7.9,5.01-12.64,5.7-1.73.25-3.54.04-5.31.04-.11-.33-.22-.66-.34-.99M30.76,179.35c.58-1.95.29-2.21-2.72-1.78.7.9,1.23,1.58,1.75,2.25-.14.95-.69,2.11-.33,2.8,1.17,2.27,5.99,2.73,8.39.66-1.4-.11-2.52-.04-3.55-.32-.82-.22-1.53-.86-2.29-1.31.58-.78,1.01-1.96,1.78-2.24,1.51-.56,3.2-.81,4.83-.86,3.68-.12,7.38.06,11.06-.1,1.77-.08,3.55-.54,5.26-1.06.53-.16.82-1.11,1.22-1.7-.61-.29-1.24-.85-1.83-.81-1.48.11-2.95.44-4.4.77-3.21.73-6.38,1.76-9.62,2.21-3.19.44-4.23-.74-4.23-3.91,0-3.58,0-7.17,0-10.75-3.44.06-4.19.82-4.15,3.77.05,3.23.14,6.47.01,9.7-.04.9-.76,1.78-1.17,2.67M173.97,179.51c-.5-.8-1.41-1.58-1.44-2.4-.13-3.38,0-6.77.03-10.16.03-2.94-1.35-4.06-4.46-3.52,0,3.73-.07,7.49.03,11.24.05,1.72-.52,2.79-2.25,3.02-1.03.14-2.13.3-3.12.08-2.85-.63-5.66-1.48-8.5-2.17-1.45-.35-2.93-.63-4.41-.75-.54-.04-1.12.47-1.67.73.31.56.52,1.48.96,1.62,1.77.56,3.6,1.13,5.43,1.22,3.76.19,7.53-.04,11.29.12,1.77.08,3.57.49,5.23,1.08.6.21,1.12,1.41,1.13,2.16,0,.39-1.16.99-1.87,1.14-1.18.25-2.42.22-3.63.31.01.36.02.71.04,1.07,1.91.02,3.89.38,5.72,0,3.08-.66,3.56-2.71,1.42-4.9.54.11,1.09.22,1.73.35.04-.9.08-1.67.14-2.76-1.09.31-1.86.54-2.73.79.4.73.67,1.22.94,1.7M38.78,172.08c-.34.45-.79.86-1.01,1.37-.36.84-.94,1.85-.73,2.59.16.55,1.39,1.06,2.18,1.12,1.33.11,2.73.01,4.02-.3,4.13-1,8.23-2.14,12.52-3.27-.43-2.04-.94-4.41-1.47-6.88-.6.1-.98.1-1.31.22-4.76,1.73-9.52,3.48-14.27,5.22,1.44-.88,2.78-1.99,4.32-2.61,11.04-4.48,22.61-6.73,34.45-7.25,19.31-.85,38.64-1.3,57.92.82,9.31,1.03,18.31,3.29,26.94,6.93,1.45.61,2.65,1.82,3.96,2.75-4.99-3-10.43-4.77-16.3-6.15-.53,2.51-1.02,4.88-1.46,6.97,2.78.71,5.21,1.38,7.67,1.95,2.55.6,5.09,1.38,7.67,1.58,3.73.29,4.32-.83,2.62-4.15.35-.56.98-1.12.99-1.68.04-3.83-.22-7.68-.06-11.5.11-2.51-.8-4.39-2.84-5.45-3.18-1.64-6.41-3.44-9.84-4.29-13.64-3.38-27.63-4.33-41.6-4.97-18.54-.84-37,.39-55.35,3.2-5.73.88-11.41,1.99-16.54,4.93-2.94,1.68-5,3.82-4.36,7.58.12.72-.09,1.5-.09,2.25-.01,3.27,0,6.54,0,9.96.82-.4,1.4-.69,1.98-.97M199.14,173.67c-7.09-.43-12.9-3.22-17.97-8.09-1.43-1.38-4.08-1.57-6.22-2.07-.44-.1-1.6.83-1.61,1.31-.13,3.94-.08,7.9-.08,12,3.75-.8,6.56.98,9.48,2.85,2.89,1.85,5.99,3.46,9.15,4.78,1.89.79,4.1.82,6.16,1.19.14-.33.28-.67.42-1-3.94-2.81-7.87-5.63-12.03-8.6,4.4-.57,8.93.89,12.7-2.37M31.15,176.86c0-4-.05-7.6.02-11.2.04-1.82-.84-2.33-2.49-2.27-3.33.14-5.88,1.93-8.02,4.15-2.87,2.98-6.37,4.4-10.29,5.13-1.7.32-3.4.64-5.45,1.03,2.07,1.93,4.23,2.11,6.39,2.18,2.13.07,4.26.02,6.79.02-4.38,3.12-8.34,5.94-12.29,8.77.12.28.23.55.35.83,1.52-.15,3.18.05,4.52-.52,3.71-1.57,7.43-3.22,10.88-5.28,3.02-1.8,5.82-3.8,9.58-2.84M37.14,182.61c.2-.26.4-.52.6-.77-.71-.79-1.37-2.19-2.13-2.24-1.21-.09-2.95.18-2.79,2.53,1.45.16,2.88.33,4.32.49M171.75,182.08c-.53-2.41-2.18-2.71-3.53-2.49-.62.1-1,1.72-1.72,3.1,2.13-.25,3.58-.41,5.26-.61"/>
      </g>
      <g class="cls-5">
        <path class="cls-7" d="M166.3,172.8c-1.31-.93-2.51-2.14-3.96-2.75-8.63-3.64-17.63-5.91-26.94-6.93-19.28-2.12-38.61-1.68-57.92-.82-11.83.52-23.41,2.77-34.45,7.25-1.54.62-2.88,1.73-4.32,2.61l.07-.07c-.58.28-1.15.57-1.98.97,0-3.42,0-6.69,0-9.96,0-.75.22-1.52.09-2.25-.64-3.76,1.42-5.9,4.36-7.58,5.13-2.93,10.81-4.05,16.54-4.93,18.35-2.81,36.8-4.04,55.35-3.2,13.98.63,27.96,1.59,41.6,4.97,3.43.85,6.67,2.64,9.84,4.29,2.04,1.06,2.95,2.94,2.84,5.45-.16,3.83.09,7.67.06,11.5,0,.56-.64,1.12-.99,1.68-.08-.06-.14-.13-.21-.21"/>
        <path class="cls-7" d="M199.14,173.67c-3.77,3.26-8.3,1.8-12.7,2.37,4.16,2.98,8.1,5.79,12.04,8.6-.14.33-.28.67-.42,1-2.07-.37-4.27-.41-6.16-1.19-3.17-1.32-6.26-2.93-9.15-4.78-2.92-1.87-5.72-3.66-9.48-2.85,0-4.11-.06-8.06.08-12,.02-.48,1.18-1.41,1.61-1.31,2.14.5,4.79.69,6.22,2.07,5.07,4.87,10.88,7.66,17.97,8.09"/>
        <path class="cls-7" d="M31.15,176.86c-3.76-.95-6.56,1.04-9.58,2.84-3.46,2.06-7.17,3.71-10.88,5.28-1.34.57-3,.37-4.52.52-.12-.28-.23-.55-.35-.83,3.96-2.82,7.92-5.64,12.29-8.77-2.53,0-4.66.06-6.79-.02-2.16-.07-4.32-.25-6.39-2.18,2.05-.39,3.75-.72,5.45-1.03,3.92-.73,7.42-2.14,10.29-5.13,2.14-2.22,4.69-4.01,8.02-4.15,1.65-.07,2.52.45,2.49,2.27-.07,3.6-.02,7.19-.02,11.2"/>
        <path class="cls-7" d="M173.9,179.43c2.14,2.19,1.66,4.24-1.42,4.9-1.82.39-3.81.03-5.72,0-.01-.36-.02-.71-.04-1.07,1.21-.09,2.45-.06,3.63-.31.71-.15,1.87-.75,1.87-1.14,0-.75-.53-1.95-1.13-2.16-1.67-.6-3.47-1.01-5.23-1.08-3.76-.16-7.53.07-11.29-.12-1.83-.09-3.66-.67-5.43-1.22-.45-.14-.65-1.06-.96-1.62.56-.26,1.14-.77,1.67-.73,1.48.12,2.96.4,4.41.75,2.84.69,5.65,1.54,8.5,2.17.99.22,2.09.05,3.12-.08,1.73-.23,2.3-1.3,2.25-3.02-.1-3.75-.03-7.51-.03-11.24,3.11-.55,4.49.58,4.46,3.52-.03,3.39-.16,6.78-.03,10.16.03.82.93,1.6,1.44,2.4l-.08-.08Z"/>
        <path class="cls-7" d="M30.76,179.35c.41-.89,1.14-1.77,1.17-2.67.12-3.23.03-6.47-.01-9.7-.04-2.95.71-3.71,4.15-3.77,0,3.58,0,7.17,0,10.75,0,3.17,1.04,4.35,4.23,3.91,3.25-.45,6.41-1.48,9.62-2.21,1.45-.33,2.92-.66,4.4-.77.59-.04,1.22.52,1.83.81-.4.59-.69,1.54-1.22,1.7-1.7.53-3.49.99-5.26,1.06-3.68.16-7.37-.02-11.06.1-1.63.05-3.32.3-4.83.86-.76.28-1.19,1.47-1.78,2.24.76.45,1.47,1.09,2.29,1.31,1.03.28,2.16.21,3.55.32-2.4,2.07-7.22,1.61-8.39-.66-.36-.69.2-1.86.33-2.8.32-.16.64-.32.96-.48"/>
        <path class="cls-7" d="M38.71,172.15c4.76-1.74,9.51-3.49,14.27-5.22.34-.12.71-.13,1.31-.22.53,2.47,1.03,4.84,1.47,6.88-4.3,1.13-8.39,2.27-12.52,3.27-1.3.31-2.69.41-4.02.3-.79-.06-2.02-.57-2.18-1.12-.21-.74.37-1.75.73-2.59.22-.51.66-.92,1.01-1.37,0,0-.07.07-.07.07"/>
        <path class="cls-7" d="M166.3,172.8c.06.08.13.15.21.21,1.7,3.31,1.11,4.44-2.62,4.15-2.58-.2-5.13-.99-7.67-1.58-2.46-.58-4.89-1.24-7.67-1.95.44-2.09.94-4.45,1.46-6.97,5.86,1.38,11.3,3.15,16.3,6.15"/>
        <path class="cls-7" d="M37.14,182.61c-1.44-.16-2.87-.33-4.32-.49-.16-2.35,1.58-2.62,2.79-2.53.76.06,1.42,1.45,2.13,2.24-.2.26-.4.52-.6.77"/>
        <path class="cls-7" d="M171.75,182.08c-1.68.19-3.13.36-5.26.61.73-1.38,1.1-3.01,1.72-3.1,1.36-.22,3,.08,3.53,2.49"/>
        <path class="cls-7" d="M30.76,179.35c-.32.16-.64.32-.96.48-.53-.68-1.05-1.35-1.75-2.25,3.01-.43,3.3-.17,2.72,1.78"/>
        <path class="cls-7" d="M173.97,179.51c-.27-.48-.53-.97-.94-1.7.86-.25,1.64-.47,2.73-.79-.05,1.08-.09,1.85-.14,2.76-.64-.13-1.18-.24-1.73-.35,0,0,.08.08.08.08"/>
        <path class="cls-2" d="M42.73,158.48l.63,2.85-.76-1.41c-.24-.45-.45-.85-.63-1.18l-2.02.69,2.11,5.83,1.36-.47-1.39-3.85,1.96,3.65.97-.33-.88-4.12,1.43,3.94,1.36-.47-2.11-5.83-2.03.69ZM46.08,157.39l1.07,6.15,1.63-.49-.24-1.09.57-.17.42,1.04,1.62-.48-2.78-5.64-2.29.68ZM48.19,160.92c-.12-.54-.29-1.39-.48-2.57.39.96.74,1.76,1.03,2.41l-.54.16ZM49.68,156.32l1.74,5.95,2.56-.71-.35-1.19-.97.27-1.39-4.76-1.59.44ZM52.76,155.48l1.6,5.98,2.57-.65-.32-1.2-.97.25-1.28-4.78-1.6.4ZM57.9,154.22l1.08,4.43c.07.3.11.49.1.58,0,.09-.07.14-.17.17-.09.02-.16,0-.2-.07-.05-.07-.1-.23-.17-.49l-1.1-4.51-1.61.37.87,3.56c.17.68.29,1.12.36,1.33.08.21.21.39.4.55.19.16.44.26.75.32.31.05.65.04,1.02-.05.33-.08.61-.19.83-.35.22-.16.38-.35.49-.58.1-.23.15-.44.13-.63-.01-.19-.08-.52-.19-.97l-.98-4.02-1.61.37ZM64.08,154.57c-.1-.48-.22-.81-.36-.99-.14-.18-.37-.31-.7-.38-.32-.07-.7-.07-1.12.02-.38.08-.7.2-.95.38-.25.18-.41.38-.48.62-.08.24-.06.59.04,1.05.07.32.17.58.3.77.13.19.27.33.43.42.16.09.46.23.92.4.46.18.75.31.88.4.12.09.22.31.3.67.03.16.03.29,0,.38-.04.09-.11.15-.21.17-.11.02-.19,0-.25-.05-.06-.06-.11-.2-.16-.42l-.16-.74-1.5.3.08.4c.1.45.22.79.37,1.02.15.23.39.39.73.49.34.1.73.1,1.16.01.39-.08.73-.22.99-.42.27-.2.43-.41.49-.64.06-.23.04-.55-.05-.98-.13-.59-.31-1-.56-1.23-.24-.23-.77-.48-1.58-.75-.28-.09-.46-.19-.54-.28-.08-.09-.14-.24-.18-.44-.03-.16-.03-.28,0-.37.03-.09.1-.14.2-.16.09-.02.16,0,.21.05.05.05.1.18.14.39l.1.45,1.5-.3-.05-.24ZM66.86,152.41l-.27,2.49-.45-2.36-1.63.29,1.17,6.08,1.63-.3-.5-2.6,1.16,2.48,1.68-.3-1.66-3.15.41-2.91-1.53.28ZM70.33,151.83l1,6.1,1.63-.25-1-6.1-1.63.25ZM75.03,151.15l.39,2.76-1.31-2.63-1.37.18.87,6.12,1.37-.18-.4-2.78,1.25,2.67,1.44-.19-.87-6.12-1.37.18ZM76.91,150.9l.15,1.23.97-.11.6,4.91,1.64-.19-.6-4.91.98-.11-.15-1.23-3.59.41ZM81.62,156.6l2.85-.28-.13-1.23-1.21.12-.14-1.35,1.03-.1-.12-1.17-1.03.1-.12-1.17,1.1-.11-.13-1.23-2.75.26.63,6.15ZM88.4,151.83c-.04-.5-.12-.89-.24-1.14-.12-.26-.34-.47-.68-.64-.33-.17-.74-.23-1.23-.2-.49.04-.88.18-1.17.43-.29.25-.46.5-.5.78-.04.27-.04.7,0,1.29l.15,1.83c.03.42.08.74.13.95.05.21.14.41.28.59.14.18.34.33.59.44.25.11.52.16.79.14.23-.02.43-.08.59-.19.16-.11.29-.26.39-.46l.19.43,1.04-.08-.27-3.31-1.93.15.08.94.33-.03.06.73c.02.29.02.48-.02.58-.03.1-.11.16-.23.17-.11,0-.19-.03-.23-.11-.04-.08-.08-.27-.1-.54l-.24-2.96c-.03-.31-.02-.51,0-.59.03-.08.1-.12.2-.13.12,0,.2.03.23.12.04.09.07.31.1.66l.05.56,1.65-.13-.02-.27ZM89.38,155.95l1.65-.09-.15-2.78c.23-.01.37.02.43.1.06.08.1.28.11.61l.11,2.05,1.53-.08-.09-1.63c-.03-.5-.06-.8-.09-.91-.03-.11-.11-.23-.23-.35-.12-.13-.35-.22-.68-.28.36-.05.6-.16.71-.34.11-.17.16-.5.13-.98-.03-.53-.14-.9-.32-1.14-.19-.23-.42-.37-.7-.41-.28-.04-.81-.05-1.59,0l-1.17.06.34,6.17ZM91.14,150.82c.08.06.12.18.13.38l.02.34c.02.27-.01.43-.08.49-.07.05-.2.08-.39.09l-.08-1.37c.19,0,.32.01.4.07M93.95,149.53l-.62,6.21,1.71-.06.06-1.11.59-.02.13,1.11,1.69-.06-1.17-6.14-2.39.08ZM95.04,153.47c.02-.55.1-1.42.22-2.6.12,1.03.24,1.89.34,2.59l-.57.02ZM96.96,149.43l.02,1.24.98-.02.08,4.94,1.65-.03-.08-4.94.98-.02-.02-1.24-3.61.06ZM101.06,155.55h2.87s0-1.25,0-1.25h-1.21s0-1.36,0-1.36h1.03s0-1.18,0-1.18h-1.03s0-1.17,0-1.17h1.1s0-1.24,0-1.24h-2.76s.02,6.19.02,6.19ZM104.4,155.55l2.09.03c.4,0,.69-.01.89-.05.2-.04.36-.11.5-.21.14-.1.23-.25.29-.43.06-.19.09-.56.1-1.11l.04-2.16c0-.59,0-.98-.04-1.18-.03-.2-.12-.38-.27-.55-.14-.16-.36-.29-.64-.36-.28-.08-.82-.12-1.62-.13l-1.24-.02-.1,6.18ZM106.51,150.51c.06.04.11.1.12.18.02.08.02.26.02.54l-.04,2.4c0,.41-.04.66-.09.76-.06.09-.2.14-.44.13l.07-4.06c.18,0,.3.02.37.06M110.27,155.67l1.65.08.12-2.49.44.02c.36.02.66-.02.88-.1.23-.09.39-.22.48-.39.09-.18.15-.46.17-.86l.03-.54c.02-.39.01-.67-.02-.86-.03-.19-.11-.35-.22-.48-.12-.14-.29-.24-.53-.32-.24-.08-.58-.13-1.03-.15l-1.66-.08-.3,6.17ZM112.59,150.75c.06.07.09.21.08.42l-.02.51c-.01.23-.05.38-.11.45-.06.07-.17.1-.32.09-.03,0-.07,0-.12,0l.08-1.57c.21,0,.35.05.42.12M114.3,155.86l1.65.11.19-2.78c.23.01.37.06.41.15.05.08.06.29.04.62l-.14,2.05,1.53.1.11-1.63c.03-.5.04-.8.02-.91-.02-.11-.08-.24-.19-.38-.1-.14-.32-.26-.64-.36.36,0,.61-.09.75-.25.13-.16.22-.48.25-.96.04-.53-.02-.91-.18-1.17-.16-.25-.37-.41-.64-.49-.27-.08-.8-.14-1.58-.19l-1.17-.08-.42,6.17ZM116.69,150.97c.07.07.09.2.08.39l-.02.34c-.02.27-.07.43-.14.47-.08.04-.21.06-.4.05l.09-1.37c.19.01.32.05.39.12M119.17,149.99l-.55,6.16,1.65.14.55-6.16-1.65-.14ZM124.54,150.48l-.69,2.83-.06-1.59c-.01-.51-.03-.95-.05-1.33l-2.13-.22-.67,6.15,1.44.15.44-4.05.16,4.12,1.02.1,1.02-4.09-.45,4.15,1.44.15.67-6.15-2.14-.22ZM127.97,150.86l-1.67,6.02,1.7.22.25-1.09.59.08-.06,1.11,1.68.21-.1-6.25-2.37-.3ZM128.37,154.92c.12-.54.34-1.38.66-2.53-.06,1.03-.09,1.9-.1,2.61l-.56-.07ZM130.72,157.45l1.64.24.43-2.76c.23.03.36.09.4.18.04.09.04.29-.02.62l-.32,2.03,1.52.22.25-1.61c.08-.49.11-.8.1-.91-.01-.11-.06-.24-.15-.39-.09-.15-.29-.28-.6-.41.36.02.62-.04.76-.19.15-.15.26-.46.33-.93.08-.52.05-.91-.08-1.18-.14-.26-.33-.44-.6-.54-.26-.1-.78-.2-1.55-.32l-1.16-.17-.96,6.11ZM133.53,152.78c.06.07.08.2.05.4l-.05.34c-.04.27-.1.42-.19.46-.08.04-.21.04-.4.02l.21-1.36c.19.03.31.08.38.15M138.11,152.36c-.39.91-.69,1.68-.9,2.32.05-.42.06-1.24.05-2.47l-1.5-.26.43,4.08-.41,2.2,1.51.26.41-2.2,1.91-3.67-1.5-.26ZM144.54,155.26c.1-.48.13-.83.07-1.05-.05-.22-.21-.43-.48-.62-.27-.19-.61-.33-1.03-.42-.39-.08-.73-.08-1.02-.02-.3.07-.53.19-.7.38-.17.19-.3.52-.4.98-.07.32-.08.59-.04.82.04.22.12.41.22.55.11.14.33.39.68.73.35.34.56.57.64.7.08.13.08.37,0,.73-.03.16-.09.28-.16.35-.07.07-.16.1-.27.07-.11-.02-.18-.07-.2-.14-.03-.07-.02-.22.03-.45l.16-.74-1.5-.3-.08.4c-.1.45-.12.81-.08,1.08.04.27.2.51.47.73.27.22.63.38,1.06.46.4.08.76.08,1.08,0,.33-.08.56-.21.71-.39.15-.18.27-.49.36-.92.13-.59.13-1.04,0-1.35-.13-.3-.51-.74-1.14-1.3-.22-.2-.35-.35-.38-.46-.03-.11-.03-.27.01-.47.03-.16.08-.27.15-.34.07-.07.15-.09.25-.07.09.02.15.06.17.13.03.06.02.2-.03.41l-.1.45,1.5.3.05-.24ZM148.95,156.75c.14-.56.19-.99.16-1.27-.03-.29-.18-.56-.45-.81-.26-.25-.63-.43-1.11-.54-.35-.08-.67-.09-.97-.04-.3.05-.55.16-.75.33-.2.17-.34.35-.43.56-.08.21-.18.53-.28.96l-.43,1.76c-.14.59-.2,1.04-.17,1.36.03.32.17.59.44.83.27.24.63.41,1.11.52.45.1.86.09,1.22-.03.36-.12.61-.31.77-.55.15-.24.31-.67.46-1.29l.06-.23-1.61-.37-.18.76c-.08.33-.15.54-.21.62-.06.08-.15.11-.27.08-.13-.03-.19-.09-.21-.19-.01-.1.01-.29.09-.58l.68-2.79c.07-.3.14-.5.2-.58.06-.08.15-.11.29-.08.12.03.18.08.2.17.02.08-.01.28-.09.58l-.26,1.05,1.61.37.14-.57ZM152.28,155.43l-.59,2.13-.48-.12.59-2.13-1.6-.42-1.65,5.97,1.6.42.69-2.51.48.12-.69,2.51,1.6.42,1.65-5.97-1.6-.42ZM157.56,159.58c.19-.61.3-1.04.35-1.29.05-.25.02-.51-.07-.76-.09-.25-.26-.47-.48-.65-.23-.18-.5-.32-.83-.41-.34-.1-.66-.13-.95-.1-.29.03-.55.13-.76.29-.22.16-.38.36-.48.6-.11.24-.25.66-.43,1.25l-.31,1.01c-.19.61-.31,1.04-.35,1.29-.05.25-.02.51.07.76.09.25.26.47.48.65.23.18.5.32.83.41.34.1.66.13.95.1.29-.03.55-.13.76-.29.22-.16.38-.36.48-.6.11-.24.25-.66.43-1.25l.31-1.01ZM155.42,160.91c-.11.35-.19.56-.25.65-.06.08-.14.11-.25.08-.11-.03-.16-.09-.16-.18,0-.09.05-.31.15-.65l.85-2.76c.09-.3.17-.48.24-.53.06-.05.14-.06.22-.04.1.03.15.09.16.17,0,.09-.03.27-.12.54l-.84,2.72ZM161.85,160.96c.21-.6.34-1.03.39-1.28.05-.25.04-.5-.05-.76-.09-.26-.24-.48-.46-.66-.22-.19-.49-.33-.82-.44-.34-.11-.66-.15-.95-.13-.29.03-.55.12-.77.27-.22.15-.39.35-.5.58-.11.24-.27.65-.47,1.24l-.34,1c-.21.6-.34,1.03-.39,1.28-.05.25-.04.5.05.76.09.26.24.48.46.66.22.19.49.33.82.44.34.11.66.15.95.13.29-.03.55-.12.77-.27.22-.15.39-.35.5-.58.11-.24.27-.65.47-1.24l.34-1ZM159.67,162.22c-.12.35-.21.56-.27.64-.06.08-.15.11-.25.07-.1-.03-.16-.1-.16-.18,0-.09.06-.3.17-.64l.94-2.74c.1-.3.19-.48.25-.52.06-.05.14-.06.22-.03.1.03.15.09.15.18,0,.09-.04.27-.13.54l-.93,2.69ZM163.4,158.78l-2.16,5.81,2.5.88.43-1.16-.95-.33,1.73-4.65-1.56-.54Z"/>
        <path class="cls-7" d="M112.01,132.76s.05-.09.07-.13c.52-.08,1.05-.15,1.57-.24,1.5-.27,2.62-1.26,3.72-2.17.97-.8,1.79-1.84,2.48-2.9.73-1.13.47-1.75-.77-2.32-2.36-1.09-4.81-1.23-7.25-.36-1.82.65-3.28,1.8-3.96,3.73-.52,1.47-.12,2.74,1.25,3.42.9.45,1.92.66,2.89.97M121.46,125.74c2.4.07,3.99,1.36,5.39,2.8.72.74,1.32.98,2.24.66.34-.12.72-.12,1.06-.22,2.31-.64,4.46-1.62,6.31-3.18,2.93-2.48,2.96-6.85,1.26-9.77-1.1-1.9-2.71-2.63-4.84-2.06-1.33.35-2.64.91-3.83,1.59-3.2,1.84-5.18,4.81-6.89,7.96-.35.64-.46,1.41-.71,2.21M120.26,125.51c.37-1.06.75-1.92.96-2.83.22-1.01.27-2.05.41-3.08.49-3.61-.26-6.96-2.13-10.06-.67-1.11-1.55-2.06-2.83-2.52-1.96-.71-3.64,0-5.21,1.07-2.07,1.41-3.5,3.27-3.39,5.92.16,3.84,2.03,6.91,4.55,9.64.1.11.32.16.49.16.81,0,1.64-.12,2.44-.03,1.6.17,3.23.33,4.71,1.73M121.76,106.3c-.29-.16-.7-.25-.85-.49-.12-.21-.05-.76.12-.87.28-.18.89-.29,1.04-.12.36.39.76.96.75,1.45-.02.62-.54,1.08-1.27,1.11-1.08.04-1.96-.77-2-1.83-.04-1.32.68-2.15,1.87-2.21,1.6-.08,2.66.81,3.47,2,1.74,2.56,1.81,5.27.53,8.05-.11.24-.19.5-.29.75.08.03.15.06.23.09.2-.51.39-1.03.61-1.53,1.25-2.98,4.06-4.75,7.09-4.47,1.02.1,1.94.81,2.19,1.69.23.81-.12,1.76-.85,2.29-.99.72-2.42.29-2.75-.83-.18-.61.05-1.1.56-1.45.48-.33,1-.47,1.44-.02.19.19.33.6.26.85-.07.26-.4.57-.66.63-.21.05-.5-.26-.76-.4.05-.07.1-.14.15-.21.1.09.19.25.3.25.2,0,.47-.01.58-.13.12-.12.18-.46.09-.58-.13-.18-.47-.39-.61-.33-.36.16-.86.42-.92.71-.06.38.14.95.43,1.2.55.49,1.57.22,2-.4.59-.85.48-1.71-.3-2.3-1.05-.79-2.19-.69-3.36-.36-2.72.76-4.52,2.64-4.98,5.26-.29,1.67-.9,3.2-1.34,5.08.36-.41.57-.64.77-.87,2.16-2.55,4.75-4.39,8.12-4.98,2.23-.39,4.38,1,5.36,3.52,1.76,4.55.15,8.64-4.33,10.99-2,1.05-4.14,1.66-6.49,2.01,1.11,1.58,1.4,3.31,1.18,5.13-.2,1.72-.97,3.22-3.03,3.44.17-.25.24-.49.38-.53,1.68-.5,2.04-1.93,2.12-3.34.21-3.73-2.28-7.14-5.85-8.28-1.38-.44-1.94-.17-2.25,1.24-.64,2.94-.33,5.77,1.46,8.25.94,1.31,2.75,1.92,4.55,2.2-.18.08-.23.5-.39.47-1.8-.34-3.95-1.11-4.85-2.76-.6-1.09-.98-2.29-1.44-3.4-.27.74-.61,1.64-.94,2.53-.28.75-.79,1.1-1.34.91-.55-.19-.77-.81-.5-1.56.53-1.52,1.09-3.03,1.57-4.34-1.19.86-2.42,1.93-3.82,2.7-1.73.96-3.62.86-5.43.07-2.42-1.05-3.02-3.02-1.66-5.29.96-1.61,2.42-2.68,4.55-3.29-1.57-1.72-2.88-3.58-3.79-5.71-.94-2.19-1.41-4.39-.59-6.76.95-2.77,4.77-5.5,7.44-5.33,1.88.12,3.21,1.08,4.22,2.55,1.68,2.45,2.45,5.19,2.54,8.14.03,1.09,0,2.17,0,3.15.53-1.47,1.08-3.09,1.7-4.68.17-.44.53-.81.81-1.2.08-.11.22-.18.27-.3,1.51-3.29,1.65-6.37-1.27-9.23-.48-.47-1.26-.73-1.94-.86-.92-.17-1.57.48-1.7,1.46-.1.75.46,1.63,1.25,1.74.35.05.89-.12,1.09-.38.2-.26.21-.83.05-1.14-.12-.25-.61-.33-.96-.42-.05-.01-.34.47-.28.56.16.23.45.37.69.55,0,.05-.02.11-.02.16"/>
      </g>
    </g>
  </g>
</svg>