<?xml version="1.0" encoding="UTF-8"?>
<svg id="Layer_2" data-name="Layer 2" xmlns="http://www.w3.org/2000/svg" viewBox="0 0 150 151.9">
  <defs>
    <style>
      .cls-1 {
        fill: #353179;
      }

      .cls-2 {
        fill: #2c2875;
      }

      .cls-3 {
        fill: #2e2975;
      }

      .cls-4 {
        fill: #262172;
      }

      .cls-5 {
        fill: #231e70;
      }

      .cls-6 {
        fill: #d8d8e1;
      }

      .cls-7 {
        fill: #03aded;
      }

      .cls-8 {
        fill: #ecf5fc;
      }

      .cls-9 {
        fill: #b2dcf7;
      }

      .cls-10 {
        fill: #2a2674;
      }

      .cls-11 {
        fill: #262171;
      }

      .cls-12 {
        fill: #73c3f1;
      }

      .cls-13 {
        fill: #00aced;
      }

      .cls-14 {
        fill: #282372;
      }

      .cls-15 {
        fill: #302b77;
      }

      .cls-16 {
        fill: #0cabea;
      }

      .cls-17 {
        fill: #242373;
      }

      .cls-18 {
        fill: #d7ecfa;
      }

      .cls-19 {
        fill: #423f7e;
      }

      .cls-20 {
        fill: #292473;
      }

      .cls-21 {
        fill: #241f70;
      }

      .cls-22 {
        fill: #54518a;
      }

      .cls-23 {
        fill: #2c2774;
      }

      .cls-24 {
        fill: #221e70;
      }

      .cls-25 {
        fill: #01aced;
      }

      .cls-26 {
        fill: #252171;
      }

      .cls-27 {
        fill: #f8fbfd;
      }

      .cls-28 {
        fill: #2b2774;
      }

      .cls-29 {
        fill: #201b6f;
      }

      .cls-30 {
        fill: #282473;
      }

      .cls-31 {
        fill: #322e78;
      }

      .cls-32 {
        fill: #02aded;
      }
    </style>
  </defs>
  <g id="Layer_1-2" data-name="Layer 1">
    <g>
      <path class="cls-29" d="M116.25,52.2c-4.07,2.36-8.33,3.3-12.93,1.74-.47.06-.7.77-1.3.48-4.13-2.95-12.73-2.44-18.21,1.06-1.26.81-2.27,1.81-2.71,3.55,1.94-.38,3.77-.85,5.62-1.07,5.87-.7,10.87,1.27,15.31,5.06,1.67,1.43,3.02,3.27,5.08,4.23.52.28.29.89.56,1.27,1.84,1.67,3.66,3.36,5.53,4.99.76.66,1.44,1.6,2.69,1.36.22.1.43.23.62.39.47.4.93.8,1.26,1.32,2.61,1.08,5.33,1.24,8.02.53,1.49-.39,3.59-.53,2.52-3.27-.44-1.13.8-2.08,1.63-2.91,1.24-1.24,2.38-2.52,1.93-4.64,4.11,3.59,3.43,7.68-1.32,9.71-1.22.52-2.18,1.63-3.39,2.17-3.4,1.49-6.82,1.12-10.2-.22-.88-.35-1.6-1.15-2.67-1.02-.94-.33-1.37-1.11-1.75-1.94-1.4-1.17-2.79-2.34-4.19-3.52-.2.21-.4.2-.6-.01-2.17-4.05-5.95-6.24-9.81-8.44,2.55,1.42,2.7,3.75,2.62,6.19-.04,1.34.74,2.32,1.75,3.33-2.64.39-4.6-.58-5.95-2.53-1.2-1.73-1.21-3.56.15-5.41,1.12-1.51.61-2.6-1.22-3.29-3.41-1.29-6.8-1.48-10.26-.34-.48.29-.7.92-1.31,1.04-2.98,2.53-3.97,5.96-4.02,9.64-.12,8.84-.07,17.69-.08,26.53,0,.87.03,1.75.14,2.62.75,6.02,2.22,6.91,7.79,4.73,8.22-3.22,16.66-4.4,25.42-2.92-1.24,1.81-3.2.12-4.65.95-6.66.27-12.8,2.31-18.55,5.56-8.18,4.62-16.55,8.81-26.09,9.51-21.31,1.57-42.04-.27-60.94-11.53-.93-.55-2.13-.86-2.74-2.32,2.93,1.06,5.63,2.03,8.32,3,1.92-.56.95-1.73.56-2.75-3.48-9.02-5.34-18.34-5.05-28.02.6-19.71,7.76-36.59,21.88-50.46,11.94-11.73,26.35-18.3,42.87-20.09,6.47-.7,13.06-.64,19.53.61,1.17.23,2.64.24,2.94,1.91-.36,1.72-.26,3.47-.12,5.47-6.04-1.23-11.99-1.73-18.02-1.55-29.51.9-56.47,24.62-61.28,53.71-2.44,14.74-.34,28.65,6.38,41.95,1.14,2.25,2.51,3.51,5.1,4.1,10.32,2.36,20.73,3.36,31.3,2.74,1.18-.86,2.56-.72,3.91-.84,4.21-.39,8.32-1.04,11.18-4.68,2.22-2.83,2.4-6.27,2.82-9.63.15-1.25.05-2.53.88-3.61.77-6.04.86-12.11.97-18.18-1.06-2.62-.49-5.37-.59-8.06-.13-3.48-1.33-5.13-4.71-6.01-2.17-.56-4.37-.89-6.61-.31-1.18.31-2,.82-1.44,2.24-.02,3.72-1.05,4.85-4.95,5.06,1.59-1.72,1.16-3.79,1.56-5.68.48-1.06-.16-.95-.84-.81-2.56.86-4.56,2.6-6.49,4.36-.97.89-2.09,2.11.26,2.95,1.03.37,1.27,1.43,1.42,2.4.24,1.63.69,3.14,2.27,4.29-5.36.17-6.77-1.7-5.78-7.52-2.14.81-3.5,2.49-5.07,3.78-.96.79-.58,2.21-.14,3.27,2.14,5.11.03,8.24-5.84,8.16,1.43-1.08,2.07-2.34,2.01-3.97-.07-1.75-.13-3.54,1.87-4.49.46-.22.72-.76.25-1.19-.48-.44-.81.08-1.2.35-3.22,2.22-6.55,4.24-10.43,5.06-3.31.7-6.44.59-8.59-2.62-.15-.23-.37-.44-.59-.6-4.43-3.14-4.18-6.87,1.03-10.08-.93,2.09-.39,3.73.62,5.29.54.84,1.09,1.85.72,2.75-1.25,3.03.97,3.61,2.89,3.83,4.01.47,7.63-.64,10.53-3.64l-.05.06c2.77-.45,4.36-2.66,7.05-4.36-2.19-.64-4.06-.52-5.16-2.04-1.09-1.49-1.49-3.13-1.15-5.21,1.17,1.55,2.56,2.2,4.31,2.34.92.07,2.19.23,2.51,1.23.82,2.52,2.02,1.56,3.02.35,1.63-1.98,4.25-3.04,5.16-5.66.06-.08.12-.16.18-.24.98.26,1.64-.36,2.38-.83,7.21-4.56,11.48-5.04,19.31-2.21-.41-3.31-3.84-5.9-8.15-6.18-3.45-.22-6.83.29-10.12,1.23-5,1.43-9.94,1.91-14.91-.02-.71-.28-1.34,0-1.99.19-.22-.12-.41-.27-.58-.46-.51-.7-1.01-1.42-1.18-2.3-1.52-2.34-2-4.88-1.49-7.61.12-.65.36-1.31-.33-1.81-.16-.11-.21-.22-.15-.32.06-.1.11-.15.17-.15.48-.1.88-.23,1.1-.78,2.26-5.67,6.73-7.64,12.49-7.4,1.37.06,2.51.42,3.34-1.48.72-1.63,3.63-1.17,4.57-4.13.4,2.9.71,4.9-1.38,6.21-1.7,1.06.21,1.2.37,1.78.17.56-.18.8-.61.99-1.5.26-2.88-.35-4.27-.69-3.84-.94-7.32-.39-10.34,2.3-.53.47-.98.99-1.27,1.64-3.51,7.83-.76,12.47,7.8,13.14.97.08,1.95.04,2.92-.02.56-.06,1.08-.26,1.63-.37,1.97-.52,4-.79,5.87-1.66.23-.15.48-.24.76-.28.75.83,1.65.69,2.65.56,5.71-.77,11.5-1.73,15.84,3.58.82,1,1.16,0,1.53-.39,3.37-3.66,7.71-5.03,12.49-5.36,1.41-.1,2.49-.07,2.29-2.24-.19-2.05,2.89-2.85,2.63-5.59,2.09,2.42,2.46,4.5.49,6.69-.25.39-1.51.82.05,1.14,1.36.04,2.62.83,4.02.52.37.09.49.48.79.66,2.5.03,4.83,1.98,7.45.68-.25-.59.07-.67.55-.62.58,1.17,1.46.91,2.47.63,5.55-1.56,7.55-7.05,4.36-11.98-1.15-1.77-2.82-2.92-4.47-4.11-.76,0-1.36-.29-1.78-.94-.74-.24-1.48-.49-2.22-.73,0-1.08.62-.71,1.18-.51.29.02.63-.04.86.08,2.68,1.46,2.61-.06,2.15-1.97-.15-.64-.42-1.26-.62-1.87,2.86-.34,4.62,1.56,3.37,4.1-.71,1.44-.41,2.09.71,2.81,2.14,1.39,2.66,4.1,4.59,5.67.16.1.22.2.16.3-.06.1-.11.15-.17.15-.66,2.67-.88,5.46-2.35,7.88.03.63-.27.79-.82.57Z"/>
      <path class="cls-25" d="M91.06,8.96c-2.51-1.82-5.55-1.59-8.35-1.85C49.89,4.08,19.44,23.61,8.61,54.77c-6,17.25-5.35,34.43,1.6,51.35.32.78.95,1.49.7,2.58-.99.03-1.82-.35-2.58-.93-2.75-6.8-4.61-13.83-5.62-21.09-.98-10.38-.09-20.57,3.06-30.52.88-2.77,1.95-5.48,2.94-8.21,4.81-9.71,10.92-18.45,19.27-25.47C44.07,8.94,62.59,3.02,83.58,5.05c1.84.18,3.66.61,5.51.68,2.47.09,3.03,1.12,1.98,3.24Z"/>
      <path class="cls-32" d="M85.75,24.09c3.42,9.69-2.71,16.67-10.19,17.52-3.8.43-4.52-.58-3.1-3.89-1.29-.66-1.37,1.14-2.3,1.11-.99-2.78-.21-4.67,2.54-6.31,1.79-1.06,3.84-1.36,5.76-2,3.18-1.07,5.72-2.84,7.28-6.43Z"/>
      <path class="cls-7" d="M96.66,16.96c-1.64,1.56-2.26-.12-2.84-1.05-2.83-4.6.2-12.01,5.39-13.4,1.1-.29,1.94-.25,1.21,1.15-1.45,2.8-.56,5.51.05,8.27.52,2.35.33,4.49-2,5.87-.89.52-1.25.18-1.12-.8-.16-.55.03-1.05.26-1.53.27-1.04.15-2.08.11-2.51.03.16.06.94,0,1.73-.14.86-.55,1.59-1.07,2.27Z"/>
      <path class="cls-5" d="M38.62,55.13c.02.26.04.52.06.78-.42.23-.89.39-1.24.69-4.42,3.77-8.05,2.69-9.84-3.21,2.88,2.63,5.81-.33,8.64.49.82.37,1.58.84,2.38,1.26Z"/>
      <path class="cls-24" d="M100.65,29.99c1.31.81,3.28,1.01,3.04,3.27.28.26.25.49-.07.69-1.5,1.58-3.24,1.65-5.02.64-2.89-1.63-2.83-4.34-2.46-7.65,1.24,1.81,2.5,3.11,4.51,3.06Z"/>
      <path class="cls-20" d="M57.86,53.45c-.26-.27-.48-.63-.79-.81-3.8-2.15-4.11-4.78-.89-7.8.53,1.4.97,2.84,1.96,4.04.95,1.16.99,2.42-.07,3.6-.07.32-.14.65-.21.97Z"/>
      <path class="cls-4" d="M108.84,52.12c-.18.21-.36.41-.55.62-4.07-2.46-4.37-5-.57-8.47-.49,2.97,3.47,4.79,1.12,7.86Z"/>
      <path class="cls-17" d="M105.62,13.69c-1.55,1.62-.16,3.97-1.43,5.66-2.24-.73-2.89-2.21-2.31-4.48.26-1,.04-2.13.04-3.19,1.92-.6,3.14.09,3.7,2.01Z"/>
      <path class="cls-10" d="M109.42,35.72c.59.31,1.19.63,1.78.94-1.04-.07-1.49.62-1.99,1.39-1.74,2.7-3.63,2.88-6.44.65,1.96-1.61,4.43-2.03,6.65-2.99Z"/>
      <path class="cls-26" d="M51.98,63.97c-1.05,1.15-2.24,1.39-3.59.56-1.11-.69-2.36-.7-3.63-.71,2.4-3.88,4.94-3.9,7.41-.1-.05.09-.11.17-.18.24Z"/>
      <path class="cls-2" d="M35.11,43.25c.02.16.01.32-.01.48-4.99-.68-5.78-1.72-4.46-6.38.7,2.82,4.95,2.4,4.48,5.9Z"/>
      <path class="cls-21" d="M36.28,77.25c-4.63.16-5.9-1.45-4.43-5.67,1.18,2.15,4.46,2.64,4.38,5.73,0,0,.05-.06.05-.06Z"/>
      <path class="cls-16" d="M105.62,13.69c-.86-1.36-2.36-1.53-3.7-2.01-1.34-3.33.9-1.99,2.29-1.75.23.16.45.41.71.47,2.49.63,2.47,1.77.71,3.29Z"/>
      <path class="cls-1" d="M100.84,52.05c-.26-.22-.53-.44-.79-.66-.72-1.81,1.25-2.66,1.48-4.32,2.05,2.13.58,3.54-.69,4.98Z"/>
      <path class="cls-22" d="M103.62,33.94c.02-.23.05-.46.07-.69,1.45.85,3.29.18,4.69,1.23-.39.17-.78.34-1.18.51-1.19-.35-2.39-.7-3.58-1.05Z"/>
      <path class="cls-6" d="M38.62,55.13c-1.41.74-1.77-.5-2.38-1.26.23-.24.45-.48.68-.72.62.61,1.74.8,1.7,1.98Z"/>
      <path class="cls-27" d="M96.66,16.96c.21-.77.42-1.53.63-2.3,1.03,0,.8.55.48,1.13-.14.41-.28.81-.42,1.22-.23-.01-.46-.03-.69-.04Z"/>
      <path class="cls-19" d="M56.71,39.2c-.61-.36-1.23-.71-1.84-1.07.24-.23.49-.46.73-.68.86.27,1.51.68,1.11,1.75Z"/>
      <path class="cls-29" d="M115.98,21.09c.77-.23,1.53-.46,2.3-.68,1.35-.16,2.15.81,3.03,1.53,15.13,12.34,24.19,28.17,26.43,47.58,2.75,23.83-4.51,44.4-21.74,61.06-11.93,11.53-26.38,18.11-43.09,19.61-22.04,1.99-40.86-5.04-57.04-19.78-1.46-1.33-3.2-2.21-4.87-3.21-6.4-2.52-12.86-4.93-18.89-9.15,1.36-.3,2.11.28,2.92.6,17.68,7.07,35.95,11.33,55.08,11.56,9.79.12,19.13-1.55,27.99-5.89,7.34-3.6,14.83-6.88,23.15-7.57,4.58-.38,9.11-.29,13.58.92-.13.5-.45.85-.9,1.07-1.51.54-3.09.41-4.64.35-5.83-.25-11.15,1.46-16.33,3.93-6.07,2.9-11.81,6.5-18.26,8.58-5.51,1.77-11.14,2.76-16.96,2.78-8.89.03-17.75-.07-26.97-1.87,9.51,5.9,19.32,9.34,30.09,10.25,11.26.95,21.93-1.06,32.18-5.62,8.9-3.96,16.21-10.04,22.66-17.23.52-.58.94-1.25,1.64-1.65.27-.17.56-.29.87-.36,20.44-25.44,19.43-72.11-17.19-95.35.7-.15,1.33-.28,1.95-.41.71-1.21,2.08-.51,3.02-1.05Z"/>
      <path class="cls-13" d="M21.01,127.2c2.5.35,4.4,1.61,6.28,3.34,11.99,11.05,26.08,17.4,42.4,18.95,35.99,3.41,69.27-20.97,76.26-56.25,5.59-28.22-3.05-51.87-24.97-70.6-.89-.76-1.8-1.49-2.7-2.24,1.27-1.49,2.34-.97,3.66.1,16.73,13.65,25.96,31.22,27.77,52.72.08.97.2,1.94.3,2.9,0,13.9-2.72,27.2-10.06,39.11-15.73,25.54-38.69,37.98-68.75,36.55-18.52-.88-34.19-8.5-47.39-21.4-.35-.34-.74-.63-1.11-.95-.56-.75-1.12-1.5-1.69-2.25Z"/>
      <path class="cls-32" d="M109.49,21.13c-.71-.34-1.42-.66-1.09-1.67.19-.95.63-1.76,1.55-2.74-.93.85-1.26,1.79-2.22,2.01-1.46-.86-1.7-2.07-.67-3.84,1.26-2.16,3.36-3.11,5.63-3.84,3.62-1.17,6.77-2.94,8.13-6.85,3.65,5.46,1.1,12.31-6.02,16.37-1.62,1.59-3.51.63-5.31.56Z"/>
      <path class="cls-7" d="M129.42,5.85c-.55-1.62-.37-2.25.99-3.14,1.46-.96,3.09-1.08,4.77-.93,4.48.41,5.19.26,8.74-1.77.15,6.32-5.92,11.08-11.84,9.13-1.03-.34-3.37-.35-2.11-2.74.1-.21.37-.42.12-.65-.22-.21-.47-.07-.67.11Z"/>
      <path class="cls-5" d="M116.25,52.2c.27-.19.55-.38.82-.57,1.44-1.92,3.44-2.26,5.61-1.82,1.41.29,2.65-.09,4.41-.89-.47,2.48-1.33,4.13-3.23,5.1-1.77.9-3.64.98-5.14-.42-.76-.71-1.75-.76-2.47-1.39Z"/>
      <path class="cls-11" d="M116.02,75.67c-.04-.27-.08-.54-.12-.81.44-.47.91-.93,1.32-1.43,2.47-2.97,5.5-2.5,7.53,1.43-2.45-.65-4.18,1.33-6.42,1.21-.74-.3-1.5-.47-2.31-.4Z"/>
      <path class="cls-11" d="M102.02,54.42c.43-.16.86-.32,1.3-.48-.05.08-.1.17-.14.25,2.84.99,2.84,4.58,5.43,5.98-1.63,1.24-3.28.89-4.79-.02-1.34-.81-1.85-2.14-1.61-3.76.09-.63-.11-1.31-.17-1.97Z"/>
      <path class="cls-21" d="M83.71,61.98c.28-.54.68-.94,1.31-1.04,0,.29,0,.57,0,.86,2.91-.51,4.46,2.12,6.81,2.92-2.61,2.6-4.97,2.21-6.59-1.09-.35-.71-.8-1.3-1.53-1.65Z"/>
      <path class="cls-28" d="M107.67,68.52c-.51-.28-.57-.76-.56-1.27.37-1.56,1.28-2.57,2.92-2.75,1.13-.12,1.91-.79,2.65-1.61.6,3.78-.46,5.04-4.23,5.05-.45,0-.72.11-.77.58Z"/>
      <path class="cls-30" d="M107.74,71.44c.2,0,.4,0,.6.01.18,4.69-.91,5.89-5.68,5.75,2.73-1.33,1.6-5.39,5.08-5.76Z"/>
      <path class="cls-23" d="M119.43,43.75c-.02-.15-.02-.3,0-.44-.8-3,3.06-2.93,3.25-5.47,1.89,3.73,1.05,5.12-3.25,5.91Z"/>
      <path class="cls-11" d="M112.53,74.97c.82.44,1.7.81,1.75,1.94,1.09,1.25.5,3.23,2.2,4.34-3.67,0-4.47-.85-4.09-3.99.09-.76.09-1.52.14-2.28Z"/>
      <path class="cls-3" d="M108.32,103.55c1.37-1.21,3.26.17,4.65-.95,1.18.17,2.35.33,3.53.5.15.14.21.28.16.42-.04.15-.09.22-.14.22-2.73-.07-5.47-.13-8.2-.2Z"/>
      <path class="cls-29" d="M128.2,117.9l-.52.4c-1.22.66-2.43,1.19-3.56-.16.23-.16.47-.31.7-.47,1.13.08,2.25.16,3.38.23Z"/>
      <path class="cls-14" d="M50.15,55.57c.09-.35.33-.64-.01-1.05-2.46-2.9-2.27-4.27,1.14-6.6-.85,2.55,1.89,4.68.2,7.12-.44.18-.89.35-1.33.53Z"/>
      <path class="cls-15" d="M39.71,39.82c1.62-.29,3.22-.45,4.86.04.55.17,1.36.08,1.42.7.04.43-.5,1.01-.92,1.37-1.29,1.08-2.71,1.16-3.96.02-.76-.69-1.43-1.31-2.53-1.04.2-.55.59-.9,1.13-1.09Z"/>
      <path class="cls-31" d="M43.12,47.23c.85,1.89,1.05,3.71-1.19,4.86-.62.32-1.63.63-2.12-.08-.52-.75-.29-1.66.49-2.32.94-.8,1.86-1.62,2.82-2.45Z"/>
      <path class="cls-9" d="M76.66,34.53c.78-.78,1.8-.69,2.97-1.09-.56,1.4-1.52,1.46-2.4,1.65-.27-.11-.46-.29-.58-.55Z"/>
      <path class="cls-18" d="M75.62,35.77c-.62.55-1.17,1.25-2.34.95.07-1.09.96-1.21,1.67-1.5.27.13.61.17.67.55Z"/>
      <path class="cls-8" d="M75.62,35.77c-.22-.18-.45-.37-.67-.55.57-.23,1.14-.46,1.72-.69.19.18.38.37.58.55-.54.23-1.08.46-1.62.69Z"/>
      <path class="cls-12" d="M97.32,9.92c-1.4-1.57.05-2.49.1-3.58.47,1.1.5,2.17-.1,3.58Z"/>
    </g>
  </g>
</svg>